<svg xmlns="http://www.w3.org/2000/svg" viewBox="0 0 551.2 91"><defs><style>.cls-1{fill:#fff;}</style></defs><title>bridge_anticog_1</title><g id="Layer_2" data-name="Layer 2"><g id="Layer_1-2" data-name="Layer 1"><g id="Layer_2-2" data-name="Layer 2"><path class="cls-1" d="M8,17.1c0-6.9-.4-8.6-4.5-9l-3-.3a1.52,1.52,0,0,1,.1-2.3c5-.5,11.3-.7,19.9-.7,5.8,0,11.4.5,15.6,2.6,4,1.9,7,5.7,7,11.6,0,6.7-3.9,10.1-9.5,12.7,0,.9.7,1.2,1.8,1.4a15.34,15.34,0,0,1,12.4,15.5c0,10.8-8,18-24.7,18-2.7,0-7.2-.3-11.1-.3-4.1,0-7.2.2-10.7.3-.6-.3-.7-1.8-.2-2.3l1.7-.3c4.9-.8,5.1-1.9,5.1-11.6L8,17.1Zm7.6,12.3c0,2.6.1,2.8,4.8,2.6,9.5-.4,14.6-3.2,14.6-11.9,0-9.1-6.8-12.5-13.8-12.5a11.21,11.21,0,0,0-4.3.6c-.9.3-1.3.7-1.3,2.4Zm0,21.5c0,3.3.2,8.1,1.9,10.1s4.5,2.6,7.3,2.6c8.3,0,14.6-3.7,14.6-13,0-7.3-3.7-15.9-18.4-15.9-5,0-5.4.6-5.4,2.4V50.9Z"/><path class="cls-1" d="M60.18,39.6c0-3.6,0-4.1-2.5-5.7l-.8-.6a1.24,1.24,0,0,1,.1-1.7,87.9,87.9,0,0,0,9.4-4.5c.5.1.7.3.7.6v5.4c0,.5.1.7.3.8,3.2-2.7,6.8-5.6,10.2-5.6,2.3,0,4.2,1.5,4.2,3.7a4.12,4.12,0,0,1-4,4.3,3.94,3.94,0,0,1-2-.6,8,8,0,0,0-4.1-1.5,3.82,3.82,0,0,0-3.3,1.9c-.9,1.3-1.2,4-1.2,7.1V55.8c0,6.7.2,7.8,3.7,8.1l3.3.3a1.6,1.6,0,0,1-.2,2.3c-4.4-.2-7-.3-10.3-.3s-6.1.1-8.5.3c-.6-.3-.8-1.9-.2-2.3l1.8-.3c3.4-.6,3.5-1.4,3.5-8.1l-.1-16.2Z"/><path class="cls-1" d="M91,39.6c0-3.6,0-4.1-2.5-5.7l-.8-.6a1.24,1.24,0,0,1,.1-1.7,68,68,0,0,0,9.5-4.5.8.8,0,0,1,.9.6c-.2,3.2-.4,7.7-.4,11.5V55.9c0,6.7.2,7.6,3.5,8.1l1.9.3a1.6,1.6,0,0,1-.2,2.3c-2.8-.2-5.5-.3-8.7-.3s-6.1.1-8.7.3c-.6-.3-.8-1.9-.2-2.3l1.9-.3c3.4-.5,3.5-1.4,3.5-8.1L91,39.6Zm7.7-26.4c0,3.3-2.3,4.8-4.9,4.8a4.49,4.49,0,0,1-4.7-4.6,4.78,4.78,0,0,1,5-5A4.57,4.57,0,0,1,98.68,13.2Z"/><path class="cls-1" d="M145,52.7c0,7.3.1,10.8,2.7,10.8a18.44,18.44,0,0,0,4-.9c.6.2.7,2.5-.1,3a65.94,65.94,0,0,0-12.2,3c-.6,0-1-.3-1-.7V66.3a9.88,9.88,0,0,0-.2-2.9h-.4c-4.1,2.8-7.2,4.3-11.7,4.3-10.3,0-17.2-8.1-17.2-17.8,0-13,9.8-21.3,22.4-21.3a21.13,21.13,0,0,1,6.2.8c.5,0,.6-.6.6-1.3v-14c0-5.5-.1-6-2.9-7.7l-.9-.6a1.39,1.39,0,0,1,0-1.9,57.68,57.68,0,0,0,10-3.9,1,1,0,0,1,.9.6c-.1,2.8-.3,7.4-.3,11.5V52.7Zm-6.8-13.9a5.53,5.53,0,0,0-1-3.6,9.87,9.87,0,0,0-7.8-3.9c-8.4,0-12.8,7.3-12.8,15.4,0,8.4,4.7,16.4,13.8,16.4,2.5,0,5.7-1.1,7.1-2.6.6-.6.6-1.9.6-3.4l.1-18.3Z"/><path class="cls-1" d="M194.28,31.7c1,.5.8,3.6-.6,3.8H187a37.75,37.75,0,0,1,.2,4.7c0,6.4-3.8,14.7-15.6,14.7a38.83,38.83,0,0,1-4.1-.3c-1.1.6-4.1,2.4-4.1,5.1,0,2.1,2.1,3.9,6.5,3.9,3.2,0,7-.3,11-.3,5.2,0,13,.9,13,10.2,0,10.1-11,17.5-23.1,17.5-11.4,0-15.4-6.1-15.4-10.8a5.3,5.3,0,0,1,1-3.4c1.6-1.7,4.2-4.1,6.3-6.2.8-.8,1.6-1.7.7-2.2-3.6-.9-6.8-4.1-6.8-7.3,0-.5.4-.8,1.4-1.6a27,27,0,0,0,4.9-4.3,3.39,3.39,0,0,0,.9-1.8,12.59,12.59,0,0,1-7-11.2c0-8,6.9-14,15.1-14a21.78,21.78,0,0,1,8.9,1.9c3,1.3,3.6,1.5,5.7,1.5l7.8.1Zm-19.4,37.5c-3,0-6.7.2-8,1a9.67,9.67,0,0,0-4.5,7.8c0,5,4,9.2,12.4,9.2s13.7-4.6,13.7-9.9c0-5.7-3.9-8.1-10.6-8.1Zm5.7-26.6c0-6.3-2.6-11.6-8.3-11.6-4.5,0-7.8,4.1-7.8,10.4,0,6.6,4,10.8,8.4,10.8C178,52.3,180.58,48.3,180.58,42.6Z"/><path class="cls-1" d="M206.28,42.5c-2.4,0-2.5.2-2.5,2.5,0,9.4,5.5,17.3,15.4,17.3,3.1,0,5.7-.9,8.5-4.5a1.26,1.26,0,0,1,1.7,1.1c-3.1,6.3-9.7,8.6-14.6,8.6-6,0-10.8-2.6-13.4-6.1a19.63,19.63,0,0,1-3.9-12.1c0-11.4,7.5-21,18.6-21,8,0,13.2,5.5,13.2,11a5.39,5.39,0,0,1-.4,2.4c-.3.6-1.6.6-5.5.6l-17.1.2Zm5.8-2.8c6.9,0,8.9-.4,9.6-.9.3-.2.6-.6.6-1.8,0-2.6-1.8-5.8-7.1-5.8-5.5,0-10.2,5-10.3,8.1,0,.2,0,.5.6.5h6.6Z"/><path class="cls-1" d="M268.68,44.7c-.6-2-1-2.3-3.8-2.3h-14c-2.3,0-2.9.3-3.5,2.2l-3.2,9.7c-1.4,4.2-2,6.7-2,7.7s.5,1.7,2.7,1.9l3.1.3a1.53,1.53,0,0,1-.2,2.3c-2.4-.2-5.3-.2-9.6-.3-3.1,0-6.4.2-8.9.3a1.83,1.83,0,0,1-.2-2.3l3.1-.3c2.2-.2,4.3-1.2,5.6-4.5,1.7-4.3,4.3-10.3,8.2-20.7l9.5-25c1.3-3.3,1.9-5.1,1.6-6.6a10,10,0,0,0,4.8-3.5,1.34,1.34,0,0,1,1.4.8c1.2,4.1,2.7,8.3,4.1,12.4l12.7,37.3c2.7,8,3.9,9.4,7.9,9.8l2.5.3a1.81,1.81,0,0,1,0,2.3c-3.8-.2-7-.3-11.2-.3-4.5,0-8,.2-10.7.3a1.61,1.61,0,0,1-.2-2.3l2.7-.3c1.9-.2,3.2-.7,3.2-1.7a20.74,20.74,0,0,0-1.2-4.9Zm-18.3-8.3c-.7,2.1-.6,2.2,1.9,2.2h11.4c2.7,0,2.9-.4,2-2.9l-5-15.1c-.7-2.2-1.6-4.7-2.1-5.8h-.2a52,52,0,0,0-2.2,5.5Z"/><path class="cls-1" d="M297.78,39.6c0-3.6,0-4.1-2.5-5.7l-.8-.6a1.24,1.24,0,0,1,.1-1.7,56.84,56.84,0,0,0,9.3-4.5,1.1,1.1,0,0,1,1,.6,42.65,42.65,0,0,0-.2,4.4.94.94,0,0,0,1,1c3.9-2.4,8.3-4.7,13-4.7,7.7,0,10.8,5.3,10.8,11.5V55.8c0,6.7.2,7.6,3.5,8.1l2,.3a1.6,1.6,0,0,1-.2,2.3c-2.8-.2-5.5-.3-8.7-.3s-6.1.1-8.6.3c-.6-.3-.8-1.9-.2-2.3l1.8-.3c3.4-.6,3.5-1.4,3.5-8.1V42c0-5.3-2.4-9.2-8.7-9.2-3.5,0-6.6,1.5-7.9,3.2s-1.4,2.9-1.4,5.6V55.8c0,6.7.2,7.5,3.5,8.1l1.7.3a1.6,1.6,0,0,1-.2,2.3c-2.5-.2-5.2-.3-8.4-.3s-6.1.1-8.7.3c-.6-.3-.8-1.9-.2-2.3l1.9-.3c3.4-.5,3.5-1.4,3.5-8.1l.1-16.2Z"/><path class="cls-1" d="M354.08,33.6c-1.6,0-1.7.3-1.7,2.2V53.1c0,5.4.6,10.3,6.8,10.3a6.55,6.55,0,0,0,2.5-.5c.8-.3,2-1.3,2.3-1.3.7,0,1.1,1,.9,1.6a13,13,0,0,1-9.7,4.3c-8,0-9.6-4.5-9.6-10V36.3c0-2.5-.1-2.7-1.9-2.7H341a1.53,1.53,0,0,1-.3-1.9,16,16,0,0,0,5.9-2.9,21.49,21.49,0,0,0,3.9-5.5c.5-.2,1.6-.2,1.9.5V28c0,1.7.1,1.8,1.7,1.8h10.3c1.1.8.9,3.3.1,3.9l-10.4-.1Z"/><path class="cls-1" d="M375,39.6c0-3.6,0-4.1-2.5-5.7l-.8-.6a1.24,1.24,0,0,1,.1-1.7,68,68,0,0,0,9.5-4.5.8.8,0,0,1,.9.6c-.2,3.2-.4,7.7-.4,11.5V55.9c0,6.7.2,7.6,3.5,8.1l1.9.3a1.6,1.6,0,0,1-.2,2.3c-2.8-.2-5.5-.3-8.7-.3s-6.1.1-8.7.3c-.6-.3-.8-1.9-.2-2.3l1.9-.3c3.4-.5,3.5-1.4,3.5-8.1l.2-16.3Zm7.7-26.4c0,3.3-2.3,4.8-4.9,4.8a4.49,4.49,0,0,1-4.7-4.6,4.78,4.78,0,0,1,5-5A4.57,4.57,0,0,1,382.68,13.2Z"/><path class="cls-1" d="M423.68,29.9a5.28,5.28,0,0,1,1.4,3.7c0,1.7-.9,3.4-2,3.4a1.76,1.76,0,0,1-1.3-.6c-2-2.5-5.5-4.9-9.3-4.9-6.5,0-12.8,5.1-12.8,14.9,0,7.2,5,15.9,14.9,15.9a11.2,11.2,0,0,0,10.3-5.6,1.53,1.53,0,0,1,1.7,1.3c-3.2,6.9-10.1,9.5-15.5,9.5a18.12,18.12,0,0,1-12.7-4.7A18.72,18.72,0,0,1,393,49.1c0-10,7-20.7,22.4-20.7A23.19,23.19,0,0,1,423.68,29.9Z"/><path class="cls-1" d="M468.58,47.6c0,11.6-8,19.9-19.6,19.9-10.7,0-19-7.5-19-19.1s8.8-20,19.7-20C460.18,28.4,468.58,36.2,468.58,47.6Zm-19.9-16.4c-6.1,0-10.7,5.8-10.7,16,0,8.4,3.8,17.5,12,17.5s10.7-8.5,10.7-15.7C460.58,41.2,457.48,31.2,448.68,31.2Z"/><path class="cls-1" d="M493.78,47c1.4-.5,1.6-1.3,1.6-2.7l.1-4.3c.1-3.4-1-8.1-6.8-8.1-2.6,0-5.7,1.3-5.9,4.2-.1,1.5-.2,2.6-.9,3.2a10.2,10.2,0,0,1-5.3,1.8,1.21,1.21,0,0,1-1.3-1.3c0-4.8,10.5-11.4,17.2-11.4s9.9,3.9,9.6,10.8l-.6,16.1c-.2,4.3.6,8.1,4.3,8.1a4.84,4.84,0,0,0,2.3-.6,3.29,3.29,0,0,1,1.2-.6c.4,0,.6.6.6,1.2s-3.2,4.1-7.8,4.1a7.15,7.15,0,0,1-6-2.9c-.4-.6-.9-1.3-1.5-1.3s-1.8.8-3.6,1.9c-2,1.1-4.1,2.3-6.7,2.3a9.58,9.58,0,0,1-6.5-2.1,8.61,8.61,0,0,1-2.9-6.5c0-3.6,1.8-5.7,7.7-7.9Zm-5.7,16.3a10.93,10.93,0,0,0,5.7-2.3c1.1-1.1,1.1-2.4,1.2-4.4l.2-5.5c0-1-.4-1.2-.9-1.2a20.73,20.73,0,0,0-3.8.9c-5.5,1.9-8.2,3.2-8.2,6.9A5.45,5.45,0,0,0,488.08,63.3Z"/><path class="cls-1" d="M550.58,31.7c1,.5.8,3.6-.6,3.8h-6.7a37.74,37.74,0,0,1,.2,4.7c0,6.4-3.8,14.7-15.6,14.7a38.83,38.83,0,0,1-4.1-.3c-1.1.6-4.1,2.4-4.1,5.1,0,2.1,2.1,3.9,6.5,3.9,3.2,0,7-.3,11-.3,5.2,0,13,.9,13,10.2,0,10.1-11,17.5-23.1,17.5-11.4,0-15.4-6.1-15.4-10.8a5.3,5.3,0,0,1,1-3.4c1.6-1.7,4.2-4.1,6.3-6.2.8-.8,1.6-1.7.7-2.2-3.6-.9-6.8-4.1-6.8-7.3,0-.5.4-.8,1.4-1.6a27,27,0,0,0,4.9-4.3,3.39,3.39,0,0,0,.9-1.8,12.59,12.59,0,0,1-7-11.2c0-8,6.9-14,15.1-14a21.78,21.78,0,0,1,8.9,1.9c3,1.3,3.6,1.5,5.7,1.5l7.8.1Zm-19.3,37.5c-3,0-6.7.2-8,1a9.67,9.67,0,0,0-4.5,7.8c0,5,4,9.2,12.4,9.2s13.7-4.6,13.7-9.9c0-5.7-3.9-8.1-10.6-8.1ZM537,42.6c0-6.3-2.6-11.6-8.3-11.6-4.5,0-7.8,4.1-7.8,10.4,0,6.6,4,10.8,8.4,10.8C534.38,52.3,537,48.3,537,42.6Z"/></g></g></g></svg>