<?xml version="1.0" encoding="utf-8"?>
<!-- Generator: Adobe Illustrator 16.0.0, SVG Export Plug-In . SVG Version: 6.00 Build 0)  -->
<!DOCTYPE svg PUBLIC "-//W3C//DTD SVG 1.1//EN" "http://www.w3.org/Graphics/SVG/1.1/DTD/svg11.dtd">
<svg version="1.1" id="Layer_1" xmlns="http://www.w3.org/2000/svg" xmlns:xlink="http://www.w3.org/1999/xlink" x="0px" y="0px"
	 width="198.502px" height="34.613px" viewBox="0 0 198.502 34.613" enable-background="new 0 0 198.502 34.613"
	 xml:space="preserve">
<g enable-background="new    ">
	<path fill="#FFFFFF" d="M136.29,20.416c0,1.938,0.037,2.214,1.105,2.308l0.592,0.055c0.109,0.074,0.072,0.406-0.037,0.462
		c-1.053-0.037-1.68-0.056-2.417-0.056s-1.384,0.019-2.563,0.056c-0.111-0.056-0.148-0.369,0-0.462l0.664-0.055
		c1.051-0.094,1.143-0.369,1.143-2.308V12.17c0-0.57,0-0.59-0.553-0.59h-1.015c-0.794,0-1.808,0.037-2.269,0.461
		c-0.443,0.406-0.629,0.813-0.83,1.273c-0.148,0.109-0.406,0.018-0.48-0.13c0.295-0.83,0.572-2.012,0.701-2.748
		c0.057-0.037,0.295-0.057,0.352,0c0.109,0.59,0.719,0.57,1.566,0.57h7.473c0.996,0,1.162-0.036,1.438-0.517
		c0.093-0.037,0.295-0.019,0.332,0.056c-0.203,0.756-0.332,2.251-0.276,2.805c-0.074,0.146-0.388,0.146-0.48,0.037
		c-0.055-0.462-0.184-1.145-0.461-1.348c-0.424-0.313-1.125-0.461-2.139-0.461h-1.311c-0.555,0-0.535,0.02-0.535,0.627V20.416
		L136.29,20.416z"/>
	<path fill="#FFFFFF" d="M141.085,17.888c0-0.72,0-0.813-0.499-1.145l-0.166-0.11c-0.073-0.073-0.073-0.276,0.019-0.332
		c0.424-0.146,1.402-0.627,1.863-0.903c0.092,0.019,0.147,0.056,0.147,0.129v1.07c0,0.092,0.019,0.146,0.056,0.166
		c0.646-0.535,1.348-1.106,2.029-1.106c0.461,0,0.83,0.295,0.83,0.737c0,0.608-0.498,0.849-0.793,0.849
		c-0.186,0-0.277-0.055-0.406-0.129c-0.277-0.185-0.553-0.295-0.813-0.295c-0.295,0-0.517,0.166-0.664,0.369
		c-0.185,0.258-0.239,0.793-0.239,1.42v2.509c0,1.328,0.036,1.55,0.737,1.605l0.664,0.055c0.129,0.093,0.094,0.406-0.037,0.462
		c-0.866-0.037-1.4-0.056-2.047-0.056c-0.664,0-1.218,0.019-1.697,0.056c-0.129-0.056-0.166-0.369-0.037-0.462l0.352-0.055
		c0.682-0.111,0.701-0.277,0.701-1.605V17.888L141.085,17.888z"/>
	<path fill="#FFFFFF" d="M147.612,18.461c-0.479,0-0.498,0.037-0.498,0.498c0,1.863,1.09,3.45,3.062,3.45
		c0.609,0,1.126-0.185,1.697-0.904c0.187-0.056,0.313,0.057,0.332,0.223c-0.608,1.254-1.937,1.715-2.896,1.715
		c-1.199,0-2.14-0.517-2.674-1.217c-0.555-0.721-0.775-1.587-0.775-2.398c0-2.27,1.494-4.169,3.707-4.169
		c1.588,0,2.621,1.088,2.621,2.195c0,0.258-0.037,0.404-0.074,0.479c-0.055,0.11-0.313,0.129-1.088,0.129H147.612z M148.757,17.907
		c1.365,0,1.771-0.073,1.918-0.185c0.057-0.036,0.111-0.11,0.111-0.352c0-0.516-0.352-1.162-1.42-1.162
		c-1.09,0-2.029,0.996-2.049,1.605c0,0.037,0,0.092,0.129,0.092L148.757,17.907L148.757,17.907z"/>
	<path fill="#FFFFFF" d="M156.892,19.365c0.275-0.093,0.313-0.259,0.313-0.535l0.02-0.849c0.019-0.684-0.203-1.605-1.348-1.605
		c-0.518,0-1.145,0.259-1.182,0.83c-0.019,0.296-0.035,0.518-0.185,0.628c-0.276,0.222-0.774,0.352-1.051,0.352
		c-0.166,0-0.259-0.094-0.259-0.26c0-0.959,2.085-2.269,3.431-2.269c1.328,0,1.976,0.774,1.919,2.158l-0.109,3.21
		c-0.037,0.849,0.129,1.604,0.849,1.604c0.185,0,0.351-0.055,0.461-0.109c0.093-0.057,0.185-0.129,0.239-0.129
		c0.074,0,0.13,0.109,0.13,0.238c0,0.094-0.646,0.813-1.55,0.813c-0.442,0-0.885-0.166-1.199-0.571
		c-0.074-0.11-0.184-0.259-0.295-0.259c-0.129,0-0.352,0.166-0.721,0.369c-0.404,0.222-0.812,0.461-1.328,0.461
		c-0.533,0-0.978-0.147-1.291-0.424c-0.351-0.313-0.571-0.774-0.571-1.291c0-0.721,0.351-1.146,1.53-1.568L156.892,19.365z
		 M155.747,22.611c0.369,0,0.941-0.276,1.125-0.461c0.222-0.222,0.222-0.479,0.24-0.867l0.037-1.088c0-0.203-0.074-0.24-0.187-0.24
		c-0.108,0-0.424,0.074-0.756,0.186c-1.088,0.368-1.623,0.646-1.623,1.364C154.585,21.818,154.806,22.611,155.747,22.611z"/>
	<path fill="#FFFFFF" d="M163.29,16.689c-0.313,0-0.332,0.056-0.332,0.442v3.449c0,1.07,0.129,2.048,1.348,2.048
		c0.185,0,0.351-0.036,0.498-0.092c0.166-0.056,0.405-0.259,0.461-0.259c0.146,0,0.221,0.203,0.185,0.313
		c-0.332,0.388-0.996,0.849-1.937,0.849c-1.588,0-1.92-0.885-1.92-1.992v-4.225c0-0.498-0.018-0.535-0.387-0.535h-0.518
		c-0.109-0.073-0.129-0.276-0.056-0.388c0.535-0.166,0.996-0.405,1.181-0.571c0.24-0.222,0.592-0.721,0.774-1.088
		c0.093-0.037,0.313-0.037,0.388,0.092v0.83c0,0.332,0.02,0.351,0.332,0.351h2.049c0.222,0.166,0.185,0.664,0.019,0.774
		L163.29,16.689L163.29,16.689z"/>
	<path fill="#FFFFFF" d="M170.429,17.224c-0.886,0-0.923,0.036-0.923,0.591v2.601c0,1.938,0.093,2.195,1.126,2.308l0.534,0.055
		c0.11,0.074,0.074,0.406-0.036,0.462c-0.996-0.037-1.624-0.056-2.344-0.056c-0.793,0-1.42,0.037-2.141,0.056
		c-0.109-0.056-0.146-0.351-0.037-0.462l0.313-0.055c1.033-0.186,1.07-0.369,1.07-2.308v-6.641c0-1.938-0.13-2.251-1.089-2.324
		l-0.479-0.037c-0.11-0.074-0.073-0.406,0.037-0.461c0.904,0.019,1.531,0.055,2.324,0.055c0.72,0,1.348-0.019,2.142-0.055
		c0.109,0.055,0.146,0.387,0.036,0.461l-0.353,0.037c-1.068,0.11-1.105,0.387-1.105,2.324v2.121c0,0.571,0.037,0.591,0.924,0.591
		h5.274c0.886,0,0.923-0.02,0.923-0.591v-2.121c0-1.938-0.037-2.214-1.126-2.324l-0.351-0.037c-0.11-0.074-0.073-0.406,0.037-0.461
		c0.849,0.036,1.476,0.055,2.231,0.055c0.72,0,1.347-0.019,2.177-0.055c0.111,0.055,0.148,0.387,0.037,0.461l-0.387,0.037
		c-1.07,0.11-1.107,0.387-1.107,2.324v6.641c0,1.938,0.037,2.178,1.107,2.308l0.441,0.055c0.11,0.074,0.074,0.406-0.037,0.462
		c-0.885-0.037-1.512-0.056-2.231-0.056c-0.757,0-1.421,0.019-2.231,0.056c-0.11-0.056-0.147-0.351-0.037-0.462l0.351-0.055
		c1.126-0.186,1.126-0.369,1.126-2.308v-2.601c0-0.555-0.037-0.591-0.923-0.591H170.429z"/>
	<path fill="#FFFFFF" d="M184.372,16.21c0,0.498,0.055,0.498,0.607,0.498h1.256c0.756,0,1.346-0.036,1.566-0.109
		c0.203-0.074,0.352-0.166,0.463-0.646l0.166-0.738c0.092-0.109,0.404-0.109,0.479,0c0,0.443-0.073,1.182-0.073,1.863
		c0,0.664,0.073,1.365,0.073,1.79c-0.073,0.11-0.35,0.11-0.479,0l-0.187-0.72c-0.093-0.332-0.239-0.591-0.591-0.701
		c-0.258-0.074-0.719-0.092-1.42-0.092h-1.254c-0.555,0-0.608,0.018-0.608,0.498v2.563c0,1.938,0.037,2.214,1.125,2.308l0.627,0.055
		c0.11,0.074,0.073,0.406-0.037,0.462c-1.088-0.037-1.715-0.056-2.453-0.056c-0.812,0-1.438,0.019-2.307,0.056
		c-0.11-0.056-0.146-0.351-0.036-0.462l0.461-0.055c1.068-0.13,1.105-0.369,1.105-2.308v-6.641c0-1.938-0.037-2.195-1.105-2.324
		l-0.295-0.037c-0.109-0.074-0.074-0.406,0.036-0.461c0.774,0.036,1.401,0.055,2.141,0.055h3.396c1.181,0,2.25,0,2.49-0.055
		c0,0.848,0.019,1.733,0.055,2.436c-0.055,0.109-0.313,0.166-0.441,0.056c-0.148-0.83-0.369-1.513-1.292-1.753
		c-0.405-0.11-1.015-0.11-1.79-0.11h-1.125c-0.553,0-0.553,0.037-0.553,0.737V16.21L184.372,16.21z"/>
</g>
<path fill="#FFFFFF" d="M40.482,7.529c-0.218,0-0.292,0-0.146-0.291l0.437-1.163c0.146-0.438,0.292-0.729,0.292-0.803l0,0
	c0.073,0.073,0.073,0.292,0.291,0.803l0.437,1.163c0.073,0.22,0.073,0.291-0.218,0.291H40.482z M41.574,7.966
	c0.291,0,0.291,0,0.437,0.291l0.438,1.313c0.146,0.438,0.073,0.511-0.292,0.511h-0.218c-0.073,0.071-0.073,0.219,0,0.291
	c0.364,0,0.801,0,1.165,0c0.51,0,0.874,0,1.311,0c0.073-0.072,0.073-0.22,0-0.291h-0.146c-0.51-0.072-0.583-0.146-0.801-0.802
	l-1.383-4.149c-0.146-0.438-0.291-0.943-0.437-1.383C41.574,3.67,41.574,3.67,41.501,3.67c0,0-0.364,0.438-0.655,0.513
	c0,0.146-0.073,0.438-0.218,0.729l-1.311,3.494c-0.218,0.511-0.364,0.946-0.51,1.237c-0.146,0.362-0.291,0.438-0.509,0.438
	l-0.292,0.071c-0.073,0.073-0.073,0.22,0,0.291c0.364,0,0.655,0,0.947,0c0.437,0,0.728,0,1.019,0c0.073-0.071,0.073-0.218,0-0.291
	l-0.291-0.071c-0.364-0.072-0.437-0.072-0.219-0.655l0.437-1.165c0.073-0.291,0.073-0.291,0.364-0.291L41.574,7.966L41.574,7.966z"
	/>
<path fill="#FFFFFF" d="M53.515,10.15c0.073,0.073,0.073,0.22,0,0.291c-0.437,0-0.801,0-1.165,0c-0.437,0-0.874,0-1.311,0
	c-0.073-0.071-0.146-0.218,0-0.291l0.292-0.071c0.364-0.072,0.437-0.146,0.437-0.802V6.146V5.199l0,0
	c-0.291,0.51-0.437,0.875-0.583,1.237l-0.874,1.748c-0.364,0.729-0.801,1.817-1.019,2.256c-0.073,0.074-0.219,0.074-0.292,0
	c-0.146-0.509-0.583-1.527-0.801-1.965L47.325,6.58c-0.218-0.438-0.437-1.02-0.583-1.312l0,0c0,0.51-0.073,1.234-0.073,1.675
	c0,0.582-0.073,1.456-0.073,2.33c0,0.655,0,0.802,0.437,0.873l0.291,0.072c0.073,0.071,0.073,0.219,0,0.292
	c-0.364,0-0.655,0-1.019,0c-0.292,0-0.655,0-1.02,0c-0.073-0.073-0.073-0.221,0-0.292h0.146c0.437-0.072,0.583-0.22,0.583-0.803
	c0.073-0.652,0.073-1.234,0.146-2.33c0.073-0.652,0.073-1.525,0.073-2.108c0-0.438-0.146-0.654-0.51-0.729L45.36,4.18
	c-0.073-0.073-0.073-0.292,0.073-0.292c0.292,0,0.583,0,0.947,0c0.364,0,0.655,0,1.019,0c0.073,0.583,0.292,1.093,0.51,1.676
	L49,7.82c0.073,0.146,0.364,0.656,0.437,0.875c0.146-0.292,0.291-0.583,0.51-1.021l0.946-1.895c0.291-0.654,0.655-1.236,0.801-1.895
	c0.292,0,0.583,0,0.801,0c0.437,0,0.729,0,1.02,0c0.073,0.071,0.146,0.22,0,0.292l-0.291,0.071c-0.437,0.072-0.51,0.219-0.51,0.729
	c0,1.456,0,2.913,0.073,4.368c0,0.653,0.146,0.729,0.437,0.801L53.515,10.15L53.515,10.15z"/>
<path fill="#FFFFFF" d="M55.626,5.272c0-1.021-0.072-1.092-0.582-1.165h-0.146c-0.072-0.071-0.072-0.219,0-0.291
	c0.365,0,0.801,0,1.238,0h1.893c0.656,0,1.166,0,1.311,0c0.073,0.146,0.073,0.947,0.146,1.384c-0.073,0.072-0.219,0.072-0.291,0.072
	c-0.146-0.582-0.292-0.801-0.583-0.874c-0.219-0.071-0.51-0.071-0.801-0.071h-0.655c-0.438,0-0.438,0-0.438,0.582v1.675
	c0,0.292,0,0.292,0.219,0.292h0.438c0.873,0,1.019,0,1.092-0.438l0.072-0.362c0.072-0.074,0.29-0.074,0.29,0c0,0.29,0,0.653,0,1.021
	c0,0.363,0,0.728,0,1.02c-0.072,0.073-0.218,0.073-0.291,0l-0.072-0.363c-0.073-0.438-0.219-0.438-1.092-0.438h-0.438
	c-0.219,0-0.219,0-0.219,0.291V8.84c0,0.513,0,0.874,0.146,1.021c0.145,0.146,0.291,0.22,1.092,0.22c1.238,0,1.456-0.291,1.82-1.093
	c0.072-0.072,0.291-0.072,0.291,0.072c-0.072,0.438-0.291,1.165-0.437,1.456c-0.437,0-1.312,0-2.403,0h-1.092
	c-0.438,0-1.02,0-1.456,0c-0.073-0.073-0.073-0.221,0-0.291l0.364-0.073c0.437-0.071,0.582-0.071,0.582-1.092V5.272H55.626z"/>
<path fill="#FFFFFF" d="M62.979,4.69c0-0.438,0-0.51,0.51-0.51c0.874,0,1.384,0.652,1.384,1.455c0,0.944-0.437,1.384-1.384,1.384
	c-0.438,0-0.438,0-0.438-0.363V4.69H62.979L62.979,4.69z M61.815,8.986c0,1.021-0.073,1.093-0.583,1.164h-0.218
	c-0.073,0.073-0.073,0.22,0,0.291c0.436,0,0.873,0,1.311,0c0.436,0,0.873,0,1.311,0c0.072-0.071,0.072-0.218,0-0.291h-0.219
	c-0.438-0.071-0.583-0.071-0.583-1.164V7.748c0-0.22,0-0.22,0.292-0.22c0.291,0,0.437,0.073,0.582,0.364
	c0.219,0.361,0.51,0.943,0.801,1.312c0.582,0.945,1.092,1.313,2.039,1.313c0.363,0,0.51,0,0.654-0.073c0-0.071,0-0.146,0-0.218
	c-0.145,0-0.437-0.073-0.654-0.291C66.11,9.569,65.601,8.696,64.8,7.384c-0.072-0.07-0.072-0.146,0-0.146
	c0.51-0.219,1.165-0.654,1.165-1.528c0-0.729-0.364-1.164-0.874-1.455c-0.437-0.219-1.092-0.362-1.893-0.362
	c-0.801,0-1.675,0-2.257,0.07c-0.073,0.073-0.073,0.222,0,0.292h0.291c0.437,0.072,0.437,0.146,0.437,1.095V8.99L61.815,8.986
	L61.815,8.986z"/>
<path fill="#FFFFFF" d="M69.896,8.986c0,1.021,0.073,1.093,0.583,1.164h0.219c0.072,0.073,0.072,0.22,0,0.291
	c-0.438,0-0.875,0-1.311,0c-0.438,0-0.875,0-1.312,0c-0.073-0.071-0.073-0.218,0-0.291h0.219c0.437-0.071,0.583-0.071,0.583-1.164
	V5.272c0-1.021-0.073-1.092-0.583-1.165h-0.219c-0.073-0.071-0.073-0.219,0-0.291c0.437,0,0.874,0,1.312,0c0.436,0,0.873,0,1.311,0
	c0.072,0.072,0.072,0.22,0,0.291h-0.219c-0.438,0.073-0.583,0.073-0.583,1.165V8.986z"/>
<path fill="#FFFFFF" d="M78.052,5.491c-0.073,0.072-0.219,0.072-0.292,0c-0.146-0.655-0.582-1.456-1.893-1.456
	c-1.237,0-2.476,0.873-2.476,2.911c0,2.111,1.311,3.132,2.549,3.132c1.237,0,1.746-0.802,2.038-1.456
	c0.073-0.073,0.218-0.073,0.291,0.072c-0.073,0.654-0.364,1.312-0.437,1.528c-0.146,0-0.219,0.07-0.364,0.07
	c-0.218,0.072-0.874,0.222-1.528,0.222c-0.947,0-1.82-0.222-2.549-0.656c-0.801-0.51-1.383-1.456-1.383-2.692
	c0-1.165,0.509-2.039,1.237-2.621c0.728-0.583,1.747-0.874,2.694-0.874c0.582,0,1.237,0.073,1.674,0.221
	c0.146,0,0.219,0.07,0.291,0.07C77.905,4.18,77.905,4.763,78.052,5.491z"/>
<path fill="#FFFFFF" d="M81.036,7.529c-0.219,0-0.291,0-0.146-0.291l0.437-1.163c0.146-0.438,0.292-0.729,0.292-0.803l0,0
	c0.073,0.073,0.073,0.292,0.291,0.803l0.437,1.163c0.073,0.22,0.073,0.291-0.219,0.291H81.036z M82.201,7.966
	c0.292,0,0.292,0,0.437,0.291l0.438,1.313c0.146,0.438,0.072,0.511-0.291,0.511h-0.219c-0.072,0.071-0.072,0.219,0,0.291
	c0.364,0,0.801,0,1.165,0c0.51,0,0.874,0,1.311,0c0.073-0.072,0.073-0.22,0-0.291h-0.146c-0.51-0.072-0.582-0.146-0.801-0.802
	l-1.384-4.149C82.565,4.69,82.42,4.18,82.274,3.744C82.201,3.67,82.201,3.67,82.128,3.67c0,0-0.363,0.438-0.654,0.513
	c0,0.146-0.073,0.438-0.219,0.729l-1.383,3.494c-0.219,0.511-0.365,0.946-0.51,1.237c-0.146,0.362-0.219,0.438-0.51,0.438
	l-0.291,0.071c-0.073,0.073-0.073,0.22,0,0.291c0.363,0,0.654,0,0.945,0c0.438,0,0.729,0,1.02,0c0.073-0.071,0.073-0.218,0-0.291
	l-0.291-0.071c-0.363-0.072-0.437-0.072-0.219-0.655l0.438-1.165c0.072-0.291,0.072-0.291,0.363-0.291L82.201,7.966L82.201,7.966z"
	/>
<path fill="#FFFFFF" d="M92.104,8.695c0,0.291,0,1.528,0,1.746c-0.073,0.074-0.219,0.146-0.364,0.146
	c-0.146-0.219-0.437-0.51-1.165-1.383l-2.329-2.622c-0.656-0.729-0.947-1.093-1.093-1.234c0,0,0,0.069,0,0.652v1.966
	c0,0.729,0,1.677,0.146,1.969c0.072,0.146,0.291,0.218,0.51,0.218h0.219c0.072,0.073,0.072,0.291,0,0.291c-0.364,0-0.729,0-1.092,0
	c-0.438,0-0.656,0-1.02,0c-0.073-0.071-0.073-0.218,0-0.291l0.218-0.071c0.219,0,0.364-0.072,0.437-0.22
	c0.146-0.291,0.146-1.164,0.146-1.966v-2.33c0-0.801,0-0.946-0.291-1.237c-0.073-0.072-0.365-0.146-0.51-0.22H85.77
	c-0.072-0.071-0.072-0.291,0.073-0.291c0.364,0.072,0.946,0,1.165,0c0.219,0,0.438,0,0.655,0c0.146,0.438,1.237,1.676,1.602,2.039
	l0.946,1.092c0.438,0.438,1.311,1.529,1.457,1.529c0,0,0-0.073,0-0.222V6.292c0-0.729,0-1.675-0.219-1.966
	c-0.072-0.146-0.219-0.22-0.51-0.22H90.72c-0.072-0.071-0.072-0.291,0-0.291c0.364,0,0.729,0,1.165,0c0.436,0,0.655,0,1.02,0
	c0.073,0.072,0.073,0.22,0,0.291L92.687,4.18c-0.219,0-0.365,0.07-0.438,0.218c-0.146,0.292-0.146,1.166-0.146,1.967L92.104,8.695
	L92.104,8.695z"/>
<path fill="#FFFFFF" d="M44.268,15.684c-0.073,0.07-0.219,0.07-0.292,0c-0.146-0.655-0.583-1.456-1.893-1.456
	c-1.238,0-2.475,0.873-2.475,2.912c0,2.108,1.311,3.131,2.548,3.131c1.238,0,1.748-0.801,2.039-1.457
	c0.073-0.071,0.218-0.071,0.291,0.073c-0.073,0.652-0.364,1.312-0.437,1.526c-0.146,0-0.218,0.072-0.364,0.072
	c-0.219,0.072-0.874,0.219-1.529,0.219c-0.946,0-1.82-0.219-2.548-0.653c-0.801-0.512-1.384-1.455-1.384-2.692
	c0-1.166,0.51-2.039,1.238-2.621c0.728-0.583,1.748-0.874,2.694-0.874c0.583,0,1.238,0.073,1.675,0.219
	c0.146,0,0.218,0.072,0.291,0.072C44.195,14.374,44.195,14.956,44.268,15.684z"/>
<path fill="#FFFFFF" d="M48.855,14.228c1.529,0,2.257,1.747,2.257,3.203c0,1.966-0.874,2.84-2.039,2.84
	c-1.675,0-2.257-1.896-2.257-3.203C46.743,14.956,47.835,14.228,48.855,14.228z M48.928,13.864c-2.039,0-3.495,1.528-3.495,3.495
	c0,1.747,1.311,3.35,3.495,3.35c1.966,0,3.495-1.456,3.495-3.422C52.422,15.465,51.258,13.864,48.928,13.864z"/>
<path fill="#FFFFFF" d="M55.554,18.887c0,0.51,0,0.873,0.145,1.021c0.146,0.146,0.292,0.218,1.093,0.218
	c1.093,0,1.237-0.069,1.675-1.092c0.072-0.072,0.291,0,0.291,0.072c-0.072,0.438-0.291,1.165-0.437,1.456c-0.437,0-1.238,0-2.33,0
	h-1.02c-0.51,0-1.019,0-1.383,0c-0.073-0.072-0.073-0.222,0-0.291L53.88,20.2c0.437-0.074,0.582-0.074,0.582-1.094v-3.714
	c0-1.021-0.073-1.095-0.582-1.095l-0.292-0.069c-0.073-0.073-0.073-0.222,0-0.291c0.509,0,0.947,0,1.383,0s0.874,0,1.311,0
	c0.073,0.069,0.073,0.218,0,0.291L56.063,14.3c-0.438,0.073-0.583,0.073-0.583,1.095v3.495L55.554,18.887L55.554,18.887z"/>
<path fill="#FFFFFF" d="M61.45,18.887c0,0.51,0,0.873,0.146,1.021s0.291,0.218,1.092,0.218c1.092,0,1.238-0.069,1.675-1.092
	c0.073-0.072,0.291,0,0.291,0.072c-0.073,0.438-0.291,1.165-0.437,1.456c-0.438,0-1.238,0-2.33,0h-1.02c-0.51,0-1.02,0-1.383,0
	c-0.073-0.072-0.073-0.222,0-0.291l0.291-0.071c0.437-0.074,0.582-0.074,0.582-1.094v-3.714c0-1.021-0.072-1.095-0.582-1.095
	l-0.291-0.069c-0.073-0.073-0.073-0.222,0-0.291c0.51,0,0.946,0,1.383,0c0.438,0,0.874,0,1.311,0c0.073,0.069,0.073,0.218,0,0.291
	L61.96,14.3c-0.437,0.073-0.582,0.073-0.582,1.095L61.45,18.887L61.45,18.887z"/>
<path fill="#FFFFFF" d="M66.184,15.465c0-1.02-0.073-1.092-0.583-1.165h-0.146c-0.073-0.069-0.073-0.219,0-0.291
	c0.364,0,0.802,0,1.237,0h1.894c0.655,0,1.165,0,1.311,0c0.073,0.146,0.073,0.946,0.146,1.386c-0.072,0.07-0.219,0.07-0.291,0.07
	c-0.146-0.583-0.291-0.801-0.582-0.874c-0.219-0.069-0.51-0.069-0.801-0.069h-0.656c-0.437,0-0.437,0-0.437,0.582v1.675
	c0,0.292,0,0.292,0.219,0.292h0.582c0.874,0,1.02,0,1.093-0.438l0.072-0.361c0.073-0.073,0.291-0.073,0.291,0
	c0,0.292,0,0.652,0,1.021c0,0.364,0,0.729,0,1.021c-0.072,0.07-0.218,0.07-0.291,0l-0.072-0.364
	c-0.073-0.438-0.219-0.438-1.093-0.438H67.64c-0.219,0-0.219,0-0.219,0.292v1.237c0,0.51,0,0.874,0.146,1.021
	c0.145,0.146,0.291,0.219,1.092,0.219c1.237,0,1.456-0.291,1.82-1.092c0.072-0.073,0.291-0.073,0.291,0.069
	c-0.073,0.438-0.291,1.165-0.438,1.456c-0.437,0-1.311,0-2.402,0h-1.092c-0.438,0-1.02,0-1.457,0c-0.072-0.07-0.072-0.219,0-0.291
	l0.365-0.07c0.437-0.072,0.582-0.072,0.582-1.095V15.47L66.184,15.465L66.184,15.465z"/>
<path fill="#FFFFFF" d="M77.614,19.542c0,0.363,0.072,0.582,0.219,0.729c0,0.069,0,0.146,0,0.146c-0.073,0-0.291,0-0.438,0.072
	c-0.582,0.146-1.311,0.291-1.893,0.291c-1.165,0-2.257-0.291-3.059-1.092c-0.582-0.583-0.873-1.457-0.873-2.258
	c0-0.804,0.291-1.677,0.873-2.33c0.729-0.729,1.748-1.164,3.131-1.164c0.438,0,0.947,0.069,1.311,0.146
	c0.219,0.072,0.51,0.072,0.656,0.072c0,0.292,0.072,0.802,0.145,1.604c-0.072,0.072-0.291,0.146-0.291,0
	c-0.218-0.944-0.946-1.457-1.893-1.457c-1.748,0-2.549,1.238-2.549,2.912c0,0.804,0.146,1.678,0.729,2.261
	c0.51,0.651,1.311,0.873,1.893,0.873c0.438,0,0.729-0.072,0.874-0.221c0.073-0.07,0.073-0.292,0.073-0.652v-0.364
	c0-0.729,0-0.729-0.655-0.874l-0.364-0.071c-0.072-0.073-0.072-0.22,0-0.291c0.364,0,0.873,0,1.529,0c0.437,0,0.801,0,1.164,0
	c0.073,0.071,0.146,0.218,0,0.291h-0.145c-0.365,0.071-0.438,0.146-0.438,0.729C77.614,18.887,77.614,19.542,77.614,19.542z"/>
<path fill="#FFFFFF" d="M80.017,15.465c0-1.02-0.072-1.092-0.582-1.165h-0.146c-0.073-0.069-0.073-0.219,0-0.291
	c0.364,0,0.801,0,1.237,0h1.894c0.655,0,1.165,0,1.311,0c0.073,0.146,0.073,0.946,0.146,1.386c-0.072,0.07-0.219,0.07-0.291,0.07
	c-0.146-0.583-0.291-0.801-0.582-0.874c-0.219-0.069-0.51-0.069-0.802-0.069h-0.655c-0.437,0-0.437,0-0.437,0.582v1.675
	c0,0.292,0,0.292,0.218,0.292h0.438c0.873,0,1.02,0,1.092-0.438l0.073-0.361c0.073-0.073,0.291-0.073,0.291,0
	c0,0.292,0,0.652,0,1.021c0,0.364,0,0.729,0,1.021c-0.073,0.07-0.218,0.07-0.291,0l-0.073-0.364
	c-0.072-0.438-0.219-0.438-1.092-0.438h-0.438c-0.218,0-0.218,0-0.218,0.292v1.237c0,0.51,0,0.874,0.146,1.021
	c0.146,0.146,0.291,0.219,1.092,0.219c1.238,0,1.457-0.291,1.82-1.092c0.073-0.073,0.291-0.073,0.291,0.069
	c-0.072,0.438-0.291,1.165-0.437,1.456c-0.437,0-1.311,0-2.402,0h-1.093c-0.437,0-1.02,0-1.456,0c-0.073-0.07-0.073-0.219,0-0.291
	l0.364-0.07c0.438-0.072,0.582-0.072,0.582-1.095V15.465z"/>
<path fill="#FFFFFF" d="M88.899,20.343c-0.219,0-0.363-0.219-0.363-0.51c0-0.729,0.51-1.894,0.946-2.548
	c0.291-0.291,0.437-0.438,0.655-0.438c0.291,0,0.291,0.291,0.291,0.51c0,0.653-0.438,1.819-0.801,2.33
	C89.337,20.125,89.118,20.343,88.899,20.343z M87.662,19.397c0,0.729,0.364,1.312,1.237,1.312c0.438,0,0.947-0.146,1.529-0.652
	c0.655-0.655,0.947-1.529,0.947-2.187c0-0.729-0.365-1.312-1.238-1.312c-0.438,0-0.947,0.146-1.529,0.651
	C88.026,17.72,87.662,18.669,87.662,19.397z"/>
<path fill="#FFFFFF" d="M94.433,17.068c-0.363,1.02-0.801,2.767-1.092,3.785c-0.219,0.801-0.51,1.384-0.728,1.675
	c-0.219,0.292-0.729,0.655-1.311,0.655c-0.437,0-0.802-0.291-0.802-0.655c0-0.291,0.146-0.438,0.365-0.438
	c0.145,0,0.218,0.072,0.291,0.222c0.219,0.291,0.437,0.51,0.582,0.51s0.291-0.146,0.51-0.875c0.364-1.164,0.801-3.131,1.311-4.877
	h-0.873c-0.073-0.146,0-0.364,0.145-0.438h0.874c0.219-0.729,0.437-1.456,0.874-2.039c0.51-0.729,1.092-1.161,1.893-1.161
	c0.582,0,0.947,0.36,0.947,0.728c0,0.438-0.292,0.655-0.51,0.655c-0.146,0-0.219-0.072-0.219-0.222
	c-0.072-0.651-0.364-0.873-0.582-0.873c-0.219,0-0.438,0.222-0.656,0.654c-0.291,0.655-0.51,1.385-0.728,2.188h1.165
	c0.072,0.146,0.072,0.36-0.146,0.438L94.433,17.068L94.433,17.068z"/>
<path fill="#FFFFFF" d="M44.195,25.804c-0.073,0.07-0.219,0.07-0.292,0c-0.146-0.655-0.583-1.456-1.893-1.456
	c-1.238,0-2.476,0.874-2.476,2.911c0,2.109,1.311,3.132,2.548,3.132s1.748-0.804,2.039-1.456c0.073-0.073,0.219-0.073,0.292,0.07
	c-0.073,0.655-0.364,1.313-0.437,1.528c-0.146,0-0.218,0.072-0.364,0.072c-0.219,0.072-0.874,0.219-1.529,0.219
	c-0.946,0-1.82-0.219-2.548-0.655c-0.801-0.509-1.383-1.456-1.383-2.69c0-1.165,0.51-2.039,1.238-2.621
	c0.728-0.583,1.748-0.874,2.694-0.874c0.583,0,1.238,0.073,1.675,0.22c0.146,0,0.218,0.071,0.291,0.071
	C44.122,24.494,44.122,25.077,44.195,25.804z"/>
<path fill="#FFFFFF" d="M47.253,27.77c-0.218,0-0.291,0-0.146-0.291l0.437-1.165c0.146-0.438,0.291-0.729,0.291-0.801l0,0
	c0.073,0.069,0.073,0.291,0.292,0.801l0.437,1.165c0.073,0.219,0.073,0.291-0.218,0.291H47.253z M48.418,28.28
	c0.291,0,0.291,0,0.437,0.291l0.437,1.312c0.146,0.438,0.073,0.513-0.292,0.513h-0.218c-0.073,0.07-0.073,0.219,0,0.291
	c0.364,0,0.801,0,1.165,0c0.509,0,0.874,0,1.311,0c0.073-0.072,0.073-0.221,0-0.291h-0.146c-0.509-0.072-0.583-0.146-0.801-0.804
	l-1.383-4.147c-0.146-0.438-0.291-0.945-0.437-1.383c-0.073-0.073-0.073-0.073-0.146-0.073c0,0-0.364,0.438-0.655,0.511
	c0,0.146-0.073,0.438-0.218,0.729l-1.311,3.494c-0.219,0.51-0.364,0.944-0.51,1.235s-0.291,0.438-0.51,0.438h-0.364
	c-0.073,0.072-0.073,0.219,0,0.291c0.364,0,0.655,0,0.947,0c0.437,0,0.728,0,1.019,0c0.073-0.072,0.073-0.219,0-0.291l-0.291-0.072
	c-0.364-0.072-0.437-0.072-0.218-0.654l0.437-1.165c0.073-0.292,0.073-0.292,0.364-0.292h1.383V28.28L48.418,28.28z"/>
<path fill="#FFFFFF" d="M54.024,25.003c0-0.438,0-0.51,0.51-0.51c0.873,0,1.383,0.654,1.383,1.456c0,0.945-0.437,1.384-1.383,1.384
	c-0.438,0-0.438,0-0.438-0.361L54.024,25.003L54.024,25.003z M52.859,29.226c0,1.021-0.073,1.093-0.583,1.165h-0.218
	c-0.073,0.07-0.073,0.219,0,0.291c0.437,0,0.874,0,1.311,0s0.874,0,1.311,0c0.073-0.072,0.073-0.221,0-0.291h-0.219
	c-0.437-0.072-0.582-0.072-0.582-1.165v-1.237c0-0.219,0-0.219,0.291-0.219s0.437,0.07,0.583,0.361
	c0.218,0.364,0.51,0.946,0.801,1.313c0.582,0.946,1.092,1.312,2.038,1.312c0.364,0,0.51,0,0.655-0.07c0-0.072,0-0.146,0-0.221
	c-0.146,0-0.437-0.07-0.655-0.292c-0.437-0.36-0.946-1.234-1.747-2.548c-0.073-0.07-0.073-0.146,0-0.146
	c0.51-0.22,1.165-0.654,1.165-1.528c0-0.729-0.364-1.165-0.874-1.456c-0.438-0.22-1.092-0.364-1.893-0.364
	c-0.801,0-1.675,0-2.257,0.073c-0.073,0.071-0.073,0.219,0,0.291h0.291c0.437,0.072,0.437,0.146,0.437,1.092v3.644L52.859,29.226
	L52.859,29.226z"/>
<path fill="#FFFFFF" d="M60.941,25.368c0-0.438,0-0.655,0.073-0.729c0.072-0.072,0.363-0.146,0.801-0.146
	c1.674,0,2.766,0.945,2.766,2.911c0,1.676-0.801,2.913-2.548,2.913c-1.019,0-1.092-0.51-1.092-1.457V25.368z M59.776,29.226
	c0,1.021-0.072,1.093-0.582,1.165h-0.219c-0.073,0.07-0.073,0.219,0,0.291c0.437,0,0.873,0,1.237,0c0.364,0,0.802,0.07,1.456,0.07
	c0.874,0,1.748-0.146,2.402-0.51c1.238-0.655,1.748-1.747,1.748-2.841c0-1.455-0.801-2.548-2.039-2.983
	c-0.728-0.292-1.383-0.361-2.33-0.361c-0.945,0-1.746,0-2.475,0.069c-0.073,0.073-0.073,0.222,0,0.292h0.219
	c0.437,0.072,0.437,0.146,0.437,1.095v3.713H59.776z"/>
<path fill="#FFFFFF" d="M69.169,29.226c0,1.021,0.072,1.093,0.582,1.165h0.219c0.072,0.07,0.072,0.219,0,0.291
	c-0.438,0-0.874,0-1.311,0c-0.438,0-0.874,0-1.311,0c-0.073-0.072-0.073-0.221,0-0.291h0.219c0.437-0.072,0.582-0.072,0.582-1.165
	v-3.644c0-1.02-0.073-1.092-0.582-1.164h-0.219c-0.073-0.07-0.073-0.219,0-0.292c0.437,0,0.873,0,1.311,0c0.437,0,0.873,0,1.311,0
	c0.072,0.073,0.072,0.222,0,0.292h-0.219c-0.437,0.072-0.582,0.072-0.582,1.164V29.226z"/>
<path fill="#FFFFFF" d="M74.63,24.348c1.528,0,2.256,1.747,2.256,3.2c0,1.969-0.873,2.843-2.038,2.843
	c-1.675,0-2.257-1.896-2.257-3.203C72.518,25.077,73.61,24.348,74.63,24.348z M74.702,23.984c-2.039,0-3.495,1.456-3.495,3.495
	c0,1.747,1.311,3.35,3.495,3.35c1.966,0,3.494-1.456,3.494-3.423C78.196,25.659,77.032,23.984,74.702,23.984z"/>
<path fill="#FFFFFF" d="M81.4,29.008c0,0.512,0,0.873,0.146,1.021c0.146,0.146,0.291,0.22,1.092,0.22
	c1.093,0,1.238-0.073,1.676-1.093c0.072-0.072,0.291,0,0.291,0.072c-0.073,0.438-0.291,1.165-0.438,1.456c-0.437,0-1.237,0-2.33,0
	h-1.02c-0.509,0-1.019,0-1.383,0c-0.072-0.072-0.072-0.221,0-0.291l0.291-0.072c0.438-0.072,0.583-0.072,0.583-1.093v-3.644
	c0-1.02-0.073-1.092-0.583-1.092l-0.291-0.072c-0.072-0.07-0.072-0.219,0-0.292c0.51,0,0.947,0,1.383,0c0.438,0,0.875,0,1.311,0
	c0.073,0.073,0.073,0.222,0,0.292l-0.218,0.072c-0.437,0.072-0.583,0.072-0.583,1.092L81.4,29.008L81.4,29.008z"/>
<path fill="#FFFFFF" d="M88.681,24.348c1.529,0,2.258,1.747,2.258,3.2c0,1.969-0.873,2.843-2.039,2.843
	c-1.674,0-2.257-1.896-2.257-3.203C86.643,25.077,87.735,24.348,88.681,24.348z M88.827,23.984c-2.039,0-3.495,1.456-3.495,3.495
	c0,1.747,1.311,3.35,3.495,3.35c1.966,0,3.494-1.456,3.494-3.423C92.249,25.659,91.084,23.984,88.827,23.984z"/>
<path fill="#FFFFFF" d="M99.603,29.664c0,0.362,0.073,0.582,0.218,0.729c0,0.07,0,0.146,0,0.146c-0.071,0-0.29,0-0.438,0.072
	c-0.582,0.146-1.383,0.291-1.893,0.291c-1.165,0-2.257-0.291-3.059-1.092c-0.582-0.583-0.873-1.456-0.873-2.261
	c0-0.801,0.291-1.674,0.873-2.326c0.729-0.729,1.748-1.165,3.131-1.165c0.438,0,0.947,0.069,1.311,0.146
	c0.219,0.071,0.51,0.071,0.656,0.071c0,0.292,0.072,0.803,0.145,1.604c-0.072,0.072-0.291,0.072-0.291,0
	c-0.218-0.944-0.946-1.456-1.893-1.456c-1.748,0-2.549,1.237-2.549,2.912c0,0.804,0.146,1.677,0.729,2.257
	c0.51,0.655,1.311,0.874,1.893,0.874c0.438,0,0.729-0.07,0.874-0.219c0.073-0.072,0.073-0.291,0.073-0.655V29.23
	c0-0.729,0-0.729-0.655-0.873l-0.364-0.072c-0.072-0.073-0.072-0.22,0-0.291c0.364,0,0.873,0,1.529,0c0.437,0,0.799,0,1.165,0
	c0.072,0.071,0.072,0.218,0,0.291h-0.146c-0.364,0.072-0.438,0.146-0.438,0.729L99.603,29.664L99.603,29.664z"/>
<path fill="#FFFFFF" d="M103.171,28.644c0-0.583-0.072-0.729-0.292-1.238l-1.165-2.328c-0.219-0.438-0.291-0.511-0.729-0.655
	l-0.291-0.07c-0.072-0.073-0.072-0.291,0.072-0.291c0.438,0,0.801,0,1.234,0c0.438,0,1.021,0,1.238,0
	c0.068,0.069,0.068,0.218,0,0.291l-0.291,0.07c-0.146,0-0.223,0.072-0.223,0.146c0,0.072,0.072,0.219,0.146,0.511
	c0.363,0.873,0.729,1.674,1.165,2.401c0.438-0.729,0.801-1.456,1.165-2.188c0.146-0.361,0.291-0.582,0.291-0.652
	c0-0.072-0.073-0.146-0.219-0.146l-0.291-0.072c-0.072-0.07-0.072-0.219,0-0.292c0.437,0,0.729,0,1.02,0c0.292,0,0.583,0,0.946,0
	c0.073,0.073,0.073,0.222,0,0.292l-0.291,0.072c-0.437,0.072-0.582,0.291-1.093,1.165c-0.363,0.582-0.654,1.092-0.946,1.675
	c-0.291,0.513-0.362,0.729-0.362,1.383v0.513c0,1.021,0.071,1.093,0.581,1.093l0.364,0.072c0.072,0.07,0.072,0.219,0,0.291
	c-0.583,0-1.02,0-1.456,0c-0.438,0-0.874,0-1.456,0c-0.072-0.072-0.072-0.221,0-0.291l0.291-0.072
	c0.438-0.072,0.583-0.072,0.583-1.093L103.171,28.644L103.171,28.644z"/>
<path fill="#FFFFFF" stroke="#002D5B" stroke-width="0.6143" d="M32.982,17.286c0,9.104-7.354,16.455-16.382,16.455
	c-9.028,0-16.381-7.354-16.381-16.455c0-9.101,7.354-16.454,16.382-16.454C25.629,0.757,32.982,8.185,32.982,17.286z"/>
<path fill="#002D5B" d="M33.201,17.286c0,9.247-7.427,16.673-16.601,16.673c-9.174,0-16.6-7.5-16.6-16.673
	C0,8.039,7.427,0.613,16.601,0.613C25.702,0.54,33.201,8.039,33.201,17.286z"/>
<path fill="#FFFFFF" d="M17.256,17.65c-0.219-0.072-1.602-0.654-1.602-0.654c-0.073-0.073,0-0.292,0.219-0.146
	c0.073,0,1.383,0.582,1.529,0.582C17.474,17.503,17.547,17.722,17.256,17.65z"/>
<path fill="#FFFFFF" stroke="#002D5B" stroke-width="0.6143" d="M31.017,17.286c0,8.009-6.48,14.563-14.489,14.563
	c-8.009,0-14.489-6.479-14.489-14.563c0-8.01,6.48-14.562,14.489-14.562C24.537,2.724,31.017,9.205,31.017,17.286z"/>
<g>
	<path id="SVGID_1_" fill="#FFFFFF" d="M29.633,17.286c0,7.28-5.897,13.179-13.105,13.179S3.422,24.567,3.422,17.286
		S9.32,4.107,16.528,4.107S29.633,10.005,29.633,17.286z"/>
</g>
<g>
	<g>
		<g>
			<g>
				<g>
					<g>
						<defs>
							<path id="SVGID_3_" d="M29.633,17.286c0,7.28-5.897,13.179-13.105,13.179S3.422,24.567,3.422,17.286S9.32,4.107,16.528,4.107
								S29.633,10.005,29.633,17.286z"/>
						</defs>
						<clipPath id="SVGID_4_">
							<use xlink:href="#SVGID_3_"  overflow="visible"/>
						</clipPath>
						<path clip-path="url(#SVGID_4_)" fill="#002D5B" d="M12.669,2.36c0.073,0,0.291-0.072,0.218-0.072
							c0-0.072-0.073-0.072-0.146,0C12.596,2.214,12.596,2.36,12.669,2.36z"/>
					</g>
				</g>
			</g>
		</g>
	</g>
</g>
<g>
	<g>
		<g>
			<g>
				<g>
					<g>
						<defs>
							<path id="SVGID_5_" d="M29.633,17.286c0,7.28-5.897,13.179-13.105,13.179S3.422,24.567,3.422,17.286S9.32,4.107,16.528,4.107
								S29.633,10.005,29.633,17.286z"/>
						</defs>
						<clipPath id="SVGID_6_">
							<use xlink:href="#SVGID_5_"  overflow="visible"/>
						</clipPath>
						<path clip-path="url(#SVGID_6_)" fill="#002D5B" d="M13.397,4.107c0.073,0.073,0.583,0.146,0.728,0.146
							s0.146-0.146,0.073-0.07c-0.073,0-0.874-0.146-0.946-0.146c-0.072,0-0.219-0.073-0.292-0.073c-0.073,0-0.218-0.07-0.146,0
							v0.073C12.814,3.961,13.324,4.035,13.397,4.107z"/>
					</g>
				</g>
			</g>
		</g>
	</g>
</g>
<g>
	<g>
		<g>
			<g>
				<g>
					<g>
						<defs>
							<path id="SVGID_7_" d="M29.633,17.286c0,7.28-5.897,13.179-13.105,13.179S3.422,24.567,3.422,17.286S9.32,4.107,16.528,4.107
								S29.633,10.005,29.633,17.286z"/>
						</defs>
						<clipPath id="SVGID_8_">
							<use xlink:href="#SVGID_7_"  overflow="visible"/>
						</clipPath>
						<path clip-path="url(#SVGID_8_)" fill="#002D5B" d="M13.542,3.234c0,0-0.073-0.146-0.146-0.146s-0.146,0.073-0.218,0.073
							C13.033,3.161,13.542,3.234,13.542,3.234z"/>
					</g>
				</g>
			</g>
		</g>
	</g>
</g>
<g>
	<g>
		<g>
			<g>
				<g>
					<g>
						<defs>
							<path id="SVGID_9_" d="M29.633,17.286c0,7.28-5.897,13.179-13.105,13.179S3.422,24.567,3.422,17.286S9.32,4.107,16.528,4.107
								S29.633,10.005,29.633,17.286z"/>
						</defs>
						<clipPath id="SVGID_10_">
							<use xlink:href="#SVGID_9_"  overflow="visible"/>
						</clipPath>
						<path clip-path="url(#SVGID_10_)" fill="#002D5B" d="M12.887,2.724c-0.146,0.069,0.218,0,0.218,0
							C13.033,2.651,12.96,2.651,12.887,2.724z"/>
					</g>
				</g>
			</g>
		</g>
	</g>
</g>
<g>
	<g>
		<g>
			<g>
				<g>
					<g>
						<defs>
							<path id="SVGID_11_" d="M29.633,17.286c0,7.28-5.897,13.179-13.105,13.179S3.422,24.567,3.422,17.286
								S9.32,4.107,16.528,4.107S29.633,10.005,29.633,17.286z"/>
						</defs>
						<clipPath id="SVGID_12_">
							<use xlink:href="#SVGID_11_"  overflow="visible"/>
						</clipPath>
						<path clip-path="url(#SVGID_12_)" fill="#002D5B" d="M13.033,3.015c0-0.072-0.073-0.072-0.146-0.072l0,0
							c0,0.146,0.146,0.146,0.146,0.146S13.033,3.087,13.033,3.015z"/>
					</g>
				</g>
			</g>
		</g>
	</g>
</g>
<g>
	<g>
		<g>
			<g>
				<g>
					<g>
						<defs>
							<path id="SVGID_13_" d="M29.633,17.286c0,7.28-5.897,13.179-13.105,13.179S3.422,24.567,3.422,17.286
								S9.32,4.107,16.528,4.107S29.633,10.005,29.633,17.286z"/>
						</defs>
						<clipPath id="SVGID_14_">
							<use xlink:href="#SVGID_13_"  overflow="visible"/>
						</clipPath>
						<path clip-path="url(#SVGID_14_)" fill="#002D5B" d="M23.299,26.459c0.146-0.069,0.146-0.22,0.073-0.146
							c-0.146,0-0.728,0.22-0.874,0.22c-0.073-0.073-0.291,0.071-0.146,0.146C22.498,26.605,23.153,26.533,23.299,26.459z"/>
					</g>
				</g>
			</g>
		</g>
	</g>
</g>
<g>
	<g>
		<g>
			<g>
				<g>
					<g>
						<defs>
							<path id="SVGID_15_" d="M29.633,17.286c0,7.28-5.897,13.179-13.105,13.179S3.422,24.567,3.422,17.286
								S9.32,4.107,16.528,4.107S29.633,10.005,29.633,17.286z"/>
						</defs>
						<clipPath id="SVGID_16_">
							<use xlink:href="#SVGID_15_"  overflow="visible"/>
						</clipPath>
						<path clip-path="url(#SVGID_16_)" fill="#002D5B" d="M13.033,3.379c0.073,0.073,0.364,0.146,0.437,0.221
							c0.073,0,0.364-0.072,0.146-0.072c-0.146,0-0.437-0.146-0.51-0.146C13.033,3.306,12.96,3.306,13.033,3.379z"/>
					</g>
				</g>
			</g>
		</g>
	</g>
</g>
<g>
	<g>
		<g>
			<g>
				<g>
					<g>
						<defs>
							<path id="SVGID_17_" d="M29.633,17.286c0,7.28-5.897,13.179-13.105,13.179S3.422,24.567,3.422,17.286
								S9.32,4.107,16.528,4.107S29.633,10.005,29.633,17.286z"/>
						</defs>
						<clipPath id="SVGID_18_">
							<use xlink:href="#SVGID_17_"  overflow="visible"/>
						</clipPath>
						<path clip-path="url(#SVGID_18_)" fill="#002D5B" d="M14.999,3.453c0.073,0,0.219-0.073,0.219-0.073s-0.146,0.073-0.146,0
							C15.071,3.234,14.926,3.453,14.999,3.453z"/>
					</g>
				</g>
			</g>
		</g>
	</g>
</g>
<g>
	<g>
		<g>
			<g>
				<g>
					<g>
						<defs>
							<path id="SVGID_19_" d="M29.633,17.286c0,7.28-5.897,13.179-13.105,13.179S3.422,24.567,3.422,17.286
								S9.32,4.107,16.528,4.107S29.633,10.005,29.633,17.286z"/>
						</defs>
						<clipPath id="SVGID_20_">
							<use xlink:href="#SVGID_19_"  overflow="visible"/>
						</clipPath>
						<path clip-path="url(#SVGID_20_)" fill="#002D5B" d="M13.542,3.816c0.073,0,0.218,0.072,0.292,0.072
							c0.073,0,0.218-0.072,0.146-0.072s-0.219,0-0.364-0.071C13.47,3.67,13.47,3.744,13.542,3.816z"/>
					</g>
				</g>
			</g>
		</g>
	</g>
</g>
<g>
	<g>
		<g>
			<g>
				<g>
					<g>
						<defs>
							<path id="SVGID_21_" d="M29.633,17.286c0,7.28-5.897,13.179-13.105,13.179S3.422,24.567,3.422,17.286
								S9.32,4.107,16.528,4.107S29.633,10.005,29.633,17.286z"/>
						</defs>
						<clipPath id="SVGID_22_">
							<use xlink:href="#SVGID_21_"  overflow="visible"/>
						</clipPath>
						<path clip-path="url(#SVGID_22_)" fill="#002D5B" d="M24.755,26.168c0.073-0.146-0.073,0.071-0.218,0.146
							c-2.184,1.526-4.951,1.312-5.097,1.312c-0.146-0.07-1.092,0-1.165,0c-0.073,0-0.146,0.072-0.219,0.072
							c-0.073,0-0.218,0.072,0,0.072c0.219,0,1.165-0.072,1.238,0c1.748,0.07,3.058-0.291,3.349-0.364
							C23.081,27.26,24.537,26.605,24.755,26.168z"/>
					</g>
				</g>
			</g>
		</g>
	</g>
</g>
<g>
	<g>
		<g>
			<g>
				<g>
					<g>
						<defs>
							<path id="SVGID_23_" d="M29.633,17.286c0,7.28-5.897,13.179-13.105,13.179S3.422,24.567,3.422,17.286
								S9.32,4.107,16.528,4.107S29.633,10.005,29.633,17.286z"/>
						</defs>
						<clipPath id="SVGID_24_">
							<use xlink:href="#SVGID_23_"  overflow="visible"/>
						</clipPath>
						<path clip-path="url(#SVGID_24_)" fill="#002D5B" d="M15.29,12.189c0-0.071,0.073-0.071,0.218-0.146s0.583,0.221,0.728,0.221
							c0.219-0.072,0.583,0,0.801,0.146c0.219,0.146,0.729,0.362,0.874,0.362s0.218,0.146,0.146,0.219
							c-0.073,0.073,0.364,0.582,0.437,0.655c0,0.146,0.218,0.361,0.437,0.729c0.146,0.363,0.874,0.509,0.946,0.582
							c0.073,0,0.146,0.146,0.291,0.146c0.146,0,0-0.146,0-0.146c0-0.073,0.073,0,0.146,0c0.073,0,0.146,0.146,0.146,0.072
							c0-0.072,0-0.072,0.146,0c0.073,0.072,0.073,0.072,0.146,0.146c0.073,0,0.073,0,0-0.07c-0.073-0.072,0-0.146,0.073-0.072
							c0.073,0.072,0.219,0.22,0.364,0.22c0.073,0,0-0.146-0.073-0.22c0-0.072,0.073-0.072,0.146,0
							c0.073,0.072,0.292,0.291,0.437,0.291c0.145,0,0-0.146,0-0.219c0-0.073,0.073,0,0.146,0.07
							c0.073,0.073,0.437,0.583,0.51,0.583c0.073-0.07,0.51,0.729,0.583,1.095c0.073,0.36,0.218,0.291,0.218,0.219
							c-0.51-1.896-1.092-1.967-1.311-2.111c-0.219-0.146-2.839-0.729-2.839-0.874c0-0.145-0.583-0.729-0.583-0.729
							s-0.364-0.513-0.437-0.583c-0.146-0.291-1.019-0.873-1.311-1.021c-0.218-0.146-0.437-0.146-0.874-0.218
							c-0.437-0.146-0.437-0.146-0.655-0.219c-0.219-0.072-0.51,0.291-0.51,0.36c0.218,0.222,0.51,0.513,0.729,0.804
							c0.146,0.07,0.291,0.07,0.291,0.07C15.727,12.553,15.363,12.26,15.29,12.189z"/>
					</g>
				</g>
			</g>
		</g>
	</g>
</g>
<g>
	<g>
		<g>
			<g>
				<g>
					<g>
						<defs>
							<path id="SVGID_25_" d="M29.633,17.286c0,7.28-5.897,13.179-13.105,13.179S3.422,24.567,3.422,17.286
								S9.32,4.107,16.528,4.107S29.633,10.005,29.633,17.286z"/>
						</defs>
						<clipPath id="SVGID_26_">
							<use xlink:href="#SVGID_25_"  overflow="visible"/>
						</clipPath>
						<path clip-path="url(#SVGID_26_)" fill="#002D5B" d="M18.639,25.149c-0.146,0-0.218,0-0.364,0s-0.219,0.073-0.073,0.146
							c0.073,0.073,0.292,0.073,0.364,0.073C18.712,25.294,18.785,25.149,18.639,25.149z"/>
					</g>
				</g>
			</g>
		</g>
	</g>
</g>
<g>
	<g>
		<g>
			<g>
				<g>
					<g>
						<defs>
							<path id="SVGID_27_" d="M29.633,17.286c0,7.28-5.897,13.179-13.105,13.179S3.422,24.567,3.422,17.286
								S9.32,4.107,16.528,4.107S29.633,10.005,29.633,17.286z"/>
						</defs>
						<clipPath id="SVGID_28_">
							<use xlink:href="#SVGID_27_"  overflow="visible"/>
						</clipPath>
						<path clip-path="url(#SVGID_28_)" fill="#002D5B" d="M17.911,24.275c0.146-0.071,0.073-0.146,0.073-0.146
							s-0.364-0.069-0.437-0.146c-0.146-0.071-0.218,0.146-0.073,0.146C17.62,24.203,17.766,24.348,17.911,24.275z"/>
					</g>
				</g>
			</g>
		</g>
	</g>
</g>
<g>
	<g>
		<g>
			<g>
				<g>
					<g>
						<defs>
							<path id="SVGID_29_" d="M29.633,17.286c0,7.28-5.897,13.179-13.105,13.179S3.422,24.567,3.422,17.286
								S9.32,4.107,16.528,4.107S29.633,10.005,29.633,17.286z"/>
						</defs>
						<clipPath id="SVGID_30_">
							<use xlink:href="#SVGID_29_"  overflow="visible"/>
						</clipPath>
						<path clip-path="url(#SVGID_30_)" fill="#002D5B" d="M18.129,24.712c-0.146,0-0.291-0.07-0.437-0.07s-0.218,0.146-0.073,0.146
							c0.073,0,0.364,0.072,0.437,0.072C18.129,24.858,18.202,24.712,18.129,24.712z"/>
					</g>
				</g>
			</g>
		</g>
	</g>
</g>
<g>
	<g>
		<g>
			<g>
				<g>
					<g>
						<defs>
							<path id="SVGID_31_" d="M29.633,17.286c0,7.28-5.897,13.179-13.105,13.179S3.422,24.567,3.422,17.286
								S9.32,4.107,16.528,4.107S29.633,10.005,29.633,17.286z"/>
						</defs>
						<clipPath id="SVGID_32_">
							<use xlink:href="#SVGID_31_"  overflow="visible"/>
						</clipPath>
						<path clip-path="url(#SVGID_32_)" fill="#002D5B" d="M18.494,25.732c0.073,0.072,0.728,0.146,0.801,0.072
							c0.073,0,0.146-0.072,0.146-0.146c0,0-0.073-0.073-0.218,0c-0.073,0.072-0.51,0-0.583,0
							C18.566,25.585,18.421,25.659,18.494,25.732z"/>
					</g>
				</g>
			</g>
		</g>
	</g>
</g>
<g>
	<g>
		<g>
			<g>
				<g>
					<g>
						<defs>
							<path id="SVGID_33_" d="M29.633,17.286c0,7.28-5.897,13.179-13.105,13.179S3.422,24.567,3.422,17.286
								S9.32,4.107,16.528,4.107S29.633,10.005,29.633,17.286z"/>
						</defs>
						<clipPath id="SVGID_34_">
							<use xlink:href="#SVGID_33_"  overflow="visible"/>
						</clipPath>
						<path clip-path="url(#SVGID_34_)" fill="#002D5B" d="M18.566,26.241c0.073,0.072,0.728,0.146,0.801,0.072
							c0.073,0,0.146-0.072,0.146-0.146c0,0-0.073-0.07-0.218,0c-0.073,0.071-0.51,0-0.583,0
							C18.639,26.095,18.566,26.168,18.566,26.241z"/>
					</g>
				</g>
			</g>
		</g>
	</g>
</g>
<g>
	<g>
		<g>
			<g>
				<g>
					<g>
						<defs>
							<path id="SVGID_35_" d="M29.633,17.286c0,7.28-5.897,13.179-13.105,13.179S3.422,24.567,3.422,17.286
								S9.32,4.107,16.528,4.107S29.633,10.005,29.633,17.286z"/>
						</defs>
						<clipPath id="SVGID_36_">
							<use xlink:href="#SVGID_35_"  overflow="visible"/>
						</clipPath>
						<path clip-path="url(#SVGID_36_)" fill="#002D5B" d="M18.857,26.605c0.073,0.073,0.729,0.146,0.801,0.073
							c0.073,0,0.146-0.073,0.146-0.146c0,0-0.073-0.073-0.218,0c-0.073,0.071-0.51,0-0.583,0
							C18.931,26.533,18.785,26.605,18.857,26.605z"/>
					</g>
				</g>
			</g>
		</g>
	</g>
</g>
<g>
	<g>
		<g>
			<g>
				<g>
					<g>
						<defs>
							<path id="SVGID_37_" d="M29.633,17.286c0,7.28-5.897,13.179-13.105,13.179S3.422,24.567,3.422,17.286
								S9.32,4.107,16.528,4.107S29.633,10.005,29.633,17.286z"/>
						</defs>
						<clipPath id="SVGID_38_">
							<use xlink:href="#SVGID_37_"  overflow="visible"/>
						</clipPath>
						<path clip-path="url(#SVGID_38_)" fill="#002D5B" d="M24.391,11.898L24.391,11.898c-1.748-1.528-3.713-2.11-5.534-2.11
							c0.073-0.291,0.146-0.729,0.146-1.093c0.219,0,0.655,0,0.947,0c0.146,0,0.292-0.072,0.292-0.146
							c-0.073-0.069-0.219-0.438-0.437-0.438c-0.146,0-0.51-0.219-0.728-0.292c0.072-0.873,0.145-1.819,0.145-2.62
							c0-1.82-1.02-3.275-2.548-3.35c-0.292,0-0.437-0.221-0.364-0.513c0.073-0.583,0.364-1.234,0.51-1.817
							c0.073-0.291-0.073-0.582-0.364-0.51c-0.219,0-0.364,0.07-0.51,0c-0.146,0-0.364,0.07-0.364,0.07
							c-0.218,0.071-0.291,0.291-0.364,0.438C15.145-0.334,14.78,0.54,14.78,0.685c-0.073,0.146-0.073,0.729-0.218,0.582
							c-0.073-0.146-0.146-0.146-0.219-0.221c-0.073-0.583-0.146-1.165-0.146-1.456c-0.073-0.361-0.437-0.438-0.655-0.146
							c-0.073,0.146-0.218,0.292-0.291,0.365c-0.146,0.146-0.292,0.146-0.437,0.146c-0.146-0.07-0.364,0-0.51,0.146
							c-0.146,0.146-0.364,0.219-0.51,0.069C11.503,0.104,11.43,0.03,11.285,0.03c-0.146,0-0.219,0.073-0.219,0.146
							c0.073,0.582,0.146,1.238,0.219,1.748v1.021c0,0.437,0,0.873-0.073,1.237c-0.073,0.438-0.073,0.801,0,1.092
							c0,0.22,0,0.364-0.073,0.511c-0.146,0.438-0.218,0.873-0.218,1.384c0,0.582,0,1.456,0,2.187c0,0.801-0.146,2.108-0.073,3.274
							l0,0c-0.146,0.072-0.364,0.221-0.51,0.362c0,0,0,0,0.073,0l0,0c-0.073-1.163,0.073-2.549-0.218-3.858
							c-0.073-0.651-0.728-0.58-0.874,0C9.247,9.349,9.247,9.422,9.174,9.64c-0.073,0.219-0.218,0.362-0.51,0.362
							c-0.291,0.072-0.728,0.146-0.946,0.291c-0.146,0.073-0.218,0.222-0.146,0.364c0.073,0.438,0.146,1.604,0.218,3.061
							c-0.146,0.07-0.291,0.146-0.437,0.291c-0.291,0.362-0.364,0.802-0.218,1.384c0.292,0.874,0.218,1.312,0,1.895
							C6.698,18.378,6.917,19.907,7.791,21c0,0,0,0.071,0.073,0.071c0.073,0.072,0.146,0.146,0.219,0.146l0,0
							c0.146,3.276,0.218,6.338,0.291,7.572c0,0.146,0.073,0.363,0.291,0.51c0.292,0.222,0.655,0.072,0.801-0.146
							s0.364-0.072,0.364,0.219c0,0.219,0.219,0.363,0.364,0.51c0.146,0.073,0.291,0.222,0.437,0.364
							c0.218,0.219,0.509,0.146,0.509-0.072l0,0c0-1.312-0.073-3.492-0.146-4.879l-0.073-0.069c1.02,1.234,2.257,2.185,3.859,2.767
							l0,0l0,0c0.291,1.237,0.728,3.567,0.728,3.642c0.073,0.291,0.292,0.513,0.801,0.513c0.292,0,0.583-0.146,0.801-0.146
							c0.218-0.071,0.509,0.072,0.655,0.146c0.364,0.218,0.874,0.218,1.237,0.069c0.219-0.146,0.292-0.291,0.219-0.438l0,0
							l-0.655-3.204h0.146c0.364,0.073,0.728,0.073,1.092-0.071c1.311,0,2.548-0.22,3.567-0.652
							c0.947-0.438,1.675-1.021,2.112-1.748c0.291-0.582,0.437-1.165,0.291-1.82c-0.073-0.362-0.218-0.729-0.437-1.092v-0.072
							c-0.728-1.093-1.383-2.185-1.602-3.35c-0.073-0.513,0-1.021,0.073-1.604c0.073-0.438,0.073-0.874,0-1.312
							c-0.073-0.583-0.291-1.165-0.583-1.604c0,0,0.728,0.362,1.311,0.653l0,0c0.218,0.146,0.364-0.071,0.292-0.218
							c-0.073-0.073-0.146-0.222-0.219-0.438c-0.073-0.146-0.218-0.292-0.146-0.511c0.073-0.291,0-0.655-0.218-1.166
							c-0.292-0.729-0.146-1.092,0.218-1.236C24.464,12.189,24.464,11.97,24.391,11.898z M19.076,31.629L19.076,31.629
							L19.076,31.629z M18.566,9.713c-0.364,0-1.456,0.146-1.82,0.222c0-0.146,0.073-0.874,0.219-0.874s1.019-0.146,1.165-0.146
							c0.292,0,0.364-0.073,0.583-0.073C18.639,9.205,18.639,9.496,18.566,9.713z M12.086,7.893c0.073,0,0.146,0,0.364,0
							c0.219,0.07,0.073-0.073,0-0.146c-0.073,0-0.218-0.072-0.437-0.072c-0.51-0.07-0.364-0.361-0.219-0.361
							c0.146,0,0.655,0.07,0.801,0.07s0.073-0.07,0-0.146c-0.146-0.071-0.51-0.071-0.655-0.146c-0.51-0.146-0.364-0.438-0.292-0.361
							c0.146,0,0.583,0.07,0.728,0.07c0.146,0.073,0.146-0.146,0-0.146s-0.655-0.146-0.728-0.146c-0.073,0-0.218-0.291,0.146-0.291
							c0.146,0,0.801,0.073,0.947,0.146c0.146,0,0.146-0.072,0-0.146C12.596,6.146,12.014,6.074,11.795,6
							c-0.218-0.07-0.364-0.22-0.073-0.22c0.292,0,0.583,0.073,0.801,0.146c0.218,0,0.146-0.146,0-0.146s-0.655-0.146-0.874-0.218
							c-0.218-0.073-0.218-0.222-0.073-0.222s0.874,0.222,1.02,0.222c0.218,0,0.218-0.073,0-0.146
							c-0.219-0.069-0.874-0.22-1.092-0.291c-0.218-0.069-0.146-0.146,0-0.146s0.946,0.146,1.165,0.218
							c0.218,0.073,0.073-0.146-0.073-0.218s-0.874-0.146-1.02-0.219s-0.146-0.221,0-0.146c0.146,0.072,0.51,0,0.437,0
							C11.94,4.544,11.867,4.47,11.94,4.47c0.146,0,0.291,0.07,0.437,0.146c0.146,0,0.146,0,0-0.072
							c-0.146-0.07-0.437-0.146-0.583-0.146c-0.146-0.071-0.218-0.218-0.073-0.218c0.146,0,0.51,0.146,0.728,0.218
							c0.219,0.073,0.146-0.071,0-0.071s-0.509-0.22-0.801-0.291c-0.291-0.146-0.146-0.22,0-0.146c0.146,0,0.437,0.146,0.51,0.219
							c0.073,0,0.218,0,0-0.071c-0.218-0.073-0.437-0.22-0.583-0.22c-0.146-0.071-0.146-0.146,0-0.146
							c0.218,0,0.583,0.146,0.801,0.221c0.219,0.07,0.292-0.072,0.073-0.146c-0.218-0.073-0.728-0.22-0.801-0.292
							c-0.073,0-0.146-0.146,0-0.146s0.437,0.146,0.51,0.146c0.073,0,0.218-0.073-0.073-0.073c-0.218,0-0.292-0.146-0.51-0.218
							c-0.218-0.073-0.073-0.146,0.073-0.146s0.364,0.069,0.583,0.146c0.146,0.072,0.073-0.073-0.073-0.146
							c-0.146,0-0.51-0.222-0.655-0.291c-0.146-0.073-0.146-0.146,0-0.073c0.146,0,0.437,0.146,0.583,0.146
							c0.218,0.073,0.291-0.069,0.146-0.069c-0.146-0.073-0.655-0.291-0.728-0.291c-0.073,0-0.146-0.146-0.073-0.073
							c0.146,0,0.364,0.073,0.51,0.146c0.146,0.073,0.291-0.069,0.146-0.146c-0.145-0.073-0.51-0.146-0.728-0.219
							C11.213,2.073,11.286,2,11.359,2c0.146,0,0.51,0.146,0.728,0.146c0.146,0,0.146-0.073,0-0.073s-0.583-0.218-0.728-0.291
							c-0.146-0.071-0.073-0.071,0.073-0.071s0.291,0.071,0.364,0.071c0.073,0,0.219-0.071,0-0.071
							c-0.218,0-0.291-0.146-0.437-0.146c-0.146-0.073-0.146-0.146-0.073-0.146c0.073,0,0.146,0,0.218,0.071
							c0.073,0,0.437,0,0.146-0.071c-0.218-0.071-0.218-0.146-0.364-0.146c0.146-0.438,0-0.438,0.146-0.438
							c0.073,0,0.146,0,0.364,0.072c0.219,0,0.364,0.072,0.292,0c0-0.072-0.146,0-0.583-0.146c-0.437-0.146-0.291-0.146-0.218-0.218
							c0.073-0.072,0.146,0,0.218-0.072c0.218,0.146,0.51,0.072,0.655-0.146c0.073-0.073,0.146-0.146,0.364-0.146
							c0.218,0.071,0.437,0,0.582-0.146c0.073-0.072,0.146-0.218,0.219-0.291l0.146-0.146c0.073-0.071,0.146-0.146,0.218-0.146
							s0.146,0.073,0.146,0.22c0,0.147,0.073,0.438,0.073,0.729c0,0.36,0.073,0.729,0.146,1.164
							c0.073,0.292,0.218,0.362,0.291,0.362c0.146,0,0.292-0.07,0.292-0.292l0,0c0.073,0,0.073-0.07,0.073-0.07
							c0-0.072,0.073-0.146,0.073-0.221c0.073,0,0.073-0.146,0.073-0.218c0-0.073,0.073-0.22,0.146-0.365
							c0.073-0.069,0-0.218,0-0.291c0-0.069,0.073-0.219,0.073-0.288c0,0,0.073,0,0.146,0.069c0.073,0.073,0.218-0.146,0.218-0.219
							c0-0.072,0.146-0.363,0.218-0.51c0-0.073,0.073-0.22,0.073-0.364c0.219,0.073,0.437,0,0.583,0c0.073,0,0.146,0,0.146,0.073
							c0,0,0.073,0.071,0.073,0.146s0,0.146,0,0.146l-0.073,0.22c-0.146,0.51-0.364,1.165-0.437,1.676c0,0.146,0,0.222,0,0.291
							c0,0.071,0.073,0.146,0.073,0.219c0.073,0.072,0.218,0.146,0.364,0.146c1.237,0.073,2.111,0.947,2.33,2.33
							c0.073,0.291,0.073,0.511,0.073,0.802c0,0.801-0.073,1.748-0.146,2.62c-0.073,0-0.218,0-0.364,0c-0.218,0-0.364,0-0.509-0.071
							c-0.51-0.146-0.874-0.146-1.165,0l0,0c0-0.361,0-0.652,0-0.943h0.073c0.073,0,0.073,0.07,0.073,0.146c0,0.072,0,0.51,0,0.582
							s0.073,0,0.073-0.072c0-0.07,0-0.146,0-0.361c0-0.146,0-0.655,0-0.804c0-0.146,0-0.292,0-0.438
							c-0.073-0.146-0.146-0.072-0.073,0.072c0,0.069,0,0.219,0,0.361c0,0.146-0.073,0.073-0.146,0.073c0-0.073,0-0.22,0-0.292
							c0-0.146-0.073-0.364-0.073-0.51c-0.073-0.51-0.219-0.946-0.437-1.237c-0.073-0.146-0.218-0.22-0.291-0.22
							c0-0.146-0.146-0.071-0.146-0.146c-0.073,0-0.146-0.146-0.146-0.146c0-0.071,0.146-0.146-0.073-0.146
							c-0.146-0.07-0.146,0-0.218,0c-0.073,0.073-0.292,0.073-0.146,0.146s0.291,0.146,0.291,0.22c0,0.071-0.073,0.071-0.146,0.071
							c-0.073,0-0.292-0.071-0.364-0.071c-0.072,0-0.146,0.071-0.073,0.071c0.073,0,0.364,0,0.364,0.073c0,0,0.146,0,0.073,0.438
							c-0.073,0.071-0.728,1.237-0.728,1.237c-0.073,0.072-0.947,1.021-0.947,1.092c-0.073,0.072-0.218,0.22-0.291,0.291
							c-0.146,0.146-1.092,1.165-1.238,1.384c-0.073,0-0.146-0.07-0.292-0.07C11.504,8.257,11.649,7.893,12.086,7.893z
							 M12.159,9.277c0.364-0.729,0.946-1.313,1.529-1.896c1.165-1.021,1.675-1.817,2.112-2.91c0-0.073,0.073-0.073,0.073-0.073
							s0.218,0.22,0.218,0.292c0,0,0.146,0.364,0.073,0.364c-0.073,0.069-0.146,0-0.218-0.073c-0.072-0.072-0.146,0.073,0,0.146
							c0.073,0.072,0.291,0.222,0.291,0.222c0.073,0.069,0.073,0.219,0,0.219c-0.073,0-0.291-0.219-0.437-0.292
							c-0.146-0.072-0.219,0.146-0.146,0.22c0.073,0.072,0.364,0.363,0.51,0.438c0.073,0.07,0,0.146,0.073,0.291
							c-0.437,0.438-0.728,1.02-0.874,1.602c0,0.073,0,0.073,0,0.146c0,0.069,0.073,0.146,0.073,0.146
							c0.073,0.073,0.218,0.073,0.291,0c0.219-0.146,0.583-0.218,0.729-0.146c0.146,0.069,0.291,0,0.437,0l0,0
							c0.219-0.073,0.583-0.073,1.02,0c0.218,0.068,0.437,0.068,0.655,0.068c0.146,0,0.218,0,0.291,0l0.364,0.146
							c0.073,0.069,0.218,0.069,0.291,0.146c0,0.072-0.073,0.072-0.073,0.072c-0.146,0-0.874,0.146-0.874,0.146
							c-0.073,0-0.073,0-0.146,0c-0.146-0.146-0.437-0.36-0.51-0.438c-0.073-0.073-0.146,0-0.073,0.073
							c0.073,0.069,0.291,0.218,0.364,0.36c-0.073,0-0.146,0-0.218,0l0,0c-0.073-0.069-0.292-0.219-0.364-0.36
							c-0.073-0.073-0.146,0-0.073,0.069c0.073,0.072,0.219,0.222,0.219,0.291l0,0h-0.073c-0.073,0-0.073,0-0.073-0.069
							c-0.073-0.073-0.291-0.222-0.364-0.291c-0.073-0.073-0.219,0-0.146,0c0.073,0.069,0.291,0.218,0.364,0.291v0.069
							c0,0,0,0-0.073,0c-0.073,0-0.073,0-0.146-0.069c-0.073-0.073-0.292-0.291-0.364-0.291c-0.073-0.073-0.146,0.069-0.073,0.146
							c0.073,0.072,0.218,0.146,0.218,0.219v0.073l0,0c-0.073,0-0.073,0-0.146,0.072h-0.073c-0.073-0.072-0.146-0.219-0.291-0.292
							c-0.073-0.072-0.219,0-0.146,0.073c0.073,0.069,0.292,0.219,0.292,0.291V8.84l0,0h-0.073c-0.146,0-0.146,0-0.219-0.069
							c-0.073-0.072-0.073,0.146,0,0.219l0,0c-0.073,0.072-0.073,0.072-0.146,0.146C16.088,9.06,15.87,8.841,15.87,8.841
							s-0.219-0.069-0.073,0c0.073,0.073,0.291,0.222,0.218,0.292c-0.073,0.073-0.292-0.07-0.364-0.146
							c-0.073-0.072-0.146,0-0.073,0.072c0.073,0.07,0.364,0.146,0.364,0.219c0.073,0.072,0,0.146-0.146,0.146
							c-0.146-0.07-0.292-0.07-0.437-0.146c-0.145-0.072-0.073,0.072,0,0.146c0.073,0.074,0.364,0.291,0.291,0.364
							c-0.073,0.071-0.437-0.073-0.509-0.146c-0.073-0.072-0.219,0-0.073,0.07c0.073,0.073,0.437,0.292,0.364,0.364
							c-0.073,0.071-0.437-0.146-0.51-0.22c-0.073-0.071-0.146,0-0.073,0.073c0.073,0.07,0.437,0.291,0.364,0.361
							c-0.073,0.072-0.51-0.219-0.655-0.219c-0.146-0.072-0.146,0.071-0.073,0.146c0.146,0.071,0.728,0.362,0.582,0.438
							c-0.146,0.146-0.582-0.219-0.728-0.291s-0.218,0-0.146,0.072c0.146,0.072,0.364,0.219,0.51,0.291
							c0.073,0.072,0.073,0.146-0.073,0.072c-0.146-0.072-0.728-0.438-0.874-0.363c-0.146,0-0.146,0.072,0,0.146
							s0.583,0.222,0.655,0.291c0.073,0.072-0.073,0.072-0.218,0.072c-0.146-0.072-0.437-0.291-0.583-0.291
							c-0.073,0-0.218,0-0.073,0.072s0.51,0.146,0.364,0.219s-0.364,0-0.582,0c-0.146,0-1.092,0.655-1.602,1.093
							c-0.51,0.146-0.801-0.652-0.218-1.895C11.649,10.15,12.159,9.277,12.159,9.277z M10.994,13.354c0,0,0.073-0.073,0.146,0
							c0.073,0.072,0.655,0.361,0.729,0.438c0.073,0,0.073,0.072,0.073,0.146c0,0.071-0.073,0.071-0.219,0.071
							c-0.073,0-0.291-0.146-0.437-0.221s-0.219-0.146-0.292-0.146c-0.073,0-0.073-0.073-0.073-0.073
							C10.921,13.427,10.921,13.427,10.994,13.354z M10.484,13.864C10.484,13.791,10.484,13.791,10.484,13.864
							c0.073-0.072,0.146-0.072,0.146,0l0,0c0.073,0.073,0.946,0.438,1.092,0.511c0.146,0,0.146,0.072,0.146,0.072
							s-0.073,0.072-0.219,0.072c-0.218,0-0.728-0.291-1.019-0.438l-0.146-0.146C10.412,13.937,10.484,13.864,10.484,13.864z
							 M12.887,17.941c0.073,0,0.073,0.072,0.073,0.072c0,0.07-0.146,0.07-0.218,0.07c-0.146,0-0.364-0.146-0.51-0.218
							c-0.073-0.073-0.218-0.073-0.218-0.073c-0.073,0-0.073-0.07-0.073-0.07V17.65c0,0,0.073,0,0.146,0
							C12.16,17.65,12.742,17.869,12.887,17.941z M11.431,22.82L11.431,22.82c0-0.073,0.146,0,0.801,0.219
							c0.218,0.072,0.364,0.146,0.437,0.146c0.073,0,0.655,0.219,0.655,0.291c0,0,0,0.07,0,0.146l-0.073,0.146
							c-0.073,0-0.51-0.146-0.51-0.146c-0.292-0.146-0.947-0.365-1.02-0.365c-0.146,0-0.218-0.218-0.218-0.291
							C11.431,22.892,11.431,22.892,11.431,22.82z M13.615,23.474l-0.146-0.072c-0.073,0-0.073-0.072-0.073-0.072
							s0-0.073,0.073-0.073c0,0,0.073,0,0.146,0c0,0,0.073,0.073,0.146,0.073c0.146,0.072,0.583,0.219,0.583,0.219v0.073
							l-0.073,0.071C14.198,23.693,13.688,23.547,13.615,23.474z M14.198,22.528c0,0,0,0.073-0.073,0.073s-0.946-0.291-1.092-0.291
							H12.96h-0.073c-0.073,0-0.146,0-0.146-0.146v-0.146c0.073,0,0.946,0.292,1.019,0.292c0.146,0,0.219,0,0.292,0.069
							C14.125,22.382,14.198,22.528,14.198,22.528z M13.834,21.873c-0.146,0-1.092-0.291-1.165-0.36
							c-0.073,0-0.146-0.074-0.364-0.146c-0.364-0.146-0.728-0.291-0.801-0.291c-0.364-0.146-0.874-0.219-0.874-0.51
							c0-0.071,0.073-0.146,0.073-0.219h0.073c0,0,0.146,0.07,0.218,0.07c0.146,0.072,0.655,0.291,0.874,0.363
							c0.146,0.072,1.529,0.582,1.602,0.582c0.073,0,0.218,0.072,0.291,0.072v0.071v0.072
							C13.834,21.727,13.979,21.873,13.834,21.873z M9.101,18.305c0-0.073,0-0.146,0.146-0.073c0.073,0,1.966,0.729,2.039,0.729
							l0.073,0.146c0,0.073-0.146,0.073-0.146,0.073l-1.311-0.438c-0.364-0.072-0.729-0.22-0.729-0.291
							C9.101,18.378,9.101,18.305,9.101,18.305z M9.028,20.199c0.073,0,0.801,0.362,0.801,0.362c0.146,0.146,0.219,0.51,0.219,0.582
							c0.073,0.07-0.51-0.146-0.583-0.221c-0.218-0.07-0.51-0.219-0.583-0.219c0-0.073-0.073-0.146,0-0.219
							C9.028,20.49,8.956,20.199,9.028,20.199z M9.028,21.509c0-0.071,0-0.219,0.073-0.219c0,0,1.02,0.291,1.092,0.291
							c0.218,0.071,0.218,0.51,0.218,0.51l-0.073,0.072c-0.073,0-0.874-0.291-0.946-0.291c-0.073,0-0.219-0.072-0.292-0.072
							C9.101,21.727,9.028,21.509,9.028,21.509z M9.684,19.106c0,0,0-0.146,0.073-0.146c0.073,0,0.655,0.222,0.801,0.291
							c0.146,0.071,0.218,0.071,0.291,0.146c0,0,0.073,0.073,0,0.146c0,0,0,0.146-0.073,0.146h-0.073
							C10.703,19.47,9.684,19.179,9.684,19.106z M13.688,21c0,0.071,0,0.146-0.073,0.146c-0.073,0-1.747-0.582-1.82-0.653
							c0,0-0.801-0.365-0.874-0.438l0.073-0.146c0-0.073,0.073-0.073,0.146,0c0.073,0.072,0.874,0.292,1.02,0.363l0.218,0.071
							c0.146,0.071,0.728,0.289,0.801,0.289h0.073c0.073,0,0.146,0,0.291,0.073S13.688,21,13.688,21z M13.542,20.417
							c0,0.072-0.146,0.072-0.146,0.072s-1.529-0.582-1.675-0.655c-0.218-0.069-0.437-0.146-0.509-0.218
							c0-0.073,0.073-0.438,0.655-0.146c0.146,0.069,1.456,0.51,1.456,0.51c0.146,0.071,0.073,0.146,0.146,0.291
							C13.542,20.271,13.542,20.271,13.542,20.417z M9.174,15.611c0.073-0.071,0.219-0.071,0.292,0
							c0.073,0.073,1.966,0.802,2.184,0.874c0.073,0,0.073,0.073,0.073,0.073s0,0.36,0,0.438c-0.073,0.072-0.146,0.072-0.218,0.072
							c-0.146-0.072-2.184-0.946-2.33-1.021l-0.073-0.07C9.174,15.83,9.174,15.611,9.174,15.611z M9.174,16.412
							c0.073,0,0.146,0.072,0.292,0.072c0.073,0,0.146,0.073,0.146,0.073c0.073,0,1.02,0.36,1.311,0.51l0.218,0.072
							c0.073,0,0.073,0.069,0.073,0.069v0.146c0,0,0,0.146-0.364,0.071c-0.51-0.146-1.966-0.512-1.893-0.945
							C9.028,16.485,9.174,16.412,9.174,16.412z M12.742,18.451l-0.218-0.072c-0.219-0.07-0.583-0.146-0.729-0.219
							c-0.073-0.073-0.073-0.073-0.073-0.146c0-0.073,0.073-0.072,0.146,0c0.146,0,0.437,0.146,0.655,0.219
							c0.146,0,0.218,0.073,0.291,0.146c0.073,0,0.073,0.072,0.073,0.072v0.071C12.887,18.451,12.814,18.451,12.742,18.451z
							 M11.577,15.902c-0.073,0.073-0.874-0.291-1.019-0.362c-0.146-0.073-0.729-0.291-0.801-0.364c-0.073,0-0.073-0.07-0.073-0.146
							c0-0.072,0.073-0.219,0.146-0.291h0.146c0.073,0.072,0.655,0.291,0.801,0.363c0.073,0,0.291,0.07,0.51,0.219
							c0.146,0.072,0.291,0.146,0.364,0.146c0.073,0,0.073,0.073,0.073,0.073C11.649,15.684,11.577,15.902,11.577,15.902z
							 M10.048,14.3c0.073,0,0.146,0,0.146,0.073c0.073,0.072,0.801,0.363,1.238,0.582c0.073,0,0.218,0.072,0.218,0.146
							c0,0.146-0.073,0.219-0.218,0.219c-0.218,0-1.383-0.582-1.456-0.654c0,0-0.073-0.073-0.073-0.146
							C9.975,14.374,10.048,14.3,10.048,14.3z M8.009,10.441c0.073,0.074,0.729,0.292,0.801,0.365c0.073,0,0.073-0.073,0-0.073
							c-0.073,0-0.437-0.292-0.583-0.363c-0.146-0.072,0.073-0.072,0.146-0.072c0.073,0,0.364,0.146,0.437,0.146
							c0.073,0,0.146-0.071,0.146-0.071c-0.073-0.072-0.073-0.146-0.218-0.22l0,0c0.291-0.071,0.437-0.218,0.51-0.438
							C9.32,9.568,9.32,9.422,9.393,9.204l0,0C9.466,8.986,9.611,8.84,9.757,8.84s0.219,0.146,0.292,0.364
							c0.146,0.802,0.146,1.604,0.146,2.402c0,0.511,0,1.021,0.073,1.455c-0.218,0.219-0.437,0.362-0.655,0.583l0,0
							c0,0-0.073,0-0.218,0S9.174,13.5,9.247,13.5c0.073,0,0.146-0.146,0.073-0.146c-0.073,0-0.146,0-0.292-0.073
							c-0.146,0-0.146-0.146-0.073-0.146c0.073,0,0.218,0.071,0.292,0.071c0.073,0.071,0.291-0.071,0.073-0.146
							c-0.146,0-0.437-0.22-0.583-0.22c-0.219,0-0.292-0.146-0.073-0.146C8.81,12.77,9.028,12.77,9.247,12.77
							c0.218,0,0.146-0.146,0-0.146c-0.073,0-0.437-0.07-0.583-0.146c-0.146-0.071-0.146-0.146,0-0.146s0.583,0.146,0.729,0.222
							c0.146,0.07,0.218-0.073-0.073-0.146c-0.218-0.072-0.655-0.219-0.728-0.291c-0.073,0-0.073-0.146,0.072-0.072
							c0.146,0,0.583,0.146,0.655,0.146c0.073,0,0.146-0.071-0.072-0.071c-0.146,0-0.51-0.22-0.655-0.292
							c-0.146-0.073-0.146-0.146,0-0.146s0.582,0.146,0.655,0.219c0.146,0,0.146-0.072-0.073-0.146
							c-0.218-0.069-0.655-0.291-0.801-0.291c-0.146-0.069-0.146-0.146,0-0.146s0.437,0.219,0.583,0.219s0.073-0.073,0-0.073
							c-0.073,0-0.437-0.219-0.51-0.291c-0.073-0.069-0.073-0.069,0-0.069c0.073,0,0.218,0.069,0.292,0.146
							c0.073,0,0.146-0.072,0-0.072S8.373,11.024,8.3,11.024c-0.146,0-0.073-0.146,0-0.072c0.073,0,0.364,0.146,0.51,0.146
							s0.146,0,0-0.073c-0.146,0-0.583-0.218-0.728-0.363C7.863,10.515,7.937,10.369,8.009,10.441z M9.32,17.359
							c0.801,0.219,1.529,0.582,1.966,0.729c0.364,0.146,0.146,0.222,0.218,0.292c0.146,0.072,0.364,0.146,0.728,0.291
							c0.364,0.146,0.655,0.221,0.728,0.291c0.073,0.072,0.073,0.222,0.073,0.222s0,0.069-0.073,0.069c0,0-0.073,0-0.146-0.069
							c-0.073-0.073-0.51-0.222-0.946-0.365c-0.437-0.146-0.874-0.291-0.947-0.362c-0.146-0.072-0.364-0.146-0.583-0.22
							c-0.146-0.071-0.364-0.071-0.437-0.146c-0.292-0.146-0.655-0.218-0.947-0.361C9.101,17.722,9.174,17.286,9.32,17.359z
							 M7.718,20.271c0.073,0,0-0.146-0.146-0.22C7.5,19.98,7.354,19.76,7.427,19.832c0.073,0.072,0.364,0.222,0.438,0.291
							c0.146,0.073,0.219,0,0-0.069c-0.146-0.072-0.438-0.363-0.509-0.438c-0.072-0.073-0.146-0.292-0.073-0.219
							c0.072,0.07,0.437,0.292,0.509,0.361c0.072,0.072,0.146,0,0.073-0.069c-0.074-0.072-0.365-0.291-0.51-0.438
							c-0.292-0.22-0.219-0.652-0.073-0.652c0.073,0,0.728,0.583,0.801,0.652c0.073,0.071,0.146,0,0-0.146
							c-0.073-0.146-0.655-0.583-0.728-0.654c-0.219-0.146-0.146-0.438-0.146-0.511c0-0.071,0.073-0.146,0.146-0.071
							c0.073,0.071,0.583,0.51,0.583,0.582c0.073,0.071,0.146,0,0.073-0.072c-0.073-0.07-0.437-0.362-0.51-0.51
							c-0.146-0.146,0-0.22,0.073-0.146c0.073,0.07,0.437,0.438,0.583,0.51c0.073,0.073,0.073-0.071,0-0.071
							c-0.073-0.073-0.655-0.583-0.728-0.656c-0.073,0-0.073-0.069-0.073-0.146c0.073-0.146,0.073-0.219,0.291-0.146
							c0.073,0,0.218,0.146,0.218,0.222c0.073,0.069,0.146,0,0.073-0.072s-0.292-0.291-0.364-0.364
							c-0.073-0.072,0-0.219,0.073-0.146c0.146,0.069,0.437,0.36,0.51,0.438c0.073,0.073,0.218,0,0.073-0.073
							c-0.146-0.069-0.655-0.582-0.655-0.651c0-0.146-0.073-0.729,0-0.656c0.073,0.073,0.291,0.22,0.437,0.291
							c0.146,0.146,0.073-0.071,0-0.146c-0.073-0.071-0.51-0.363-0.655-0.729c0-0.071-0.073-0.071-0.073-0.146
							c-0.219-0.511,0-1.021,0.437-1.235c0.146-0.073,0.364-0.073,0.51,0c0.146,0.072,0.146,0.146,0.146,0.146
							c0,0.072-0.073,0.072-0.146,0.072c-0.291,0-0.437,0.146-0.583,0.364c-0.073,0.146-0.073,0.361,0,0.51
							c0.073,0.146,0.218,0.291,0.292,0.438l0.291,0.437c0.437,0.583,0.437,1.529,0.364,2.188c-0.073,0.292-0.073,0.802,0,1.385
							c0.073,0.582,0,1.021-0.219,1.383C8.3,21,8.155,21.072,8.082,21.072c-0.073,0-0.219-0.071-0.291-0.146
							C7.791,20.708,7.572,20.343,7.718,20.271z M9.465,28.79c-0.073,0-0.073,0.071-0.146,0.146
							c-0.073,0.073-0.292,0.219-0.51,0.146V29.01c0-0.072,0.073-0.221,0.146-0.221c0.073,0,0.292-0.073,0.364-0.146
							c0-0.073,0.146-0.073,0.146,0C9.465,28.716,9.465,28.79,9.465,28.79z M10.921,30.027c0,0-0.146,0-0.291-0.071l0,0
							c0-0.073,0.073-0.146,0.146-0.146c0.073,0.069,0.146,0.146,0.146,0.146C10.921,30.027,10.921,30.027,10.921,30.027z
							 M10.776,28.353c0,0.36,0.146,0.801,0.146,1.234c-0.073,0-0.073-0.07-0.146-0.07l-0.146-0.072
							c-0.073-0.072-2.039-1.675-2.112-1.528l-0.073,0.072c0,0,0.073-0.219,0-0.219c-0.073-0.072,0-0.291,0-0.364
							c0.073-0.071,0.073,0,0.219,0.073c0.146,0.069,0.073-0.073,0-0.146c-0.073-0.07-0.146-0.07-0.219-0.146
							c-0.073-0.073-0.073-0.146,0-0.146c0.073,0.071,0.146,0.071,0.219,0.071c0.073,0.073,0.073-0.071,0-0.071
							c-0.073-0.073-0.146-0.073-0.292-0.146c-0.073-0.072,0-0.219,0.073-0.146c0.073,0.072,0.219,0.146,0.364,0.219
							c0.145,0.073,0.073-0.07,0-0.146c-0.073,0-0.292-0.146-0.364-0.219c-0.146-0.072-0.218-0.364,0-0.364
							c0.146,0,0.219,0.146,0.364,0.146c0.146,0.07,0.146-0.072,0.073-0.146c-0.073-0.071-0.364-0.218-0.437-0.291
							c-0.146-0.071-0.073-0.29,0.073-0.29c0.073,0,0.146,0.072,0.292,0.072c0.073,0.071,0.146-0.072,0.073-0.072
							c-0.073-0.073-0.218-0.146-0.291-0.146c-0.073-0.073-0.073-0.291,0.073-0.222c0.146,0.072,0.146,0.072,0.291,0.146
							c0.146,0.072,0.073-0.071,0-0.146c-0.073-0.069-0.291-0.146-0.364-0.146C8.519,25.073,8.519,24.927,8.665,25
							c0.073,0.071,0.218,0.146,0.291,0.146c0.073,0.072,0.218,0,0.146-0.073c-0.073-0.071-0.146-0.146-0.218-0.146
							c-0.437-0.146-0.218-1.604,0.51-1.021c0.146,0.146,0.801,0.945,1.019,0.872C10.776,24.712,10.776,28.28,10.776,28.353z
							 M9.538,22.892c-0.073,0-0.291-0.513-0.218-0.513c0.073,0,0.946,0.291,1.165,0.363c0.364,0.073,0.292,0.583,0.146,0.583
							C10.412,23.183,9.684,22.892,9.538,22.892z M14.125,26.678c-0.073,0-1.238-0.513-1.383-0.583
							c-0.073-0.072-0.073-0.363,0.146-0.291c0.073,0,1.165,0.51,1.311,0.51C14.78,26.533,14.708,26.896,14.125,26.678z
							 M11.941,24.057c-0.146,0-0.292-0.146-0.292-0.222c0-0.069,0.073-0.218,0.437-0.069c0.146,0.069,0.583,0.218,0.801,0.291
							l0.146,0.069h0.146c0.073,0,0.801,0.292,0.874,0.292c0.146,0.072,0.728,0.291,0.874,0.291C15,24.712,15,24.858,15,24.93
							C14.853,25.222,12.014,24.129,11.941,24.057z M17.037,31.702c-0.218,0-0.801,0.146-1.019,0.219
							C15.8,31.993,15.8,31.847,15.8,31.702c0-0.072,0.218-0.291,0.364-0.364c0.146-0.069,0.437-0.218,0.51-0.146
							c0.218,0.22,0.364,0.22,0.583,0.364C17.547,31.702,17.256,31.702,17.037,31.702z M18.639,31.847
							c0,0.146-0.364,0.219-0.51,0.219s-0.509-0.146-0.655-0.219c-0.146-0.073,0.073-0.291,0.146-0.363c0.146-0.072,0.291,0,0.364,0
							c0.073,0,0.364-0.072,0.437,0C18.566,31.629,18.639,31.702,18.639,31.847z M17.838,31.12
							c-0.146,0.071-0.218,0.071-0.364,0.071c0-0.071,0.073-0.146,0-0.146c-0.146,0-0.364-0.218-0.437-0.291
							c-0.073-0.07,0,0-0.146,0c-0.073,0-0.218,0-0.364,0c-0.219,0-0.219-0.874-0.219-1.021c0-0.147,0.219-0.438,0.583-0.363
							c0.219,0,0.364-0.072,0.364-0.146c0-0.072,0-0.364,0-0.364c0.291,0,0.146-0.291,0.218-0.362c0.218,0,0.51,0,0.728-0.073h0.073
							c0,0.146,0.437,2.039,0.582,2.77C18.494,30.974,18.129,31.046,17.838,31.12z M23.372,18.086v-0.07V18.086z M23.372,17.941
							L23.372,17.941L23.372,17.941z M23.372,17.869C23.372,17.869,23.372,17.795,23.372,17.869
							C23.372,17.795,23.372,17.869,23.372,17.869z M23.372,17.795C23.444,17.722,23.444,17.722,23.372,17.795
							C23.444,17.722,23.444,17.722,23.372,17.795z M23.372,16.921c0-0.069,0-0.069,0-0.069V16.921z M23.444,17.65L23.444,17.65
							L23.444,17.65z M23.444,17.577C23.444,17.577,23.444,17.503,23.444,17.577C23.444,17.503,23.444,17.577,23.444,17.577z
							 M23.444,17.431L23.444,17.431L23.444,17.431z M23.372,17.359C23.372,17.359,23.372,17.286,23.372,17.359
							C23.372,17.286,23.372,17.359,23.372,17.359z M23.372,17.212L23.372,17.212L23.372,17.212z M23.372,17.14
							C23.372,17.14,23.372,17.068,23.372,17.14C23.372,17.068,23.372,17.14,23.372,17.14z M23.372,17.068L23.372,17.068
							C23.372,16.995,23.372,16.995,23.372,17.068z M22.935,15.611c0,0,0-0.071-0.073-0.071
							C22.935,15.539,22.935,15.539,22.935,15.611z M23.372,16.776v-0.072C23.299,16.703,23.372,16.776,23.372,16.776z
							 M23.299,16.63L23.299,16.63L23.299,16.63z M23.299,16.558C23.299,16.558,23.299,16.485,23.299,16.558
							C23.299,16.485,23.299,16.558,23.299,16.558z M23.299,16.412C23.299,16.412,23.226,16.412,23.299,16.412
							C23.226,16.412,23.299,16.412,23.299,16.412z M23.226,16.339C23.226,16.339,23.226,16.266,23.226,16.339
							C23.226,16.266,23.226,16.339,23.226,16.339z M23.226,16.193L23.226,16.193L23.226,16.193z M23.153,16.121
							C23.153,16.121,23.153,16.048,23.153,16.121C23.153,16.048,23.153,16.121,23.153,16.121z M23.153,16.048
							C23.153,15.975,23.153,15.975,23.153,16.048C23.153,15.975,23.153,15.975,23.153,16.048z M23.081,15.902
							C23.081,15.902,23.081,15.83,23.081,15.902C23.081,15.83,23.081,15.902,23.081,15.902z M23.081,15.83v-0.072
							C23.008,15.757,23.081,15.757,23.081,15.83z M23.008,15.684c0,0,0-0.073-0.073-0.073
							C23.008,15.611,23.008,15.684,23.008,15.684z M22.716,15.101C22.716,15.101,22.644,15.029,22.716,15.101
							C22.644,15.029,22.716,15.101,22.716,15.101z M22.935,15.465C22.862,15.465,22.862,15.392,22.935,15.465
							C22.862,15.392,22.862,15.465,22.935,15.465z M22.862,15.392C22.862,15.32,22.862,15.32,22.862,15.392
							C22.862,15.32,22.862,15.32,22.862,15.392z M22.789,15.248L22.789,15.248L22.789,15.248z M22.716,15.174L22.716,15.174
							L22.716,15.174z M23.153,18.013c-0.364,2.038,0.655,3.641,1.602,5.17v0.069c0.146,0.292,0.364,0.805,0.437,0.947
							c0.073,0.146,0.073,0.654,0.073,0.801c0,0.222-0.364,0.874-0.437,1.021c-0.073,0.146-0.292,0.363-0.437,0.438
							c0,0-1.311,2.188-7.281,1.604c-0.51-0.146-0.583-0.51-0.655-0.654c-0.073-0.146-0.729-0.438-0.947-0.438
							c-0.146,0-0.146-0.146,0-0.222c0.146-0.069-0.146-0.146-0.291-0.218c-0.583-0.22-0.292-0.655-0.146-0.583
							s0.801,0.292,1.02,0.292c0.219,0,0.073-0.146,0-0.146c-0.073,0-0.583-0.146-0.728-0.221c-0.583-0.292,0-0.652,0.218-0.583
							c0.073,0,0.655,0.146,0.874,0.222c0.218,0.069,0.073-0.073-0.073-0.146c-0.218-0.073-0.291-0.073-0.509-0.146
							c-0.219-0.073,0-0.073,0.073-0.073c0.073,0,0.437,0.073,0.437,0.073c-0.072-0.073-0.364-0.222-0.655-0.292
							c-0.291-0.146-1.456-1.386,0.292-0.946c0.146,0.073,0.218-0.146,0.146-0.218c-0.073,0-0.946-0.438-1.165-0.438
							c-0.437-0.146-0.437-0.582-0.364-0.582c0.073,0,0.874,0.363,1.019,0.363c0.145,0,0.146-0.146,0-0.219
							c-0.073-0.072-0.801-0.291-0.874-0.291c-0.146,0-0.291-0.146-0.218-0.222c0-0.069-0.073-0.069-0.219-0.146
							c-0.146-0.146,0-0.218,0.219-0.146c0.218,0.072,0.146-0.07,0.073-0.146c-0.073-0.071-0.292-0.146-0.364-0.291
							c-0.146-0.146-0.146-0.438-0.218-0.582c-0.072-0.146,0.073-0.071,0.218,0c0.146,0,0-0.071-0.146-0.146
							c-0.146-0.072-0.218-0.146-0.218-0.219c-0.073-0.073,0.218,0,0.364,0s0.073-0.073-0.073-0.146
							c-0.146-0.073-0.291-0.146-0.291-0.222c0-0.069,0.146,0,0.364,0c0.146,0,0.073-0.146-0.073-0.146
							c-0.146-0.072-0.218,0-0.364-0.072c-0.146-0.073-0.073-0.146-0.073-0.22c0-0.072,0.073-0.072,0.219-0.072s0.218,0,0.218-0.072
							c-0.073-0.069-0.291-0.069-0.364-0.069c-0.073,0-0.219-0.146-0.146-0.222c0.073-0.07-0.073-0.219-0.073-0.219
							c-0.073,0,0.073-0.072,0.146-0.072c0.073,0,0.073-0.219-0.146-0.146c-0.291,0.073-0.073-0.218-0.146-0.438
							c0-0.218,0.073-0.218,0-0.29c-0.073-0.071-0.364,0.22-0.364,0c0.073-0.22-0.073-0.292-0.146-0.292c0,0,0-0.146-0.073-0.219
							c-0.073-0.072-0.801-0.218-0.946-0.291c-0.219-0.072,0-0.438,0.437-0.292c0.146,0.072,0.364,0.072,0.364-0.07
							c0-0.071-0.146-0.071-0.437-0.221c-0.291-0.146-0.218-0.438,0.146-0.361c0.146,0,0.219-0.072,0.146-0.146
							c-0.073-0.072-0.219-0.072-0.292-0.072c-0.218-0.069-0.437-0.729,0.146-0.652c0.073,0,0.146-0.073,0-0.146
							c-0.146,0-0.146-0.073-0.291-0.073c-0.073,0,0-0.509,0.146-0.509s0.219,0.071,0.364,0.071c0.146,0.072,0.146-0.071,0-0.146
							c-0.073-0.069-0.219-0.146-0.292-0.146c-0.073-0.072,0-0.072,0.073-0.146c0.073-0.069,0.292,0.073,0.437,0.146
							c0.146,0.072,0.146-0.146,0-0.219c-0.073-0.072-0.364-0.146-0.364-0.222c0-0.069,0-0.291,0.073-0.291
							c0.073,0,0.437,0.072,0.437,0.072s0.146-0.146,0-0.219c-0.073,0-0.073,0-0.364-0.146c-0.219-0.069,0-0.361,0.146-0.291
							c0.073,0,0.437,0.146,0.655,0.072c0.218-0.073,0.146-0.22,0-0.22c-0.146-0.071-0.583-0.146-0.728-0.219
							s0.146-0.512,0.291-0.583c0.219-0.071,0.728-0.438,1.165,0.146c0.073,0.146,0.364,0.218,0.437,0.291
							c0.073,0.071,0.437,0.291,0.51,0.362c0.073,0.146,0.218,0.07,0.437,0c0.073-0.071-0.073-0.291-0.364-0.582
							c-0.146-0.071-0.292-0.071-0.364-0.146c-0.072-0.074-0.437-0.583-0.364-0.653l0,0c-0.146-0.146-0.219-0.221-0.219-0.221
							l-0.291-0.219c0.874-0.146,1.82-0.072,2.985,0.364c0,0,1.747,1.966,1.747,2.038c0,0.07,0.292,0.146,0.364,0.07
							c0.073-0.07,0-0.361-0.146-0.361s-0.292-0.513-0.364-0.583c-0.073-0.071-0.728-0.873-0.874-0.945
							c-0.073-0.146,0.073-0.146,0.146-0.073c0.073,0.073,0.291,0.292,0.364,0.221c0.073-0.071,0-0.071-0.146-0.221
							c-0.146-0.146,0.073,0,0.146-0.07l0,0c0.583,0.07,1.165,0.291,1.748,0.729c0.874,0.582,1.602,1.383,1.893,2.257l0,0l0,0
							C22.862,15.248,23.299,16.921,23.153,18.013z M23.444,15.101v0.07c-0.073-0.07-0.146-0.07-0.218-0.146
							c-0.073-0.219-0.364-0.582-0.437-0.654c-0.073-0.073,0.073-0.22,0.292,0C23.226,14.519,23.444,14.956,23.444,15.101z
							 M22.789,11.826c-0.146,0-0.291,0.146-0.291,0.291c0.073,0.146,0,0.438,0,0.51c0,0.146,0.146,0.362,0.218,0.362
							c0.073,0.073,0.146,0.291,0.073,0.364c-0.073,0.07-0.218,0.07-0.146,0.146c0.073,0.146-0.073,0.291-0.073,0.219
							c-0.073-0.07-0.073-0.146-0.146-0.288c-0.073-0.146-0.146-0.222-0.073-0.073c0.073,0.146,0.073,0.218,0.073,0.361
							c0.073,0.146-0.073,0.222-0.146,0c-0.073-0.146-0.219-0.361-0.219-0.438c0-0.146-0.146-0.071-0.073,0.073
							c0,0.146-0.073,0.218-0.146,0c-0.073-0.146-0.218-0.654-0.291-0.802c0.073-0.146-0.073-0.146-0.073-0.072
							c0,0.072,0.073,0.22,0.073,0.291c0,0.07-0.073,0.146-0.146,0c0-0.146-0.146-0.291-0.146-0.438
							c0-0.071-0.218-0.218-0.146-0.071c0.073,0.146,0,0.22,0.073,0.363c0,0.146-0.073,0.071-0.146,0
							c0-0.07-0.073-0.219-0.073-0.292c0-0.071-0.146-0.218-0.146-0.071c0,0.071,0,0.146-0.073,0.146
							c-0.073,0-0.073-0.146-0.073-0.22c0-0.074-0.146-0.291-0.146-0.438c-0.073-0.146-0.146-0.146-0.146-0.073
							c0.073,0.073,0.073,0.291,0.073,0.364c0,0.072-0.146,0.072-0.146,0c0-0.073-0.219-0.438-0.219-0.51
							c-0.073-0.073-0.146,0-0.073,0.072c0.073,0.069,0.073,0.22,0.146,0.36c0,0.073-0.146-0.069-0.146-0.146
							c-0.073-0.073-0.146-0.292-0.218-0.364c-0.073-0.072-0.146-0.072-0.146,0c0.073,0.072,0.073,0.146,0.073,0.219
							c0.073,0.146-0.146,0-0.219-0.069c0-0.072-0.218-0.363-0.218-0.438c0-0.072-0.146,0-0.073,0.072
							c0.073,0.073,0.073,0.146,0.073,0.291c0,0.073-0.218-0.072-0.218-0.146c0-0.071-0.219-0.291-0.292-0.51
							c-0.073-0.146-0.073,0-0.073,0.071c0,0.073,0.073,0.22,0.146,0.292c0,0.073-0.073,0.073-0.146,0
							c0-0.072-0.146-0.292-0.146-0.363c0-0.072-0.218-0.146-0.073,0.146c0.146,0.219,0.073,0.219-0.073,0.219
							c-0.073,0-0.146-0.072-0.146-0.072s-0.073-0.146-0.073-0.291c0-0.145-0.146-0.072-0.073,0c0,0.071,0,0.146,0,0.219
							c0,0.073-0.146,0-0.146,0c0-0.07-0.073-0.219-0.146-0.291c0-0.07-0.146-0.07-0.073,0c0.073,0.072,0.073,0.146,0.073,0.221
							c0,0.071,0,0.07-0.073,0.07c-0.073-0.07-0.146-0.146-0.219-0.219c-0.073-0.072-0.218,0.071-0.291,0.071
							c-0.073,0-0.219-0.218-0.291-0.218c-0.073,0-0.073,0-0.073,0.07c0,0.072,0.146,0.146,0.146,0.221c0,0.07,0,0.219-0.072,0.219
							c-0.146,0-0.219-0.219-0.364-0.219s-0.291,0-0.364,0.07l0,0c-0.146,0-0.291-0.07-0.364-0.07
							c-0.146-0.073-0.219-0.073-0.292-0.073c-0.073,0-0.073-0.071-0.073-0.146c2.33-1.166,5.534-1.235,8.228,0.945h-0.073
							c-0.073,0-0.219,0-0.292,0C23.226,11.752,22.935,11.826,22.789,11.826z M23.881,12.26c-0.073,0.071-0.146,0.146-0.218,0.22
							c-0.073,0.146-0.073,0.363-0.073,0.582c0,0.146,0.073,0.292,0.146,0.438c0.073,0.222,0.146,0.513,0.218,0.654
							c0,0.146,0,0.292,0,0.438c0,0.073,0,0.146,0,0.222c0,0.146,0.073,0.291,0.219,0.361c0.073,0.146,0.218,0.291,0.218,0.364l0,0
							l0,0c0,0-0.073,0-0.146-0.073c-0.146-0.07-0.292-0.291-0.437-0.51c-0.073-0.073-0.073-0.219-0.073-0.291
							c0-0.073,0-0.219,0-0.219c0.073-0.292-0.218-0.946-0.292-1.093c-0.073-0.073-0.146-0.219-0.218-0.364
							c0-0.071-0.146-0.51,0.073-0.729c0.073-0.071,0.292-0.22,0.437-0.291C23.809,12.189,23.881,12.189,23.881,12.26z"/>
					</g>
				</g>
			</g>
		</g>
	</g>
</g>
<g>
	<g>
		<g>
			<g>
				<g>
					<g>
						<defs>
							<path id="SVGID_39_" d="M29.633,17.286c0,7.28-5.897,13.179-13.105,13.179S3.422,24.567,3.422,17.286
								S9.32,4.107,16.528,4.107S29.633,10.005,29.633,17.286z"/>
						</defs>
						<clipPath id="SVGID_40_">
							<use xlink:href="#SVGID_39_"  overflow="visible"/>
						</clipPath>
						<path clip-path="url(#SVGID_40_)" fill="#FFFFFF" d="M17.329,11.534L17.329,11.534c0,0-0.073-0.073-0.218-0.146
							c-0.292-0.146-0.583-0.291-0.947-0.364c-0.146,0-0.218,0-0.291,0c-0.073,0-0.146,0-0.292,0s-0.291,0-0.364,0
							c-0.292,0-0.583,0-0.728,0c-0.073,0-0.146,0-0.292,0.073c-0.51,0.069-0.946,0.219-1.311,0.438l0,0
							c-0.218,0.146-0.437,0.292-0.655,0.51c-0.146,0.146-0.364,0.291-0.583,0.291c-1.092,0.364-2.111,1.096-2.621,2.402
							c0,0.072,0.073,0.146,0.073,0.072c0.655-1.095,1.748-1.747,2.621-2.039c0.292-0.071,0.364,0.146,0.437,0.292
							c0.073,0.438,0.073,0.801,0,1.02c-0.073,0.222-0.146,0.438-0.291,0.729c-0.073,0.219-0.146,0.582-0.146,0.874
							c0.073,0.652,0.219,1.456-0.218,2.186c-0.073,0.071,0,0.146,0.146,0.071c0.51-0.51,0.583-1.313,0.51-2.11
							c0-0.291,0.073-0.582,0.146-0.802c0.292-0.582,0.437-0.946,0.437-1.384c0-0.291,0-0.582-0.073-0.801
							c0-0.221,0.073-0.438,0.146-0.513c0.146-0.146,0.583-0.438,0.874-0.438c0.219-0.071,0.364,0.071,0.437,0.22
							c0.437,0.729,1.02,1.092,1.893,1.454c0.364,0.146,0.437,0.365,0.364,0.656c0,0.069,0,0.438-0.364,0.729
							c-0.583,0.51-0.874,1.021-1.092,1.604c-0.073,0.218-0.218,0.438-0.51,0.51c-1.019,0.291-1.674,1.02-1.311,1.894
							c0.292,0.729,0.364,1.021,0.51,1.604s0.364,1.456,0.583,2.039c0.292,0.873,0.728,1.674,1.02,2.108
							c0.073,0.146,0.146,0.072,0.073-0.07c-0.437-0.804-0.874-2.038-1.02-2.694c0-0.071,0-0.218,0.146-0.218
							c0.364,0.073,1.238,0.291,1.82,0.583c0.073,0.072,0.146-0.073,0.073-0.146c-0.583-0.36-1.529-0.729-1.966-0.802
							c-0.146,0-0.219-0.146-0.219-0.362c-0.146-0.583-0.291-1.384-0.583-2.109c-0.218-0.438,0-0.729,0.292-1.021
							c0.218-0.146,0.582-0.292,0.801-0.292c0.073,0,0.073,0,0.146,0l0.073,0.072c0,0.072,0.073,0.072,0.073,0.146
							c0.073,0.438,0.364,0.946,0.655,1.237c0.292,0.363,0.437,0.583,0.51,0.946c0.073,0.146,0.146,0.146,0.146,0
							c0-0.291-0.146-0.729-0.438-1.021c-0.292-0.361-0.51-0.801-0.583-1.165c-0.073-0.361,0-0.652,0.073-0.943
							c0.146-0.583,0.583-1.165,1.02-1.457c0.364-0.291,0.655-0.801,0.582-1.455c0-0.146,0.219-0.292,0.292-0.072
							c0.291,0.654,0.728,1.164,1.238,1.455c1.165,0.729,1.238,1.894,0.218,2.477c-1.311,0.804-1.238,1.969-0.655,2.985
							c0.292,0.438,0.437,0.729,0.583,0.945s0.218,0.51,0.073,0.729c-0.364,0.729-0.364,1.528,0.073,2.039
							c0.292,0.438,0.437,0.729,0.583,0.945c0.073,0.22,0.218,0.146,0.146,0c-0.073-0.362-0.364-0.801-0.509-1.021
							c-0.219-0.438-0.146-1.166,0-1.457c0.073-0.291,0.218-0.438,0.291-0.582c0.073-0.146,0.218-0.219,0.291-0.069
							c0.292,0.291,0.51,0.801,0.655,1.092c0.146,0.291,0.364,0.438,0.583,0.511c0.437,0.218,0.947,0.582,1.092,0.945
							c0.073,0.146,0.146,0.072,0.146,0c-0.146-0.51-0.51-0.801-1.019-1.165c-0.292-0.219-0.437-0.291-0.51-0.582
							c-0.218-0.583-0.364-1.093-0.801-1.384c-0.292-0.146-0.51-0.218-0.655-0.438c-0.51-0.653-0.728-1.235-0.728-1.817
							c0.073-0.513,0.437-1.021,0.946-1.313c0.583-0.364,0.874-0.947,0.874-1.529c0-0.146,0.146-0.219,0.292-0.219
							c0.583,0.146,1.238,0.51,1.456,1.528c0,0.146,0.146,0.146,0.146,0c-0.073-0.51-0.218-1.383-1.165-1.819
							c-0.073-0.072-0.218-0.072-0.218-0.072h-0.073c-0.073,0-0.146,0-0.218-0.07c-0.146,0-0.364,0-0.51-0.221
							c-0.292-0.51-0.655-0.729-1.02-0.944c-0.364-0.221-0.655-0.655-0.874-1.092c-0.218-0.438-0.51-0.804-1.02-0.804
							c-0.874-0.07-1.602-0.361-2.039-1.092c-0.073-0.146,0-0.292,0.146-0.292c1.238,0.072,1.966,0.292,2.622,0.945
							c0.509,0.438,0.801,0.874,1.092,1.312c0.51,0.729,1.238,0.874,2.111,0.874c0.874,0,1.457,0.363,1.966,1.527
							c0.292,0.875,0.364,1.677-0.073,2.259c-0.364,0.582-0.509,1.313-0.364,1.896c0.073,0.361,0.073,0.653,0.146,1.02
							c0.073,0.364,0.364,0.802,0.728,1.238c0.292,0.291,0.364,0.51,0.437,0.873c0.073,0.361,0.218,0.652,0.437,0.944
							c0.073,0.072,0.146,0,0.073-0.07c-0.073-0.073-0.219-0.438-0.292-0.874c-0.073-0.438-0.218-0.804-0.437-0.946
							c-0.146-0.146-0.291-0.363-0.364-0.654c-0.073-0.22,0.073-0.291,0.291-0.146c0.655,0.438,1.383,1.234,1.675,2.257
							c0.073,0.146,0.146,0.146,0.146,0c-0.073-0.873-0.728-1.893-1.456-2.548c-0.292-0.292-0.728-0.583-0.874-1.236
							c-0.146-0.583,0.073-1.021,0.364-1.604c0.292-0.583,0.364-1.456-0.073-2.621c-0.291-0.874-0.728-1.384-1.165-1.604l0,0
							c0,0-0.073,0-0.073-0.07c-0.364-0.146-0.801-0.222-1.092-0.222c-0.655-0.069-1.237-0.069-1.674-0.651
							c-0.146-0.222-0.583-0.804-1.165-1.457"/>
					</g>
				</g>
			</g>
		</g>
	</g>
</g>
<g>
	<g>
		<g>
			<g>
				<g>
					<g>
						<defs>
							<path id="SVGID_41_" d="M29.633,17.286c0,7.28-5.897,13.179-13.105,13.179S3.422,24.567,3.422,17.286
								S9.32,4.107,16.528,4.107S29.633,10.005,29.633,17.286z"/>
						</defs>
						<clipPath id="SVGID_42_">
							<use xlink:href="#SVGID_41_"  overflow="visible"/>
						</clipPath>
						<path clip-path="url(#SVGID_42_)" fill="#002D5B" d="M14.489,10.878l-0.292,0.072c-0.51,0.072-0.946,0.219-1.383,0.438l0,0
							l0,0l0,0c-0.218,0.146-0.437,0.291-0.655,0.51c-0.146,0.146-0.364,0.22-0.51,0.291c-0.946,0.364-2.111,1.021-2.694,2.399
							c0,0.073,0,0.146,0.073,0.146c0.073,0,0.146,0,0.146-0.072c0.583-0.944,1.529-1.676,2.621-2.038c0.073,0,0.146,0,0.219,0
							c0.073,0.071,0.073,0.146,0.146,0.221c0.073,0.437,0.073,0.728,0,1.02c-0.073,0.146-0.146,0.364-0.146,0.511l-0.146,0.291
							c-0.073,0.221-0.146,0.583-0.146,0.874v0.146c0.073,0.582,0.146,1.312-0.218,2.038c-0.073,0.07,0,0.146,0,0.219
							c0.073,0,0.146,0.072,0.218-0.071c0.583-0.511,0.583-1.385,0.51-2.186c0-0.292,0-0.583,0.146-0.729
							c0.292-0.582,0.437-0.943,0.437-1.456v-0.291v-0.51c0-0.22,0-0.364,0.146-0.511c0.146-0.147,0.583-0.362,0.874-0.438
							c0.218,0,0.291,0.074,0.364,0.222c0.51,0.801,1.02,1.166,1.82,1.526c0.292,0.146,0.364,0.222,0.364,0.582l0,0
							c-0.072,0.291-0.072,0.583-0.364,0.874c-0.583,0.51-0.947,1.021-1.092,1.604c-0.073,0.146-0.146,0.36-0.437,0.438
							c-0.655,0.146-1.092,0.509-1.311,0.945c-0.146,0.291-0.146,0.655-0.073,1.021l0.073,0.291
							c0.218,0.582,0.291,0.804,0.437,1.313c0.146,0.582,0.364,1.456,0.583,2.039c0.292,0.873,0.728,1.674,1.02,2.108
							c0.073,0.072,0.146,0.072,0.218,0.072s0.073-0.146,0-0.219c-0.437-0.802-0.874-1.966-1.02-2.693V21.8c0,0,0,0,0.073,0
							c0.364,0,1.237,0.291,1.82,0.513c0.073,0.069,0.146,0,0.218-0.073c0-0.072,0-0.146-0.073-0.219
							c-0.655-0.364-1.529-0.729-2.039-0.804c-0.073,0-0.146-0.146-0.146-0.291l-0.073-0.292c-0.146-0.579-0.218-1.161-0.51-1.817
							c-0.146-0.362-0.073-0.653,0.292-0.944c0.146-0.146,0.583-0.292,0.728-0.292c0.073,0,0.073,0,0.073,0l0.073,0.072
							c0,0,0,0.072,0.073,0.146c0.146,0.438,0.364,0.946,0.655,1.313c0.292,0.291,0.437,0.583,0.51,0.874
							c0.073,0.146,0.146,0.146,0.146,0.146s0.146,0,0.073-0.218c0-0.291-0.219-0.729-0.437-1.094
							c-0.292-0.362-0.51-0.801-0.51-1.164c-0.073-0.291,0-0.582,0.073-0.946c0.146-0.582,0.583-1.164,0.947-1.455
							c0.437-0.362,0.655-0.874,0.655-1.526c0-0.073,0-0.073,0.073-0.073c0.073,0,0.073,0,0.073,0.073
							c0.291,0.652,0.655,1.234,1.165,1.526c0.583,0.362,0.946,0.803,0.946,1.313c0,0.438-0.146,0.801-0.583,1.092
							c-1.456,0.946-1.165,2.185-0.728,3.059c0.218,0.438,0.437,0.729,0.583,0.945l0,0c0.146,0.22,0.146,0.438,0.073,0.656
							c-0.364,0.729-0.364,1.526,0.073,2.108c0.219,0.363,0.437,0.729,0.583,0.946c0.073,0.146,0.146,0.146,0.218,0.146
							c0.073,0,0.073-0.073,0.073-0.222c-0.073-0.361-0.292-0.729-0.437-0.943l-0.073-0.073c-0.219-0.362-0.146-1.092,0-1.383
							l0.218-0.438l0.073-0.146c0-0.073,0.073-0.146,0.146-0.146c0,0,0.073,0,0.073,0.072c0.218,0.291,0.437,0.729,0.582,1.02v0.073
							c0.146,0.292,0.364,0.438,0.583,0.583c0.364,0.218,0.874,0.51,1.019,0.945c0.073,0.146,0.146,0.146,0.146,0.146
							c0.073,0,0.073-0.07,0.073-0.146c-0.146-0.583-0.51-0.801-0.946-1.165l-0.073-0.071c-0.292-0.22-0.437-0.292-0.51-0.583
							l-0.146-0.292c-0.146-0.437-0.292-0.873-0.728-1.093l-0.219-0.146c-0.146-0.072-0.291-0.146-0.437-0.292
							c-0.51-0.653-0.729-1.235-0.729-1.745c0-0.438,0.364-0.947,0.874-1.238c0.583-0.362,0.946-0.945,0.874-1.604
							c0-0.069,0-0.069,0.073-0.146c0.073-0.073,0.146-0.072,0.219,0c0.801,0.146,1.237,0.655,1.383,1.456
							c0,0.146,0.073,0.146,0.146,0.146c0.073,0,0.146-0.07,0.146-0.218c-0.073-0.438-0.146-1.385-1.165-1.82
							c-0.146-0.07-0.218-0.146-0.291-0.07h-0.073l-0.219-0.073h-0.073c-0.146,0-0.291-0.071-0.364-0.218
							c-0.292-0.513-0.655-0.805-1.02-1.021c-0.364-0.219-0.655-0.654-0.874-1.094c-0.218-0.438-0.51-0.801-1.02-0.872
							c-0.874-0.072-1.529-0.438-2.039-1.021v-0.072c0,0,0,0,0-0.072c0-0.073,0.073-0.073,0.146-0.073
							c1.238,0.073,1.966,0.291,2.621,0.874c0.51,0.438,0.801,0.874,1.092,1.313c0.583,0.802,1.383,0.943,2.184,0.943
							c0.801,0,1.384,0.222,1.894,1.457c0.364,0.946,0.364,1.677,0,2.187c-0.364,0.582-0.51,1.312-0.364,1.967
							c0.073,0.219,0.073,0.363,0.073,0.51c0,0.147,0,0.292,0.073,0.513c0.073,0.437,0.364,0.874,0.728,1.234
							c0.292,0.291,0.364,0.511,0.437,0.801c0.073,0.292,0.146,0.656,0.437,0.947c0.073,0.071,0.146,0.071,0.218,0
							c0.073-0.073,0.073-0.146,0-0.22c0,0-0.218-0.291-0.291-0.873c-0.073-0.438-0.219-0.801-0.437-1.021
							c-0.146-0.146-0.292-0.291-0.364-0.653c0-0.072,0-0.146,0-0.146s0.073,0,0.146,0.071c0.364,0.291,1.311,1.093,1.602,2.259
							c0,0.146,0.073,0.146,0.146,0.146c0.073,0,0.073-0.073,0.073-0.146c-0.073-0.875-0.655-1.968-1.529-2.621l0,0l0,0
							c-0.291-0.292-0.728-0.583-0.801-1.166c0-0.146-0.073-0.218-0.073-0.36c0-0.364,0.146-0.729,0.437-1.165
							c0.146-0.292,0.219-0.655,0.219-1.096c0-0.438-0.073-1.021-0.292-1.525c-0.291-0.805-0.655-1.313-1.165-1.604l-0.073-0.146
							c-0.364-0.146-0.801-0.222-1.092-0.292H20.75c-0.655-0.073-1.238,0-1.602-0.512l-0.146-0.146
							c-0.219-0.29-0.583-0.801-1.092-1.237c-0.218-0.146-0.437-0.36-0.655-0.509c0,0-0.073-0.073-0.218-0.146
							c-0.292-0.146-0.583-0.291-0.947-0.364c-0.073,0-0.218-0.072-0.291-0.072l0,0h-0.292h-0.364
							C14.853,10.878,14.635,10.878,14.489,10.878z M12.887,11.534c0.364-0.219,0.801-0.364,1.311-0.438l0.292-0.073
							c0.146,0,0.364,0,0.728,0h0.364h0.292c0.073,0,0.146,0,0.291,0.073c0.364,0.069,0.655,0.219,0.874,0.36
							c0.073,0,0.146,0.073,0.219,0.073l0,0l0,0l0,0l0,0l0,0c0.218,0.146,0.437,0.292,0.655,0.51c0.51,0.438,0.874,0.945,1.02,1.236
							l0.146,0.146c0.437,0.582,0.946,0.654,1.674,0.654l0,0h0.073c0.292,0,0.655,0.072,1.02,0.219h0.073l0,0
							c0.51,0.291,0.874,0.804,1.165,1.529c0.146,0.582,0.291,1.092,0.291,1.528c0,0.438-0.073,0.729-0.218,1.021
							c-0.291,0.438-0.437,0.873-0.437,1.236c0,0.146,0,0.219,0.073,0.364c0.146,0.582,0.51,0.943,0.874,1.234h0.073
							c0.801,0.655,1.383,1.677,1.456,2.551l0,0l0,0c0,0,0,0,0-0.072c-0.291-1.237-1.238-2.039-1.674-2.33
							c-0.146-0.071-0.219-0.071-0.292,0c0,0-0.073,0.073-0.073,0.146c0,0,0,0.072,0,0.146c0.146,0.364,0.291,0.511,0.437,0.656
							c0.146,0.146,0.364,0.51,0.364,0.942c0.073,0.438,0.219,0.804,0.292,0.947l0,0l0,0c-0.219-0.291-0.364-0.582-0.437-0.874
							c-0.073-0.364-0.146-0.582-0.437-0.874c-0.364-0.438-0.583-0.802-0.728-1.237c-0.073-0.218-0.073-0.361-0.073-0.51
							c0-0.146,0-0.291-0.073-0.511c-0.073-0.218-0.073-0.363-0.073-0.582c0-0.438,0.146-0.945,0.437-1.313
							c0.218-0.292,0.291-0.652,0.291-1.093c0-0.363-0.073-0.801-0.291-1.237c-0.437-1.093-1.02-1.525-1.966-1.525
							c-0.729,0-1.529-0.073-2.039-0.875c-0.291-0.438-0.655-0.873-1.092-1.313c-0.655-0.582-1.457-0.873-2.694-0.942
							c-0.146,0-0.218,0-0.218,0.146v0.072c0,0.073,0,0.073,0.073,0.146c0.51,0.655,1.238,1.021,2.111,1.095
							c0.51,0.07,0.729,0.362,0.947,0.801c0.218,0.438,0.51,0.875,0.946,1.094c0.364,0.218,0.728,0.438,0.947,0.945
							c0.146,0.22,0.291,0.22,0.437,0.291h0.073l0.218,0.073l0,0h0.073c0,0,0.073,0,0.219,0.07c0.874,0.363,1.092,1.092,1.165,1.747
							l0,0v0.073c0,0,0,0,0-0.073c-0.218-1.093-0.874-1.456-1.456-1.604c-0.146,0-0.218,0-0.291,0.07
							c-0.073,0.073-0.073,0.146-0.073,0.222l0,0v0.07c0,0.513-0.292,1.021-0.874,1.386c-0.582,0.361-0.874,0.873-0.946,1.383v0.073
							c0,0.51,0.291,1.165,0.728,1.746c0.146,0.146,0.291,0.22,0.437,0.29l0.218,0.146c0.364,0.219,0.51,0.582,0.655,1.02
							l0.146,0.291c0.146,0.291,0.218,0.438,0.583,0.655h0.073c0.437,0.364,0.801,0.582,0.947,1.092l0,0l0,0
							c-0.146-0.51-0.655-0.801-1.092-1.019c-0.218-0.073-0.437-0.22-0.51-0.511v-0.072c-0.146-0.292-0.364-0.729-0.583-1.021
							c-0.073-0.07-0.146-0.07-0.218-0.07c-0.072,0-0.146,0.07-0.218,0.22l-0.073,0.146l-0.218,0.438
							c-0.073,0.219-0.146,0.438-0.146,0.802c0,0.291,0.073,0.582,0.146,0.729l0.073,0.07c0.146,0.291,0.364,0.582,0.437,0.946
							c0,0,0,0,0,0.072c0,0,0,0-0.073-0.072c-0.073-0.219-0.292-0.582-0.583-0.946c-0.218-0.291-0.292-0.581-0.292-0.943
							c0-0.363,0.073-0.655,0.292-1.021c0.073-0.146,0.073-0.219,0.073-0.361c0-0.146-0.073-0.291-0.146-0.438l0,0
							c-0.146-0.22-0.292-0.438-0.583-0.874c-0.437-0.874-0.728-2.038,0.655-2.912c0.437-0.292,0.728-0.729,0.728-1.165
							c0-0.51-0.364-1.021-0.946-1.456c-0.437-0.292-0.874-0.802-1.165-1.456c-0.073-0.146-0.146-0.146-0.219-0.146
							c-0.073,0-0.146,0.146-0.146,0.22l0,0c0,0.072,0,0.072,0,0.146c0,0.51-0.218,0.942-0.583,1.234
							c-0.364,0.291-0.874,0.874-1.019,1.528c-0.073,0.219-0.073,0.438-0.073,0.655c0,0.069,0,0.218,0,0.291
							c0.073,0.36,0.292,0.801,0.583,1.164c0.219,0.292,0.364,0.729,0.437,1.021l0,0l0,0c0,0,0,0,0-0.072
							c-0.073-0.291-0.291-0.582-0.583-0.944c-0.291-0.291-0.51-0.804-0.655-1.236c0-0.073-0.073-0.146-0.073-0.146l0,0l0,0
							l-0.073-0.071l0,0c-0.073,0-0.073-0.072-0.146-0.072c-0.219,0-0.655,0.146-0.801,0.291c-0.291,0.219-0.364,0.438-0.364,0.654
							c0,0.146,0,0.219,0.073,0.361c0.218,0.655,0.364,1.237,0.51,1.82l0.073,0.291c0.073,0.219,0.146,0.363,0.291,0.363
							c0.437,0.072,1.383,0.438,1.966,0.802l0,0l0,0c-0.655-0.291-1.529-0.511-1.893-0.582c-0.073,0-0.146,0-0.146,0.071
							c0,0.072-0.073,0.072-0.073,0.146v0.073c0.146,0.729,0.583,1.966,1.02,2.767l0,0l0,0c-0.292-0.437-0.728-1.234-1.02-2.108
							c-0.218-0.583-0.437-1.456-0.583-2.039c-0.146-0.509-0.218-0.801-0.437-1.313l-0.073-0.291
							c-0.073-0.146-0.073-0.291-0.073-0.438c0-0.147,0.073-0.363,0.146-0.51c0.218-0.364,0.655-0.729,1.237-0.874
							c0.292-0.072,0.51-0.363,0.583-0.583c0.146-0.582,0.51-1.021,1.02-1.527c0.291-0.292,0.364-0.655,0.438-0.946l0,0
							c0-0.07,0-0.07,0-0.146c0-0.291-0.146-0.438-0.438-0.582c-0.801-0.291-1.383-0.654-1.82-1.383
							c-0.073-0.146-0.218-0.291-0.51-0.291c-0.291,0.069-0.728,0.291-0.946,0.51c-0.146,0.146-0.218,0.291-0.218,0.51v0.072v0.511
							v0.291v0.071c0,0.438-0.146,0.729-0.437,1.312c-0.073,0.222-0.146,0.438-0.146,0.729c0,0.072,0,0.072,0,0.146
							c0,0.222,0,0.364,0,0.583c0,0.582-0.072,1.164-0.509,1.528l0,0l0,0c0.218-0.438,0.291-0.874,0.291-1.312
							c0-0.291,0-0.582-0.073-0.804v-0.14c0-0.071,0-0.146,0-0.146c0-0.219,0.073-0.438,0.146-0.652l0.073-0.222
							c0.072-0.146,0.146-0.36,0.218-0.51c0-0.146,0.073-0.22,0.073-0.36c0-0.222,0-0.364-0.073-0.656
							c0-0.146-0.073-0.291-0.146-0.291c-0.072-0.071-0.146-0.071-0.291,0c-1.02,0.291-1.966,1.021-2.548,1.895
							c0.583-1.234,1.675-1.895,2.548-2.186c0.146-0.071,0.364-0.146,0.583-0.362C12.45,11.826,12.596,11.679,12.887,11.534
							L12.887,11.534L12.887,11.534z M22.061,14.3L22.061,14.3L22.061,14.3L22.061,14.3z"/>
					</g>
				</g>
			</g>
		</g>
	</g>
</g>
<g>
	<g>
		<g>
			<g>
				<g>
					<g>
						<defs>
							<path id="SVGID_43_" d="M29.633,17.286c0,7.28-5.897,13.179-13.105,13.179S3.422,24.567,3.422,17.286
								S9.32,4.107,16.528,4.107S29.633,10.005,29.633,17.286z"/>
						</defs>
						<clipPath id="SVGID_44_">
							<use xlink:href="#SVGID_43_"  overflow="visible"/>
						</clipPath>
						<path clip-path="url(#SVGID_44_)" fill="#FFFFFF" d="M13.179,22.82c-0.219-0.073-0.364-0.219-0.655-0.583
							c0,0-0.073-0.072-0.219-0.146c-0.146-0.071-0.437-0.438-0.51-0.51c-0.073-0.072-0.655-0.438-0.728-0.438
							c-0.583-0.221-0.728-0.729-0.874-0.945l0,0l0,0c-0.146-0.219-0.291-0.438-0.437-0.729l0,0c0,0.07-0.218-0.363-0.291-0.438l0,0
							c-0.073-0.071-0.292-0.219-0.292-0.146c0,0.071,0.146,0.362,0.146,0.438c0.073,0.073,0.291,0.438,0.291,0.583
							c0,0.073,0.292,0.438,0.364,0.583l0,0c0.218,0.291,0.364,0.582,0.437,0.802c0.146,0.362,0.219,0.438,0.292,0.801
							c0.073,0.438,0.291,1.021,0.437,1.313c0,0.072,0.073,0.072,0.073,0.072s0-0.072,0-0.146c-0.146-0.511-0.364-1.312-0.364-1.528
							c0-0.146,0-0.146,0.073-0.219c0.073-0.073,0.146,0,0.292,0.071c0.291,0.22,0.655,0.511,0.946,0.874
							c0.146,0.219,0.437,0.438,0.801,0.511c0.073,0,0.073,0,0.073,0l0,0C13.251,22.964,13.251,22.892,13.179,22.82z"/>
					</g>
				</g>
			</g>
		</g>
	</g>
</g>
<g>
	<path id="SVGID_2_" fill="none" stroke="#002D5B" stroke-width="0.6143" d="M29.633,17.286c0,7.28-5.897,13.179-13.105,13.179
		S3.422,24.567,3.422,17.286S9.32,4.107,16.528,4.107S29.633,10.005,29.633,17.286z"/>
</g>
<rect x="121.001" y="1.807" opacity="0.3" fill="#FFFFFF" enable-background="new    " width="0.25" height="30.75"/>
</svg>
