<?xml version="1.0" encoding="utf-8"?>
<!-- Generator: Adobe Illustrator 18.0.0, SVG Export Plug-In . SVG Version: 6.00 Build 0)  -->
<!DOCTYPE svg PUBLIC "-//W3C//DTD SVG 1.1//EN" "http://www.w3.org/Graphics/SVG/1.1/DTD/svg11.dtd">
<svg version="1.1" xmlns="http://www.w3.org/2000/svg" xmlns:xlink="http://www.w3.org/1999/xlink" x="0px" y="0px"
	 viewBox="0 0 1310.934 275.653" enable-background="new 0 0 1310.934 275.653" xml:space="preserve">
<g id="Layer_5">
</g>
<g id="Layer_3">
</g>
<g id="Layer_2">
	<g>
		<path fill="#194277" d="M66.104,80.159c0-15.108-0.817-18.987-10.004-19.804l-6.533-0.613c-1.633-1.225-1.429-4.287,0.204-5.104
			c11.025-1.021,24.908-1.633,43.895-1.633c12.862,0,25.112,1.021,34.299,5.717c8.779,4.287,15.516,12.454,15.516,25.52
			c0,14.7-8.575,22.254-20.824,27.97c0,2.042,1.633,2.654,3.879,3.063c11.025,2.042,27.358,12.25,27.358,34.095
			c0,23.683-17.558,39.607-54.308,39.607c-5.92,0-15.924-0.612-24.5-0.612c-8.983,0-15.924,0.408-23.479,0.612
			c-1.225-0.612-1.633-3.879-0.408-5.104l3.675-0.612c10.821-1.837,11.229-4.083,11.229-25.521V80.159z M82.846,107.312
			c0,5.717,0.204,6.125,10.617,5.717c20.824-0.817,32.053-6.941,32.053-26.133c0-20.008-14.904-27.562-30.42-27.562
			c-4.492,0-7.554,0.408-9.392,1.225c-2.042,0.612-2.858,1.633-2.858,5.308V107.312z M82.846,154.678
			c0,7.35,0.409,17.762,4.288,22.254c3.879,4.696,10.004,5.716,16.129,5.716c18.17,0,32.053-8.166,32.053-28.583
			c0-16.129-8.167-34.912-40.628-34.912c-11.024,0-11.841,1.225-11.841,5.308V154.678z"/>
		<path fill="#194277" d="M181.051,129.77c0-7.962,0-8.983-5.512-12.658l-1.837-1.225c-0.817-0.817-0.817-3.063,0.204-3.675
			c4.696-1.633,15.516-6.941,20.621-10.004c1.021,0.204,1.633,0.613,1.633,1.429v11.841c0,1.021,0.205,1.633,0.613,1.837
			c7.146-5.92,14.904-12.25,22.458-12.25c5.104,0,9.187,3.267,9.187,8.167c0,6.737-5.512,9.392-8.779,9.392
			c-2.042,0-3.063-0.613-4.492-1.429c-3.063-2.042-6.125-3.267-8.983-3.267c-3.267,0-5.717,1.837-7.35,4.083
			c-2.042,2.858-2.654,8.779-2.654,15.721v27.766c0,14.7,0.409,17.149,8.167,17.762l7.35,0.612c1.429,1.021,1.021,4.492-0.408,5.104
			c-9.596-0.408-15.517-0.612-22.662-0.612c-7.35,0-13.475,0.204-18.783,0.612c-1.429-0.612-1.837-4.083-0.408-5.104l3.879-0.612
			c7.554-1.225,7.758-3.063,7.758-17.762V129.77z"/>
		<path fill="#194277" d="M248.831,129.77c0-7.962,0-8.983-5.512-12.658l-1.837-1.225c-0.817-0.817-0.817-3.063,0.204-3.675
			c4.696-1.633,16.333-6.941,21.029-10.004c1.021,0,1.837,0.409,2.042,1.225c-0.408,7.146-0.817,16.945-0.817,25.316v36.749
			c0,14.7,0.409,16.741,7.758,17.762l4.288,0.612c1.429,1.021,1.021,4.492-0.408,5.104c-6.125-0.408-12.046-0.612-19.191-0.612
			c-7.35,0-13.475,0.204-19.191,0.612c-1.429-0.612-1.837-4.083-0.408-5.104l4.287-0.612c7.554-1.021,7.758-3.063,7.758-17.762
			V129.77z M265.777,71.584c0,7.35-5.104,10.617-10.821,10.617c-6.329,0-10.412-4.696-10.412-10.208
			c0-6.737,4.9-11.025,11.024-11.025C261.693,60.968,265.777,65.868,265.777,71.584z"/>
		<path fill="#194277" d="M367.857,158.557c0,16.129,0.204,23.683,5.921,23.683c2.246,0,5.716-1.021,8.779-2.042
			c1.429,0.408,1.633,5.512-0.204,6.533c-8.575,1.225-21.233,4.288-26.95,6.533c-1.225,0-2.246-0.612-2.246-1.633v-3.471
			c0-3.063,0-5.513-0.408-6.329h-0.817c-8.983,6.125-15.925,9.392-25.725,9.392c-22.662,0-37.77-17.762-37.77-39.199
			c0-28.583,21.642-46.958,49.408-46.958c6.941,0,11.433,1.021,13.679,1.837c1.021,0,1.225-1.225,1.225-2.858V73.218
			c0-12.046-0.204-13.271-6.329-16.946l-2.042-1.225c-1.021-0.612-1.021-3.471,0-4.083c5.104-1.633,14.7-4.696,22.049-8.575
			c0.817,0,1.633,0.408,2.042,1.225c-0.204,6.125-0.612,16.333-0.612,25.316V158.557z M352.749,127.933
			c0-4.083-0.817-5.921-2.246-7.962c-3.062-4.287-9.187-8.575-17.149-8.575c-18.579,0-28.174,16.129-28.174,33.891
			c0,18.579,10.412,36.137,30.42,36.137c5.513,0,12.454-2.45,15.721-5.717c1.225-1.225,1.429-4.287,1.429-7.554V127.933z"/>
		<path fill="#194277" d="M476.267,112.417c2.245,1.021,1.837,7.962-1.226,8.371h-14.699c0.408,3.471,0.408,6.941,0.408,10.412
			c0,14.087-8.371,32.462-34.3,32.462c-3.675,0-6.533-0.408-8.983-0.613c-2.45,1.429-8.983,5.309-8.983,11.229
			c0,4.696,4.696,8.575,14.292,8.575c6.941,0,15.312-0.613,24.295-0.613c11.433,0,28.583,2.042,28.583,22.458
			c0,22.254-24.295,38.587-50.836,38.587c-25.112,0-33.891-13.475-33.891-23.683c0-3.267,0.817-5.92,2.246-7.554
			c3.471-3.675,9.188-8.983,13.883-13.679c1.838-1.837,3.471-3.675,1.633-4.9c-7.962-2.042-14.904-8.983-14.904-16.129
			c0-1.021,0.817-1.837,3.063-3.471c3.471-2.246,7.35-5.716,10.821-9.392c1.021-1.225,2.042-2.858,2.042-3.879
			c-6.941-3.675-15.312-11.637-15.312-24.704c0-17.558,15.108-30.829,33.278-30.829c7.758,0,14.904,2.042,19.6,4.083
			c6.533,2.858,7.962,3.267,12.455,3.267H476.267z M433.597,194.898c-6.533,0-14.7,0.408-17.558,2.246
			c-4.9,3.063-9.8,9.392-9.8,17.15c0,11.025,8.779,20.212,27.358,20.212c18.17,0,30.216-10.208,30.216-21.845
			c0-12.454-8.575-17.762-23.275-17.762H433.597z M446.254,136.508c0-13.883-5.716-25.52-18.17-25.52
			c-9.8,0-17.149,8.983-17.149,22.866c0,14.496,8.779,23.887,18.579,23.887C440.538,157.741,446.254,148.962,446.254,136.508z"/>
		<path fill="#194277" d="M502.809,136.099c-5.308,0-5.512,0.408-5.512,5.512c0,20.621,12.045,38.179,33.891,38.179
			c6.737,0,12.454-2.042,18.783-10.004c2.041-0.613,3.471,0.612,3.675,2.45c-6.737,13.883-21.438,18.987-32.054,18.987
			c-13.271,0-23.683-5.717-29.604-13.475c-6.125-7.962-8.575-17.558-8.575-26.542c0-25.112,16.537-46.141,41.037-46.141
			c17.558,0,28.991,12.045,28.991,24.295c0,2.858-0.408,4.492-0.816,5.308c-0.613,1.225-3.471,1.429-12.046,1.429H502.809z
			 M515.467,129.974c15.108,0,19.6-0.816,21.233-2.042c0.612-0.408,1.225-1.225,1.225-3.879c0-5.717-3.879-12.862-15.721-12.862
			c-12.045,0-22.458,11.025-22.662,17.762c0,0.408,0,1.021,1.43,1.021H515.467z"/>
		<path fill="#194277" d="M640.211,140.999c-1.429-4.492-2.245-5.104-8.37-5.104h-30.829c-5.104,0-6.329,0.612-7.758,4.9
			l-7.146,21.437c-3.063,9.188-4.492,14.7-4.492,16.945c0,2.45,1.021,3.675,5.921,4.083l6.737,0.612
			c1.43,1.021,1.43,4.288-0.408,5.104c-5.308-0.408-11.637-0.408-21.232-0.612c-6.737,0-14.088,0.408-19.6,0.612
			c-1.225-0.816-1.634-4.083-0.408-5.104l6.737-0.612c4.899-0.408,9.392-2.654,12.249-10.004
			c3.676-9.392,9.392-22.662,17.967-45.528l20.824-55.124c2.858-7.35,4.084-11.229,3.471-14.496c4.9-1.429,8.371-5.104,10.617-7.758
			c1.225,0,2.653,0.408,3.063,1.837c2.653,8.983,5.92,18.375,8.982,27.357l27.971,82.074c5.921,17.558,8.574,20.62,17.354,21.641
			l5.513,0.612c1.429,1.021,1.021,4.288,0,5.104c-8.371-0.408-15.517-0.612-24.704-0.612c-9.8,0-17.558,0.408-23.479,0.612
			c-1.633-0.816-1.837-4.083-0.408-5.104l5.921-0.612c4.287-0.408,7.146-1.633,7.146-3.675c0-2.246-1.021-5.921-2.654-10.821
			L640.211,140.999z M599.787,122.829c-1.633,4.696-1.429,4.9,4.287,4.9h25.112c5.921,0,6.329-0.817,4.491-6.329l-11.024-33.278
			c-1.633-4.9-3.471-10.413-4.695-12.862h-0.408c-0.613,1.021-2.654,5.92-4.9,12.045L599.787,122.829z"/>
		<path fill="#194277" d="M704.318,129.77c0-7.962,0-8.983-5.513-12.658l-1.837-1.225c-0.816-0.817-0.816-3.063,0.204-3.675
			c4.695-1.633,16.333-6.941,20.416-10.004c0.816,0,1.838,0.409,2.246,1.429c-0.408,4.696-0.408,7.758-0.408,9.596
			c0,1.225,0.816,2.246,2.245,2.246c8.575-5.308,18.171-10.412,28.583-10.412c16.945,0,23.888,11.637,23.888,25.316v35.116
			c0,14.7,0.408,16.741,7.758,17.762l4.491,0.612c1.43,1.021,1.021,4.492-0.408,5.104c-6.125-0.408-12.046-0.612-19.191-0.612
			c-7.35,0-13.475,0.204-18.987,0.612c-1.429-0.612-1.837-4.083-0.408-5.104l3.879-0.612c7.555-1.225,7.759-3.063,7.759-17.762
			v-30.42c0-11.637-5.309-20.212-19.191-20.212c-7.758,0-14.495,3.267-17.354,7.146c-2.654,3.471-3.063,6.329-3.063,12.25v31.237
			c0,14.7,0.408,16.537,7.758,17.762l3.675,0.612c1.43,1.021,1.021,4.492-0.408,5.104c-5.513-0.408-11.433-0.612-18.579-0.612
			c-7.35,0-13.475,0.204-19.19,0.612c-1.43-0.612-1.838-4.083-0.409-5.104l4.288-0.612c7.554-1.021,7.758-3.063,7.758-17.762V129.77
			z"/>
		<path fill="#194277" d="M828.245,116.5c-3.471,0-3.675,0.612-3.675,4.9v38.178c0,11.842,1.43,22.662,14.904,22.662
			c2.041,0,3.879-0.408,5.512-1.021c1.838-0.613,4.492-2.858,5.104-2.858c1.633,0,2.45,2.246,2.042,3.471
			c-3.676,4.288-11.025,9.392-21.438,9.392c-17.558,0-21.233-9.8-21.233-22.05v-46.753c0-5.513-0.204-5.921-4.287-5.921h-5.717
			c-1.225-0.816-1.429-3.063-0.612-4.288c5.921-1.837,11.025-4.491,13.066-6.329c2.654-2.45,6.533-7.962,8.575-12.046
			c1.021-0.408,3.471-0.408,4.287,1.021v9.187c0,3.675,0.204,3.879,3.675,3.879h22.662c2.45,1.837,2.042,7.35,0.204,8.575H828.245z"
			/>
		<path fill="#194277" d="M874.182,129.77c0-7.962,0-8.983-5.513-12.658l-1.837-1.225c-0.816-0.817-0.816-3.063,0.204-3.675
			c4.695-1.633,16.333-6.941,21.028-10.004c1.021,0,1.838,0.409,2.042,1.225c-0.408,7.146-0.816,16.945-0.816,25.316v36.749
			c0,14.7,0.408,16.741,7.758,17.762l4.287,0.612c1.43,1.021,1.021,4.492-0.408,5.104c-6.125-0.408-12.045-0.612-19.191-0.612
			c-7.35,0-13.475,0.204-19.19,0.612c-1.43-0.612-1.838-4.083-0.409-5.104l4.288-0.612c7.554-1.021,7.758-3.063,7.758-17.762V129.77
			z M891.127,71.584c0,7.35-5.104,10.617-10.82,10.617c-6.329,0-10.412-4.696-10.412-10.208c0-6.737,4.899-11.025,11.024-11.025
			S891.127,65.868,891.127,71.584z"/>
		<path fill="#194277" d="M981.57,108.537c1.633,1.429,3.063,4.696,3.063,8.167c0,3.675-2.042,7.554-4.492,7.554
			c-1.021,0-2.041-0.409-2.857-1.429c-4.492-5.513-12.046-10.821-20.417-10.821c-14.291,0-28.174,11.229-28.174,32.87
			c0,15.925,11.024,34.912,32.87,34.912c11.841,0,17.966-5.308,22.662-12.25c1.633-0.408,3.471,1.021,3.675,2.858
			c-6.941,15.108-22.254,20.825-34.096,20.825c-10.82,0-20.824-3.471-27.97-10.413c-7.146-6.941-11.842-16.945-11.842-30.216
			c0-22.05,15.517-45.528,49.407-45.528C968.095,105.067,976.057,106.088,981.57,108.537z"/>
		<path fill="#194277" d="M1080.385,147.328c0,25.52-17.558,43.895-43.078,43.895c-23.479,0-41.854-16.537-41.854-42.058
			c0-25.725,19.396-44.099,43.487-44.099C1061.806,105.067,1080.385,122.217,1080.385,147.328z M1036.491,111.192
			c-13.475,0-23.479,12.862-23.479,35.32c0,18.579,8.37,38.587,26.337,38.587c17.966,0,23.479-18.783,23.479-34.503
			C1062.828,133.241,1055.886,111.192,1036.491,111.192z"/>
		<path fill="#194277" d="M1135.918,146.103c3.063-1.021,3.471-2.858,3.471-5.921l0.204-9.391
			c0.204-7.554-2.246-17.762-14.904-17.762c-5.716,0-12.658,2.858-13.066,9.188c-0.204,3.267-0.408,5.716-2.041,6.941
			c-3.063,2.45-8.575,3.879-11.638,3.879c-1.837,0-2.858-1.021-2.858-2.858c0-10.616,23.07-25.112,37.975-25.112
			c14.699,0,21.846,8.575,21.232,23.887l-1.225,35.524c-0.408,9.392,1.43,17.762,9.392,17.762c2.042,0,3.879-0.612,5.104-1.225
			c1.021-0.613,2.041-1.429,2.653-1.429c0.817,0,1.43,1.225,1.43,2.654c0,1.021-7.146,8.983-17.149,8.983
			c-4.9,0-9.801-1.837-13.271-6.329c-0.816-1.225-2.041-2.858-3.267-2.858c-1.429,0-3.879,1.837-7.962,4.083
			c-4.491,2.45-8.983,5.104-14.699,5.104c-5.921,0-10.821-1.633-14.292-4.696c-3.879-3.471-6.329-8.575-6.329-14.292
			c0-7.962,3.879-12.658,16.945-17.354L1135.918,146.103z M1123.26,182.036c4.083,0,10.412-3.063,12.454-5.104
			c2.449-2.45,2.449-5.308,2.654-9.596l0.408-12.045c0-2.246-0.817-2.654-2.042-2.654s-4.695,0.817-8.37,2.042
			c-12.046,4.083-17.967,7.146-17.967,15.108C1110.398,173.257,1112.848,182.036,1123.26,182.036z"/>
		<path fill="#194277" d="M1261.07,112.417c2.246,1.021,1.837,7.962-1.225,8.371h-14.7c0.408,3.471,0.408,6.941,0.408,10.412
			c0,14.087-8.37,32.462-34.299,32.462c-3.675,0-6.533-0.408-8.983-0.613c-2.45,1.429-8.983,5.309-8.983,11.229
			c0,4.696,4.696,8.575,14.292,8.575c6.941,0,15.312-0.613,24.295-0.613c11.433,0,28.583,2.042,28.583,22.458
			c0,22.254-24.296,38.587-50.837,38.587c-25.112,0-33.891-13.475-33.891-23.683c0-3.267,0.816-5.92,2.245-7.554
			c3.472-3.675,9.188-8.983,13.884-13.679c1.837-1.837,3.471-3.675,1.633-4.9c-7.962-2.042-14.903-8.983-14.903-16.129
			c0-1.021,0.816-1.837,3.063-3.471c3.471-2.246,7.35-5.716,10.82-9.392c1.021-1.225,2.042-2.858,2.042-3.879
			c-6.942-3.675-15.313-11.637-15.313-24.704c0-17.558,15.107-30.829,33.278-30.829c7.758,0,14.904,2.042,19.6,4.083
			c6.533,2.858,7.962,3.267,12.454,3.267H1261.07z M1218.4,194.898c-6.533,0-14.7,0.408-17.559,2.246
			c-4.899,3.063-9.8,9.392-9.8,17.15c0,11.025,8.779,20.212,27.358,20.212c18.17,0,30.216-10.208,30.216-21.845
			c0-12.454-8.575-17.762-23.274-17.762H1218.4z M1231.058,136.508c0-13.883-5.717-25.52-18.171-25.52
			c-9.8,0-17.149,8.983-17.149,22.866c0,14.496,8.779,23.887,18.579,23.887C1225.341,157.741,1231.058,148.962,1231.058,136.508z"/>
	</g>
</g>
<g id="Layer_1">
	<g id="Layer_4">
	</g>
</g>
</svg>
