<?xml version="1.0" encoding="utf-8"?>
<!-- Generator: Adobe Illustrator 19.1.0, SVG Export Plug-In . SVG Version: 6.00 Build 0)  -->
<!DOCTYPE svg PUBLIC "-//W3C//DTD SVG 1.1//EN" "http://www.w3.org/Graphics/SVG/1.1/DTD/svg11.dtd">
<svg version="1.1" id="Layer_1" xmlns="http://www.w3.org/2000/svg" xmlns:xlink="http://www.w3.org/1999/xlink" x="0px" y="0px"
	 viewBox="-355 253.1 248 55.9" style="enable-background:new -355 253.1 248 55.9;" xml:space="preserve">
<style type="text/css">
	.st0{fill:#FFFFFF;}
	.st1{fill:none;stroke:#002D5B;stroke-width:0.6183;}
	.st2{fill:#002D5B;}
	.st3{clip-path:url(#SVGID_2_);fill:#002D5B;}
	.st4{clip-path:url(#SVGID_2_);fill:#FFFFFF;}
</style>
<path class="st0" d="M-156.8,280c-1.8,0-2.9-0.6-3.4-0.8c-0.3-0.5-0.5-2-0.6-3c0.1-0.2,0.4-0.2,0.5-0.1c0.3,1.1,1.2,3.2,3.7,3.2
	c1.8,0,2.7-1.2,2.7-2.5c0-0.9-0.2-2-1.8-3l-2-1.3c-1.1-0.7-2.3-1.9-2.3-3.7c0-2,1.6-3.7,4.4-3.7c0.7,0,1.4,0.1,2,0.3
	c0.3,0.1,0.6,0.1,0.8,0.1c0.2,0.5,0.4,1.7,0.4,2.6c-0.1,0.1-0.4,0.2-0.5,0.1c-0.3-1-0.9-2.4-2.9-2.4c-2.1,0-2.6,1.4-2.6,2.4
	c0,1.2,1,2.1,1.8,2.6l1.7,1.1c1.4,0.8,2.7,2.1,2.7,4.1C-152.3,278.4-154.1,280-156.8,280z"/>
<path class="st0" d="M-148.6,272.1c-0.4,0-0.4,0.1-0.4,0.5v4c0,1.2,0.2,2.4,1.6,2.4c0.2,0,0.4,0,0.6-0.1c0.2-0.1,0.5-0.3,0.5-0.3
	c0.2,0,0.3,0.2,0.2,0.4c-0.4,0.5-1.2,1-2.3,1c-1.8,0-2.2-1-2.2-2.3v-4.9c0-0.6,0-0.6-0.5-0.6h-0.6c-0.1-0.1-0.2-0.3-0.1-0.5
	c0.6-0.2,1.2-0.5,1.4-0.7c0.3-0.3,0.7-0.8,0.9-1.3c0.1,0,0.4,0,0.5,0.1v1c0,0.4,0,0.4,0.4,0.4h2.4c0.3,0.2,0.2,0.8,0,0.9H-148.6z"/>
<path class="st0" d="M-140.8,275.2c0.3-0.1,0.4-0.3,0.4-0.6l0-1c0-0.8-0.2-1.9-1.6-1.9c-0.6,0-1.3,0.3-1.4,1c0,0.3,0,0.6-0.2,0.7
	c-0.3,0.3-0.9,0.4-1.2,0.4c-0.2,0-0.3-0.1-0.3-0.3c0-1.1,2.4-2.6,4-2.6c1.5,0,2.3,0.9,2.2,2.5l-0.1,3.7c0,1,0.2,1.9,1,1.9
	c0.2,0,0.4-0.1,0.5-0.1c0.1-0.1,0.2-0.2,0.3-0.2c0.1,0,0.2,0.1,0.2,0.3c0,0.1-0.8,0.9-1.8,0.9c-0.5,0-1-0.2-1.4-0.7
	c-0.1-0.1-0.2-0.3-0.3-0.3c-0.2,0-0.4,0.2-0.8,0.4c-0.5,0.3-0.9,0.5-1.5,0.5c-0.6,0-1.1-0.2-1.5-0.5c-0.4-0.4-0.7-0.9-0.7-1.5
	c0-0.8,0.4-1.3,1.8-1.8L-140.8,275.2z M-142.1,279c0.4,0,1.1-0.3,1.3-0.5c0.3-0.3,0.3-0.6,0.3-1l0-1.3c0-0.2-0.1-0.3-0.2-0.3
	c-0.1,0-0.5,0.1-0.9,0.2c-1.3,0.4-1.9,0.8-1.9,1.6C-143.4,278-143.2,279-142.1,279z"/>
<path class="st0" d="M-134.2,272.1c-0.4,0-0.4,0.1-0.4,0.5v4c0,1.2,0.2,2.4,1.6,2.4c0.2,0,0.4,0,0.6-0.1c0.2-0.1,0.5-0.3,0.5-0.3
	c0.2,0,0.3,0.2,0.2,0.4c-0.4,0.5-1.2,1-2.3,1c-1.8,0-2.2-1-2.2-2.3v-4.9c0-0.6,0-0.6-0.5-0.6h-0.6c-0.1-0.1-0.2-0.3-0.1-0.5
	c0.6-0.2,1.2-0.5,1.4-0.7c0.3-0.3,0.7-0.8,0.9-1.3c0.1,0,0.4,0,0.5,0.1v1c0,0.4,0,0.4,0.4,0.4h2.4c0.3,0.2,0.2,0.8,0,0.9H-134.2z"/>
<path class="st0" d="M-129.8,273.5c0-0.8,0-0.9-0.6-1.3l-0.2-0.1c-0.1-0.1-0.1-0.3,0-0.4c0.5-0.2,1.7-0.7,2.2-1.1
	c0.1,0,0.2,0,0.2,0.1c0,0.8-0.1,1.8-0.1,2.7v3.9c0,1.5,0,1.8,0.8,1.9l0.5,0.1c0.2,0.1,0.1,0.5,0,0.5c-0.6,0-1.3-0.1-2-0.1
	c-0.8,0-1.4,0-2,0.1c-0.2-0.1-0.2-0.4,0-0.5l0.5-0.1c0.8-0.1,0.8-0.3,0.8-1.9V273.5z M-128,267.4c0,0.8-0.5,1.1-1.1,1.1
	c-0.7,0-1.1-0.5-1.1-1.1c0-0.7,0.5-1.2,1.2-1.2S-128,266.8-128,267.4z"/>
<path class="st0" d="M-124.7,273.5c0-0.8,0-0.9-0.6-1.3l-0.2-0.1c-0.1-0.1-0.1-0.3,0-0.4c0.5-0.2,1.7-0.7,2.1-1.1
	c0.1,0,0.2,0,0.2,0.2c0,0.5,0,0.8,0,1c0,0.1,0.1,0.2,0.2,0.2c0.9-0.6,1.9-1.1,3-1.1c1.8,0,2.5,1.2,2.5,2.7v3.7c0,1.5,0,1.8,0.8,1.9
	l0.5,0.1c0.2,0.1,0.1,0.5,0,0.5c-0.6,0-1.3-0.1-2-0.1c-0.8,0-1.4,0-2,0.1c-0.2-0.1-0.2-0.4,0-0.5l0.4-0.1c0.8-0.1,0.8-0.3,0.8-1.9
	V274c0-1.2-0.6-2.1-2-2.1c-0.8,0-1.5,0.3-1.8,0.8c-0.3,0.4-0.3,0.7-0.3,1.3v3.3c0,1.5,0,1.7,0.8,1.9l0.4,0.1c0.2,0.1,0.1,0.5,0,0.5
	c-0.6,0-1.2-0.1-2-0.1c-0.8,0-1.4,0-2,0.1c-0.2-0.1-0.2-0.4,0-0.5l0.5-0.1c0.8-0.1,0.8-0.3,0.8-1.9V273.5z"/>
<path class="st0" d="M-202.3,287.5c0-2.3,0-2.6-1.3-2.7l-0.5,0c-0.1-0.1-0.1-0.5,0-0.5c1.1,0,1.8,0.1,2.7,0.1c0.9,0,1.6,0,2.7-0.1
	c0.1,0.1,0.2,0.5,0,0.5l-0.5,0c-1.3,0.1-1.3,0.5-1.3,2.7v7.6c0,2.3,0,2.6,1.3,2.7l0.5,0.1c0.1,0.1,0.1,0.5,0,0.5
	c-1.1,0-1.8-0.1-2.7-0.1c-0.9,0-1.6,0-2.7,0.1c-0.1-0.1-0.2-0.4,0-0.5l0.5-0.1c1.3-0.2,1.3-0.5,1.3-2.7V287.5z"/>
<path class="st0" d="M-196.1,292.3c0-0.8,0-0.9-0.6-1.3l-0.2-0.1c-0.1-0.1-0.1-0.3,0-0.4c0.5-0.2,1.7-0.7,2.1-1.1
	c0.1,0,0.2,0,0.2,0.2c0,0.5,0,0.8,0,1c0,0.1,0.1,0.2,0.2,0.2c0.9-0.6,1.9-1.1,3-1.1c1.8,0,2.5,1.2,2.5,2.7v3.7c0,1.5,0,1.8,0.8,1.9
	l0.5,0.1c0.2,0.1,0.1,0.5,0,0.5c-0.6,0-1.3-0.1-2-0.1c-0.8,0-1.4,0-2,0.1c-0.2-0.1-0.2-0.4,0-0.5l0.4-0.1c0.8-0.1,0.8-0.3,0.8-1.9
	v-3.2c0-1.2-0.6-2.1-2-2.1c-0.8,0-1.5,0.3-1.8,0.8c-0.3,0.4-0.3,0.7-0.3,1.3v3.3c0,1.5,0,1.7,0.8,1.9l0.4,0.1c0.2,0.1,0.1,0.5,0,0.5
	c-0.6,0-1.2-0.1-2-0.1c-0.8,0-1.4,0-2,0.1c-0.2-0.1-0.2-0.4,0-0.5l0.5-0.1c0.8-0.1,0.8-0.3,0.8-1.9V292.3z"/>
<path class="st0" d="M-183.9,290.9c-0.4,0-0.4,0.1-0.4,0.5v4c0,1.2,0.2,2.4,1.6,2.4c0.2,0,0.4,0,0.6-0.1c0.2-0.1,0.5-0.3,0.5-0.3
	c0.2,0,0.3,0.2,0.2,0.4c-0.4,0.5-1.2,1-2.3,1c-1.8,0-2.2-1-2.2-2.3v-4.9c0-0.6,0-0.6-0.5-0.6h-0.6c-0.1-0.1-0.2-0.3-0.1-0.5
	c0.6-0.2,1.2-0.5,1.4-0.7c0.3-0.3,0.7-0.8,0.9-1.3c0.1,0,0.4,0,0.5,0.1v1c0,0.4,0,0.4,0.4,0.4h2.4c0.3,0.2,0.2,0.8,0,0.9H-183.9z"/>
<path class="st0" d="M-171.9,294.1c0,2.7-1.8,4.6-4.5,4.6c-2.5,0-4.4-1.7-4.4-4.4c0-2.7,2-4.6,4.6-4.6
	C-173.9,289.7-171.9,291.5-171.9,294.1z M-176.6,290.3c-1.4,0-2.5,1.4-2.5,3.7c0,2,0.9,4.1,2.8,4.1c1.9,0,2.5-2,2.5-3.6
	C-173.8,292.6-174.5,290.3-176.6,290.3z"/>
<path class="st0" d="M-168.6,296c0,1.5,0,1.8,0.8,1.9l0.5,0.1c0.2,0.1,0.1,0.5,0,0.5c-0.7,0-1.3-0.1-2.1-0.1c-0.8,0-1.4,0-2.1,0.1
	c-0.2-0.1-0.2-0.4,0-0.5l0.5-0.1c0.8-0.1,0.8-0.3,0.8-1.9v-9.7c0-1.3,0-1.4-0.7-1.8l-0.2-0.1c-0.1-0.1-0.1-0.4,0-0.4
	c0.5-0.2,1.5-0.5,2.3-0.9c0.1,0,0.2,0,0.2,0.1c0,0.6-0.1,1.7-0.1,2.7V296z"/>
<path class="st0" d="M-164.8,292.9c-0.6,0-0.6,0-0.6,0.6c0,2.2,1.3,4,3.6,4c0.7,0,1.3-0.2,2-1.1c0.2-0.1,0.4,0.1,0.4,0.3
	c-0.7,1.5-2.3,2-3.4,2c-1.4,0-2.5-0.6-3.1-1.4c-0.6-0.8-0.9-1.8-0.9-2.8c0-2.6,1.7-4.9,4.3-4.9c1.8,0,3,1.3,3,2.6
	c0,0.3,0,0.5-0.1,0.6c-0.1,0.1-0.4,0.2-1.3,0.2H-164.8z M-163.5,292.3c1.6,0,2.1-0.1,2.2-0.2c0.1,0,0.1-0.1,0.1-0.4
	c0-0.6-0.4-1.4-1.7-1.4c-1.3,0-2.4,1.2-2.4,1.9c0,0,0,0.1,0.2,0.1H-163.5z"/>
<path class="st0" d="M-157.9,292.3c0-0.8,0-0.9-0.6-1.3l-0.2-0.1c-0.1-0.1-0.1-0.3,0-0.4c0.5-0.2,1.6-0.7,2.2-1.1
	c0.1,0,0.2,0.1,0.2,0.2v1.2c0,0.1,0,0.2,0.1,0.2c0.8-0.6,1.6-1.3,2.4-1.3c0.5,0,1,0.3,1,0.9c0,0.7-0.6,1-0.9,1
	c-0.2,0-0.3-0.1-0.5-0.2c-0.3-0.2-0.6-0.3-0.9-0.3c-0.3,0-0.6,0.2-0.8,0.4c-0.2,0.3-0.3,0.9-0.3,1.7v2.9c0,1.5,0,1.8,0.9,1.9
	l0.8,0.1c0.2,0.1,0.1,0.5,0,0.5c-1,0-1.6-0.1-2.4-0.1c-0.8,0-1.4,0-2,0.1c-0.2-0.1-0.2-0.4,0-0.5l0.4-0.1c0.8-0.1,0.8-0.3,0.8-1.9
	V292.3z"/>
<path class="st0" d="M-147.7,294c0.3-0.1,0.4-0.3,0.4-0.6l0-1c0-0.8-0.2-1.9-1.6-1.9c-0.6,0-1.3,0.3-1.4,1c0,0.3,0,0.6-0.2,0.7
	c-0.3,0.3-0.9,0.4-1.2,0.4c-0.2,0-0.3-0.1-0.3-0.3c0-1.1,2.4-2.6,4-2.6c1.5,0,2.3,0.9,2.2,2.5l-0.1,3.7c0,1,0.2,1.9,1,1.9
	c0.2,0,0.4-0.1,0.5-0.1c0.1-0.1,0.2-0.2,0.3-0.2c0.1,0,0.2,0.1,0.2,0.3c0,0.1-0.8,0.9-1.8,0.9c-0.5,0-1-0.2-1.4-0.7
	c-0.1-0.1-0.2-0.3-0.3-0.3c-0.2,0-0.4,0.2-0.8,0.4c-0.5,0.3-0.9,0.5-1.5,0.5c-0.6,0-1.1-0.2-1.5-0.5c-0.4-0.4-0.7-0.9-0.7-1.5
	c0-0.8,0.4-1.3,1.8-1.8L-147.7,294z M-149.1,297.8c0.4,0,1.1-0.3,1.3-0.5c0.3-0.3,0.3-0.6,0.3-1l0-1.3c0-0.2-0.1-0.3-0.2-0.3
	c-0.1,0-0.5,0.1-0.9,0.2c-1.3,0.4-1.9,0.8-1.9,1.6C-150.4,296.8-150.2,297.8-149.1,297.8z"/>
<path class="st0" d="M-142,292.3c0-0.8,0-0.9-0.6-1.3l-0.2-0.1c-0.1-0.1-0.1-0.3,0-0.4c0.5-0.2,1.7-0.7,2.1-1.1c0.1,0,0.2,0,0.2,0.2
	c0,0.5,0,0.8,0,1c0,0.1,0.1,0.2,0.2,0.2c0.9-0.6,1.9-1.1,3-1.1c1.8,0,2.5,1.2,2.5,2.7v3.7c0,1.5,0,1.8,0.8,1.9l0.5,0.1
	c0.2,0.1,0.1,0.5,0,0.5c-0.6,0-1.3-0.1-2-0.1c-0.8,0-1.4,0-2,0.1c-0.2-0.1-0.2-0.4,0-0.5l0.4-0.1c0.8-0.1,0.8-0.3,0.8-1.9v-3.2
	c0-1.2-0.6-2.1-2-2.1c-0.8,0-1.5,0.3-1.8,0.8c-0.3,0.4-0.3,0.7-0.3,1.3v3.3c0,1.5,0,1.7,0.8,1.9l0.4,0.1c0.2,0.1,0.1,0.5,0,0.5
	c-0.6,0-1.2-0.1-2-0.1c-0.8,0-1.4,0-2,0.1c-0.2-0.1-0.2-0.4,0-0.5l0.5-0.1c0.8-0.1,0.8-0.3,0.8-1.9V292.3z"/>
<path class="st0" d="M-125.8,290c0.2,0.2,0.3,0.5,0.3,0.9c0,0.4-0.2,0.8-0.5,0.8c-0.1,0-0.2,0-0.3-0.2c-0.5-0.6-1.3-1.1-2.1-1.1
	c-1.5,0-3,1.2-3,3.5c0,1.7,1.2,3.7,3.5,3.7c1.2,0,1.9-0.6,2.4-1.3c0.2,0,0.4,0.1,0.4,0.3c-0.7,1.6-2.3,2.2-3.6,2.2
	c-1.1,0-2.2-0.4-2.9-1.1c-0.8-0.7-1.2-1.8-1.2-3.2c0-2.3,1.6-4.8,5.2-4.8C-127.3,289.7-126.4,289.8-125.8,290z"/>
<path class="st0" d="M-122.3,292.9c-0.6,0-0.6,0-0.6,0.6c0,2.2,1.3,4,3.6,4c0.7,0,1.3-0.2,2-1.1c0.2-0.1,0.4,0.1,0.4,0.3
	c-0.7,1.5-2.3,2-3.4,2c-1.4,0-2.5-0.6-3.1-1.4c-0.6-0.8-0.9-1.8-0.9-2.8c0-2.6,1.7-4.9,4.3-4.9c1.8,0,3,1.3,3,2.6
	c0,0.3,0,0.5-0.1,0.6c-0.1,0.1-0.4,0.2-1.3,0.2H-122.3z M-121,292.3c1.6,0,2.1-0.1,2.2-0.2c0.1,0,0.1-0.1,0.1-0.4
	c0-0.6-0.4-1.4-1.7-1.4c-1.3,0-2.4,1.2-2.4,1.9c0,0,0,0.1,0.2,0.1H-121z"/>
<path class="st0" d="M-300.5,271.1c0.3,0,0.4,0,0.5,0.3l0.5,1.6c0.1,0.5,0.1,0.6-0.3,0.6l-0.3,0c-0.1,0.1-0.1,0.3,0,0.3
	c0.4,0,0.9,0,1.4,0c0.6,0,1,0,1.5,0c0.1-0.1,0.1-0.3,0-0.3l-0.2,0c-0.6-0.1-0.6-0.2-0.9-1l-1.7-4.8c-0.2-0.5-0.3-1.1-0.5-1.6
	c0-0.1-0.1-0.1-0.2-0.1c0,0-0.4,0.5-0.8,0.6c0,0.2-0.1,0.5-0.2,0.8l-1.6,4.1c-0.2,0.6-0.4,1.1-0.6,1.4c-0.2,0.4-0.3,0.5-0.6,0.5
	l-0.3,0.1c-0.1,0.1-0.1,0.3,0,0.3c0.4,0,0.8,0,1.1,0c0.5,0,0.8,0,1.2,0c0.1,0,0.1-0.3,0-0.3l-0.3-0.1c-0.4-0.1-0.5-0.1-0.2-0.8
	l0.5-1.4c0.1-0.3,0.1-0.3,0.4-0.3H-300.5L-300.5,271.1z M-301.9,270.6c-0.3,0-0.3,0-0.2-0.3l0.5-1.3c0.2-0.5,0.3-0.8,0.3-0.9h0
	c0.1,0.1,0.1,0.3,0.3,0.9l0.5,1.4c0.1,0.3,0,0.3-0.3,0.3H-301.9L-301.9,270.6z"/>
<path class="st0" d="M-286.6,273.7c0.1,0,0.1,0.3,0,0.3c-0.5,0-0.9,0-1.4,0c-0.5,0-1,0-1.5,0c-0.1,0-0.1-0.3,0-0.3l0.3-0.1
	c0.5-0.1,0.5-0.2,0.5-0.9V269V268h0c-0.3,0.6-0.5,1-0.7,1.4l-1,2c-0.4,0.8-1,2.1-1.2,2.6c0,0-0.2,0-0.3,0c-0.2-0.6-0.7-1.7-1-2.3
	l-1-2.2c-0.2-0.5-0.5-1.2-0.7-1.5h0c0,0.6,0,1.5-0.1,1.9c0,0.7,0,1.7,0,2.7c0,0.8,0,0.9,0.5,1l0.4,0.1c0.1,0.1,0.1,0.3,0,0.3
	c-0.4,0-0.8,0-1.2,0c-0.4,0-0.8,0-1.2,0c-0.1-0.1-0.1-0.3,0-0.3l0.2,0c0.6-0.1,0.6-0.2,0.7-0.9c0.1-0.7,0.1-1.5,0.2-2.7
	c0-0.8,0.1-1.7,0.1-2.4c0-0.5-0.2-0.8-0.6-0.8l-0.4-0.1c-0.1-0.1-0.1-0.3,0-0.3c0.3,0,0.7,0,1.1,0c0.4,0,0.8,0,1.2,0
	c0,0.7,0.3,1.3,0.6,1.9l1.3,2.7c0.1,0.2,0.4,0.8,0.5,1c0.2-0.3,0.3-0.7,0.6-1.2l1.1-2.2c0.4-0.8,0.7-1.4,0.9-2.2c0.3,0,0.7,0,0.9,0
	c0.5,0,0.9,0,1.2,0c0.1,0,0.1,0.3,0,0.3l-0.4,0.1c-0.5,0.1-0.6,0.3-0.6,0.9c0,1.7,0,3.4,0.1,5.1c0,0.8,0.2,0.8,0.5,0.9L-286.6,273.7
	L-286.6,273.7z"/>
<path class="st0" d="M-284.2,268c0-1.2-0.1-1.3-0.6-1.3l-0.2,0c-0.1-0.1-0.1-0.3,0-0.3c0.4,0,1,0,1.5,0h2.2c0.7,0,1.4,0,1.6,0
	c0,0.2,0.1,1.1,0.2,1.6c0,0.1-0.3,0.1-0.4,0c-0.2-0.7-0.4-1-0.7-1c-0.3-0.1-0.6-0.1-0.9-0.1h-0.8c-0.5,0-0.5,0-0.5,0.7v1.9
	c0,0.3,0,0.3,0.3,0.3h0.6c1,0,1.2,0,1.3-0.5l0.1-0.4c0.1-0.1,0.3-0.1,0.4,0c0,0.3,0,0.7,0,1.1c0,0.4,0,0.8,0,1.2
	c-0.1,0.1-0.3,0.1-0.4,0l-0.1-0.5c-0.1-0.5-0.3-0.5-1.3-0.5h-0.6c-0.3,0-0.3,0-0.3,0.3v1.5c0,0.6,0,1,0.2,1.2
	c0.1,0.2,0.3,0.3,1.3,0.3c1.5,0,1.7-0.3,2.1-1.2c0.1-0.1,0.3,0,0.4,0.1c-0.1,0.5-0.3,1.4-0.5,1.7c-0.5,0-1.5,0-2.8,0h-1.3
	c-0.5,0-1.2,0-1.7,0c-0.1,0-0.1-0.3,0-0.3l0.4,0c0.5-0.1,0.6-0.1,0.6-1.3V268L-284.2,268z"/>
<path class="st0" d="M-277,272.3c0,1.2-0.1,1.3-0.6,1.3l-0.3,0c-0.1,0.1-0.1,0.3,0,0.3c0.5,0,1,0,1.6,0c0.5,0,1,0,1.5,0
	c0.1,0,0.1-0.3,0-0.3l-0.3,0c-0.5-0.1-0.6-0.1-0.6-1.3v-1.5c0-0.2,0-0.3,0.4-0.3c0.4,0,0.5,0,0.7,0.4c0.3,0.4,0.6,1.1,0.9,1.6
	c0.7,1.1,1.3,1.5,2.4,1.5c0.4,0,0.6,0,0.8-0.1c0-0.1,0-0.2,0-0.2c-0.1,0-0.5-0.1-0.8-0.4c-0.5-0.4-1.1-1.4-2-3c0-0.1-0.1-0.2,0-0.2
	c0.6-0.2,1.4-0.8,1.4-1.8c0-0.8-0.4-1.4-1-1.7c-0.5-0.3-1.3-0.4-2.2-0.4c-0.9,0-1.9,0-2.6,0.1c-0.1,0.1-0.1,0.2,0,0.3l0.3,0
	c0.5,0.1,0.5,0.2,0.5,1.3V272.3L-277,272.3z M-275.6,267.4c0-0.5,0-0.6,0.6-0.6c1,0,1.6,0.8,1.6,1.7c0,1.1-0.5,1.6-1.6,1.6
	c-0.6,0-0.6,0-0.6-0.4V267.4L-275.6,267.4z"/>
<path class="st0" d="M-267.5,272.3c0,1.2,0.1,1.3,0.6,1.3l0.3,0c0.1,0.1,0.1,0.3,0,0.3c-0.5,0-1,0-1.5,0c-0.5,0-1,0-1.5,0
	c-0.1,0-0.1-0.3,0-0.3l0.3,0c0.5-0.1,0.6-0.1,0.6-1.3V268c0-1.2-0.1-1.3-0.6-1.3l-0.3,0c-0.1-0.1-0.1-0.3,0-0.3c0.5,0,1,0,1.5,0
	c0.5,0,1,0,1.5,0c0.1,0,0.1,0.3,0,0.3l-0.3,0c-0.5,0.1-0.6,0.1-0.6,1.3V272.3L-267.5,272.3z"/>
<path class="st0" d="M-258,268.3c-0.1,0.1-0.3,0.1-0.4,0c-0.2-0.7-0.7-1.7-2.2-1.7c-1.5,0-2.9,1-2.9,3.4c0,2.4,1.5,3.6,3,3.6
	c1.4,0,2.1-1,2.4-1.7c0.1-0.1,0.3-0.1,0.3,0c-0.1,0.8-0.4,1.5-0.6,1.7c-0.1,0-0.3,0.1-0.4,0.1c-0.3,0.1-1,0.3-1.8,0.3
	c-1.1,0-2.1-0.2-2.9-0.8c-0.9-0.6-1.6-1.7-1.6-3.2c0-1.3,0.6-2.4,1.4-3c0.8-0.6,2-1,3.2-1c0.7,0,1.4,0.1,2,0.3c0.1,0,0.2,0,0.3,0.1
	C-258.2,266.8-258.1,267.5-258,268.3L-258,268.3z"/>
<path class="st0" d="M-253.1,271.1c0.3,0,0.4,0,0.5,0.3l0.5,1.6c0.1,0.5,0.1,0.6-0.3,0.6l-0.3,0c-0.1,0.1-0.1,0.3,0,0.3
	c0.4,0,0.9,0,1.4,0c0.6,0,1,0,1.5,0c0.1-0.1,0.1-0.3,0-0.3l-0.2,0c-0.6-0.1-0.6-0.2-0.9-1l-1.7-4.8c-0.2-0.5-0.3-1.1-0.5-1.6
	c0-0.1-0.1-0.1-0.2-0.1c0,0-0.4,0.5-0.8,0.6c0,0.2-0.1,0.5-0.2,0.8l-1.6,4.1c-0.2,0.6-0.4,1.1-0.6,1.4c-0.2,0.4-0.3,0.5-0.6,0.5
	l-0.3,0.1c-0.1,0.1-0.1,0.3,0,0.3c0.4,0,0.8,0,1.1,0c0.5,0,0.8,0,1.2,0c0.1,0,0.1-0.3,0-0.3l-0.3-0.1c-0.4-0.1-0.5-0.1-0.2-0.8
	l0.5-1.4c0.1-0.3,0.1-0.3,0.4-0.3H-253.1L-253.1,271.1z M-254.5,270.6c-0.3,0-0.3,0-0.2-0.3l0.5-1.3c0.2-0.5,0.3-0.8,0.3-0.9h0
	c0.1,0.1,0.1,0.3,0.3,0.9l0.5,1.4c0.1,0.3,0,0.3-0.3,0.3H-254.5L-254.5,270.6z"/>
<path class="st0" d="M-241.6,272c0,0.3,0,1.8,0,2c-0.1,0.1-0.3,0.2-0.4,0.2c-0.2-0.2-0.5-0.6-1.3-1.6l-2.7-3.1
	c-0.7-0.8-1.1-1.3-1.3-1.4c0,0,0,0.1,0,0.7v2.2c0,0.9,0,1.9,0.2,2.3c0.1,0.2,0.3,0.2,0.6,0.3l0.3,0c0.1,0.1,0.1,0.3,0,0.3
	c-0.4,0-0.9,0-1.3,0c-0.5,0-0.8,0-1.2,0c-0.1-0.1-0.1-0.3,0-0.3l0.3-0.1c0.2,0,0.4-0.1,0.5-0.3c0.2-0.4,0.2-1.4,0.2-2.3v-2.7
	c0-0.9,0-1.1-0.4-1.4c-0.1-0.1-0.4-0.2-0.6-0.2l-0.2,0c-0.1-0.1-0.1-0.3,0-0.3c0.4,0,1.1,0,1.4,0c0.2,0,0.5,0,0.8,0
	c0.2,0.5,1.4,1.9,1.8,2.4l1.1,1.2c0.5,0.5,1.5,1.7,1.7,1.8c0,0,0-0.1,0-0.3v-2.2c0-0.9,0-1.9-0.2-2.3c-0.1-0.2-0.3-0.2-0.6-0.3
	l-0.3,0c-0.1-0.1-0.1-0.3,0-0.3c0.4,0,0.9,0,1.3,0c0.5,0,0.8,0,1.2,0c0.1,0.1,0.1,0.3,0,0.3l-0.3,0.1c-0.2,0-0.4,0.1-0.5,0.3
	c-0.2,0.4-0.2,1.4-0.2,2.3V272L-241.6,272z"/>
<path class="st0" d="M-297.4,280.1c-0.1,0.1-0.3,0.1-0.4,0c-0.2-0.7-0.7-1.7-2.2-1.7c-1.5,0-2.9,1-2.9,3.4c0,2.4,1.5,3.6,3,3.6
	c1.4,0,2.1-1,2.4-1.7c0.1-0.1,0.3-0.1,0.3,0c-0.1,0.8-0.4,1.5-0.6,1.7c-0.1,0-0.3,0.1-0.4,0.1c-0.3,0.1-1,0.3-1.8,0.3
	c-1.1,0-2.1-0.2-2.9-0.8c-0.9-0.6-1.6-1.7-1.6-3.2c0-1.3,0.6-2.4,1.4-3c0.8-0.6,2-1,3.2-1c0.7,0,1.4,0.1,2,0.3c0.1,0,0.2,0,0.3,0.1
	C-297.5,278.6-297.5,279.2-297.4,280.1L-297.4,280.1z"/>
<path class="st0" d="M-292,278c-2.4,0-4.1,1.7-4.1,4.1c0,2,1.5,3.9,4.1,3.9c2.3,0,4-1.7,4-3.9C-287.9,279.9-289.3,278-292,278
	L-292,278z M-292.1,278.4c1.8,0,2.6,2,2.6,3.7c0,2.3-1.1,3.3-2.4,3.3c-2,0-2.6-2.2-2.6-3.7C-294.5,279.3-293.2,278.4-292.1,278.4
	L-292.1,278.4z"/>
<path class="st0" d="M-284.3,283.8c0,0.6,0,1,0.2,1.2c0.1,0.2,0.3,0.3,1.2,0.3c1.3,0,1.5-0.1,2-1.2c0.1-0.1,0.3,0,0.4,0.1
	c-0.1,0.5-0.3,1.4-0.5,1.7c-0.5,0-1.5,0-2.8,0h-1.2c-0.6,0-1.2,0-1.6,0c-0.1,0-0.1-0.3,0-0.3l0.3-0.1c0.5-0.1,0.6-0.1,0.6-1.3v-4.3
	c0-1.2-0.1-1.2-0.6-1.3l-0.3,0c-0.1-0.1-0.1-0.3,0-0.3c0.6,0,1.1,0,1.6,0c0.5,0,1,0,1.5,0c0.1,0,0.1,0.3,0,0.3l-0.3,0
	c-0.5,0.1-0.6,0.1-0.6,1.3V283.8L-284.3,283.8z"/>
<path class="st0" d="M-277.4,283.8c0,0.6,0,1,0.2,1.2c0.1,0.2,0.3,0.3,1.2,0.3c1.3,0,1.5-0.1,2-1.2c0.1-0.1,0.3,0,0.4,0.1
	c-0.1,0.5-0.3,1.4-0.5,1.7c-0.5,0-1.5,0-2.8,0h-1.2c-0.6,0-1.2,0-1.6,0c-0.1,0-0.1-0.3,0-0.3l0.3-0.1c0.5-0.1,0.6-0.1,0.6-1.3v-4.3
	c0-1.2-0.1-1.2-0.6-1.3l-0.3,0c-0.1-0.1-0.1-0.3,0-0.3c0.6,0,1.1,0,1.6,0c0.5,0,1,0,1.5,0c0.1,0,0.1,0.3,0,0.3l-0.3,0
	c-0.5,0.1-0.6,0.1-0.6,1.3V283.8L-277.4,283.8z"/>
<path class="st0" d="M-271.8,279.8c0-1.2-0.1-1.3-0.6-1.3l-0.2,0c-0.1-0.1-0.1-0.3,0-0.3c0.4,0,1,0,1.5,0h2.2c0.7,0,1.4,0,1.5,0
	c0,0.2,0.1,1.1,0.2,1.6c0,0.1-0.3,0.1-0.4,0c-0.2-0.7-0.4-1-0.7-1c-0.3-0.1-0.6-0.1-0.9-0.1h-0.8c-0.5,0-0.5,0-0.5,0.7v1.9
	c0,0.3,0,0.3,0.3,0.3h0.6c1,0,1.2,0,1.3-0.5l0.1-0.4c0.1-0.1,0.3-0.1,0.4,0c0,0.3,0,0.7,0,1.1c0,0.4,0,0.8,0,1.2
	c-0.1,0.1-0.3,0.1-0.4,0l-0.1-0.5c-0.1-0.5-0.3-0.5-1.3-0.5h-0.6c-0.3,0-0.3,0-0.3,0.3v1.5c0,0.6,0,1,0.2,1.2
	c0.1,0.2,0.3,0.3,1.3,0.3c1.5,0,1.7-0.3,2.1-1.2c0.1-0.1,0.3,0,0.4,0.1c-0.1,0.5-0.3,1.4-0.5,1.7c-0.5,0-1.5,0-2.8,0h-1.3
	c-0.5,0-1.2,0-1.7,0c-0.1,0-0.1-0.3,0-0.3l0.4,0c0.5-0.1,0.6-0.1,0.6-1.3V279.8L-271.8,279.8z"/>
<path class="st0" d="M-258.5,284.5c0,0.4,0.1,0.7,0.3,0.8c0,0,0,0.1,0,0.2c-0.1,0-0.3,0-0.6,0.1c-0.7,0.2-1.6,0.3-2.2,0.3
	c-1.4,0-2.7-0.4-3.5-1.3c-0.7-0.7-1-1.7-1-2.6c0-1,0.3-2,1.1-2.7c0.8-0.9,2.1-1.4,3.7-1.4c0.5,0,1.1,0.1,1.5,0.2
	c0.3,0.1,0.6,0.1,0.7,0.1c0,0.3,0.1,0.9,0.2,1.8c-0.1,0.1-0.3,0.1-0.4,0c-0.3-1.1-1.1-1.7-2.2-1.7c-2,0-3,1.5-3,3.4
	c0,0.9,0.2,1.9,0.8,2.6c0.6,0.7,1.5,1,2.2,1c0.6,0,0.9-0.1,1-0.3c0.1-0.1,0.1-0.3,0.1-0.7V284c0-0.8,0-0.9-0.8-1l-0.4-0.1
	c-0.1-0.1-0.1-0.3,0-0.3c0.4,0,1,0,1.8,0c0.5,0,0.9,0,1.4,0c0.1,0.1,0.1,0.3,0,0.3l-0.2,0c-0.4,0.1-0.5,0.2-0.5,0.9V284.5
	L-258.5,284.5z"/>
<path class="st0" d="M-255.7,279.8c0-1.2-0.1-1.3-0.6-1.3l-0.2,0c-0.1-0.1-0.1-0.3,0-0.3c0.4,0,1,0,1.5,0h2.2c0.7,0,1.4,0,1.6,0
	c0,0.2,0.1,1.1,0.2,1.6c0,0.1-0.3,0.1-0.4,0c-0.2-0.7-0.4-1-0.7-1c-0.3-0.1-0.6-0.1-0.9-0.1h-0.8c-0.5,0-0.5,0-0.5,0.7v1.9
	c0,0.3,0,0.3,0.3,0.3h0.6c1,0,1.2,0,1.3-0.5l0.1-0.4c0.1-0.1,0.3-0.1,0.4,0c0,0.3,0,0.7,0,1.1c0,0.4,0,0.8,0,1.2
	c-0.1,0.1-0.3,0.1-0.4,0l-0.1-0.5c-0.1-0.5-0.3-0.5-1.3-0.5h-0.6c-0.3,0-0.3,0-0.3,0.3v1.5c0,0.6,0,1,0.2,1.2
	c0.1,0.2,0.3,0.3,1.3,0.3c1.5,0,1.7-0.3,2.1-1.2c0.1-0.1,0.3,0,0.4,0.1c-0.1,0.5-0.3,1.4-0.5,1.7c-0.5,0-1.5,0-2.8,0h-1.3
	c-0.5,0-1.2,0-1.7,0c-0.1,0-0.1-0.3,0-0.3l0.4,0c0.5-0.1,0.6-0.1,0.6-1.3V279.8L-255.7,279.8z"/>
<path class="st0" d="M-246.8,284.4c0,0.8,0.5,1.5,1.4,1.5c0.5,0,1.1-0.1,1.8-0.8c0.8-0.7,1.1-1.8,1.1-2.5c0-0.9-0.4-1.6-1.4-1.6
	c-0.5,0-1.1,0.1-1.7,0.8C-246.3,282.5-246.8,283.5-246.8,284.4L-246.8,284.4z M-245.3,285.5c-0.3,0-0.4-0.3-0.4-0.6
	c0-0.9,0.6-2.2,1.1-2.9c0.3-0.4,0.5-0.5,0.7-0.5c0.3,0,0.4,0.3,0.4,0.6c0,0.7-0.5,2.1-1,2.7C-244.8,285.3-245.1,285.5-245.3,285.5
	L-245.3,285.5z"/>
<path class="st0" d="M-238.9,281.7c-0.4,1.1-0.9,3.2-1.3,4.4c-0.3,0.9-0.6,1.6-0.9,2c-0.2,0.3-0.9,0.8-1.6,0.8c-0.5,0-1-0.4-1-0.8
	c0-0.3,0.2-0.5,0.4-0.5c0.2,0,0.3,0.1,0.4,0.2c0.2,0.3,0.5,0.6,0.7,0.6c0.2,0,0.3-0.2,0.6-1c0.4-1.4,0.9-3.6,1.5-5.6h-1
	c-0.1-0.2,0-0.4,0.1-0.5h1c0.3-0.9,0.5-1.7,1-2.4c0.6-0.8,1.3-1.3,2.2-1.3c0.7,0,1.1,0.4,1.1,0.9c0,0.5-0.4,0.8-0.6,0.8
	c-0.2,0-0.2-0.1-0.3-0.2c-0.1-0.8-0.4-1-0.7-1c-0.3,0-0.5,0.3-0.8,0.8c-0.4,0.8-0.6,1.6-0.9,2.5h1.4c0.1,0.1,0,0.4-0.1,0.5H-238.9
	L-238.9,281.7z"/>
<path class="st0" d="M-297.5,291.8c-0.1,0.1-0.3,0.1-0.4,0c-0.2-0.7-0.7-1.7-2.2-1.7c-1.5,0-2.9,1-2.9,3.4c0,2.4,1.5,3.6,3,3.6
	c1.4,0,2.1-1,2.4-1.7c0.1-0.1,0.3-0.1,0.3,0c-0.1,0.8-0.4,1.5-0.6,1.7c-0.1,0-0.3,0.1-0.4,0.1c-0.3,0.1-1,0.3-1.8,0.3
	c-1.1,0-2.1-0.2-2.9-0.8c-0.9-0.6-1.6-1.7-1.6-3.2c0-1.3,0.6-2.4,1.4-3c0.8-0.6,2-1,3.2-1c0.7,0,1.4,0.1,2,0.3c0.1,0,0.2,0,0.3,0.1
	C-297.6,290.3-297.6,291-297.5,291.8L-297.5,291.8z"/>
<path class="st0" d="M-292.6,294.7c0.3,0,0.4,0,0.5,0.3l0.5,1.6c0.1,0.5,0.1,0.6-0.3,0.6l-0.3,0c-0.1,0.1-0.1,0.3,0,0.3
	c0.4,0,0.9,0,1.4,0c0.6,0,1,0,1.5,0c0.1-0.1,0.1-0.3,0-0.3l-0.2,0c-0.6-0.1-0.6-0.2-0.9-1l-1.7-4.8c-0.2-0.5-0.3-1.1-0.5-1.6
	c0-0.1-0.1-0.1-0.2-0.1c0,0-0.4,0.5-0.8,0.6c0,0.2-0.1,0.5-0.2,0.8l-1.6,4.1c-0.2,0.6-0.4,1.1-0.6,1.4c-0.2,0.4-0.3,0.5-0.6,0.5
	l-0.3,0.1c-0.1,0.1-0.1,0.3,0,0.3c0.4,0,0.8,0,1.1,0c0.5,0,0.8,0,1.2,0c0.1,0,0.1-0.3,0-0.3l-0.3-0.1c-0.4-0.1-0.5-0.1-0.2-0.8
	l0.5-1.4c0.1-0.3,0.1-0.3,0.4-0.3H-292.6L-292.6,294.7z M-294,294.2c-0.3,0-0.3,0-0.2-0.3l0.5-1.3c0.2-0.5,0.3-0.8,0.3-0.9h0
	c0.1,0.1,0.1,0.3,0.3,0.9l0.5,1.4c0.1,0.3,0,0.3-0.3,0.3H-294L-294,294.2z"/>
<path class="st0" d="M-287.4,295.8c0,1.2-0.1,1.3-0.6,1.3l-0.3,0c-0.1,0.1-0.1,0.3,0,0.3c0.5,0,1,0,1.5,0c0.5,0,1,0,1.5,0
	c0.1,0,0.1-0.3,0-0.3l-0.3,0c-0.5-0.1-0.6-0.1-0.6-1.3v-1.5c0-0.2,0-0.3,0.4-0.3c0.4,0,0.5,0,0.7,0.4c0.3,0.4,0.6,1.1,0.9,1.6
	c0.7,1.1,1.3,1.5,2.4,1.5c0.4,0,0.6,0,0.8-0.1c0-0.1,0-0.2,0-0.2c-0.1,0-0.5-0.1-0.8-0.4c-0.5-0.4-1.1-1.4-2-3c0-0.1-0.1-0.2,0-0.2
	c0.6-0.2,1.4-0.8,1.4-1.8c0-0.8-0.4-1.4-1-1.7c-0.5-0.3-1.3-0.4-2.2-0.4c-0.9,0-1.9,0-2.6,0.1c-0.1,0.1-0.1,0.2,0,0.3l0.3,0
	c0.5,0.1,0.6,0.2,0.6,1.3V295.8L-287.4,295.8z M-286.1,290.9c0-0.5,0-0.6,0.6-0.6c1,0,1.6,0.8,1.6,1.7c0,1.1-0.5,1.6-1.6,1.6
	c-0.6,0-0.6,0-0.6-0.4V290.9L-286.1,290.9z"/>
<path class="st0" d="M-279.3,295.8c0,1.2-0.1,1.3-0.6,1.3l-0.3,0c-0.1,0.1-0.1,0.3,0,0.3c0.5,0,1,0,1.5,0c0.4,0,1,0.1,1.7,0.1
	c1,0,2-0.1,2.8-0.6c1.4-0.7,2.1-2,2.1-3.3c0-1.7-1-2.9-2.4-3.4c-0.8-0.3-1.6-0.4-2.7-0.4c-1.1,0-2,0-2.9,0.1c-0.1,0.1-0.1,0.3,0,0.3
	l0.2,0c0.5,0.1,0.6,0.2,0.6,1.3V295.8L-279.3,295.8z M-278,291.3c0-0.5,0-0.8,0.1-0.8c0.1-0.1,0.4-0.2,0.9-0.2
	c1.9,0,3.2,1.1,3.2,3.4c0,1.9-0.9,3.4-3,3.4c-1.2,0-1.3-0.6-1.3-1.7V291.3L-278,291.3z"/>
<path class="st0" d="M-268.4,295.8c0,1.2,0.1,1.3,0.6,1.3l0.3,0c0.1,0.1,0.1,0.3,0,0.3c-0.5,0-1,0-1.5,0c-0.5,0-1,0-1.5,0
	c-0.1,0-0.1-0.3,0-0.3l0.3,0c0.5-0.1,0.6-0.1,0.6-1.3v-4.3c0-1.2-0.1-1.2-0.6-1.3l-0.3,0c-0.1-0.1-0.1-0.3,0-0.3c0.5,0,1,0,1.5,0
	c0.5,0,1,0,1.5,0c0.1,0,0.1,0.3,0,0.3l-0.3,0c-0.5,0.1-0.6,0.1-0.6,1.3V295.8L-268.4,295.8z"/>
<path class="st0" d="M-261.9,289.7c-2.4,0-4.1,1.7-4.1,4.1c0,2,1.5,3.9,4.1,3.9c2.3,0,4-1.7,4-3.9
	C-257.8,291.6-259.2,289.7-261.9,289.7L-261.9,289.7z M-262,290.2c1.8,0,2.6,2,2.6,3.7c0,2.3-1.1,3.3-2.4,3.3c-2,0-2.6-2.2-2.6-3.7
	C-264.4,291-263.2,290.2-262,290.2L-262,290.2z"/>
<path class="st0" d="M-254.1,295.6c0,0.6,0,1,0.2,1.2c0.1,0.2,0.3,0.3,1.2,0.3c1.3,0,1.5-0.1,2-1.2c0.1-0.1,0.3,0,0.4,0.1
	c-0.1,0.5-0.3,1.4-0.5,1.7c-0.5,0-1.5,0-2.8,0h-1.2c-0.6,0-1.2,0-1.6,0c-0.1,0-0.1-0.3,0-0.3l0.3-0.1c0.5-0.1,0.6-0.1,0.6-1.3v-4.3
	c0-1.2-0.1-1.2-0.6-1.3l-0.3,0c-0.1-0.1-0.1-0.3,0-0.3c0.6,0,1.1,0,1.6,0c0.5,0,1,0,1.5,0c0.1,0,0.1,0.3,0,0.3l-0.3,0
	c-0.5,0.1-0.6,0.1-0.6,1.3V295.6L-254.1,295.6z"/>
<path class="st0" d="M-245.4,289.7c-2.4,0-4.1,1.7-4.1,4.1c0,2,1.5,3.9,4.1,3.9c2.3,0,4-1.7,4-3.9
	C-241.4,291.6-242.8,289.7-245.4,289.7L-245.4,289.7z M-245.6,290.2c1.8,0,2.6,2,2.6,3.7c0,2.3-1.1,3.3-2.4,3.3
	c-2,0-2.6-2.2-2.6-3.7C-248,291-246.7,290.2-245.6,290.2L-245.6,290.2z"/>
<path class="st0" d="M-232.8,296.3c0,0.4,0.1,0.7,0.3,0.8c0,0,0,0.1,0,0.2c-0.1,0-0.3,0-0.5,0.1c-0.7,0.2-1.6,0.3-2.2,0.3
	c-1.4,0-2.7-0.4-3.5-1.3c-0.7-0.7-1-1.7-1-2.6c0-1,0.3-2,1.1-2.7c0.8-0.9,2.1-1.4,3.7-1.4c0.5,0,1.1,0.1,1.5,0.2
	c0.3,0.1,0.6,0.1,0.7,0.1c0,0.3,0.1,0.9,0.1,1.8c-0.1,0.1-0.3,0.1-0.4,0c-0.3-1.1-1.1-1.7-2.2-1.7c-2,0-3,1.5-3,3.4
	c0,0.9,0.2,1.9,0.8,2.6c0.6,0.7,1.5,1,2.2,1c0.6,0,0.9-0.1,1-0.3c0.1-0.1,0.1-0.3,0.1-0.7v-0.4c0-0.8,0-0.9-0.8-1l-0.4-0.1
	c-0.1-0.1-0.1-0.3,0-0.3c0.4,0,1,0,1.8,0c0.5,0,0.9,0,1.4,0c0.1,0.1,0.1,0.3,0,0.3l-0.2,0c-0.4,0.1-0.5,0.2-0.5,0.9V296.3
	L-232.8,296.3z"/>
<path class="st0" d="M-228.7,295.1c0-0.6,0-0.8-0.4-1.4l-1.4-2.7c-0.3-0.5-0.3-0.6-0.9-0.7l-0.3-0.1c-0.1-0.1,0-0.3,0-0.3
	c0.5,0,1,0,1.4,0c0.5,0,1.2,0,1.5,0c0.1,0,0.1,0.3,0,0.3l-0.3,0.1c-0.2,0-0.2,0.1-0.2,0.1c0,0.1,0,0.2,0.2,0.6
	c0.5,1,0.9,1.9,1.3,2.8c0.5-0.9,0.9-1.7,1.3-2.5c0.2-0.4,0.3-0.6,0.3-0.8c0-0.1-0.1-0.1-0.3-0.2l-0.3-0.1c-0.1-0.1-0.1-0.3,0-0.3
	c0.5,0,0.9,0,1.2,0c0.4,0,0.7,0,1.1,0c0.1,0.1,0.1,0.2,0,0.3l-0.3,0.1c-0.5,0.1-0.7,0.3-1.3,1.3c-0.4,0.7-0.7,1.3-1.1,1.9
	c-0.3,0.6-0.4,0.8-0.4,1.6v0.7c0,1.2,0.1,1.3,0.7,1.3l0.4,0c0.1,0.1,0.1,0.3,0,0.3c-0.7,0-1.2,0-1.7,0c-0.5,0-1,0-1.7,0
	c-0.1,0-0.1-0.3,0-0.3l0.4,0c0.5-0.1,0.6-0.1,0.6-1.3V295.1L-228.7,295.1z"/>
<g>
	<path class="st0" d="M-309.7,281.9c0,11.1-9,20.1-20.1,20.1c-11.1,0-20.1-9-20.1-20.1c0-11.1,9-20.1,20.1-20.1
		C-318.7,261.9-309.7,270.9-309.7,281.9L-309.7,281.9z"/>
	<path class="st0" d="M-310.6,281.9c0,10.6-8.6,19.1-19.1,19.1c-10.6,0-19.1-8.6-19.1-19.1c0-10.6,8.6-19.1,19.1-19.1
		C-319.2,262.8-310.6,271.4-310.6,281.9L-310.6,281.9z"/>
	<g>
		<path class="st1" d="M-310.6,281.9c0,10.6-8.6,19.1-19.1,19.1c-10.6,0-19.1-8.6-19.1-19.1c0-10.6,8.6-19.1,19.1-19.1
			C-319.2,262.8-310.6,271.4-310.6,281.9L-310.6,281.9z"/>
	</g>
	<path class="st2" d="M-310.4,281.9c0,10.7-8.7,19.4-19.4,19.4c-10.7,0-19.4-8.7-19.4-19.4c0-10.7,8.7-19.4,19.4-19.4
		C-319.1,262.6-310.4,271.2-310.4,281.9L-310.4,281.9z"/>
	<path class="st0" d="M-329,282.4c-0.2-0.1-1.8-0.7-1.9-0.7c-0.1-0.1,0-0.3,0.2-0.2c0.1,0,1.7,0.6,1.8,0.7
		C-328.7,282.2-328.6,282.5-329,282.4L-329,282.4z"/>
	<path class="st0" d="M-312.9,281.9c0,9.3-7.6,16.9-16.9,16.9c-9.3,0-16.9-7.6-16.9-16.9c0-9.3,7.6-16.9,16.9-16.9
		C-320.4,265-312.9,272.6-312.9,281.9L-312.9,281.9z"/>
	<path class="st1" d="M-312.9,281.9c0,9.3-7.6,16.9-16.9,16.9c-9.3,0-16.9-7.6-16.9-16.9c0-9.3,7.6-16.9,16.9-16.9
		C-320.4,265-312.9,272.6-312.9,281.9L-312.9,281.9z"/>
	<path class="st0" d="M-314.5,281.9c0,8.4-6.8,15.3-15.3,15.3c-8.4,0-15.3-6.8-15.3-15.3c0-8.4,6.8-15.3,15.3-15.3
		C-321.4,266.7-314.5,273.5-314.5,281.9L-314.5,281.9z"/>
	<g>
		<defs>
			<path id="SVGID_1_" d="M-314.5,281.9c0,8.4-6.8,15.3-15.3,15.3c-8.4,0-15.3-6.8-15.3-15.3c0-8.4,6.8-15.3,15.3-15.3
				C-321.4,266.7-314.5,273.5-314.5,281.9L-314.5,281.9z"/>
		</defs>
		<clipPath id="SVGID_2_">
			<use xlink:href="#SVGID_1_"  style="overflow:visible;"/>
		</clipPath>
		<path class="st3" d="M-333.4,266.7c0.1,0.1,0.7,0.2,0.8,0.2c0.2,0,0.1-0.1,0.1-0.1c-0.1,0-1-0.2-1.1-0.2c-0.1,0-0.3-0.1-0.4-0.1
			c-0.1,0-0.2-0.1-0.2,0l0,0.1C-334.1,266.5-333.6,266.6-333.4,266.7L-333.4,266.7z"/>
		<path class="st3" d="M-321.9,292.6c0.1-0.1,0.2-0.2,0-0.2c-0.1,0-0.9,0.3-1,0.2c-0.1-0.1-0.3,0.1-0.1,0.1
			C-322.9,292.8-322.1,292.7-321.9,292.6L-321.9,292.6z"/>
		<path class="st3" d="M-320.2,292.2c0.1-0.2,0,0.1-0.2,0.2c-2.5,1.7-5.8,1.6-5.9,1.5c-0.2,0-1.3,0-1.4,0c-0.1,0-0.2,0.1-0.2,0.1
			c-0.1,0-0.2,0.1,0,0.1c0.2,0,1.4,0,1.5,0c2,0.1,3.6-0.3,4-0.5C-322.2,293.6-320.4,292.8-320.2,292.2L-320.2,292.2z"/>
		<path class="st3" d="M-331.2,276c0-0.1,0.1-0.1,0.3-0.2c0.1-0.1,0.7,0.3,0.9,0.2c0.2-0.1,0.7,0,0.9,0.2c0.3,0.2,0.9,0.4,1,0.4
			c0.1,0,0.2,0.2,0.2,0.2c-0.1,0.1,0.5,0.6,0.5,0.8c0,0.2,0.3,0.4,0.5,0.8c0.2,0.4,1,0.6,1.1,0.7c0.1,0,0.2,0.2,0.3,0.2
			c0.1,0,0-0.2,0-0.2c0-0.1,0.1,0,0.2,0c0.1,0,0.2,0.2,0.2,0.1c0-0.1,0-0.1,0.2,0c0.1,0,0.1,0.1,0.2,0.1c0.1,0,0,0,0-0.1
			c-0.1-0.1,0-0.2,0.1-0.1c0.1,0,0.3,0.3,0.4,0.3c0.1,0,0-0.1,0-0.2c0-0.1,0.1-0.1,0.2,0c0.1,0.1,0.3,0.3,0.5,0.3c0.2,0,0-0.2,0-0.3
			c0-0.1,0.1,0,0.2,0.1c0.1,0.1,0.5,0.7,0.6,0.6c0.1-0.1,0.6,0.9,0.7,1.3c0.1,0.4,0.2,0.3,0.2,0.3c-0.6-2.2-1.3-2.3-1.5-2.5
			c-0.2-0.2-3.3-0.8-3.3-1c0-0.2-0.6-0.9-0.6-0.9s-0.4-0.6-0.5-0.7c-0.1-0.1-1.1-0.8-1.4-0.9c-0.3-0.1-0.5-0.1-1-0.3
			c-0.5-0.1-0.5-0.2-0.8-0.2c-0.2-0.1-0.6,0.3-0.6,0.4c0.2,0.2,0.6,0.6,0.9,0.9c0.2,0.1,0.4,0.1,0.4,0.1
			C-330.7,276.5-331.2,276.1-331.2,276L-331.2,276z"/>
		<path class="st3" d="M-327.4,291.1c-0.2,0-0.2,0-0.4,0c-0.1,0-0.2,0.1-0.1,0.2c0.1,0,0.3,0.1,0.4,0.1
			C-327.3,291.3-327.2,291.1-327.4,291.1L-327.4,291.1z"/>
		<path class="st3" d="M-328.2,290.1c0.2,0,0.1-0.1,0.1-0.2c0,0-0.4-0.1-0.5-0.1c-0.1-0.1-0.3,0.1-0.1,0.2
			C-328.5,290-328.4,290.1-328.2,290.1L-328.2,290.1z"/>
		<path class="st3" d="M-327.9,290.6c-0.2,0-0.4-0.1-0.5-0.1c-0.2,0-0.2,0.1-0.1,0.2c0.1,0,0.4,0.1,0.5,0.1
			C-328,290.7-327.9,290.6-327.9,290.6L-327.9,290.6z"/>
		<path class="st3" d="M-327.5,291.7c0.1,0.1,0.8,0.1,0.9,0.1c0.1,0,0.2-0.1,0.2-0.1c0,0-0.1-0.1-0.2,0c-0.1,0-0.6,0-0.7,0
			C-327.4,291.6-327.6,291.7-327.5,291.7L-327.5,291.7z"/>
		<path class="st3" d="M-327.4,292.3c0.1,0.1,0.8,0.1,0.9,0.1c0.1,0,0.2-0.1,0.2-0.1c0,0-0.1-0.1-0.2,0c-0.1,0-0.6,0-0.7,0
			C-327.3,292.2-327.5,292.3-327.4,292.3L-327.4,292.3z"/>
		<path class="st3" d="M-327.1,292.8c0.1,0.1,0.8,0.1,0.9,0.1c0.1,0,0.2-0.1,0.2-0.1c0,0-0.1-0.1-0.2,0c-0.1,0-0.6,0-0.7,0
			C-327,292.6-327.1,292.7-327.1,292.8L-327.1,292.8z"/>
		<path class="st3" d="M-321.2,276.1c-0.1,0.1-0.2,0.2-0.2,0.3c-0.1,0.2-0.1,0.4-0.1,0.7c0,0.2,0.1,0.3,0.2,0.5
			c0.1,0.3,0.2,0.5,0.2,0.8c0,0.2,0,0.3,0,0.5c0,0.1,0,0.2,0,0.2c0,0.2,0.1,0.3,0.2,0.5c0.1,0.1,0.2,0.3,0.3,0.4c0,0,0,0,0,0
			c0,0,0,0,0,0c0,0-0.1,0-0.2-0.1c-0.1-0.1-0.3-0.3-0.5-0.6c-0.1-0.1-0.1-0.2-0.1-0.3c0-0.1,0-0.2,0-0.3c0.1-0.4-0.3-1.1-0.3-1.2
			c0-0.1-0.2-0.3-0.2-0.4c0-0.1-0.2-0.6,0.1-0.8c0.1-0.1,0.4-0.3,0.5-0.4C-321.3,276-321.2,276-321.2,276.1L-321.2,276.1z
			 M-322.5,275.6c-0.2,0-0.4,0.2-0.3,0.3c0.1,0.2,0,0.5,0,0.6c0,0.1,0.2,0.4,0.2,0.4c0.1,0,0.2,0.3,0.1,0.4c-0.1,0-0.2,0.1-0.2,0.2
			c0.1,0.1-0.1,0.3-0.1,0.2c-0.1-0.1-0.1-0.2-0.1-0.3c-0.1-0.2-0.2-0.2-0.1-0.1c0.1,0.2,0.1,0.3,0.1,0.4c0.1,0.2-0.1,0.2-0.1,0
			c0-0.2-0.2-0.4-0.2-0.5c0-0.2-0.1-0.1-0.1,0.1c0,0.2-0.1,0.2-0.1,0c-0.1-0.2-0.3-0.8-0.3-1c-0.1-0.2-0.2-0.1-0.2-0.1
			c0,0.1,0.1,0.2,0.1,0.3c0,0.1-0.1,0.2-0.1,0c0-0.2-0.1-0.4-0.1-0.5c0-0.1-0.3-0.3-0.2-0.1c0.1,0.2,0,0.2,0,0.4c0,0.2-0.1,0-0.1,0
			c0-0.1-0.1-0.2-0.1-0.3c0-0.1-0.2-0.2-0.1-0.1c0,0.1,0,0.2,0,0.2c-0.1,0-0.1-0.2-0.1-0.3c0-0.1-0.1-0.4-0.2-0.5
			c-0.1-0.1-0.2-0.2-0.2-0.1c0.1,0.1,0.1,0.3,0.1,0.5c0,0.1-0.2,0.1-0.2,0c0-0.1-0.2-0.5-0.3-0.6c-0.1-0.1-0.2,0-0.1,0.1
			c0.1,0.1,0.1,0.3,0.2,0.4c0,0.1-0.2-0.1-0.2-0.1c0-0.1-0.2-0.3-0.2-0.4c0-0.1-0.2-0.1-0.1,0c0.1,0.1,0,0.1,0.1,0.3
			c0.1,0.1-0.2,0-0.2-0.1c0-0.1-0.2-0.4-0.3-0.5c0-0.1-0.2,0-0.1,0.1c0.1,0.1,0,0.2,0.1,0.3c0,0.1-0.2-0.1-0.3-0.2
			c0-0.1-0.2-0.4-0.3-0.6c-0.1-0.2-0.1,0-0.1,0.1c0,0.1,0.1,0.2,0.1,0.4c0,0.1-0.1,0.1-0.1,0c0-0.1-0.1-0.3-0.2-0.4
			c0-0.1-0.3-0.2-0.1,0.1c0.2,0.3,0,0.2,0,0.2c-0.1,0-0.2-0.1-0.2-0.1s-0.1-0.2-0.1-0.3c0-0.1-0.1-0.1-0.1,0c0,0.1,0,0.2,0,0.3
			c0,0.1-0.1,0-0.1,0c0-0.1-0.1-0.3-0.2-0.3c0,0-0.1,0-0.1,0c0,0.1,0.1,0.1,0.1,0.3c0,0.1,0,0.1-0.1,0.1c0-0.1-0.2-0.1-0.2-0.3
			c-0.1-0.1-0.2,0.1-0.3,0.1c-0.1,0-0.3-0.2-0.3-0.3c0,0-0.1,0-0.1,0.1c0,0.1,0.2,0.2,0.1,0.3c0,0.1,0,0.2-0.1,0.2
			c-0.1,0-0.3-0.3-0.4-0.3c-0.2,0-0.3,0-0.4,0.1c0,0,0,0,0,0c-0.2,0-0.3-0.1-0.4-0.1c-0.1-0.1-0.3-0.1-0.3-0.1
			c-0.1,0-0.1-0.1-0.1-0.1c2.6-1.3,6.4-1.4,9.6,1.2c0,0-0.1,0-0.1,0c-0.1-0.1-0.3-0.1-0.4-0.1C-322,275.5-322.3,275.6-322.5,275.6
			L-322.5,275.6z M-321.8,279.4c0,0,0,0.1,0,0.1c-0.1,0-0.2-0.1-0.3-0.1c-0.1-0.2-0.5-0.7-0.5-0.8c-0.1-0.1,0.1-0.2,0.3,0
			C-322,278.8-321.8,279.3-321.8,279.4L-321.8,279.4z M-322.1,282.8c-0.4,2.4,0.8,4.2,1.9,6l0,0c0.2,0.3,0.5,0.9,0.5,1.1
			c0.1,0.2,0.1,0.7,0.1,1c0,0.2-0.4,1.1-0.5,1.2c-0.1,0.1-0.3,0.4-0.5,0.5c0,0-1.5,2.5-8.5,1.9c-0.6-0.2-0.7-0.6-0.7-0.8
			c0-0.1-0.9-0.5-1.1-0.5c-0.2,0-0.2-0.2,0-0.2c0.1,0-0.1-0.2-0.3-0.2c-0.7-0.3-0.3-0.8-0.1-0.7c0.2,0.1,0.9,0.3,1.2,0.4
			c0.2,0,0.1-0.1,0-0.2c-0.1,0-0.7-0.2-0.8-0.3c-0.7-0.3,0-0.7,0.3-0.7c0.1,0,0.8,0.2,1,0.3c0.2,0.1,0.1-0.1-0.1-0.1
			c-0.2-0.1-0.3-0.1-0.6-0.2c-0.3-0.1,0-0.1,0.1-0.1c0.1,0,0.5,0.1,0.5,0c-0.1-0.1-0.4-0.2-0.7-0.4c-0.4-0.2-1.7-1.6,0.3-1.1
			c0.2,0.1,0.2-0.2,0.1-0.2c-0.1,0-1.1-0.5-1.3-0.5c-0.5-0.1-0.5-0.7-0.4-0.7c0.1,0,1,0.4,1.1,0.4c0.1,0,0.1-0.2,0-0.2
			c-0.1-0.1-0.9-0.3-1-0.4c-0.1,0-0.3-0.1-0.3-0.2c0-0.1-0.1-0.1-0.2-0.2c-0.1-0.1,0-0.2,0.3-0.1c0.3,0.1,0.1-0.1,0-0.2
			c-0.1-0.1-0.3-0.2-0.5-0.4c-0.2-0.2-0.2-0.5-0.3-0.7c-0.1-0.1,0.1,0,0.3,0c0.2,0,0-0.1-0.1-0.1c-0.2,0-0.2-0.2-0.3-0.3
			c-0.1-0.1,0.3,0,0.4,0c0.1,0,0.1-0.1-0.1-0.1c-0.2-0.1-0.3-0.2-0.3-0.3c0-0.1,0.2,0,0.4,0c0.2,0,0.1-0.1-0.1-0.2
			c-0.1-0.1-0.3,0-0.4-0.1c-0.1-0.1-0.1-0.1-0.1-0.3c0-0.1,0.1-0.1,0.3-0.1c0.2,0,0.2,0,0.2-0.1c-0.1-0.1-0.3-0.1-0.4-0.1
			c-0.1,0-0.2-0.1-0.1-0.2c0.1-0.1,0-0.2-0.1-0.3c-0.1,0,0.1-0.1,0.2-0.1c0.1,0,0.1-0.3-0.2-0.2c-0.3,0.1-0.1-0.2-0.1-0.5
			c0-0.3,0.1-0.2,0-0.4c-0.1-0.1-0.4,0.3-0.4,0c0.1-0.3-0.1-0.3-0.2-0.4c0,0,0-0.2-0.1-0.2c-0.1,0-0.9-0.3-1.1-0.4
			c-0.2-0.1,0-0.5,0.5-0.4c0.2,0.1,0.4,0.1,0.4,0c0-0.1-0.2-0.1-0.5-0.2c-0.4-0.1-0.3-0.5,0.1-0.4c0.2,0,0.2-0.1,0.2-0.1
			c-0.1-0.1-0.2,0-0.4-0.1c-0.2-0.1-0.5-0.9,0.1-0.8c0.1,0,0.2-0.1,0-0.2c-0.2,0-0.2-0.1-0.3-0.1c-0.1,0,0-0.6,0.2-0.6
			c0.1,0,0.3,0.1,0.4,0.1c0.1,0.1,0.2-0.1,0-0.1c-0.1-0.1-0.2-0.1-0.3-0.2c-0.1-0.1,0-0.1,0.1-0.2c0.1-0.1,0.3,0.1,0.5,0.1
			c0.2,0.1,0.2-0.1,0-0.2c-0.1-0.1-0.5-0.1-0.5-0.2c0-0.1,0-0.3,0.1-0.3c0.1,0,0.5,0.1,0.5,0.1s0.2-0.2,0-0.2c-0.1,0-0.1,0-0.4-0.1
			c-0.3-0.1,0-0.4,0.1-0.4c0.1,0,0.5,0.2,0.7,0.1c0.3,0,0.2-0.2,0-0.3c-0.2-0.1-0.7-0.2-0.8-0.3c-0.2-0.1,0.1-0.6,0.4-0.7
			c0.2-0.1,0.8-0.5,1.4,0.2c0.1,0.1,0.4,0.2,0.5,0.3c0.1,0.1,0.5,0.3,0.6,0.5c0.1,0.1,0.3,0.1,0.5,0c0.1-0.1-0.1-0.4-0.4-0.7
			c-0.2-0.1-0.3-0.1-0.4-0.2c-0.1-0.1-0.5-0.6-0.5-0.8l0,0c-0.1-0.1-0.2-0.2-0.2-0.2l-0.3-0.3c1-0.2,2.2,0,3.5,0.4
			c0,0,2,2.3,2.1,2.3c0,0,0.3,0.2,0.4,0.1c0.1-0.1,0-0.4-0.2-0.4c-0.2,0-0.4-0.6-0.5-0.7c-0.1-0.1-0.9-1-1-1.1
			c-0.1-0.1,0.1-0.1,0.2,0c0.1,0.1,0.3,0.3,0.4,0.3c0.1,0,0-0.1-0.2-0.3c-0.1-0.2,0.1,0,0.1-0.1c0,0,0,0,0,0
			c0.7,0.1,1.4,0.4,2.1,0.8c1,0.7,1.8,1.6,2.2,2.6l0,0l0,0C-322.4,279.6-321.9,281.5-322.1,282.8L-322.1,282.8z M-322.5,279.5
			C-322.6,279.5-322.6,279.5-322.5,279.5C-322.6,279.5-322.6,279.5-322.5,279.5L-322.5,279.5z M-322.5,279.6
			C-322.5,279.6-322.5,279.6-322.5,279.6C-322.5,279.6-322.5,279.6-322.5,279.6L-322.5,279.6z M-322.4,279.7
			C-322.4,279.7-322.4,279.7-322.4,279.7C-322.4,279.7-322.4,279.7-322.4,279.7L-322.4,279.7z M-322.4,279.8
			C-322.4,279.8-322.4,279.8-322.4,279.8C-322.4,279.8-322.4,279.8-322.4,279.8L-322.4,279.8z M-322.6,279.4
			C-322.6,279.4-322.6,279.4-322.6,279.4C-322.6,279.4-322.6,279.4-322.6,279.4L-322.6,279.4z M-322.2,280.1c0,0,0-0.1-0.1-0.1
			C-322.3,280-322.2,280.1-322.2,280.1L-322.2,280.1z M-322.2,280.2C-322.2,280.2-322.2,280.2-322.2,280.2
			C-322.2,280.2-322.2,280.2-322.2,280.2L-322.2,280.2z M-322.1,280.4C-322.1,280.3-322.2,280.3-322.1,280.4
			C-322.2,280.3-322.1,280.3-322.1,280.4L-322.1,280.4z M-322.1,280.5C-322.1,280.5-322.1,280.4-322.1,280.5
			C-322.1,280.4-322.1,280.5-322.1,280.5L-322.1,280.5z M-322,280.6C-322.1,280.6-322.1,280.6-322,280.6
			C-322.1,280.6-322.1,280.6-322,280.6L-322,280.6z M-322,280.7C-322,280.7-322,280.7-322,280.7C-322,280.7-322,280.7-322,280.7
			L-322,280.7z M-322,280.9C-322,280.8-322,280.8-322,280.9C-322,280.8-322,280.8-322,280.9L-322,280.9z M-321.9,281
			C-321.9,281-322,280.9-321.9,281C-322,280.9-321.9,281-321.9,281L-321.9,281z M-321.9,281.1C-321.9,281.1-321.9,281.1-321.9,281.1
			C-321.9,281.1-321.9,281.1-321.9,281.1L-321.9,281.1z M-321.9,281.2C-321.9,281.2-321.9,281.2-321.9,281.2
			C-321.9,281.2-321.9,281.2-321.9,281.2L-321.9,281.2z M-321.9,281.4C-321.9,281.3-321.9,281.3-321.9,281.4
			C-321.9,281.3-321.9,281.3-321.9,281.4L-321.9,281.4z M-322.3,280C-322.3,279.9-322.3,279.9-322.3,280
			C-322.3,279.9-322.3,279.9-322.3,280L-322.3,280z M-321.8,281.7c0,0,0-0.1,0-0.1C-321.8,281.6-321.8,281.6-321.8,281.7
			L-321.8,281.7z M-321.8,281.8C-321.8,281.8-321.8,281.7-321.8,281.8C-321.8,281.7-321.8,281.8-321.8,281.8L-321.8,281.8z
			 M-321.8,281.9C-321.8,281.9-321.8,281.9-321.8,281.9C-321.8,281.9-321.8,281.9-321.8,281.9L-321.8,281.9z M-321.8,282
			C-321.8,282-321.8,282-321.8,282C-321.8,282-321.8,282-321.8,282L-321.8,282z M-321.8,282.2C-321.8,282.1-321.8,282.1-321.8,282.2
			C-321.8,282.1-321.8,282.1-321.8,282.2L-321.8,282.2z M-321.8,282.3C-321.8,282.3-321.8,282.2-321.8,282.3
			C-321.8,282.2-321.8,282.3-321.8,282.3L-321.8,282.3z M-321.8,282.4C-321.8,282.4-321.8,282.3-321.8,282.4
			C-321.8,282.3-321.8,282.4-321.8,282.4L-321.8,282.4z M-321.8,281.5c0,0,0-0.1,0-0.1C-321.8,281.5-321.8,281.5-321.8,281.5
			L-321.8,281.5z M-321.8,282.5C-321.8,282.5-321.8,282.5-321.8,282.5C-321.8,282.5-321.8,282.5-321.8,282.5L-321.8,282.5z
			 M-321.8,282.6C-321.8,282.6-321.8,282.6-321.8,282.6C-321.8,282.6-321.8,282.6-321.8,282.6L-321.8,282.6z M-321.8,282.8
			C-321.8,282.7-321.8,282.7-321.8,282.8C-321.8,282.7-321.8,282.7-321.8,282.8L-321.8,282.8z M-321.8,282.9c0,0,0-0.1,0-0.1
			C-321.8,282.8-321.8,282.9-321.8,282.9L-321.8,282.9z M-328.3,298c-0.2,0-0.3,0.1-0.4,0.1c0-0.1,0.1-0.1,0-0.1
			c-0.2,0-0.5-0.3-0.5-0.4c-0.1-0.1,0,0-0.2,0c-0.1,0-0.2,0-0.5,0c-0.2,0-0.2-1-0.2-1.2c0-0.1,0.2-0.5,0.7-0.4
			c0.2,0,0.4-0.1,0.4-0.2c0-0.1,0-0.4,0-0.4c0.4,0,0.2-0.3,0.2-0.4c0.3,0,0.6,0,0.9,0c0,0,0.1,0,0.1,0c0,0.2,0.5,2.3,0.7,3.2
			C-327.5,297.8-328,297.9-328.3,298L-328.3,298z M-327.3,298.9c0,0.2-0.4,0.2-0.6,0.3c-0.2,0-0.6-0.2-0.8-0.3
			c-0.2-0.1,0.1-0.3,0.2-0.4c0.1-0.1,0.3,0,0.4,0c0.1,0,0.4,0,0.5,0C-327.4,298.5-327.3,298.7-327.3,298.9L-327.3,298.9z
			 M-329.2,298.7c-0.2,0-0.9,0.2-1.2,0.2c-0.2,0.1-0.3-0.1-0.2-0.2c0-0.1,0.2-0.3,0.4-0.4c0.2-0.1,0.5-0.3,0.6-0.2
			c0.2,0.2,0.4,0.2,0.7,0.4C-328.6,298.7-329,298.7-329.2,298.7L-329.2,298.7z M-335.2,289.8c-0.2,0-0.3-0.2-0.4-0.3
			c0-0.1,0.1-0.2,0.5-0.1c0.1,0,0.7,0.3,1,0.3l0.2,0.1l0.1,0c0.1,0,0.9,0.3,1,0.3c0.2,0.1,0.9,0.3,1.1,0.4c0.1,0,0.1,0.2,0,0.3
			C-331.8,291.2-335,289.9-335.2,289.8L-335.2,289.8z M-332.6,292.9c-0.1,0-1.5-0.6-1.6-0.7c-0.1-0.1,0-0.4,0.2-0.3
			c0.1,0,1.4,0.6,1.5,0.6C-331.9,292.7-331.9,293.1-332.6,292.9L-332.6,292.9z M-338,288.4c-0.1,0-0.4-0.6-0.2-0.6
			c0.1,0,1.1,0.3,1.3,0.4c0.4,0.1,0.4,0.7,0.2,0.6C-337,288.8-337.8,288.5-338,288.4L-338,288.4z M-336.5,294.8c0,0.5,0.1,1,0.1,1.4
			c-0.1,0-0.1-0.1-0.1-0.1l-0.1-0.1c-0.1-0.1-2.3-2-2.5-1.8c0,0-0.1,0.1-0.1,0.1c0,0,0.1-0.2,0-0.3c-0.1-0.1,0-0.3,0-0.4
			c0.1-0.1,0.1,0,0.2,0c0.1,0,0.1-0.1,0-0.1c-0.1,0-0.2-0.1-0.2-0.1c-0.1-0.1-0.1-0.2,0-0.1c0.1,0.1,0.2,0.1,0.3,0.1
			c0.1,0.1,0.1-0.1,0-0.1c-0.1-0.1-0.2-0.1-0.3-0.2c-0.1-0.1,0-0.2,0.1-0.2c0.1,0.1,0.3,0.2,0.4,0.2c0.2,0.1,0.1-0.1,0-0.2
			c-0.1,0-0.3-0.2-0.4-0.3c-0.1-0.1-0.2-0.4,0-0.4c0.2,0,0.3,0.1,0.4,0.2c0.1,0.1,0.2-0.1,0.1-0.2c-0.1-0.1-0.4-0.3-0.5-0.3
			c-0.2-0.1-0.1-0.4,0.1-0.4c0.1,0,0.2,0.1,0.3,0.1c0.1,0.1,0.2,0,0.1-0.1c-0.1-0.1-0.2-0.1-0.3-0.2c-0.1-0.1-0.1-0.3,0.1-0.2
			c0.2,0.1,0.2,0.1,0.3,0.1c0.1,0,0.1-0.1,0-0.1c-0.1,0-0.3-0.1-0.4-0.2c-0.1-0.1-0.1-0.2,0.1-0.2c0.1,0.1,0.3,0.1,0.4,0.2
			c0.1,0.1,0.2,0,0.2-0.1c-0.1-0.1-0.2-0.2-0.3-0.2c-0.5-0.2-0.3-1.8,0.6-1.2c0.2,0.1,1,1.1,1.2,1
			C-336.5,290.6-336.5,294.7-336.5,294.8L-336.5,294.8z M-336.4,296.8c0,0-0.2,0-0.3-0.1l0,0c0-0.1,0.1-0.1,0.2-0.2
			C-336.5,296.5-336.4,296.6-336.4,296.8C-336.4,296.7-336.4,296.8-336.4,296.8L-336.4,296.8z M-338.1,295.3c-0.1,0-0.1,0.1-0.2,0.1
			c-0.1,0.1-0.3,0.3-0.6,0.2l0-0.1c0-0.1,0-0.3,0.2-0.2c0.1,0,0.4-0.1,0.4-0.2c0-0.1,0.2-0.1,0.2,0
			C-338.1,295.2-338.1,295.3-338.1,295.3L-338.1,295.3z M-340,285.4c0.1,0,0-0.2-0.1-0.3c-0.1-0.1-0.3-0.4-0.2-0.3
			c0.1,0.1,0.4,0.3,0.5,0.4c0.1,0.1,0.2,0,0-0.1c-0.2-0.1-0.5-0.4-0.6-0.5c-0.1-0.1-0.2-0.3-0.1-0.3c0.1,0.1,0.5,0.3,0.6,0.4
			c0.1,0.1,0.1,0,0.1-0.1c-0.1-0.1-0.4-0.4-0.6-0.5c-0.3-0.3-0.2-0.8-0.1-0.7c0.1,0,0.8,0.6,1,0.7c0.1,0.1,0.2,0,0-0.2
			c-0.1-0.1-0.8-0.7-0.9-0.8c-0.3-0.2-0.2-0.5-0.2-0.6c0-0.1,0.1-0.1,0.2-0.1c0.1,0.1,0.7,0.6,0.7,0.7c0.1,0.1,0.2,0,0.1-0.1
			c-0.1-0.1-0.5-0.5-0.6-0.6c-0.1-0.1,0-0.2,0.1-0.2c0.1,0.1,0.5,0.5,0.7,0.6c0.1,0.1,0.1-0.1,0-0.1c-0.1,0-0.8-0.7-0.8-0.8
			c0,0-0.1-0.1-0.1-0.2c0.1-0.1,0.1-0.3,0.3-0.1c0.1,0,0.2,0.2,0.3,0.2c0.1,0.1,0.1,0,0.1-0.1c-0.1-0.1-0.4-0.3-0.5-0.4
			c-0.1-0.1,0-0.2,0.1-0.2c0.1,0.1,0.5,0.4,0.6,0.5c0,0,0.2,0,0.1-0.1c-0.2-0.1-0.8-0.7-0.8-0.8c0-0.2-0.1-0.9,0-0.8
			c0.1,0.1,0.3,0.2,0.5,0.4c0.2,0.2,0.1-0.1,0-0.2c-0.1-0.1-0.6-0.4-0.8-0.8c0-0.1,0-0.1-0.1-0.2c-0.3-0.6,0-1.2,0.5-1.5
			c0.2-0.1,0.4,0,0.6,0c0.1,0,0.2,0.1,0.2,0.2c0,0-0.1,0.1-0.2,0.1c-0.3,0-0.5,0.2-0.7,0.4c-0.1,0.2-0.1,0.4,0,0.6
			c0.1,0.2,0.2,0.3,0.4,0.5l0.3,0.5c0.5,0.7,0.5,1.8,0.4,2.5c0,0.4-0.1,0.9,0,1.6c0.1,0.7,0,1.2-0.3,1.6c-0.1,0.2-0.2,0.2-0.4,0.2
			c-0.1,0-0.2-0.1-0.3-0.2C-340,285.9-340.3,285.5-340,285.4L-340,285.4z M-338.2,282c0.9,0.2,1.8,0.6,2.3,0.8
			c0.4,0.2,0.1,0.3,0.3,0.3c0.1,0.1,0.4,0.2,0.9,0.4c0.4,0.1,0.8,0.3,0.9,0.3c0.1,0.1,0.1,0.2,0.1,0.3c0,0,0,0.1-0.1,0.1
			c0,0-0.1,0-0.1,0c-0.1-0.1-0.6-0.2-1.1-0.4c-0.5-0.2-1-0.3-1.1-0.4c-0.2-0.1-0.4-0.2-0.7-0.3c-0.2-0.1-0.4-0.1-0.5-0.2
			c-0.3-0.2-0.8-0.3-1.1-0.5C-338.5,282.5-338.4,282-338.2,282L-338.2,282z M-339.7,274c0.1,0.1,0.9,0.4,1,0.4c0.1,0,0.1-0.1,0-0.1
			c-0.1,0-0.5-0.3-0.7-0.4c-0.1-0.1,0.1-0.1,0.1-0.1c0.1,0,0.4,0.1,0.5,0.2c0.1,0,0.2-0.1,0.1-0.1c-0.1,0-0.1-0.1-0.3-0.2l0,0
			c0.3-0.1,0.5-0.2,0.6-0.5c0.1-0.2,0.1-0.3,0.2-0.6l0,0c0.1-0.3,0.3-0.4,0.4-0.4c0.2,0,0.3,0.2,0.3,0.4c0.2,0.9,0.2,1.8,0.2,2.7
			c0,0.6,0,1.1,0,1.7c-0.3,0.2-0.5,0.5-0.8,0.7l0,0c0,0-0.1,0-0.2,0c-0.1,0-0.3-0.1-0.2-0.2c0.1,0,0.2-0.1,0.1-0.1
			c-0.1,0-0.2,0-0.3-0.1c-0.2,0-0.2-0.2-0.1-0.2c0.1,0,0.2,0.1,0.4,0.1c0.1,0.1,0.3-0.1,0.1-0.2c-0.2,0-0.5-0.2-0.7-0.3
			c-0.2,0-0.3-0.2-0.1-0.2c0.2,0,0.4,0.1,0.7,0.1c0.2,0,0.1-0.1,0-0.2c-0.1,0-0.5-0.1-0.7-0.2c-0.2-0.1-0.1-0.2,0-0.2
			c0.1,0,0.7,0.2,0.8,0.2c0.2,0,0.2-0.1-0.1-0.2c-0.3-0.1-0.8-0.3-0.9-0.3c-0.1,0-0.1-0.1,0.1-0.1c0.2,0,0.6,0.2,0.7,0.2
			c0.1,0,0.1,0-0.1-0.1c-0.2,0-0.6-0.3-0.8-0.3c-0.2,0-0.2-0.2,0-0.1c0.1,0,0.7,0.2,0.8,0.2c0.2,0,0.2-0.1-0.1-0.1
			c-0.3,0-0.7-0.3-0.9-0.4c-0.2-0.1-0.1-0.2,0-0.2c0.2,0,0.5,0.2,0.6,0.2c0.1,0,0.1-0.1,0-0.1c-0.1,0-0.5-0.3-0.6-0.3
			c-0.1-0.1-0.1-0.1,0-0.1c0.1,0,0.3,0.1,0.4,0.1c0.1,0,0.2-0.1,0-0.1c-0.1,0-0.4-0.2-0.5-0.2c-0.1,0-0.1-0.1,0-0.1
			c0.1,0,0.4,0.1,0.6,0.2c0.1,0,0.1,0,0-0.1c-0.1,0-0.6-0.3-0.8-0.4C-339.9,274.1-339.8,273.9-339.7,274L-339.7,274z M-337.3,278.5
			c0.1,0,0.2,0,0.2,0.1c0.1,0.1,1,0.4,1.5,0.6c0.1,0,0.2,0.1,0.2,0.1c0,0.1-0.1,0.2-0.2,0.2c-0.2,0-1.6-0.7-1.7-0.8
			c0,0-0.1-0.1-0.1-0.1C-337.4,278.6-337.4,278.5-337.3,278.5L-337.3,278.5z M-335.6,280.4c-0.1,0.1-1-0.3-1.2-0.4
			c-0.2,0-0.8-0.3-1-0.4c-0.1,0-0.1-0.1-0.1-0.1c0-0.1,0.1-0.3,0.2-0.3c0,0,0.2,0,0.2,0c0,0.1,0.8,0.3,0.9,0.4
			c0.1,0,0.3,0.1,0.6,0.2c0.2,0.1,0.4,0.1,0.4,0.2c0.1,0,0.1,0,0.1,0.1C-335.5,280.1-335.6,280.4-335.6,280.4L-335.6,280.4z
			 M-334.2,283.3l-0.2-0.1c-0.3-0.1-0.7-0.2-0.8-0.3c-0.1-0.1-0.1-0.1-0.1-0.2c0-0.1,0.1,0,0.2,0c0.2,0,0.5,0.2,0.8,0.2
			c0.2,0,0.3,0.1,0.3,0.1c0.1,0,0.1,0.1,0.1,0.1c0,0,0,0,0,0.1C-334.1,283.3-334.1,283.3-334.2,283.3L-334.2,283.3z M-338.4,280.9
			c0,0,0.2,0.1,0.3,0.1c0.1,0,0.2,0.1,0.2,0.1c0.1,0,1.2,0.4,1.6,0.6l0.3,0.1c0.1,0,0.1,0.1,0.1,0.1c0,0,0,0.1,0,0.2
			c0,0,0,0.2-0.4,0c-0.6-0.2-2.3-0.6-2.2-1.1C-338.6,281-338.4,280.9-338.4,280.9L-338.4,280.9z M-338.4,280c0.1-0.1,0.2-0.1,0.3,0
			c0.1,0.1,2.3,0.9,2.5,1c0.1,0,0.1,0.1,0.1,0.1c0,0,0,0.4,0,0.5c0,0-0.1,0.1-0.2,0.1c-0.2,0-2.6-1.1-2.7-1.2c0,0-0.1-0.1-0.1-0.1
			C-338.4,280.3-338.4,280-338.4,280L-338.4,280z M-333.3,285.6c0,0.1-0.2,0.1-0.2,0.1c0,0-1.8-0.7-1.9-0.8
			c-0.3-0.1-0.6-0.1-0.6-0.2c0-0.1,0.1-0.5,0.8-0.2c0.1,0.1,1.7,0.6,1.7,0.6c0.1,0,0.1,0.2,0.2,0.4
			C-333.3,285.4-333.3,285.5-333.3,285.6L-333.3,285.6z M-333.1,286.3c0,0.1,0,0.1,0,0.2c-0.1,0-2-0.7-2.1-0.8c0,0-0.9-0.4-1-0.5
			c0,0,0.1-0.2,0.1-0.2c0-0.1,0.1-0.1,0.2,0c0.1,0,1,0.3,1.2,0.4l0.3,0.1c0.2,0.1,0.9,0.3,1,0.4l0.1,0c0.1,0,0.2,0,0.3,0.1
			C-333.1,286-333.1,286.3-333.1,286.3L-333.1,286.3z M-337.8,284c0,0,0-0.2,0.1-0.2c0.1,0,0.8,0.3,0.9,0.3c0.2,0.1,0.3,0.1,0.3,0.2
			c0,0,0,0.1,0,0.1c0,0,0,0.1-0.1,0.1c0,0-0.1,0-0.1,0C-336.6,284.5-337.8,284.1-337.8,284L-337.8,284z M-338.5,286.8
			c0,0,0-0.3,0.1-0.3c0,0,1.2,0.4,1.3,0.4c0.2,0.1,0.2,0.6,0.2,0.6c0,0,0,0-0.1,0.1c-0.1,0-1-0.3-1.1-0.3c-0.1,0-0.3-0.1-0.3-0.1
			C-338.5,287.1-338.5,286.9-338.5,286.8L-338.5,286.8z M-338.5,285.3c0.1,0,0.9,0.4,1,0.5c0.2,0.1,0.3,0.6,0.3,0.6
			c0.1,0.1-0.6-0.2-0.7-0.2c-0.2-0.1-0.6-0.2-0.6-0.3c0-0.1-0.1-0.2,0-0.2C-338.6,285.7-338.6,285.3-338.5,285.3L-338.5,285.3z
			 M-338.4,283.1c0-0.1,0-0.2,0.2-0.1c0.1,0,2.3,0.9,2.3,0.9c0,0,0.1,0.2,0,0.2c0,0.1-0.1,0.1-0.2,0.1l-1.5-0.5
			c-0.4-0.1-0.8-0.2-0.9-0.4C-338.5,283.2-338.4,283.2-338.4,283.1L-338.4,283.1z M-333,287.3c-0.2,0-1.2-0.4-1.4-0.5
			c0,0-0.2-0.1-0.4-0.2c-0.4-0.2-0.8-0.3-0.9-0.4c-0.5-0.2-1-0.2-1-0.6c0-0.1,0.1-0.2,0.1-0.2c0,0,0.1,0,0.1,0c0,0,0.1,0.1,0.3,0.1
			c0.2,0.1,0.8,0.3,1,0.4c0.2,0.1,1.8,0.7,1.9,0.7c0.1,0,0.2,0.1,0.3,0.1c0,0,0,0,0,0.1c0,0,0,0.1,0,0.1
			C-332.9,287.1-332.8,287.3-333,287.3L-333,287.3z M-332.6,288.1c0,0,0,0.1-0.1,0.1c-0.1,0-1.1-0.3-1.3-0.4l-0.1,0l-0.1,0
			c-0.1,0-0.1,0-0.2-0.1c0,0,0-0.2,0-0.2c0.1,0,1.1,0.3,1.2,0.3c0.1,0,0.3,0,0.3,0.1C-332.6,287.9-332.5,288-332.6,288.1
			L-332.6,288.1z M-333.2,289.1l-0.1-0.1c-0.1,0-0.1-0.1-0.1-0.1c0,0,0-0.1,0-0.1c0,0,0.1,0,0.2,0c0,0,0.1,0,0.2,0.1
			c0.2,0.1,0.7,0.2,0.7,0.3c0,0,0,0.1,0,0.1c0,0-0.1,0-0.1,0C-332.5,289.4-333.1,289.2-333.2,289.1L-333.2,289.1z M-335.8,288.4
			C-335.8,288.4-335.8,288.4-335.8,288.4c0-0.1,0.2,0,0.9,0.3c0.2,0.1,0.4,0.2,0.5,0.2c0.1,0,0.7,0.2,0.8,0.3c0,0,0,0.1,0,0.1
			c0,0-0.1,0.1-0.1,0.1c-0.1,0-0.6-0.2-0.6-0.2c-0.4-0.2-1.1-0.4-1.2-0.4C-335.7,288.8-335.8,288.6-335.8,288.4
			C-335.8,288.5-335.8,288.4-335.8,288.4L-335.8,288.4z M-334,282.7c0.1,0,0.1,0.1,0.1,0.1c0,0.1-0.1,0.1-0.3,0
			c-0.1,0-0.4-0.1-0.6-0.2c-0.1,0-0.2-0.1-0.3-0.1c-0.1,0-0.1-0.1-0.1-0.1c0,0,0-0.1,0-0.1c0,0,0.1,0,0.1,0
			C-334.9,282.4-334.2,282.6-334,282.7L-334,282.7z M-336.9,277.9C-336.9,277.9-336.9,277.9-336.9,277.9c0.1-0.1,0.2-0.1,0.2,0l0,0
			c0.1,0.1,1.1,0.5,1.3,0.6c0.2,0,0.1,0.1,0.1,0.1c0,0-0.1,0.1-0.2,0.1c-0.2,0-0.8-0.3-1.2-0.5l-0.2-0.1
			C-336.9,278.1-336.9,278-336.9,277.9L-336.9,277.9z M-336.3,277.4c0,0,0.1,0,0.2,0c0.1,0.1,0.8,0.4,0.9,0.5c0.1,0,0.1,0.1,0.1,0.1
			c0,0.1-0.1,0.1-0.2,0c-0.1,0-0.3-0.2-0.5-0.3c-0.1-0.1-0.3-0.2-0.3-0.2c-0.1,0-0.1-0.1-0.1-0.1
			C-336.4,277.5-336.3,277.5-336.3,277.4L-336.3,277.4z M-334.9,272.7c0.4-0.9,1.1-1.5,1.8-2.2c1.3-1.2,1.9-2.2,2.5-3.4
			c0-0.1,0.1-0.1,0.1-0.1c0,0,0.2,0.3,0.2,0.3c0,0,0.2,0.4,0.1,0.4c-0.1,0.1-0.1,0-0.3-0.1c-0.1,0-0.1,0.1,0,0.2
			c0.1,0.1,0.3,0.2,0.4,0.3c0,0,0.1,0.3,0,0.2c-0.1,0-0.4-0.2-0.5-0.3c-0.1-0.1-0.2,0.1-0.1,0.1c0.1,0,0.5,0.4,0.6,0.5
			c0.1,0.1,0,0.2,0.1,0.3c-0.5,0.5-0.8,1.2-1,1.9c0,0.1,0,0.1,0,0.2c0,0.1,0,0.1,0.1,0.2c0.1,0.1,0.2,0.1,0.3,0
			c0.3-0.2,0.7-0.2,0.8-0.1c0.2,0.1,0.3,0,0.5,0l0,0c0.3-0.1,0.6-0.1,1.2,0c0.2,0.1,0.5,0.1,0.7,0.1c0.1,0,0.2,0,0.4,0l0.5,0.1
			c0.1,0.1,0.2,0.1,0.3,0.2c0,0.1,0,0.1-0.1,0.1c-0.1,0-1,0.2-1,0.2c-0.1,0-0.1,0-0.2,0c-0.2-0.1-0.5-0.4-0.6-0.5
			c-0.1-0.1-0.2,0-0.1,0.1c0.1,0.1,0.3,0.3,0.4,0.4c-0.1,0-0.2,0-0.3,0c0,0,0,0,0,0c-0.1-0.1-0.3-0.3-0.4-0.4
			c-0.1-0.1-0.2,0-0.1,0.1c0.1,0.1,0.2,0.3,0.3,0.3c0,0,0,0,0,0c0,0-0.1,0-0.1,0c0,0-0.1,0-0.1-0.1c-0.1-0.1-0.3-0.3-0.4-0.4
			c-0.1-0.1-0.2,0-0.2,0c0,0.1,0.4,0.3,0.4,0.4c0,0,0,0.1,0,0.1c0,0,0,0-0.1,0c0,0-0.1,0-0.2-0.1c-0.1-0.1-0.3-0.3-0.4-0.3
			c-0.1,0-0.1,0.1-0.1,0.2c0.1,0.1,0.2,0.1,0.3,0.3c0,0,0,0,0,0.1c0,0,0,0,0,0c-0.1,0-0.1,0-0.2,0.1c0,0,0,0-0.1,0
			c-0.1-0.1-0.2-0.3-0.3-0.3c-0.1-0.1-0.2,0-0.2,0c0.1,0.1,0.4,0.2,0.4,0.3c0,0,0,0.1,0,0.1c0,0,0,0,0,0c0,0,0,0-0.1,0
			c-0.1-0.1-0.1,0-0.2-0.1c-0.1-0.1-0.1,0.2,0,0.3c0,0,0,0,0,0c-0.1,0-0.1,0.1-0.2,0.1c-0.1-0.1-0.4-0.3-0.4-0.3s-0.2,0-0.1,0
			c0.1,0.1,0.3,0.3,0.2,0.3c-0.1,0.1-0.3-0.1-0.4-0.2c-0.1-0.1-0.2,0-0.1,0.1c0.1,0.1,0.4,0.2,0.4,0.3c0,0.1,0,0.2-0.2,0.1
			c-0.2-0.1-0.3-0.1-0.5-0.2c-0.1-0.1-0.1,0.1,0,0.1c0.1,0,0.4,0.3,0.4,0.4c-0.1,0.1-0.5-0.1-0.6-0.2c-0.1-0.1-0.2,0-0.1,0.1
			c0.1,0.1,0.5,0.3,0.5,0.4c-0.1,0.1-0.5-0.2-0.6-0.3c-0.1-0.1-0.2,0-0.1,0.1c0.1,0.1,0.5,0.3,0.5,0.4c-0.1,0.1-0.6-0.2-0.8-0.3
			c-0.1-0.1-0.2,0.1-0.1,0.1c0.1,0.1,0.8,0.4,0.6,0.5c-0.2,0.2-0.6-0.2-0.8-0.3c-0.2-0.1-0.3,0-0.1,0.1c0.1,0.1,0.5,0.3,0.6,0.4
			c0.1,0.1,0.1,0.2-0.1,0.1c-0.2-0.1-0.8-0.5-1-0.5c-0.1,0-0.2,0.1,0,0.2c0.2,0.1,0.7,0.2,0.8,0.3c0.1,0.1-0.1,0.1-0.2,0
			c-0.2-0.1-0.5-0.3-0.6-0.3c-0.1,0-0.2,0-0.1,0.1c0.2,0.1,0.6,0.2,0.5,0.2c-0.1,0-0.4,0-0.6,0c-0.2,0-1.2,0.7-1.8,1.3
			c-0.6,0.1-1-0.8-0.2-2.2C-335.5,273.6-334.9,272.7-334.9,272.7L-334.9,272.7z M-335,271c0.1,0,0.2,0,0.4,0c0.2,0,0.1-0.1,0-0.1
			c-0.1,0-0.3-0.1-0.5-0.1c-0.6-0.1-0.4-0.4-0.3-0.4c0.2,0,0.7,0,0.9,0.1c0.2,0,0.1-0.1,0-0.2c-0.1-0.1-0.6-0.1-0.8-0.1
			c-0.6-0.2-0.5-0.5-0.3-0.4c0.2,0,0.7,0.1,0.9,0.1c0.2,0,0.2-0.2,0-0.2c-0.2,0-0.7-0.2-0.8-0.2c-0.1,0-0.2-0.3,0.2-0.3
			c0.2,0,0.9,0.1,1.1,0.1c0.2,0,0.2,0,0-0.1c-0.1-0.1-0.9-0.2-1.1-0.3c-0.2-0.1-0.4-0.3-0.1-0.3c0.3,0,0.7,0.1,1,0.1
			c0.3,0,0.2-0.1,0-0.2c-0.2,0-0.8-0.2-1-0.3c-0.2-0.1-0.3-0.3-0.1-0.2c0.1,0,1,0.2,1.2,0.3c0.2,0,0.2-0.1,0-0.2
			c-0.2-0.1-1-0.3-1.3-0.3c-0.3-0.1-0.2-0.2,0-0.2c0.2,0,1.1,0.2,1.3,0.2c0.3,0,0.1-0.2-0.1-0.2c-0.2,0-1-0.2-1.2-0.3
			c-0.2-0.1-0.2-0.2,0-0.1c0.2,0.1,0.6,0,0.5,0c-0.1-0.1-0.2-0.2-0.1-0.2c0.1,0,0.3,0.1,0.5,0.1c0.2,0,0.1,0,0-0.1
			c-0.2-0.1-0.5-0.1-0.6-0.2c-0.2,0-0.3-0.3-0.1-0.2c0.2,0,0.6,0.2,0.8,0.2c0.3,0.1,0.2-0.1,0-0.1c-0.2,0-0.6-0.2-0.9-0.4
			c-0.3-0.1-0.2-0.2,0-0.2c0.2,0,0.5,0.2,0.6,0.2c0.1,0,0.2,0,0-0.1c-0.2-0.1-0.5-0.2-0.6-0.3c-0.2,0-0.2-0.2,0-0.2
			c0.2,0,0.7,0.2,0.9,0.2c0.2,0.1,0.4-0.1,0.1-0.1c-0.3,0-0.9-0.3-0.9-0.3c-0.1,0-0.2-0.2,0-0.2c0.1,0,0.5,0.1,0.6,0.1
			c0.1,0,0.2-0.1-0.1-0.1c-0.3,0-0.4-0.2-0.6-0.2c-0.2-0.1-0.1-0.2,0.1-0.2c0.1,0,0.5,0.1,0.7,0.2c0.2,0.1,0.1-0.1-0.1-0.1
			c-0.2,0-0.6-0.2-0.8-0.3c-0.2-0.1-0.2-0.1,0-0.1c0.2,0,0.5,0.1,0.7,0.2c0.3,0.1,0.3-0.1,0.1-0.1c-0.2,0-0.7-0.3-0.8-0.3
			c-0.1,0-0.2-0.1-0.1-0.1c0.1,0,0.4,0.1,0.6,0.2c0.2,0.1,0.4-0.1,0.2-0.2c-0.2-0.1-0.6-0.2-0.8-0.3c-0.2-0.1-0.1-0.2,0-0.2
			c0.1,0,0.6,0.2,0.8,0.2c0.2,0,0.1-0.1,0-0.1c-0.2,0-0.7-0.2-0.8-0.3c-0.1-0.1-0.1-0.1,0.1-0.1c0.2,0,0.3,0.1,0.4,0.1
			c0.1,0,0.2-0.1,0-0.1c-0.2,0-0.3-0.1-0.5-0.2c-0.2,0-0.1-0.2-0.1-0.2c0.1,0,0.2,0,0.3,0c0.1,0,0.5,0,0.2-0.1
			c-0.3,0-0.2-0.1-0.4-0.2c-0.2-0.1-0.3-0.1-0.2-0.1c0.1,0,0.2,0,0.4,0.1c0.2,0,0.4,0.1,0.4,0c0-0.1-0.2,0-0.7-0.2
			c-0.5-0.1-0.3-0.2-0.3-0.3c0.1-0.1,0.2,0,0.3-0.1c0.3,0.1,0.6,0.1,0.8-0.2c0.1-0.1,0.2-0.2,0.4-0.1c0.3,0.1,0.5,0,0.7-0.2
			c0.1-0.1,0.2-0.2,0.3-0.3l0.1-0.1c0.1-0.1,0.2-0.2,0.3-0.1c0.1,0,0.2,0.1,0.2,0.3c0,0.2,0.1,0.5,0.1,0.8c0,0.4,0.1,0.9,0.2,1.3
			c0.1,0.4,0.3,0.4,0.3,0.4c0.2,0,0.3-0.1,0.4-0.3c0,0,0,0,0,0c0,0,0.1-0.1,0.1-0.1c0-0.1,0.1-0.2,0.1-0.2c0,0,0.1-0.2,0.1-0.2
			c0-0.1,0.1-0.3,0.2-0.4c0.1-0.1,0-0.2,0-0.4c0-0.1,0.1-0.2,0.1-0.4c0,0,0.1,0,0.2,0.1c0.1,0.1,0.3-0.1,0.3-0.2
			c0-0.1,0.2-0.5,0.2-0.6c0-0.1,0.1-0.3,0.1-0.4c0.2,0.1,0.5,0,0.7,0c0.1,0,0.1,0,0.2,0.1c0,0,0,0.1,0.1,0.1c0,0.1,0,0.1,0,0.2
			l-0.1,0.2c-0.2,0.6-0.4,1.3-0.5,1.9c0,0.1,0,0.2,0,0.4c0,0.1,0.1,0.2,0.1,0.3c0.1,0.1,0.3,0.2,0.5,0.2c1.4,0.1,2.5,1.1,2.8,2.7
			c0.1,0.3,0.1,0.6,0.1,1c0,0.9-0.1,2-0.2,3c-0.1,0-0.3,0-0.4,0c-0.2,0-0.4,0-0.6-0.1c-0.6-0.2-1-0.2-1.4,0c0,0,0,0,0,0
			c0-0.4,0-0.8,0-1.1c0,0,0.1,0,0.1,0c0.1,0,0.1,0.1,0.1,0.2c0,0.1,0,0.6,0,0.7c0,0.1,0.1,0,0.1-0.1c0-0.1,0-0.2,0-0.4
			c0-0.2,0-0.8,0-1c0-0.1,0-0.3,0-0.5c0-0.1-0.1,0-0.1,0.1c0,0.1,0,0.2,0,0.4c0,0.1,0,0.1-0.2,0.1c0-0.1,0-0.2,0-0.4
			c0-0.2,0-0.4-0.1-0.6c-0.1-0.6-0.3-1.1-0.5-1.4c-0.1-0.1-0.2-0.2-0.3-0.2c0-0.1-0.1-0.1-0.2-0.1c0,0-0.1-0.1-0.1-0.2
			c0,0,0.1-0.1-0.1-0.2c-0.2-0.1-0.2,0-0.2,0c-0.1,0.1-0.3,0.1-0.2,0.1c0.1,0.1,0.4,0.2,0.3,0.2c0,0-0.1,0.1-0.1,0.1
			c-0.1,0-0.3-0.1-0.4-0.1c-0.1,0-0.2,0.1-0.1,0.1c0.1,0,0.4,0,0.5,0.1c0,0,0.2,0,0.1,0.5c0,0.1-0.9,1.5-0.9,1.5
			c0,0.1-1.1,1.2-1.1,1.2c-0.1,0.1-0.2,0.2-0.3,0.3c-0.2,0.2-1.3,1.3-1.5,1.6c-0.1,0-0.2-0.1-0.3-0.1
			C-335.7,271.5-335.5,271.1-335,271L-335,271z M-327.4,273.2c-0.4,0-1.7,0.2-2.2,0.3c0-0.2,0.1-1,0.3-1.1c0.2,0,1.2-0.2,1.3-0.2
			c0.3,0,0.5-0.1,0.7-0.1C-327.3,272.5-327.4,272.9-327.4,273.2L-327.4,273.2z M-326.8,298.6C-326.8,298.6-326.8,298.6-326.8,298.6
			C-326.8,298.6-326.8,298.6-326.8,298.6L-326.8,298.6z M-320.6,275.7L-320.6,275.7c-2-1.8-4.3-2.5-6.5-2.4c0.1-0.4,0.1-0.8,0.2-1.3
			c0.3,0,0.8,0,1.1,0c0.2,0,0.3-0.1,0.3-0.2c0-0.1-0.2-0.5-0.5-0.5c-0.1,0-0.6-0.3-0.8-0.4c0.1-1,0.2-2.1,0.2-3.1
			c0-2.1-1.1-3.8-3-3.8c-0.3,0-0.5-0.2-0.4-0.6c0.1-0.6,0.4-1.5,0.6-2.1c0.1-0.3-0.1-0.7-0.4-0.6c-0.2,0-0.4,0.1-0.6,0
			c-0.2,0-0.4,0.1-0.4,0.1c-0.3,0.1-0.4,0.3-0.4,0.5c-0.1,0.2-0.5,1.2-0.5,1.4c-0.1,0.2-0.1,0.9-0.3,0.7c-0.1-0.1-0.2-0.2-0.2-0.2
			c-0.1-0.7-0.1-1.4-0.2-1.7c-0.1-0.4-0.5-0.5-0.8-0.2c-0.1,0.2-0.2,0.3-0.4,0.4c-0.2,0.2-0.3,0.2-0.5,0.1c-0.2,0-0.4,0-0.6,0.2
			c-0.2,0.2-0.4,0.2-0.6,0.1c-0.1-0.1-0.3-0.2-0.4-0.2c-0.2,0-0.3,0.1-0.2,0.2c0.1,0.7,0.2,1.4,0.2,2l0.1,1.2c0,0.5,0,1.1,0,1.4
			c0,0.5-0.1,0.9,0,1.3c0,0.2,0,0.4-0.1,0.6c-0.2,0.5-0.2,1-0.2,1.6c0,0.7,0,1.7,0,2.6c0,0.9-0.2,2.5-0.1,3.8c0,0,0,0,0,0
			c-0.2,0.1-0.4,0.2-0.6,0.4c0,0,0,0,0.1,0v0c-0.1-1.3,0-3-0.2-4.5c-0.1-0.7-0.8-0.7-1,0c-0.1,0.2-0.1,0.4-0.2,0.6
			c-0.1,0.3-0.3,0.4-0.6,0.4c-0.4,0.1-0.8,0.2-1.1,0.3c-0.1,0.1-0.2,0.2-0.2,0.4c0.1,0.5,0.1,1.8,0.2,3.5c-0.2,0.1-0.4,0.2-0.5,0.3
			c-0.3,0.4-0.4,0.9-0.2,1.6c0.3,1,0.3,1.5,0,2.2c-0.5,1.3-0.2,3,0.8,4.3c0,0,0,0,0.1,0.1c0.1,0.1,0.2,0.2,0.3,0.2c0,0,0,0,0,0
			c0.1,3.8,0.3,7.3,0.3,8.8c0,0.2,0.1,0.4,0.4,0.6c0.3,0.3,0.7,0.1,0.9-0.2c0.2-0.2,0.4-0.1,0.4,0.2c0,0.3,0.2,0.5,0.4,0.6
			c0.1,0.1,0.3,0.3,0.5,0.4c0.3,0.2,0.6,0.2,0.6-0.1l0,0c0-1.6-0.1-4-0.2-5.7c0,0,0-0.1-0.1-0.1c1.2,1.4,2.7,2.6,4.5,3.2h0l0,0
			c0.4,1.4,0.8,4.2,0.8,4.2c0,0.3,0.4,0.6,0.9,0.6c0.3,0,0.7-0.2,1-0.2c0.3-0.1,0.6,0.1,0.8,0.2c0.4,0.2,1,0.3,1.5,0.1
			c0.3-0.1,0.3-0.3,0.3-0.5c0,0,0,0,0,0l-0.8-3.7l0.1,0c0.4,0.1,0.8,0.1,1.2,0c1.6,0,3-0.2,4.2-0.7c1.1-0.5,2-1.2,2.4-2
			c0.4-0.7,0.5-1.4,0.4-2.1c-0.1-0.4-0.3-0.9-0.5-1.3l0,0c-0.8-1.3-1.6-2.5-1.9-3.9c-0.1-0.6,0-1.2,0.1-1.8c0.1-0.5,0.1-1,0-1.5
			c-0.1-0.7-0.4-1.3-0.7-1.9c0,0,0.8,0.4,1.5,0.7v0c0.3,0.1,0.4-0.1,0.3-0.3c-0.1-0.1-0.2-0.3-0.3-0.5c-0.1-0.2-0.2-0.4-0.2-0.6
			c0.1-0.3,0-0.8-0.3-1.3c-0.4-0.9-0.1-1.3,0.3-1.4C-320.5,276-320.5,275.8-320.6,275.7L-320.6,275.7z"/>
		<path class="st4" d="M-328.9,275.3C-328.9,275.3-328.9,275.3-328.9,275.3c0,0-0.1-0.1-0.3-0.1c-0.3-0.2-0.7-0.3-1.1-0.4
			c-0.2-0.1-0.3-0.1-0.4-0.1c-0.1,0-0.2,0-0.4,0c-0.2,0-0.3,0-0.5,0c-0.3,0-0.6,0-0.8,0c-0.1,0-0.2,0-0.3,0.1
			c-0.6,0.1-1.1,0.3-1.6,0.5c0,0,0,0,0,0c-0.3,0.2-0.5,0.3-0.7,0.6c-0.2,0.2-0.4,0.3-0.6,0.4c-1.3,0.5-2.5,1.3-3.1,2.8
			c0,0.1,0.1,0.1,0.1,0.1c0.8-1.3,2.1-2,3.1-2.4c0.3-0.1,0.5,0.1,0.5,0.4c0,0.5,0.1,0.9,0,1.2c-0.1,0.3-0.2,0.5-0.3,0.8
			c-0.1,0.3-0.2,0.7-0.1,1c0.1,0.7,0.2,1.6-0.3,2.5c-0.1,0.1,0,0.2,0.1,0.1c0.6-0.6,0.6-1.6,0.6-2.5c0-0.4,0.1-0.7,0.2-0.9
			c0.3-0.7,0.5-1.1,0.5-1.6c0-0.3,0-0.7-0.1-0.9c0-0.3,0.1-0.5,0.2-0.6c0.2-0.2,0.7-0.5,1-0.5c0.3,0,0.4,0.1,0.5,0.3
			c0.5,0.8,1.2,1.3,2.2,1.6c0.4,0.2,0.5,0.4,0.4,0.8c0,0.4-0.1,0.8-0.5,1.1c-0.7,0.6-1.1,1.2-1.2,1.8c-0.1,0.2-0.3,0.5-0.6,0.6
			c-1.2,0.3-1.9,1.2-1.5,2.2c0.3,0.8,0.5,1.2,0.6,1.8c0.2,0.7,0.4,1.7,0.7,2.4c0.4,1,0.8,2,1.2,2.5c0.1,0.1,0.2,0,0.1-0.1
			c-0.5-0.9-1-2.4-1.2-3.2c0-0.1,0-0.2,0.2-0.2c0.4,0,1.4,0.3,2.1,0.6c0.1,0.1,0.2-0.1,0.1-0.1c-0.7-0.4-1.8-0.8-2.3-0.9
			c-0.1,0-0.2-0.2-0.3-0.4c-0.2-0.7-0.3-1.6-0.7-2.4c-0.2-0.5,0-0.9,0.3-1.2c0.2-0.2,0.7-0.3,0.9-0.3c0.1,0,0.1,0,0.2,0
			c0,0,0.1,0.1,0.1,0.1c0,0,0.1,0.1,0.1,0.2c0.1,0.5,0.4,1.1,0.8,1.5c0.4,0.4,0.5,0.7,0.6,1.1c0.1,0.2,0.2,0.2,0.2,0
			c0-0.3-0.2-0.8-0.5-1.2c-0.3-0.4-0.6-0.9-0.6-1.3c-0.1-0.4,0-0.7,0.1-1.1c0.2-0.7,0.7-1.4,1.2-1.7c0.5-0.3,0.8-1,0.7-1.7
			c0-0.2,0.2-0.3,0.3-0.1c0.4,0.8,0.9,1.4,1.4,1.7c1.4,0.9,1.4,2.2,0.3,2.9c-1.5,1-1.5,2.3-0.8,3.5c0.3,0.5,0.5,0.8,0.7,1.1
			c0.2,0.3,0.2,0.6,0.1,0.9c-0.4,0.9-0.4,1.7,0,2.4c0.3,0.5,0.6,0.9,0.6,1.1c0.1,0.2,0.2,0.2,0.2,0c-0.1-0.4-0.4-0.9-0.6-1.2
			c-0.3-0.5-0.2-1.3,0-1.7c0.1-0.3,0.2-0.5,0.3-0.7c0.1-0.2,0.2-0.3,0.4-0.1c0.3,0.3,0.6,0.9,0.7,1.3c0.2,0.4,0.4,0.5,0.7,0.6
			c0.5,0.3,1.1,0.6,1.3,1.1c0.1,0.2,0.2,0.1,0.1,0c-0.1-0.6-0.6-0.9-1.2-1.3c-0.3-0.2-0.5-0.4-0.6-0.7c-0.3-0.7-0.4-1.3-0.9-1.6
			c-0.3-0.2-0.6-0.2-0.8-0.5c-0.6-0.7-0.9-1.5-0.8-2.1c0-0.6,0.5-1.2,1.1-1.5c0.7-0.4,1.1-1.1,1-1.8c0-0.2,0.2-0.3,0.4-0.2
			c0.7,0.2,1.5,0.6,1.7,1.8c0,0.2,0.2,0.1,0.2,0c-0.1-0.6-0.2-1.6-1.4-2.1c-0.1-0.1-0.2-0.1-0.3-0.1c0,0,0,0-0.1,0
			c-0.1,0-0.2,0-0.3-0.1c-0.2,0-0.4,0-0.6-0.3c-0.3-0.6-0.7-0.9-1.2-1.1c-0.4-0.3-0.7-0.8-1-1.3c-0.3-0.5-0.6-0.9-1.1-1
			c-1-0.1-1.8-0.5-2.4-1.2c-0.1-0.1,0-0.3,0.2-0.3c1.4,0.1,2.3,0.4,3.1,1.1c0.6,0.5,0.9,1,1.3,1.5c0.6,0.9,1.5,1,2.5,1
			c1,0,1.7,0.4,2.3,1.7c0.4,1,0.4,1.9,0,2.6c-0.5,0.7-0.6,1.5-0.4,2.3c0.1,0.5,0.1,0.7,0.2,1.2c0.1,0.5,0.4,1,0.8,1.4
			c0.3,0.3,0.4,0.6,0.5,1c0.1,0.4,0.2,0.8,0.5,1.1c0.1,0.1,0.2,0,0.1-0.1c-0.1-0.1-0.3-0.5-0.3-1c0-0.5-0.3-0.9-0.5-1.1
			c-0.2-0.2-0.3-0.4-0.5-0.8c-0.1-0.3,0.1-0.3,0.3-0.2c0.8,0.5,1.6,1.5,1.9,2.6c0,0.2,0.2,0.2,0.2,0c-0.1-1-0.8-2.2-1.7-3
			c-0.4-0.3-0.9-0.7-1-1.4c-0.1-0.7,0.1-1.2,0.4-1.8c0.4-0.6,0.4-1.7,0-3c-0.4-1-0.9-1.6-1.4-1.8v0c0,0-0.1,0-0.1-0.1
			c-0.5-0.2-0.9-0.2-1.3-0.2c-0.8,0-1.4-0.1-1.9-0.8c-0.2-0.3-0.6-1-1.4-1.6"/>
		<path class="st3" d="M-323.4,278.5L-323.4,278.5L-323.4,278.5C-323.4,278.5-323.4,278.5-323.4,278.5L-323.4,278.5z M-334.1,275.2
			c0.4-0.3,1-0.4,1.5-0.5c0,0,0.3-0.1,0.3-0.1c0.2,0,0.4,0,0.8,0c0,0,0.4,0,0.4,0c0,0,0.4,0,0.4,0c0.1,0,0.2,0,0.3,0.1
			c0.4,0.1,0.7,0.2,1.1,0.4c0.1,0,0.2,0.1,0.2,0.1l0,0l0,0l0,0l0,0l0,0c0.3,0.2,0.5,0.4,0.8,0.6c0.6,0.5,1,1.1,1.2,1.4l0.2,0.2
			c0.5,0.6,1.1,0.7,2,0.8l0,0l0.1,0c0.3,0,0.8,0,1.2,0.2c0,0,0.1,0,0.1,0l0,0c0.6,0.3,1,0.9,1.3,1.8c0.2,0.6,0.3,1.2,0.3,1.8
			c0,0.5-0.1,0.9-0.3,1.2c-0.3,0.5-0.5,1-0.5,1.5c0,0.1,0,0.3,0,0.4c0.1,0.7,0.6,1.1,1,1.4l0,0c0.9,0.8,1.6,2,1.7,2.9c0,0,0,0,0,0
			c0,0,0,0,0,0c0,0,0,0,0,0c-0.4-1.4-1.5-2.3-1.9-2.7c-0.1-0.1-0.3-0.1-0.4,0c0,0-0.1,0.1-0.1,0.2c0,0,0,0.1,0,0.1
			c0.1,0.4,0.3,0.6,0.5,0.8c0.2,0.2,0.4,0.6,0.5,1.1c0,0.5,0.2,0.9,0.4,1.1c0,0,0,0,0,0c0,0,0,0,0,0c-0.3-0.3-0.4-0.7-0.5-1
			c-0.1-0.4-0.2-0.7-0.5-1c-0.4-0.5-0.7-0.9-0.8-1.4c0-0.2-0.1-0.4-0.1-0.6c0-0.2,0-0.4-0.1-0.6c-0.1-0.2-0.1-0.4-0.1-0.7
			c0-0.5,0.2-1.1,0.5-1.5c0.2-0.4,0.4-0.8,0.4-1.2c0-0.4-0.1-0.9-0.3-1.5c-0.5-1.3-1.2-1.8-2.3-1.8c-0.9,0-1.8-0.1-2.4-1
			c-0.4-0.5-0.7-1-1.3-1.5c-0.8-0.7-1.7-1-3.1-1.1c-0.1,0-0.2,0-0.3,0.1c0,0,0,0.1,0,0.1c0,0.1,0,0.1,0.1,0.2
			c0.6,0.8,1.4,1.2,2.5,1.3c0.6,0,0.8,0.4,1.1,0.9c0.3,0.5,0.6,1,1.1,1.3c0.4,0.2,0.8,0.5,1.1,1.1c0.1,0.2,0.3,0.3,0.5,0.3l0.1,0
			l0.3,0.1h0l0.1,0c0,0,0.1,0,0.2,0.1c1,0.4,1.2,1.3,1.3,2c0,0,0,0,0,0c0,0,0,0.1,0,0.1c0,0,0,0,0-0.1c-0.2-1.2-1.1-1.7-1.7-1.8
			c-0.1,0-0.3,0-0.3,0.1c-0.1,0.1-0.1,0.1-0.1,0.2c0,0,0,0,0,0c0,0,0,0.1,0,0.1c0,0.6-0.4,1.2-1,1.6c-0.7,0.4-1.1,1-1.1,1.6
			c0,0,0,0.1,0,0.1c0,0.6,0.3,1.3,0.9,2c0.2,0.2,0.3,0.3,0.5,0.4l0.3,0.1c0.4,0.2,0.6,0.7,0.8,1.2l0.1,0.4c0.1,0.3,0.3,0.5,0.7,0.7
			l0.1,0c0.6,0.4,1,0.7,1.1,1.2c0,0,0,0,0,0c0,0,0,0,0,0c-0.2-0.6-0.8-1-1.3-1.2c-0.2-0.1-0.5-0.2-0.6-0.6l0-0.1
			c-0.2-0.4-0.4-0.9-0.7-1.2c-0.1-0.1-0.1-0.1-0.2-0.1c-0.1,0-0.2,0.1-0.2,0.2l-0.1,0.2l-0.2,0.5c-0.1,0.2-0.1,0.5-0.1,0.9
			c0,0.3,0.1,0.6,0.2,0.9l0.1,0.1c0.2,0.3,0.4,0.7,0.5,1.1c0,0,0,0,0,0.1c0,0,0,0,0-0.1c-0.1-0.3-0.4-0.7-0.7-1.1
			c-0.2-0.3-0.3-0.7-0.3-1.1c0-0.4,0.1-0.8,0.3-1.2c0.1-0.1,0.1-0.3,0.1-0.4c0-0.2-0.1-0.4-0.2-0.5l0,0c-0.2-0.3-0.4-0.5-0.7-1
			c-0.5-1-0.8-2.4,0.8-3.4c0.5-0.4,0.8-0.8,0.8-1.4c0-0.6-0.4-1.2-1.1-1.7c-0.5-0.3-1-0.9-1.4-1.7c-0.1-0.2-0.2-0.2-0.3-0.2
			c-0.1,0-0.2,0.1-0.2,0.2c0,0,0,0,0,0c0,0.1,0,0.1,0,0.2c0,0.6-0.3,1.1-0.7,1.5c-0.4,0.3-1,1-1.2,1.8c-0.1,0.3-0.1,0.5-0.1,0.8
			c0,0.1,0,0.2,0,0.4c0.1,0.4,0.3,0.9,0.6,1.4c0.3,0.4,0.5,0.8,0.5,1.2c0,0,0,0,0,0c0,0,0,0,0,0c0,0,0,0,0-0.1
			c-0.1-0.4-0.3-0.7-0.6-1.1c-0.3-0.4-0.6-0.9-0.8-1.4c0-0.1,0-0.1-0.1-0.2l0,0l0,0l-0.1-0.1l0,0c-0.1,0-0.1,0-0.2,0
			c-0.2,0-0.7,0.2-1,0.3c-0.3,0.2-0.4,0.5-0.4,0.8c0,0.1,0,0.3,0.1,0.4c0.3,0.7,0.4,1.4,0.6,2.1l0.1,0.4c0.1,0.3,0.2,0.4,0.3,0.4
			c0.5,0.1,1.6,0.5,2.3,0.9c0,0,0,0,0,0c0,0,0,0,0,0c-0.8-0.4-1.8-0.6-2.2-0.6c-0.1,0-0.1,0-0.2,0.1c0,0-0.1,0.1-0.1,0.2
			c0,0,0,0,0,0.1c0.2,0.9,0.7,2.3,1.2,3.2c0,0,0,0,0,0c0,0,0,0,0,0c-0.4-0.5-0.8-1.4-1.2-2.4c-0.2-0.7-0.5-1.7-0.7-2.4
			c-0.1-0.6-0.3-0.9-0.5-1.6l-0.1-0.3c-0.1-0.2-0.1-0.3-0.1-0.5c0-0.2,0-0.4,0.1-0.6c0.2-0.5,0.8-0.8,1.5-1c0.4-0.1,0.6-0.4,0.7-0.6
			c0.2-0.6,0.6-1.2,1.2-1.8c0.4-0.3,0.4-0.7,0.5-1.1l0,0c0-0.1,0-0.1,0-0.2c0-0.3-0.2-0.5-0.5-0.7c-1-0.4-1.6-0.7-2.2-1.6
			c-0.1-0.2-0.3-0.4-0.6-0.3c-0.4,0.1-0.8,0.3-1.1,0.6c-0.2,0.2-0.2,0.3-0.2,0.6c0,0,0,0.1,0,0.1l0,0.6l0,0.4c0,0,0,0.1,0,0.1
			c0,0.5-0.2,0.9-0.5,1.5c-0.1,0.2-0.2,0.5-0.2,0.8c0,0,0,0.1,0,0.1c0,0.2,0,0.4,0,0.6c0,0.7-0.1,1.3-0.6,1.8c0,0,0,0,0,0
			c0,0,0,0,0,0c0.3-0.5,0.4-1,0.4-1.5c0-0.3,0-0.6-0.1-0.9l0-0.1c0-0.1,0-0.1,0-0.2c0-0.3,0.1-0.5,0.1-0.8c0,0,0.1-0.2,0.1-0.2
			c0.1-0.2,0.2-0.4,0.2-0.6c0-0.1,0.1-0.3,0.1-0.5c0-0.2,0-0.5-0.1-0.7c0-0.2-0.1-0.3-0.2-0.4c-0.1,0-0.2-0.1-0.4,0
			c-1.2,0.4-2.3,1.2-3,2.2c0.7-1.5,2-2.2,3-2.5c0.2-0.1,0.5-0.2,0.7-0.4C-334.6,275.6-334.4,275.4-334.1,275.2L-334.1,275.2
			L-334.1,275.2L-334.1,275.2z M-332.2,274.5l-0.3,0.1c-0.6,0.1-1.1,0.3-1.6,0.5c0,0,0,0,0,0l0,0l0,0c-0.3,0.2-0.5,0.4-0.7,0.6
			c-0.2,0.2-0.4,0.3-0.6,0.3c-1.1,0.4-2.5,1.2-3.1,2.8c0,0.1,0,0.2,0.1,0.2c0.1,0,0.1,0,0.2-0.1c0.7-1.1,1.8-2,3.1-2.3
			c0.1,0,0.2,0,0.2,0c0.1,0,0.1,0.1,0.1,0.3c0,0.5,0.1,0.9,0,1.1c-0.1,0.2-0.1,0.4-0.2,0.6l-0.1,0.2c-0.1,0.2-0.2,0.6-0.1,1
			c0,0,0,0.1,0,0.1c0.1,0.7,0.2,1.5-0.3,2.3c-0.1,0.1,0,0.2,0,0.2c0,0,0.1,0,0.2,0c0.7-0.6,0.7-1.6,0.6-2.5c0-0.3,0-0.6,0.2-0.9
			c0.4-0.7,0.5-1.1,0.5-1.7c0,0,0-0.4,0-0.4l0-0.6c0-0.2,0-0.4,0.2-0.6c0.2-0.2,0.6-0.5,1-0.5c0.2,0,0.3,0.1,0.4,0.3
			c0.6,0.9,1.2,1.4,2.1,1.7c0.3,0.1,0.5,0.3,0.4,0.6l0,0c0,0.3-0.1,0.7-0.4,1c-0.7,0.6-1.1,1.2-1.3,1.9c-0.1,0.2-0.2,0.4-0.5,0.5
			c-0.7,0.2-1.2,0.6-1.5,1.1c-0.2,0.4-0.2,0.8-0.1,1.2l0.1,0.3c0.2,0.6,0.4,1,0.5,1.5c0.2,0.7,0.4,1.7,0.7,2.4c0.4,1,0.8,2,1.2,2.5
			c0.1,0.1,0.2,0.1,0.2,0.1c0.1,0,0.1-0.1,0-0.3c-0.5-0.9-1-2.3-1.2-3.1c0,0,0-0.1,0-0.1c0,0,0,0,0.1,0c0.4,0,1.4,0.3,2.1,0.6
			c0.1,0,0.2,0,0.2-0.1c0-0.1,0-0.2-0.1-0.2c-0.7-0.4-1.8-0.8-2.4-0.9c-0.1,0-0.2-0.2-0.2-0.3l-0.1-0.4c-0.1-0.6-0.3-1.4-0.6-2.1
			c-0.2-0.4-0.1-0.8,0.3-1.1c0.2-0.2,0.7-0.3,0.9-0.3c0,0,0.1,0,0.1,0c0,0,0.1,0.1,0.1,0.1c0,0,0,0.1,0.1,0.1
			c0.1,0.5,0.4,1.1,0.8,1.5c0.3,0.4,0.5,0.7,0.6,1c0.1,0.2,0.2,0.2,0.2,0.2c0,0,0.1,0,0.1-0.2c0-0.4-0.2-0.9-0.5-1.3
			c-0.3-0.4-0.6-0.9-0.6-1.3c-0.1-0.4,0-0.7,0.1-1.1c0.2-0.7,0.7-1.3,1.1-1.7c0.5-0.4,0.8-1.1,0.7-1.8c0-0.1,0-0.1,0.1-0.1
			c0,0,0,0,0.1,0.1c0.4,0.8,0.8,1.4,1.3,1.8c0.7,0.4,1.1,0.9,1.1,1.5c0,0.5-0.2,0.9-0.7,1.3c-1.7,1.1-1.4,2.6-0.8,3.6
			c0.3,0.5,0.5,0.8,0.7,1.1l0,0c0.2,0.2,0.2,0.5,0.1,0.8c-0.4,0.9-0.4,1.8,0,2.5c0.3,0.4,0.5,0.8,0.6,1.1c0.1,0.2,0.2,0.2,0.2,0.2
			c0.1,0,0.1-0.1,0.1-0.3c-0.1-0.4-0.3-0.8-0.5-1.1l-0.1-0.1c-0.2-0.5-0.2-1.3,0-1.6l0.2-0.5l0.1-0.2c0-0.1,0.1-0.1,0.1-0.1
			c0,0,0.1,0,0.1,0c0.3,0.3,0.5,0.8,0.7,1.2l0,0.1c0.2,0.4,0.4,0.5,0.7,0.6c0.5,0.2,1.1,0.6,1.2,1.1c0,0.1,0.1,0.2,0.2,0.1
			c0.1,0,0.1-0.1,0.1-0.2c-0.1-0.6-0.6-0.9-1.1-1.3l-0.1,0c-0.3-0.2-0.5-0.4-0.6-0.7c0,0-0.1-0.4-0.1-0.4c-0.2-0.5-0.4-1-0.8-1.3
			l-0.3-0.1c-0.2-0.1-0.3-0.2-0.5-0.3c-0.6-0.7-0.9-1.4-0.8-2c0-0.5,0.4-1.1,1-1.5c0.7-0.4,1.1-1.1,1.1-1.8c0-0.1,0-0.1,0.1-0.1
			c0,0,0.1-0.1,0.2,0c0.9,0.2,1.5,0.8,1.6,1.7c0,0.1,0.1,0.2,0.2,0.2c0.1,0,0.2-0.1,0.1-0.2c-0.1-0.5-0.2-1.6-1.4-2.1
			c-0.1-0.1-0.2-0.1-0.3-0.1c0,0,0,0-0.1,0c0,0-0.2-0.1-0.2-0.1c0,0-0.1,0-0.1,0c-0.2,0-0.3,0-0.4-0.2c-0.3-0.6-0.8-0.9-1.2-1.2
			c-0.4-0.2-0.7-0.7-1-1.3c-0.3-0.5-0.6-0.9-1.2-1c-1-0.1-1.8-0.5-2.4-1.2c0,0,0-0.1,0-0.1c0,0,0,0,0-0.1c0,0,0.1-0.1,0.1-0.1
			c1.5,0.1,2.3,0.4,3,1.1c0.6,0.5,0.9,1,1.3,1.5c0.7,0.9,1.6,1.1,2.5,1.1c0.9,0,1.6,0.3,2.2,1.7c0.4,1.1,0.4,1.9,0,2.6
			c-0.5,0.7-0.6,1.5-0.4,2.3c0.1,0.2,0.1,0.4,0.1,0.6c0,0.2,0,0.4,0.1,0.6c0.1,0.5,0.4,1,0.9,1.5c0.3,0.3,0.4,0.6,0.5,0.9
			c0.1,0.4,0.2,0.8,0.5,1.1c0.1,0.1,0.2,0.1,0.2,0c0.1,0,0.1-0.1,0-0.2c0,0-0.3-0.4-0.3-1c0-0.5-0.3-0.9-0.5-1.1
			c-0.2-0.2-0.3-0.4-0.4-0.7c0-0.1,0-0.1,0-0.2c0,0,0.1,0,0.2,0c0.5,0.3,1.5,1.2,1.9,2.6c0,0.1,0.1,0.2,0.2,0.2
			c0.1,0,0.1-0.1,0.1-0.2c-0.1-1-0.8-2.2-1.8-3l0,0l0,0c-0.4-0.3-0.8-0.7-1-1.3c0-0.1,0-0.3,0-0.4c0-0.5,0.2-0.9,0.5-1.4
			c0.2-0.3,0.3-0.8,0.3-1.3c0-0.5-0.1-1.1-0.3-1.8c-0.3-0.9-0.8-1.5-1.4-1.9c0,0-0.1-0.2-0.1-0.2c-0.4-0.2-0.9-0.3-1.3-0.3l-0.1,0
			c-0.8,0-1.4,0-1.9-0.6l-0.1-0.2c-0.2-0.3-0.6-0.9-1.2-1.5c-0.2-0.2-0.5-0.4-0.8-0.6c0,0-0.1-0.1-0.3-0.1c-0.3-0.2-0.7-0.3-1.1-0.4
			c-0.1,0-0.3-0.1-0.4-0.1l0,0c0,0-0.4,0-0.4,0c0,0-0.5,0-0.5,0C-331.8,274.5-332.1,274.5-332.2,274.5L-332.2,274.5z"/>
		<path class="st4" d="M-333.7,288.4c-0.3-0.1-0.4-0.3-0.7-0.6c0,0-0.1-0.1-0.2-0.1c-0.2-0.1-0.5-0.5-0.6-0.6
			c-0.1-0.1-0.7-0.5-0.8-0.5c-0.6-0.2-0.8-0.9-1-1.1l0,0l0,0c-0.2-0.3-0.3-0.5-0.5-0.8l0,0c0,0-0.3-0.4-0.3-0.5c0,0,0,0,0,0
			c-0.1-0.1-0.3-0.2-0.3-0.1c0,0.1,0.1,0.4,0.2,0.5c0.1,0.1,0.3,0.5,0.3,0.6c0,0.1,0.3,0.5,0.4,0.7h0c0.2,0.4,0.4,0.7,0.5,0.9
			c0.2,0.4,0.3,0.5,0.3,0.9c0.1,0.5,0.3,1.2,0.6,1.6c0,0.1,0.1,0.1,0.1,0.1c0,0,0-0.1,0-0.1c-0.2-0.6-0.4-1.5-0.4-1.8
			c0-0.1,0-0.2,0-0.2c0.1,0,0.2,0,0.3,0.1c0.4,0.2,0.8,0.6,1.1,1c0.2,0.2,0.5,0.5,1,0.6c0.1,0,0.1,0,0.1,0c0,0,0,0,0,0
			C-333.7,288.6-333.6,288.4-333.7,288.4L-333.7,288.4z"/>
	</g>
	<path class="st1" d="M-314.5,281.9c0,8.4-6.8,15.3-15.3,15.3c-8.4,0-15.3-6.8-15.3-15.3c0-8.4,6.8-15.3,15.3-15.3
		C-321.4,266.7-314.5,273.5-314.5,281.9L-314.5,281.9z"/>
</g>
</svg>
