<?xml version="1.0" encoding="utf-8"?>
<!-- Generator: Adobe Illustrator 19.1.0, SVG Export Plug-In . SVG Version: 6.00 Build 0)  -->
<!DOCTYPE svg PUBLIC "-//W3C//DTD SVG 1.1//EN" "http://www.w3.org/Graphics/SVG/1.1/DTD/svg11.dtd">
<svg version="1.1" id="Layer_1" xmlns="http://www.w3.org/2000/svg" xmlns:xlink="http://www.w3.org/1999/xlink" x="0px" y="0px"
	 viewBox="-355 253.1 248 55.9" style="enable-background:new -355 253.1 248 55.9;" xml:space="preserve">
<style type="text/css">
	.st0{fill:#002D5B;}
	.st1{fill:#FFFFFF;}
	.st2{fill:none;stroke:#002D5B;stroke-width:0.6183;}
	.st3{clip-path:url(#SVGID_2_);fill:#002D5B;}
	.st4{clip-path:url(#SVGID_2_);fill:#FFFFFF;}
</style>
<g>
	<path class="st0" d="M-207.2,278.7c-2,0-3.3-0.6-3.8-0.9c-0.3-0.5-0.6-2.2-0.6-3.4c0.1-0.2,0.5-0.2,0.6-0.1
		c0.4,1.2,1.3,3.6,4.1,3.6c2,0,3-1.3,3-2.8c0-1.1-0.2-2.2-2-3.4l-2.3-1.5c-1.2-0.8-2.6-2.2-2.6-4.1c0-2.3,1.8-4.1,4.9-4.1
		c0.7,0,1.6,0.1,2.2,0.3c0.3,0.1,0.6,0.1,0.8,0.1c0.2,0.6,0.4,1.9,0.4,2.9c-0.1,0.1-0.5,0.2-0.6,0.1c-0.3-1.2-1-2.7-3.3-2.7
		c-2.4,0-2.9,1.6-2.9,2.7c0,1.4,1.2,2.4,2,3l1.9,1.2c1.5,0.9,3,2.3,3,4.6C-202,276.9-204,278.7-207.2,278.7z"/>
	<path class="st0" d="M-197.9,269.8c-0.4,0-0.4,0.1-0.4,0.6v4.5c0,1.4,0.2,2.7,1.8,2.7c0.2,0,0.5,0,0.6-0.1c0.2-0.1,0.5-0.3,0.6-0.3
		c0.2,0,0.3,0.3,0.2,0.4c-0.4,0.5-1.3,1.1-2.5,1.1c-2.1,0-2.5-1.2-2.5-2.6v-5.5c0-0.6,0-0.7-0.5-0.7h-0.7c-0.1-0.1-0.2-0.4-0.1-0.5
		c0.7-0.2,1.3-0.5,1.5-0.7c0.3-0.3,0.8-0.9,1-1.4c0.1,0,0.4,0,0.5,0.1v1.1c0,0.4,0,0.5,0.4,0.5h2.7c0.3,0.2,0.2,0.9,0,1H-197.9z"/>
	<path class="st0" d="M-189.1,273.3c0.4-0.1,0.4-0.3,0.4-0.7l0-1.1c0-0.9-0.3-2.1-1.8-2.1c-0.7,0-1.5,0.3-1.5,1.1
		c0,0.4,0,0.7-0.2,0.8c-0.4,0.3-1,0.5-1.4,0.5c-0.2,0-0.3-0.1-0.3-0.3c0-1.3,2.7-3,4.5-3c1.7,0,2.6,1,2.5,2.8l-0.1,4.2
		c0,1.1,0.2,2.1,1.1,2.1c0.2,0,0.5-0.1,0.6-0.1c0.1-0.1,0.2-0.2,0.3-0.2c0.1,0,0.2,0.1,0.2,0.3c0,0.1-0.8,1.1-2,1.1
		c-0.6,0-1.2-0.2-1.6-0.7c-0.1-0.1-0.2-0.3-0.4-0.3c-0.2,0-0.5,0.2-0.9,0.5c-0.5,0.3-1.1,0.6-1.7,0.6c-0.7,0-1.3-0.2-1.7-0.6
		c-0.5-0.4-0.7-1-0.7-1.7c0-0.9,0.5-1.5,2-2L-189.1,273.3z M-190.6,277.5c0.5,0,1.2-0.4,1.5-0.6c0.3-0.3,0.3-0.6,0.3-1.1l0-1.4
		c0-0.3-0.1-0.3-0.2-0.3s-0.6,0.1-1,0.2c-1.4,0.5-2.1,0.8-2.1,1.8C-192.1,276.5-191.9,277.5-190.6,277.5z"/>
	<path class="st0" d="M-181.8,269.8c-0.4,0-0.4,0.1-0.4,0.6v4.5c0,1.4,0.2,2.7,1.8,2.7c0.2,0,0.5,0,0.6-0.1c0.2-0.1,0.5-0.3,0.6-0.3
		c0.2,0,0.3,0.3,0.2,0.4c-0.4,0.5-1.3,1.1-2.5,1.1c-2.1,0-2.5-1.2-2.5-2.6v-5.5c0-0.6,0-0.7-0.5-0.7h-0.7c-0.1-0.1-0.2-0.4-0.1-0.5
		c0.7-0.2,1.3-0.5,1.5-0.7c0.3-0.3,0.8-0.9,1-1.4c0.1,0,0.4,0,0.5,0.1v1.1c0,0.4,0,0.5,0.4,0.5h2.7c0.3,0.2,0.2,0.9,0,1H-181.8z"/>
	<path class="st0" d="M-176.8,271.4c0-0.9,0-1.1-0.6-1.5l-0.2-0.1c-0.1-0.1-0.1-0.4,0-0.4c0.6-0.2,1.9-0.8,2.5-1.2
		c0.1,0,0.2,0,0.2,0.1c0,0.8-0.1,2-0.1,3v4.3c0,1.7,0,2,0.9,2.1l0.5,0.1c0.2,0.1,0.1,0.5,0,0.6c-0.7,0-1.4-0.1-2.3-0.1
		c-0.9,0-1.6,0-2.3,0.1c-0.2-0.1-0.2-0.5,0-0.6l0.5-0.1c0.9-0.1,0.9-0.4,0.9-2.1V271.4z M-174.8,264.5c0,0.9-0.6,1.3-1.3,1.3
		c-0.7,0-1.2-0.6-1.2-1.2c0-0.8,0.6-1.3,1.3-1.3C-175.3,263.3-174.8,263.9-174.8,264.5z"/>
	<path class="st0" d="M-171.1,271.4c0-0.9,0-1.1-0.6-1.5l-0.2-0.1c-0.1-0.1-0.1-0.4,0-0.4c0.6-0.2,1.9-0.8,2.4-1.2
		c0.1,0,0.2,0,0.3,0.2c0,0.6,0,0.9,0,1.1c0,0.1,0.1,0.3,0.3,0.3c1-0.6,2.1-1.2,3.4-1.2c2,0,2.8,1.4,2.8,3v4.1c0,1.7,0,2,0.9,2.1
		l0.5,0.1c0.2,0.1,0.1,0.5,0,0.6c-0.7,0-1.4-0.1-2.3-0.1c-0.9,0-1.6,0-2.2,0.1c-0.2-0.1-0.2-0.5,0-0.6l0.5-0.1
		c0.9-0.1,0.9-0.4,0.9-2.1V272c0-1.4-0.6-2.4-2.3-2.4c-0.9,0-1.7,0.4-2,0.8c-0.3,0.4-0.4,0.7-0.4,1.4v3.7c0,1.7,0,1.9,0.9,2.1
		l0.4,0.1c0.2,0.1,0.1,0.5,0,0.6c-0.6,0-1.3-0.1-2.2-0.1c-0.9,0-1.6,0-2.3,0.1c-0.2-0.1-0.2-0.5,0-0.6l0.5-0.1
		c0.9-0.1,0.9-0.4,0.9-2.1V271.4z"/>
	<path class="st0" d="M-209.5,287.1c0-2.6,0-3-1.5-3.1l-0.6,0c-0.1-0.1-0.1-0.5,0-0.6c1.2,0,2,0.1,3,0.1c1,0,1.8,0,3-0.1
		c0.1,0.1,0.2,0.5,0,0.6l-0.6,0c-1.4,0.1-1.5,0.5-1.5,3.1v8.6c0,2.6,0,2.9,1.5,3.1l0.6,0.1c0.1,0.1,0.1,0.5,0,0.6
		c-1.2,0-2-0.1-3-0.1c-1,0-1.8,0-3,0.1c-0.1-0.1-0.2-0.5,0-0.6l0.6-0.1c1.4-0.2,1.5-0.5,1.5-3.1V287.1z"/>
	<path class="st0" d="M-202.5,292.4c0-0.9,0-1.1-0.6-1.5l-0.2-0.1c-0.1-0.1-0.1-0.4,0-0.4c0.6-0.2,1.9-0.8,2.4-1.2
		c0.1,0,0.2,0,0.3,0.2c0,0.6,0,0.9,0,1.1c0,0.1,0.1,0.3,0.3,0.3c1-0.6,2.1-1.2,3.4-1.2c2,0,2.8,1.4,2.8,3v4.1c0,1.7,0,2,0.9,2.1
		l0.5,0.1c0.2,0.1,0.1,0.5,0,0.6c-0.7,0-1.4-0.1-2.3-0.1c-0.9,0-1.6,0-2.2,0.1c-0.2-0.1-0.2-0.5,0-0.6l0.5-0.1
		c0.9-0.1,0.9-0.4,0.9-2.1v-3.6c0-1.4-0.6-2.4-2.3-2.4c-0.9,0-1.7,0.4-2,0.8c-0.3,0.4-0.4,0.7-0.4,1.4v3.7c0,1.7,0,1.9,0.9,2.1
		l0.4,0.1c0.2,0.1,0.1,0.5,0,0.6c-0.6,0-1.3-0.1-2.2-0.1c-0.9,0-1.6,0-2.3,0.1c-0.2-0.1-0.2-0.5,0-0.6l0.5-0.1
		c0.9-0.1,0.9-0.4,0.9-2.1V292.4z"/>
	<path class="st0" d="M-188.9,290.9c-0.4,0-0.4,0.1-0.4,0.6v4.5c0,1.4,0.2,2.7,1.8,2.7c0.2,0,0.5,0,0.6-0.1c0.2-0.1,0.5-0.3,0.6-0.3
		c0.2,0,0.3,0.3,0.2,0.4c-0.4,0.5-1.3,1.1-2.5,1.1c-2.1,0-2.5-1.2-2.5-2.6v-5.5c0-0.6,0-0.7-0.5-0.7h-0.7c-0.1-0.1-0.2-0.4-0.1-0.5
		c0.7-0.2,1.3-0.5,1.5-0.7c0.3-0.3,0.8-0.9,1-1.4c0.1,0,0.4,0,0.5,0.1v1.1c0,0.4,0,0.5,0.4,0.5h2.7c0.3,0.2,0.2,0.9,0,1H-188.9z"/>
	<path class="st0" d="M-175.5,294.5c0,3-2.1,5.2-5.1,5.2c-2.8,0-4.9-1.9-4.9-5c0-3,2.3-5.2,5.1-5.2
		C-177.7,289.5-175.5,291.6-175.5,294.5z M-180.6,290.3c-1.6,0-2.8,1.5-2.8,4.2c0,2.2,1,4.5,3.1,4.5s2.8-2.2,2.8-4.1
		C-177.5,292.9-178.4,290.3-180.6,290.3z"/>
	<path class="st0" d="M-171.7,296.7c0,1.7,0,2,0.9,2.1l0.6,0.1c0.2,0.1,0.1,0.5,0,0.6c-0.8,0-1.5-0.1-2.3-0.1c-0.9,0-1.6,0-2.3,0.1
		c-0.2-0.1-0.2-0.5,0-0.6l0.6-0.1c0.9-0.1,0.9-0.4,0.9-2.1v-10.9c0-1.4,0-1.6-0.7-2l-0.2-0.1c-0.1-0.1-0.1-0.4,0-0.5
		c0.6-0.2,1.7-0.6,2.6-1c0.1,0,0.2,0,0.2,0.1c0,0.7-0.1,1.9-0.1,3V296.7z"/>
	<path class="st0" d="M-167.5,293.2c-0.6,0-0.6,0-0.6,0.6c0,2.4,1.4,4.5,4,4.5c0.8,0,1.5-0.2,2.2-1.2c0.2-0.1,0.4,0.1,0.4,0.3
		c-0.8,1.6-2.5,2.2-3.8,2.2c-1.6,0-2.8-0.7-3.5-1.6c-0.7-0.9-1-2.1-1-3.1c0-3,1.9-5.4,4.8-5.4c2.1,0,3.4,1.4,3.4,2.9
		c0,0.3,0,0.5-0.1,0.6c-0.1,0.1-0.4,0.2-1.4,0.2H-167.5z M-166,292.5c1.8,0,2.3-0.1,2.5-0.2c0.1,0,0.1-0.1,0.1-0.5
		c0-0.7-0.5-1.5-1.9-1.5c-1.4,0-2.6,1.3-2.7,2.1c0,0,0,0.1,0.2,0.1H-166z"/>
	<path class="st0" d="M-159.7,292.4c0-0.9,0-1.1-0.6-1.5l-0.2-0.1c-0.1-0.1-0.1-0.4,0-0.4c0.6-0.2,1.8-0.8,2.4-1.2
		c0.1,0,0.2,0.1,0.2,0.2v1.4c0,0.1,0,0.2,0.1,0.2c0.8-0.7,1.8-1.4,2.6-1.4c0.6,0,1.1,0.4,1.1,1c0,0.8-0.6,1.1-1,1.1
		c-0.2,0-0.4-0.1-0.5-0.2c-0.4-0.2-0.7-0.4-1.1-0.4c-0.4,0-0.7,0.2-0.9,0.5c-0.2,0.3-0.3,1-0.3,1.9v3.3c0,1.7,0,2,1,2.1l0.9,0.1
		c0.2,0.1,0.1,0.5,0,0.6c-1.1,0-1.8-0.1-2.7-0.1c-0.9,0-1.6,0-2.2,0.1c-0.2-0.1-0.2-0.5,0-0.6l0.5-0.1c0.9-0.1,0.9-0.4,0.9-2.1
		V292.4z"/>
	<path class="st0" d="M-148.4,294.4c0.4-0.1,0.4-0.3,0.4-0.7l0-1.1c0-0.9-0.3-2.1-1.8-2.1c-0.7,0-1.5,0.3-1.5,1.1
		c0,0.4,0,0.7-0.2,0.8c-0.4,0.3-1,0.5-1.4,0.5c-0.2,0-0.3-0.1-0.3-0.3c0-1.3,2.7-3,4.5-3c1.7,0,2.6,1,2.5,2.8l-0.1,4.2
		c0,1.1,0.2,2.1,1.1,2.1c0.2,0,0.5-0.1,0.6-0.1c0.1-0.1,0.2-0.2,0.3-0.2c0.1,0,0.2,0.1,0.2,0.3c0,0.1-0.8,1.1-2,1.1
		c-0.6,0-1.2-0.2-1.6-0.7c-0.1-0.1-0.2-0.3-0.4-0.3c-0.2,0-0.5,0.2-0.9,0.5c-0.5,0.3-1.1,0.6-1.7,0.6c-0.7,0-1.3-0.2-1.7-0.6
		c-0.5-0.4-0.7-1-0.7-1.7c0-0.9,0.5-1.5,2-2L-148.4,294.4z M-149.9,298.6c0.5,0,1.2-0.4,1.5-0.6c0.3-0.3,0.3-0.6,0.3-1.1l0-1.4
		c0-0.3-0.1-0.3-0.2-0.3s-0.6,0.1-1,0.2c-1.4,0.5-2.1,0.8-2.1,1.8C-151.4,297.6-151.1,298.6-149.9,298.6z"/>
	<path class="st0" d="M-142,292.4c0-0.9,0-1.1-0.6-1.5l-0.2-0.1c-0.1-0.1-0.1-0.4,0-0.4c0.6-0.2,1.9-0.8,2.4-1.2
		c0.1,0,0.2,0,0.3,0.2c0,0.6,0,0.9,0,1.1c0,0.1,0.1,0.3,0.3,0.3c1-0.6,2.1-1.2,3.4-1.2c2,0,2.8,1.4,2.8,3v4.1c0,1.7,0,2,0.9,2.1
		l0.5,0.1c0.2,0.1,0.1,0.5,0,0.6c-0.7,0-1.4-0.1-2.3-0.1c-0.9,0-1.6,0-2.2,0.1c-0.2-0.1-0.2-0.5,0-0.6l0.5-0.1
		c0.9-0.1,0.9-0.4,0.9-2.1v-3.6c0-1.4-0.6-2.4-2.3-2.4c-0.9,0-1.7,0.4-2,0.8c-0.3,0.4-0.4,0.7-0.4,1.4v3.7c0,1.7,0,1.9,0.9,2.1
		l0.4,0.1c0.2,0.1,0.1,0.5,0,0.6c-0.6,0-1.3-0.1-2.2-0.1c-0.9,0-1.6,0-2.3,0.1c-0.2-0.1-0.2-0.5,0-0.6l0.5-0.1
		c0.9-0.1,0.9-0.4,0.9-2.1V292.4z"/>
	<path class="st0" d="M-123.8,289.9c0.2,0.2,0.4,0.6,0.4,1c0,0.4-0.2,0.9-0.5,0.9c-0.1,0-0.2,0-0.3-0.2c-0.5-0.6-1.4-1.3-2.4-1.3
		c-1.7,0-3.3,1.3-3.3,3.9c0,1.9,1.3,4.1,3.9,4.1c1.4,0,2.1-0.6,2.7-1.4c0.2,0,0.4,0.1,0.4,0.3c-0.8,1.8-2.6,2.5-4,2.5
		c-1.3,0-2.5-0.4-3.3-1.2c-0.8-0.8-1.4-2-1.4-3.6c0-2.6,1.8-5.4,5.8-5.4C-125.4,289.5-124.5,289.7-123.8,289.9z"/>
	<path class="st0" d="M-119.9,293.2c-0.6,0-0.6,0-0.6,0.6c0,2.4,1.4,4.5,4,4.5c0.8,0,1.5-0.2,2.2-1.2c0.2-0.1,0.4,0.1,0.4,0.3
		c-0.8,1.6-2.5,2.2-3.8,2.2c-1.6,0-2.8-0.7-3.5-1.6c-0.7-0.9-1-2.1-1-3.1c0-3,1.9-5.4,4.8-5.4c2.1,0,3.4,1.4,3.4,2.9
		c0,0.3,0,0.5-0.1,0.6c-0.1,0.1-0.4,0.2-1.4,0.2H-119.9z M-118.4,292.5c1.8,0,2.3-0.1,2.5-0.2c0.1,0,0.1-0.1,0.1-0.5
		c0-0.7-0.5-1.5-1.9-1.5c-1.4,0-2.6,1.3-2.7,2.1c0,0,0,0.1,0.2,0.1H-118.4z"/>
</g>
<path class="st0" d="M-299.2,270.8c0.3,0,0.4,0,0.5,0.3l0.6,1.6c0.2,0.5,0.1,0.6-0.3,0.6l-0.3,0c-0.1,0.1-0.1,0.3,0,0.3
	c0.4,0,0.9,0,1.5,0c0.6,0,1.1,0,1.6,0c0.1-0.1,0.1-0.3,0-0.3l-0.2,0c-0.6-0.1-0.7-0.2-0.9-1l-1.7-5c-0.2-0.5-0.3-1.1-0.5-1.6
	c0-0.1-0.1-0.1-0.2-0.1c0,0-0.4,0.5-0.8,0.6c0,0.2-0.1,0.5-0.2,0.9l-1.6,4.3c-0.3,0.6-0.4,1.2-0.6,1.5c-0.2,0.4-0.3,0.5-0.7,0.6
	l-0.4,0.1c-0.1,0.1-0.1,0.3,0,0.3c0.4,0,0.8,0,1.2,0c0.5,0,0.9,0,1.3,0c0.1,0,0.1-0.3,0-0.3l-0.3-0.1c-0.4-0.1-0.5-0.1-0.3-0.8
	l0.5-1.4c0.1-0.3,0.1-0.3,0.4-0.3H-299.2L-299.2,270.8z M-300.6,270.2c-0.3,0-0.3,0-0.2-0.3l0.5-1.4c0.2-0.6,0.3-0.9,0.4-0.9h0
	c0.1,0.1,0.1,0.3,0.3,0.9l0.5,1.4c0.1,0.3,0,0.3-0.3,0.3H-300.6L-300.6,270.2z"/>
<path class="st0" d="M-284.6,273.4c0.1,0,0.1,0.3,0,0.3c-0.5,0-1,0-1.5,0c-0.6,0-1.1,0-1.6,0c-0.1,0-0.1-0.3,0-0.3l0.3-0.1
	c0.5-0.1,0.5-0.2,0.5-1v-3.8v-1.1h0c-0.3,0.7-0.5,1-0.7,1.5l-1,2.1c-0.4,0.8-1,2.2-1.2,2.7c0,0-0.2,0-0.3,0c-0.2-0.6-0.7-1.8-1-2.4
	l-1.1-2.3c-0.2-0.5-0.6-1.3-0.7-1.6h0c0,0.6,0,1.5-0.1,2c0,0.7,0,1.8,0,2.8c0,0.8,0,1,0.5,1.1l0.4,0.1c0.1,0.1,0.1,0.3,0,0.3
	c-0.4,0-0.8,0-1.3,0c-0.4,0-0.8,0-1.3,0c-0.1-0.1-0.1-0.3,0-0.3l0.2,0c0.6-0.1,0.7-0.3,0.7-1c0.1-0.8,0.1-1.5,0.2-2.8
	c0-0.8,0.1-1.8,0.1-2.5c0-0.6-0.2-0.8-0.6-0.9l-0.4-0.1c-0.1-0.1-0.1-0.3,0-0.3c0.4,0,0.7,0,1.1,0c0.4,0,0.8,0,1.3,0
	c0,0.7,0.4,1.3,0.7,2l1.3,2.8c0.1,0.2,0.4,0.8,0.6,1.1c0.2-0.3,0.4-0.7,0.6-1.3l1.1-2.3c0.4-0.8,0.8-1.5,1-2.3c0.3,0,0.7,0,1,0
	c0.5,0,0.9,0,1.3,0c0.1,0,0.2,0.3,0,0.3l-0.4,0.1c-0.5,0.1-0.6,0.3-0.6,0.9c0,1.8,0,3.6,0.1,5.3c0,0.8,0.2,0.9,0.6,0.9L-284.6,273.4
	L-284.6,273.4z"/>
<path class="st0" d="M-282,267.5c0-1.3-0.1-1.3-0.7-1.4l-0.2,0c-0.1-0.1-0.1-0.3,0-0.3c0.5,0,1,0,1.6,0h2.3c0.8,0,1.5,0,1.6,0
	c0,0.2,0.1,1.2,0.2,1.7c0,0.1-0.3,0.1-0.4,0c-0.2-0.7-0.4-1-0.8-1.1c-0.3-0.1-0.6-0.1-1-0.1h-0.8c-0.5,0-0.5,0-0.5,0.7v2
	c0,0.3,0,0.3,0.3,0.3h0.6c1,0,1.3,0,1.3-0.5l0.1-0.4c0.1-0.1,0.3-0.1,0.4,0c0,0.3,0,0.8,0,1.2c0,0.5,0,0.9,0,1.3
	c-0.1,0.1-0.3,0.1-0.4,0l-0.1-0.5c-0.1-0.5-0.3-0.5-1.3-0.5h-0.6c-0.3,0-0.3,0-0.3,0.3v1.5c0,0.6,0,1,0.2,1.2
	c0.1,0.2,0.3,0.3,1.4,0.3c1.5,0,1.8-0.3,2.2-1.3c0.1-0.1,0.3,0,0.4,0.1c-0.1,0.5-0.3,1.4-0.5,1.7c-0.5,0-1.6,0-3,0h-1.4
	c-0.5,0-1.3,0-1.8,0c-0.1,0-0.1-0.3,0-0.3l0.4,0c0.6-0.1,0.7-0.1,0.7-1.4V267.5L-282,267.5z"/>
<path class="st0" d="M-274.5,272c0,1.3-0.1,1.3-0.7,1.4l-0.3,0c-0.1,0.1-0.1,0.3,0,0.3c0.6,0,1.1,0,1.6,0c0.5,0,1.1,0,1.6,0
	c0.1,0,0.1-0.3,0-0.3l-0.3,0c-0.6-0.1-0.7-0.1-0.7-1.4v-1.5c0-0.3,0-0.3,0.4-0.3c0.4,0,0.5,0,0.7,0.4c0.3,0.5,0.6,1.1,0.9,1.6
	c0.7,1.1,1.4,1.6,2.5,1.6c0.4,0,0.6,0,0.8-0.1c0-0.1,0-0.2,0-0.2c-0.1,0-0.5-0.1-0.8-0.4c-0.6-0.5-1.2-1.5-2.1-3.1
	c0-0.1-0.1-0.2,0-0.2c0.6-0.2,1.4-0.8,1.4-1.9c0-0.9-0.4-1.4-1.1-1.8c-0.5-0.3-1.3-0.4-2.3-0.4c-1,0-2,0-2.8,0.1
	c-0.1,0.1-0.1,0.3,0,0.3l0.3,0c0.6,0.1,0.6,0.2,0.6,1.4V272L-274.5,272z M-273.1,266.8c0-0.6,0-0.6,0.6-0.6c1,0,1.7,0.8,1.7,1.8
	c0,1.1-0.5,1.7-1.7,1.7c-0.6,0-0.6,0-0.6-0.4V266.8L-273.1,266.8z"/>
<path class="st0" d="M-264.6,272c0,1.3,0.1,1.3,0.7,1.4l0.3,0c0.1,0.1,0.1,0.3,0,0.3c-0.5,0-1.1,0-1.6,0s-1.1,0-1.6,0
	c-0.1,0-0.1-0.3,0-0.3l0.3,0c0.6-0.1,0.7-0.1,0.7-1.4v-4.5c0-1.3-0.1-1.3-0.7-1.4l-0.3,0c-0.1-0.1-0.1-0.3,0-0.3c0.5,0,1.1,0,1.6,0
	c0.5,0,1.1,0,1.6,0c0.1,0,0.1,0.3,0,0.3l-0.3,0c-0.6,0.1-0.7,0.1-0.7,1.4V272L-264.6,272z"/>
<path class="st0" d="M-254.6,267.8c-0.1,0.1-0.3,0.1-0.4,0c-0.2-0.8-0.7-1.8-2.3-1.8c-1.5,0-3.1,1.1-3.1,3.5c0,2.6,1.6,3.8,3.1,3.8
	c1.5,0,2.2-1,2.5-1.8c0.1-0.1,0.3-0.1,0.4,0c-0.1,0.8-0.4,1.6-0.6,1.8c-0.1,0-0.3,0.1-0.4,0.1c-0.3,0.1-1.1,0.3-1.9,0.3
	c-1.2,0-2.2-0.2-3.1-0.8c-1-0.6-1.7-1.7-1.7-3.3c0-1.4,0.6-2.5,1.5-3.2c0.9-0.7,2.1-1,3.3-1c0.7,0,1.5,0.1,2.1,0.3
	c0.1,0,0.2,0,0.3,0.1C-254.8,266.2-254.8,266.9-254.6,267.8L-254.6,267.8z"/>
<path class="st0" d="M-249.5,270.8c0.3,0,0.4,0,0.5,0.3l0.6,1.6c0.2,0.5,0.1,0.6-0.3,0.6l-0.3,0c-0.1,0.1-0.1,0.3,0,0.3
	c0.4,0,0.9,0,1.5,0c0.6,0,1.1,0,1.6,0c0.1-0.1,0.1-0.3,0-0.3l-0.2,0c-0.6-0.1-0.7-0.2-0.9-1l-1.7-5c-0.2-0.5-0.3-1.1-0.5-1.6
	c0-0.1-0.1-0.1-0.2-0.1c0,0-0.4,0.5-0.8,0.6c0,0.2-0.1,0.5-0.2,0.9l-1.6,4.3c-0.3,0.6-0.4,1.2-0.6,1.5c-0.2,0.4-0.3,0.5-0.7,0.6
	l-0.4,0.1c-0.1,0.1-0.1,0.3,0,0.3c0.4,0,0.8,0,1.2,0c0.5,0,0.9,0,1.3,0c0.1,0,0.1-0.3,0-0.3l-0.3-0.1c-0.4-0.1-0.5-0.1-0.3-0.8
	l0.5-1.4c0.1-0.3,0.1-0.3,0.4-0.3H-249.5L-249.5,270.8z M-250.9,270.2c-0.3,0-0.3,0-0.2-0.3l0.5-1.4c0.2-0.6,0.3-0.9,0.4-0.9h0
	c0.1,0.1,0.1,0.3,0.3,0.9l0.5,1.4c0.1,0.3,0,0.3-0.3,0.3H-250.9L-250.9,270.2z"/>
<path class="st0" d="M-237.4,271.7c0,0.4,0,1.8,0,2.1c-0.1,0.1-0.3,0.2-0.4,0.2c-0.2-0.3-0.5-0.7-1.4-1.6l-2.8-3.2
	c-0.8-0.9-1.2-1.3-1.4-1.5c0,0,0,0.1,0,0.8v2.3c0,0.9,0,2,0.2,2.4c0.1,0.2,0.3,0.3,0.6,0.3l0.3,0c0.1,0.1,0.1,0.3,0,0.3
	c-0.4,0-0.9,0-1.4,0c-0.5,0-0.8,0-1.3,0c-0.1-0.1-0.1-0.3,0-0.3l0.3-0.1c0.2,0,0.4-0.1,0.5-0.3c0.2-0.4,0.2-1.4,0.2-2.4v-2.8
	c0-0.9,0-1.1-0.4-1.5c-0.1-0.1-0.5-0.2-0.6-0.2l-0.2,0c-0.1-0.1-0.1-0.3,0-0.3c0.5,0,1.1,0,1.4,0c0.3,0,0.5,0,0.8,0
	c0.2,0.5,1.5,2,1.9,2.5l1.2,1.3c0.5,0.6,1.6,1.8,1.7,1.9c0,0,0-0.1,0-0.3v-2.3c0-0.9,0-2-0.2-2.4c-0.1-0.2-0.3-0.3-0.6-0.3l-0.3,0
	c-0.1-0.1-0.1-0.3,0-0.3c0.5,0,0.9,0,1.4,0c0.5,0,0.8,0,1.3,0c0.1,0.1,0.1,0.3,0,0.3l-0.3,0.1c-0.2,0-0.4,0.1-0.5,0.3
	c-0.2,0.4-0.2,1.4-0.2,2.4V271.7L-237.4,271.7z"/>
<path class="st0" d="M-295.9,280.1c-0.1,0.1-0.3,0.1-0.4,0c-0.2-0.8-0.7-1.8-2.3-1.8c-1.5,0-3.1,1.1-3.1,3.5c0,2.6,1.6,3.8,3.1,3.8
	c1.5,0,2.2-1,2.5-1.8c0.1-0.1,0.3-0.1,0.4,0c-0.1,0.8-0.4,1.6-0.6,1.8c-0.1,0-0.3,0.1-0.4,0.1c-0.3,0.1-1.1,0.3-1.9,0.3
	c-1.2,0-2.2-0.2-3.1-0.8c-1-0.6-1.7-1.7-1.7-3.3c0-1.4,0.6-2.5,1.5-3.2c0.9-0.7,2.1-1,3.3-1c0.7,0,1.5,0.1,2.1,0.3
	c0.1,0,0.2,0,0.3,0.1C-296,278.5-296,279.2-295.9,280.1L-295.9,280.1z"/>
<path class="st0" d="M-290.2,277.9c-2.5,0-4.3,1.8-4.3,4.3c0,2.1,1.6,4,4.3,4c2.4,0,4.2-1.8,4.2-4.1
	C-286,279.9-287.4,277.9-290.2,277.9L-290.2,277.9z M-290.3,278.4c1.9,0,2.7,2.1,2.7,3.9c0,2.4-1.1,3.4-2.5,3.4
	c-2.1,0-2.8-2.3-2.8-3.9C-292.8,279.3-291.5,278.4-290.3,278.4L-290.3,278.4z"/>
<path class="st0" d="M-282.1,284c0,0.6,0,1,0.2,1.2c0.1,0.2,0.3,0.3,1.3,0.3c1.3,0,1.5-0.1,2.1-1.3c0.1-0.1,0.3,0,0.4,0.1
	c-0.1,0.5-0.4,1.4-0.5,1.7c-0.5,0-1.5,0-2.9,0h-1.3c-0.6,0-1.2,0-1.7,0c-0.1,0-0.1-0.3,0-0.3l0.4-0.1c0.6-0.1,0.7-0.1,0.7-1.4v-4.5
	c0-1.3-0.1-1.3-0.7-1.4l-0.3,0c-0.1-0.1-0.1-0.3,0-0.3c0.6,0,1.1,0,1.7,0c0.5,0,1.1,0,1.6,0c0.1,0,0.1,0.3,0,0.3l-0.3,0
	c-0.6,0.1-0.7,0.1-0.7,1.4V284L-282.1,284z"/>
<path class="st0" d="M-274.9,284c0,0.6,0,1,0.2,1.2c0.1,0.2,0.3,0.3,1.3,0.3c1.3,0,1.5-0.1,2.1-1.3c0.1-0.1,0.3,0,0.4,0.1
	c-0.1,0.5-0.4,1.4-0.5,1.7c-0.5,0-1.5,0-2.9,0h-1.2c-0.6,0-1.2,0-1.7,0c-0.1,0-0.1-0.3,0-0.3l0.4-0.1c0.6-0.1,0.7-0.1,0.7-1.4v-4.5
	c0-1.3-0.1-1.3-0.7-1.4l-0.3,0c-0.1-0.1-0.1-0.3,0-0.3c0.6,0,1.1,0,1.7,0c0.5,0,1.1,0,1.6,0c0.1,0,0.1,0.3,0,0.3l-0.3,0
	c-0.6,0.1-0.7,0.1-0.7,1.4V284L-274.9,284z"/>
<path class="st0" d="M-269.1,279.8c0-1.3-0.1-1.3-0.7-1.4l-0.2,0c-0.1-0.1-0.1-0.3,0-0.3c0.5,0,1,0,1.6,0h2.3c0.8,0,1.5,0,1.6,0
	c0,0.2,0.1,1.2,0.2,1.7c0,0.1-0.3,0.1-0.4,0c-0.2-0.7-0.4-1-0.8-1.1c-0.3-0.1-0.6-0.1-1-0.1h-0.8c-0.5,0-0.5,0-0.5,0.7v2
	c0,0.3,0,0.3,0.3,0.3h0.6c1,0,1.2,0,1.3-0.5l0.1-0.4c0.1-0.1,0.3-0.1,0.4,0c0,0.3,0,0.8,0,1.2c0,0.5,0,0.9,0,1.3
	c-0.1,0.1-0.3,0.1-0.4,0l-0.1-0.5c-0.1-0.5-0.3-0.5-1.3-0.5h-0.6c-0.3,0-0.3,0-0.3,0.3v1.5c0,0.6,0,1,0.2,1.2
	c0.1,0.2,0.3,0.3,1.4,0.3c1.5,0,1.8-0.3,2.2-1.3c0.1-0.1,0.3,0,0.4,0.1c-0.1,0.5-0.3,1.4-0.5,1.7c-0.5,0-1.6,0-3,0h-1.4
	c-0.5,0-1.3,0-1.8,0c-0.1,0-0.1-0.3,0-0.3l0.4,0c0.6-0.1,0.7-0.1,0.7-1.4V279.8L-269.1,279.8z"/>
<path class="st0" d="M-255.2,284.8c0,0.4,0.1,0.7,0.3,0.8c0,0,0,0.1,0,0.2c-0.1,0-0.3,0-0.6,0.1c-0.7,0.2-1.6,0.3-2.3,0.3
	c-1.4,0-2.8-0.4-3.7-1.3c-0.7-0.7-1.1-1.7-1.1-2.8c0-1,0.3-2,1.1-2.8c0.9-0.9,2.2-1.4,3.8-1.4c0.6,0,1.2,0.1,1.6,0.2
	c0.3,0.1,0.6,0.1,0.8,0.1c0,0.4,0.1,1,0.2,1.9c-0.1,0.1-0.3,0.1-0.4,0c-0.3-1.2-1.1-1.7-2.3-1.7c-2.1,0-3.1,1.5-3.1,3.6
	c0,1,0.2,2,0.9,2.8c0.6,0.8,1.6,1,2.3,1c0.6,0,0.9-0.1,1.1-0.3c0.1-0.1,0.1-0.3,0.1-0.8v-0.4c0-0.9,0-0.9-0.8-1.1l-0.4-0.1
	c-0.1-0.1-0.1-0.3,0-0.3c0.5,0,1,0,1.9,0c0.5,0,0.9,0,1.5,0c0.1,0.1,0.1,0.3,0,0.3l-0.2,0c-0.4,0.1-0.5,0.2-0.5,0.9V284.8
	L-255.2,284.8z"/>
<path class="st0" d="M-252.2,279.8c0-1.3-0.1-1.3-0.7-1.4l-0.2,0c-0.1-0.1-0.1-0.3,0-0.3c0.5,0,1,0,1.6,0h2.3c0.8,0,1.5,0,1.6,0
	c0,0.2,0.1,1.2,0.2,1.7c0,0.1-0.3,0.1-0.4,0c-0.2-0.7-0.4-1-0.8-1.1c-0.3-0.1-0.6-0.1-1-0.1h-0.8c-0.5,0-0.5,0-0.5,0.7v2
	c0,0.3,0,0.3,0.3,0.3h0.6c1,0,1.2,0,1.3-0.5l0.1-0.4c0.1-0.1,0.3-0.1,0.4,0c0,0.3,0,0.8,0,1.2c0,0.5,0,0.9,0,1.3
	c-0.1,0.1-0.3,0.1-0.4,0l-0.1-0.5c-0.1-0.5-0.3-0.5-1.3-0.5h-0.6c-0.3,0-0.3,0-0.3,0.3v1.5c0,0.6,0,1,0.2,1.2
	c0.1,0.2,0.3,0.3,1.4,0.3c1.5,0,1.8-0.3,2.2-1.3c0.1-0.1,0.3,0,0.4,0.1c-0.1,0.5-0.3,1.4-0.5,1.7c-0.5,0-1.6,0-3,0h-1.4
	c-0.5,0-1.3,0-1.8,0c-0.1,0-0.1-0.3,0-0.3l0.4,0c0.6-0.1,0.7-0.1,0.7-1.4V279.8L-252.2,279.8z"/>
<path class="st0" d="M-242.9,284.6c0,0.9,0.5,1.6,1.5,1.6c0.5,0,1.2-0.1,1.9-0.8c0.8-0.8,1.2-1.9,1.2-2.6c0-0.9-0.4-1.6-1.5-1.6
	c-0.5,0-1.1,0.2-1.8,0.8C-242.4,282.6-242.9,283.7-242.9,284.6L-242.9,284.6z M-241.3,285.8c-0.3,0-0.4-0.3-0.4-0.6
	c0-0.9,0.6-2.3,1.2-3.1c0.3-0.4,0.6-0.5,0.8-0.5c0.3,0,0.4,0.3,0.4,0.6c0,0.8-0.6,2.2-1,2.8C-240.8,285.6-241.1,285.8-241.3,285.8
	L-241.3,285.8z"/>
<path class="st0" d="M-234.6,281.8c-0.4,1.2-1,3.4-1.3,4.6c-0.3,0.9-0.6,1.7-0.9,2c-0.3,0.3-0.9,0.8-1.6,0.8c-0.6,0-1-0.4-1-0.8
	c0-0.3,0.2-0.6,0.5-0.6c0.2,0,0.3,0.1,0.4,0.2c0.2,0.4,0.5,0.6,0.7,0.6c0.2,0,0.3-0.2,0.6-1c0.4-1.4,1-3.8,1.6-5.9h-1.1
	c-0.1-0.2,0-0.5,0.1-0.5h1.1c0.3-0.9,0.5-1.8,1-2.5c0.6-0.9,1.4-1.4,2.3-1.4c0.7,0,1.2,0.4,1.2,0.9c0,0.5-0.4,0.8-0.6,0.8
	c-0.2,0-0.2-0.1-0.3-0.2c-0.1-0.8-0.4-1.1-0.7-1.1c-0.3,0-0.6,0.3-0.8,0.8c-0.4,0.8-0.7,1.7-0.9,2.6h1.4c0.1,0.1,0,0.4-0.1,0.5
	H-234.6L-234.6,281.8z"/>
<path class="st0" d="M-296,292.4c-0.1,0.1-0.3,0.1-0.4,0c-0.2-0.8-0.7-1.8-2.3-1.8c-1.5,0-3.1,1.1-3.1,3.5c0,2.6,1.6,3.8,3.1,3.8
	c1.5,0,2.2-1,2.5-1.8c0.1-0.1,0.3-0.1,0.4,0c-0.1,0.8-0.4,1.6-0.6,1.8c-0.1,0-0.3,0.1-0.4,0.1c-0.3,0.1-1.1,0.3-1.9,0.3
	c-1.2,0-2.2-0.2-3.1-0.8c-1-0.6-1.7-1.7-1.7-3.3c0-1.4,0.6-2.5,1.5-3.2c0.9-0.7,2.1-1,3.3-1c0.7,0,1.5,0.1,2.1,0.3
	c0.1,0,0.2,0,0.3,0.1C-296.1,290.8-296.1,291.5-296,292.4L-296,292.4z"/>
<path class="st0" d="M-290.9,295.4c0.3,0,0.4,0,0.5,0.3l0.6,1.6c0.2,0.5,0.1,0.6-0.3,0.6l-0.3,0c-0.1,0.1-0.1,0.3,0,0.3
	c0.4,0,0.9,0,1.5,0c0.6,0,1.1,0,1.6,0c0.1-0.1,0.1-0.3,0-0.3l-0.2,0c-0.6-0.1-0.7-0.2-0.9-1l-1.7-5c-0.2-0.5-0.3-1.1-0.5-1.6
	c0-0.1-0.1-0.1-0.2-0.1c0,0-0.4,0.5-0.8,0.6c0,0.2-0.1,0.5-0.2,0.9l-1.6,4.3c-0.3,0.6-0.4,1.2-0.6,1.5c-0.2,0.4-0.3,0.5-0.7,0.6
	l-0.4,0.1c-0.1,0.1-0.1,0.3,0,0.3c0.4,0,0.8,0,1.2,0c0.5,0,0.9,0,1.3,0c0.1,0,0.1-0.3,0-0.3l-0.3-0.1c-0.4-0.1-0.5-0.1-0.3-0.8
	l0.5-1.4c0.1-0.3,0.1-0.3,0.4-0.3H-290.9L-290.9,295.4z M-292.3,294.8c-0.3,0-0.3,0-0.2-0.3l0.5-1.4c0.2-0.6,0.3-0.9,0.4-0.9h0
	c0.1,0.1,0.1,0.3,0.3,0.9l0.5,1.4c0.1,0.3,0,0.3-0.3,0.3H-292.3L-292.3,294.8z"/>
<path class="st0" d="M-285.4,296.6c0,1.3-0.1,1.3-0.7,1.4l-0.3,0c-0.1,0.1-0.1,0.3,0,0.3c0.6,0,1.1,0,1.6,0c0.5,0,1.1,0,1.6,0
	c0.1,0,0.1-0.3,0-0.3l-0.3,0c-0.6-0.1-0.7-0.1-0.7-1.4v-1.5c0-0.3,0-0.3,0.4-0.3c0.4,0,0.5,0,0.7,0.4c0.3,0.5,0.6,1.1,0.9,1.6
	c0.7,1.1,1.4,1.6,2.5,1.6c0.4,0,0.7,0,0.8-0.1c0-0.1,0-0.2,0-0.2c-0.1,0-0.5-0.1-0.8-0.4c-0.6-0.5-1.2-1.5-2.1-3.1
	c0-0.1-0.1-0.2,0-0.2c0.6-0.2,1.4-0.8,1.4-1.9c0-0.9-0.4-1.4-1.1-1.8c-0.5-0.3-1.3-0.4-2.3-0.4c-1,0-2,0-2.8,0.1
	c-0.1,0.1-0.1,0.3,0,0.3l0.3,0c0.6,0.1,0.6,0.2,0.6,1.4V296.6L-285.4,296.6z M-284,291.4c0-0.6,0-0.6,0.6-0.6c1,0,1.7,0.8,1.7,1.8
	c0,1.1-0.5,1.7-1.7,1.7c-0.6,0-0.6,0-0.6-0.4V291.4L-284,291.4z"/>
<path class="st0" d="M-276.9,296.6c0,1.3-0.1,1.3-0.7,1.4l-0.3,0c-0.1,0.1-0.1,0.3,0,0.3c0.5,0,1.1,0,1.5,0c0.4,0,1,0.1,1.7,0.1
	c1.1,0,2.1-0.1,3-0.6c1.5-0.8,2.2-2.1,2.2-3.5c0-1.8-1-3.1-2.5-3.6c-0.9-0.3-1.7-0.4-2.8-0.4c-1.2,0-2.1,0-3,0.1
	c-0.1,0.1-0.1,0.3,0,0.3l0.3,0c0.6,0.1,0.6,0.2,0.6,1.4V296.6L-276.9,296.6z M-275.5,291.9c0-0.6,0-0.8,0.1-0.9
	c0.1-0.1,0.5-0.2,1-0.2c2,0,3.4,1.2,3.4,3.5c0,2-1,3.5-3.1,3.5c-1.3,0-1.4-0.6-1.4-1.8V291.9L-275.5,291.9z"/>
<path class="st0" d="M-265.5,296.6c0,1.3,0.1,1.3,0.7,1.4l0.3,0c0.1,0.1,0.1,0.3,0,0.3c-0.5,0-1.1,0-1.6,0c-0.5,0-1.1,0-1.6,0
	c-0.1,0-0.1-0.3,0-0.3l0.3,0c0.6-0.1,0.7-0.1,0.7-1.4v-4.5c0-1.3-0.1-1.3-0.7-1.4l-0.3,0c-0.1-0.1-0.1-0.3,0-0.3c0.5,0,1.1,0,1.6,0
	c0.5,0,1.1,0,1.6,0c0.1,0,0.1,0.3,0,0.3l-0.3,0c-0.6,0.1-0.7,0.1-0.7,1.4V296.6L-265.5,296.6z"/>
<path class="st0" d="M-258.7,290.2c-2.5,0-4.3,1.8-4.3,4.3c0,2.1,1.6,4,4.3,4c2.4,0,4.2-1.8,4.2-4.1
	C-254.4,292.2-255.9,290.2-258.7,290.2L-258.7,290.2z M-258.8,290.7c1.9,0,2.7,2.1,2.7,3.9c0,2.4-1.1,3.4-2.5,3.4
	c-2.1,0-2.8-2.3-2.8-3.9C-261.3,291.6-260,290.7-258.8,290.7L-258.8,290.7z"/>
<path class="st0" d="M-250.5,296.4c0,0.6,0,1,0.2,1.2c0.1,0.2,0.3,0.3,1.3,0.3c1.3,0,1.5-0.1,2.1-1.3c0.1-0.1,0.3,0,0.4,0.1
	c-0.1,0.5-0.4,1.4-0.5,1.7c-0.5,0-1.5,0-2.9,0h-1.2c-0.6,0-1.2,0-1.7,0c-0.1,0-0.1-0.3,0-0.3l0.4-0.1c0.6-0.1,0.7-0.1,0.7-1.4v-4.5
	c0-1.2-0.1-1.3-0.7-1.4l-0.3,0c-0.1-0.1-0.1-0.3,0-0.3c0.6,0,1.1,0,1.7,0c0.5,0,1.1,0,1.6,0c0.1,0,0.1,0.3,0,0.3l-0.3,0
	c-0.6,0.1-0.7,0.1-0.7,1.4V296.4L-250.5,296.4z"/>
<path class="st0" d="M-241.4,290.2c-2.5,0-4.3,1.8-4.3,4.3c0,2.1,1.6,4,4.3,4c2.4,0,4.2-1.8,4.2-4.1
	C-237.2,292.2-238.6,290.2-241.4,290.2L-241.4,290.2z M-241.6,290.7c1.9,0,2.7,2.1,2.7,3.9c0,2.4-1.1,3.4-2.5,3.4
	c-2.1,0-2.8-2.3-2.8-3.9C-244.1,291.6-242.8,290.7-241.6,290.7L-241.6,290.7z"/>
<g>
	<path class="st0" d="M-228.2,297.1c0,0.4,0.1,0.7,0.3,0.8c0,0,0,0.1,0,0.2c-0.1,0-0.3,0-0.6,0.1c-0.7,0.2-1.6,0.3-2.3,0.3
		c-1.4,0-2.8-0.4-3.7-1.3c-0.7-0.7-1.1-1.7-1.1-2.8c0-1,0.4-2,1.1-2.8c0.9-0.9,2.2-1.4,3.8-1.4c0.6,0,1.2,0.1,1.6,0.2
		c0.3,0.1,0.6,0.1,0.8,0.1c0,0.4,0.1,1,0.2,1.9c-0.1,0.1-0.3,0.1-0.4,0c-0.3-1.2-1.1-1.7-2.3-1.7c-2.1,0-3.1,1.5-3.1,3.6
		c0,1,0.2,2,0.9,2.8c0.6,0.8,1.6,1,2.3,1c0.6,0,0.9-0.1,1.1-0.3c0.1-0.1,0.1-0.3,0.1-0.8v-0.4c0-0.9,0-0.9-0.8-1.1l-0.4-0.1
		c-0.1-0.1-0.1-0.3,0-0.3c0.5,0,1,0,1.9,0c0.5,0,0.9,0,1.5,0c0.1,0.1,0.1,0.3,0,0.3l-0.2,0c-0.4,0.1-0.5,0.2-0.5,0.9V297.1
		L-228.2,297.1z"/>
	<path class="st0" d="M-223.9,295.9c0-0.7,0-0.9-0.4-1.5l-1.4-2.8c-0.3-0.5-0.4-0.7-0.9-0.8l-0.3-0.1c-0.1-0.1,0-0.3,0-0.3
		c0.5,0,1,0,1.5,0c0.5,0,1.3,0,1.5,0c0.1,0,0.1,0.3,0,0.3l-0.4,0.1c-0.2,0-0.3,0.1-0.3,0.2c0,0.1,0,0.2,0.2,0.6c0.5,1,0.9,2,1.4,2.9
		c0.5-0.9,0.9-1.8,1.4-2.7c0.2-0.4,0.3-0.7,0.3-0.8c0-0.1-0.1-0.2-0.3-0.2l-0.4-0.1c-0.1-0.1-0.1-0.3,0-0.3c0.5,0,0.9,0,1.3,0
		c0.4,0,0.8,0,1.1,0c0.1,0.1,0.1,0.3,0,0.3l-0.3,0.1c-0.5,0.1-0.7,0.3-1.3,1.4c-0.4,0.7-0.8,1.3-1.1,2c-0.4,0.6-0.4,0.9-0.4,1.7v0.7
		c0,1.3,0.1,1.3,0.7,1.4l0.5,0c0.1,0.1,0.1,0.3,0,0.3c-0.7,0-1.3,0-1.8,0c-0.6,0-1.1,0-1.7,0c-0.1,0-0.1-0.3,0-0.3l0.4,0
		c0.6-0.1,0.7-0.1,0.7-1.4V295.9L-223.9,295.9z"/>
</g>
<g>
	<path class="st1" d="M-308.7,282.1c0,11.6-9.4,21-21,21c-11.6,0-21-9.4-21-21c0-11.6,9.4-21,21-21
		C-318.2,261-308.7,270.4-308.7,282.1L-308.7,282.1z"/>
	<path class="st1" d="M-309.7,282c0,11.1-9,20-20,20c-11.1,0-20-9-20-20c0-11.1,9-20,20-20C-318.7,262-309.7,271-309.7,282
		L-309.7,282z"/>
	<g>
		<path class="st2" d="M-309.7,282c0,11.1-9,20-20,20c-11.1,0-20-9-20-20c0-11.1,9-20,20-20C-318.7,262-309.7,271-309.7,282
			L-309.7,282z"/>
	</g>
	<path class="st0" d="M-309.5,282.1c0,11.2-9.1,20.3-20.3,20.3c-11.2,0-20.3-9.1-20.3-20.3c0-11.2,9.1-20.3,20.3-20.3
		C-318.5,261.8-309.5,270.8-309.5,282.1L-309.5,282.1z"/>
	<path class="st1" d="M-328.9,282.6c-0.2-0.1-1.9-0.8-2-0.8c-0.1-0.1,0-0.3,0.2-0.2c0.1,0,1.7,0.7,1.9,0.7
		C-328.6,282.3-328.6,282.6-328.9,282.6L-328.9,282.6z"/>
	<path class="st1" d="M-312.1,282c0,9.8-7.9,17.7-17.7,17.7c-9.8,0-17.7-7.9-17.7-17.7c0-9.8,7.9-17.7,17.7-17.7
		C-320,264.4-312.1,272.3-312.1,282L-312.1,282z"/>
	<path class="st2" d="M-312.1,282c0,9.8-7.9,17.7-17.7,17.7c-9.8,0-17.7-7.9-17.7-17.7c0-9.8,7.9-17.7,17.7-17.7
		C-320,264.4-312.1,272.3-312.1,282L-312.1,282z"/>
	<path class="st1" d="M-313.8,282.1c0,8.8-7.2,16-16,16c-8.8,0-16-7.2-16-16c0-8.8,7.2-16,16-16C-321,266.1-313.8,273.2-313.8,282.1
		L-313.8,282.1z"/>
	<g>
		<defs>
			<path id="SVGID_1_" d="M-313.8,282.1c0,8.8-7.2,16-16,16c-8.8,0-16-7.2-16-16c0-8.8,7.2-16,16-16
				C-321,266.1-313.8,273.2-313.8,282.1L-313.8,282.1z"/>
		</defs>
		<clipPath id="SVGID_2_">
			<use xlink:href="#SVGID_1_"  style="overflow:visible;"/>
		</clipPath>
		<path class="st3" d="M-333.6,266c0.1,0.1,0.7,0.2,0.9,0.2c0.2,0,0.1-0.1,0.1-0.1c-0.1,0-1-0.2-1.1-0.2c-0.1,0-0.3-0.1-0.4-0.1
			c-0.1,0-0.3-0.1-0.2,0l0,0.1C-334.3,265.9-333.7,266-333.6,266L-333.6,266z"/>
		<path class="st3" d="M-321.6,293.2c0.1-0.1,0.2-0.2,0.1-0.2c-0.1,0-0.9,0.3-1.1,0.2c-0.1-0.1-0.3,0.1-0.2,0.1
			C-322.5,293.4-321.7,293.3-321.6,293.2L-321.6,293.2z"/>
		<path class="st3" d="M-319.7,292.8c0.1-0.2,0,0.1-0.2,0.2c-2.6,1.8-6,1.6-6.2,1.6c-0.2,0-1.3,0-1.4,0c-0.1,0-0.2,0.1-0.2,0.1
			c-0.1,0-0.3,0.1,0,0.1c0.3,0,1.5,0,1.6,0c2.1,0.1,3.8-0.4,4.1-0.5C-321.8,294.2-320,293.4-319.7,292.8L-319.7,292.8z"/>
		<path class="st3" d="M-331.3,275.8c0-0.1,0.1-0.1,0.3-0.2c0.2-0.1,0.7,0.3,0.9,0.2c0.2-0.1,0.7,0,1,0.2c0.3,0.2,0.9,0.4,1.1,0.5
			c0.1,0,0.3,0.2,0.2,0.2c-0.1,0.1,0.5,0.7,0.5,0.8c0,0.2,0.3,0.4,0.5,0.9c0.2,0.4,1,0.7,1.2,0.7c0.1,0,0.2,0.2,0.3,0.2
			c0.1,0,0-0.2,0-0.2c0-0.1,0.1,0,0.2,0c0.1,0,0.2,0.2,0.2,0.1c0-0.1,0-0.1,0.2,0c0.1,0.1,0.1,0.1,0.2,0.1c0.1,0,0,0,0-0.1
			c-0.1-0.1,0-0.2,0.1-0.1c0.1,0.1,0.3,0.3,0.4,0.3c0.1,0,0-0.1,0-0.3c0-0.1,0.1-0.1,0.2,0c0.1,0.1,0.3,0.4,0.5,0.4
			c0.2,0,0-0.2,0-0.3c0-0.1,0.1,0,0.2,0.1c0.1,0.1,0.5,0.7,0.6,0.7c0.1-0.1,0.6,0.9,0.7,1.3c0.1,0.4,0.3,0.4,0.2,0.3
			c-0.6-2.3-1.3-2.4-1.6-2.6c-0.2-0.2-3.5-0.9-3.5-1c0-0.2-0.7-0.9-0.7-0.9s-0.5-0.6-0.5-0.7c-0.1-0.1-1.2-0.8-1.5-1
			c-0.3-0.1-0.5-0.2-1.1-0.3c-0.5-0.1-0.5-0.2-0.8-0.2c-0.3-0.1-0.6,0.4-0.7,0.5c0.2,0.2,0.6,0.6,0.9,1c0.2,0.1,0.4,0.1,0.4,0.1
			C-330.8,276.4-331.3,276-331.3,275.8L-331.3,275.8z"/>
		<path class="st3" d="M-327.2,291.7c-0.2,0-0.3,0-0.4,0c-0.2,0-0.2,0.1-0.1,0.2c0.1,0,0.3,0.1,0.5,0.1
			C-327.2,291.8-327.1,291.7-327.2,291.7L-327.2,291.7z"/>
		<path class="st3" d="M-328.1,290.6c0.2,0,0.1-0.1,0.1-0.2c0,0-0.5-0.1-0.5-0.2c-0.1-0.1-0.3,0.2-0.1,0.2
			C-328.5,290.5-328.3,290.6-328.1,290.6L-328.1,290.6z"/>
		<path class="st3" d="M-327.9,291.1c-0.2,0-0.4-0.1-0.5-0.1c-0.2,0-0.2,0.2-0.1,0.2c0.1,0,0.5,0.1,0.5,0.1
			C-327.9,291.3-327.8,291.1-327.9,291.1L-327.9,291.1z"/>
		<path class="st3" d="M-327.4,292.3c0.1,0.1,0.9,0.1,1,0.1c0.1,0,0.2-0.1,0.2-0.2c0,0-0.1-0.1-0.2,0c-0.1,0-0.6,0-0.7,0
			C-327.3,292.2-327.5,292.2-327.4,292.3L-327.4,292.3z"/>
		<path class="st3" d="M-327.3,292.9c0.1,0.1,0.9,0.1,1,0.1c0.1,0,0.2-0.1,0.2-0.2c0,0-0.1-0.1-0.2,0c-0.1,0.1-0.6,0-0.7,0
			C-327.2,292.8-327.4,292.9-327.3,292.9L-327.3,292.9z"/>
		<path class="st3" d="M-326.9,293.4c0.1,0.1,0.9,0.1,1,0.1c0.1,0,0.2-0.1,0.2-0.2c0,0-0.1-0.1-0.2,0c-0.1,0.1-0.6,0-0.7,0
			C-326.9,293.3-327,293.4-326.9,293.4L-326.9,293.4z"/>
		<path class="st3" d="M-320.8,276c-0.1,0.1-0.2,0.2-0.2,0.3c-0.1,0.2-0.1,0.4-0.1,0.7c0,0.2,0.1,0.4,0.2,0.6
			c0.1,0.3,0.2,0.6,0.2,0.8c0,0.2,0,0.4,0,0.5c0,0.1,0,0.2,0,0.3c0,0.2,0.1,0.3,0.2,0.5c0.1,0.1,0.2,0.3,0.3,0.5c0,0,0,0,0,0
			c0,0,0,0,0,0c0,0-0.1,0-0.2-0.1c-0.1-0.1-0.4-0.3-0.5-0.6c-0.1-0.1-0.1-0.2-0.1-0.3c0-0.1,0-0.3,0-0.3c0.1-0.4-0.3-1.2-0.3-1.3
			c0-0.1-0.2-0.3-0.3-0.4c0-0.1-0.2-0.6,0.1-0.9c0.1-0.1,0.4-0.3,0.5-0.4C-320.9,275.8-320.8,275.9-320.8,276L-320.8,276z
			 M-322.1,275.4c-0.2,0-0.4,0.2-0.3,0.3c0.1,0.2,0,0.5,0,0.6c0,0.1,0.2,0.4,0.3,0.5c0.1,0,0.2,0.4,0.1,0.4c-0.1,0-0.2,0.1-0.2,0.2
			c0.1,0.1-0.1,0.3-0.1,0.2c-0.1-0.1-0.1-0.2-0.1-0.4c-0.1-0.2-0.2-0.2-0.1-0.1c0.1,0.2,0.1,0.3,0.1,0.5c0.1,0.2-0.1,0.3-0.1,0
			c0-0.2-0.2-0.4-0.3-0.6c0-0.2-0.1-0.1-0.1,0.1c0,0.2-0.1,0.3-0.2,0c-0.1-0.2-0.3-0.8-0.3-1c-0.1-0.2-0.2-0.2-0.2-0.1
			c0,0.1,0.1,0.3,0.1,0.3c0,0.1-0.1,0.2-0.1,0c0-0.2-0.1-0.4-0.2-0.5c0-0.1-0.3-0.3-0.2-0.1c0.1,0.2,0,0.3,0,0.4c0,0.2-0.1,0-0.1,0
			c0-0.1-0.1-0.2-0.1-0.4c0-0.1-0.2-0.2-0.1-0.1c0,0.1,0,0.2,0,0.2c-0.1,0-0.1-0.2-0.1-0.3c0-0.1-0.1-0.4-0.2-0.5
			c-0.1-0.1-0.2-0.2-0.2-0.1c0.1,0.1,0.1,0.4,0.1,0.5c0,0.1-0.2,0.1-0.2,0c0-0.1-0.2-0.5-0.3-0.6c-0.1-0.1-0.2,0-0.1,0.1
			c0.1,0.1,0.1,0.3,0.2,0.4c0,0.1-0.2-0.1-0.2-0.1c0-0.1-0.2-0.3-0.3-0.5c0-0.1-0.2-0.1-0.1,0c0.1,0.1,0,0.1,0.1,0.3
			c0.1,0.1-0.2,0-0.2-0.1c0-0.1-0.2-0.4-0.3-0.5c0-0.1-0.2,0-0.1,0.1c0.1,0.1,0.1,0.2,0.1,0.3c0,0.1-0.2-0.1-0.3-0.2
			c0-0.1-0.2-0.4-0.3-0.6c-0.1-0.2-0.1,0-0.1,0.1c0,0.1,0.1,0.2,0.2,0.4c0,0.1-0.1,0.1-0.1,0c0-0.1-0.1-0.3-0.2-0.4
			c0-0.1-0.3-0.2-0.1,0.1c0.2,0.3,0,0.3,0,0.3c-0.1,0-0.2-0.1-0.2-0.1s-0.1-0.2-0.1-0.3c0-0.1-0.1-0.1-0.1,0c0,0.1,0,0.2,0,0.3
			c0,0.1-0.1,0-0.1,0c0-0.1-0.1-0.3-0.2-0.3c0,0-0.2,0-0.1,0c0,0.1,0.1,0.1,0.1,0.3c0,0.1,0,0.1-0.1,0.1c0-0.1-0.2-0.2-0.3-0.3
			c-0.1-0.1-0.3,0.1-0.3,0.1c-0.1,0-0.3-0.3-0.3-0.3c0,0-0.1,0-0.1,0.1c0,0.1,0.2,0.2,0.1,0.3c0,0.1,0,0.2-0.1,0.3
			c-0.1,0-0.3-0.3-0.5-0.3c-0.2,0-0.4,0-0.4,0.1c0,0,0,0,0,0c-0.2,0-0.3-0.1-0.5-0.1c-0.1-0.1-0.3-0.1-0.3-0.1
			c-0.1,0-0.1-0.1-0.1-0.2c2.8-1.3,6.7-1.4,10,1.2c0,0-0.1,0-0.1,0c-0.1-0.1-0.3-0.1-0.4-0.1C-321.6,275.3-321.9,275.4-322.1,275.4
			L-322.1,275.4z M-321.4,279.4c0,0,0,0.1,0,0.1c-0.1-0.1-0.2-0.1-0.3-0.1c-0.1-0.2-0.5-0.7-0.6-0.8c-0.1-0.1,0.1-0.2,0.3,0
			C-321.6,278.8-321.4,279.2-321.4,279.4L-321.4,279.4z M-321.7,283c-0.4,2.5,0.8,4.4,2,6.2l0,0c0.2,0.3,0.5,0.9,0.5,1.1
			c0.1,0.2,0.1,0.8,0.1,1c0,0.2-0.4,1.1-0.5,1.3c-0.1,0.2-0.3,0.4-0.5,0.6c0,0-1.6,2.6-8.9,2c-0.6-0.2-0.7-0.6-0.8-0.8
			c0-0.1-0.9-0.5-1.1-0.6c-0.2,0-0.2-0.2,0-0.2c0.1,0-0.1-0.2-0.3-0.3c-0.7-0.3-0.4-0.8-0.2-0.7c0.2,0.1,1,0.3,1.2,0.4
			c0.3,0,0.1-0.1,0-0.2c-0.1,0-0.7-0.2-0.9-0.3c-0.7-0.4,0-0.8,0.3-0.7c0.1,0,0.8,0.2,1.1,0.3c0.3,0.1,0.1-0.1-0.1-0.1
			c-0.2-0.1-0.3-0.1-0.6-0.2c-0.3-0.1,0-0.1,0.1-0.1c0.1,0,0.6,0.1,0.5,0c-0.1-0.1-0.4-0.2-0.8-0.4c-0.4-0.2-1.8-1.7,0.3-1.1
			c0.2,0.1,0.2-0.2,0.2-0.2c-0.1,0-1.2-0.5-1.4-0.5c-0.5-0.1-0.6-0.7-0.5-0.7c0.1,0,1.1,0.4,1.2,0.4c0.1,0,0.1-0.2,0-0.3
			c-0.1-0.1-0.9-0.4-1.1-0.4c-0.1,0-0.3-0.1-0.3-0.2c0-0.1-0.1-0.1-0.3-0.2c-0.1-0.2,0-0.2,0.3-0.2c0.3,0.1,0.1-0.1,0-0.2
			c-0.1-0.1-0.3-0.2-0.5-0.4c-0.2-0.2-0.2-0.6-0.3-0.7c-0.1-0.1,0.1,0,0.3,0c0.2,0,0-0.1-0.1-0.2c-0.2,0-0.2-0.2-0.3-0.3
			c-0.1-0.1,0.3,0,0.5,0c0.2,0,0.1-0.1-0.1-0.1c-0.2-0.1-0.3-0.2-0.3-0.3c0-0.1,0.2,0,0.4,0c0.2,0,0.1-0.1-0.1-0.2
			c-0.1-0.1-0.3,0-0.5-0.1c-0.2-0.1-0.1-0.2-0.1-0.3c0-0.1,0.1-0.1,0.3-0.1c0.2,0,0.3,0,0.2-0.1c-0.1-0.1-0.4-0.1-0.5-0.1
			c-0.1,0-0.2-0.2-0.1-0.2c0.1-0.1,0-0.2-0.1-0.3c-0.1,0,0.1-0.1,0.2-0.1c0.1,0,0.1-0.3-0.2-0.2c-0.3,0.1-0.1-0.3-0.1-0.6
			c0-0.3,0.1-0.3,0-0.4c-0.1-0.1-0.5,0.3-0.4,0c0.1-0.3-0.1-0.3-0.2-0.4c0,0,0-0.2-0.1-0.2c-0.1,0-0.9-0.3-1.2-0.4
			c-0.2-0.1,0-0.5,0.5-0.4c0.2,0.1,0.5,0.1,0.5,0c0-0.1-0.2-0.1-0.5-0.3c-0.4-0.1-0.3-0.5,0.1-0.5c0.2,0,0.3-0.1,0.2-0.2
			c-0.1-0.1-0.2,0-0.4-0.1c-0.2-0.1-0.5-0.9,0.2-0.8c0.1,0,0.2-0.1,0-0.2c-0.2,0-0.2-0.1-0.3-0.1c-0.1,0,0-0.6,0.2-0.6
			c0.1,0,0.3,0.1,0.4,0.1c0.1,0.1,0.2-0.1,0-0.1c-0.1-0.1-0.2-0.2-0.4-0.2c-0.1-0.1,0-0.1,0.1-0.2c0.1-0.1,0.3,0.1,0.5,0.1
			c0.2,0.1,0.2-0.1,0-0.2c-0.1-0.1-0.5-0.1-0.5-0.2c0-0.1,0-0.4,0.1-0.4c0.1,0,0.5,0.1,0.5,0.1s0.2-0.2,0-0.3c-0.1,0-0.1,0-0.5-0.1
			c-0.3-0.1,0-0.4,0.1-0.4c0.1,0,0.5,0.2,0.8,0.1c0.3,0,0.2-0.2,0-0.3c-0.2-0.1-0.7-0.2-0.9-0.3c-0.2-0.1,0.2-0.6,0.4-0.7
			c0.2-0.1,0.9-0.6,1.4,0.2c0.1,0.1,0.4,0.3,0.5,0.3c0.1,0.1,0.5,0.3,0.6,0.5c0.1,0.1,0.3,0.1,0.5,0c0.1-0.1-0.1-0.4-0.4-0.8
			c-0.2-0.1-0.4-0.1-0.4-0.2c-0.1-0.1-0.5-0.7-0.5-0.8l0,0c-0.2-0.2-0.3-0.3-0.3-0.3l-0.4-0.3c1-0.2,2.3,0,3.6,0.4
			c0,0,2.1,2.4,2.2,2.4c0,0.1,0.4,0.2,0.5,0.1c0.1-0.1,0-0.5-0.2-0.5c-0.2,0-0.4-0.6-0.5-0.7c-0.1-0.1-0.9-1-1-1.2
			c-0.1-0.1,0.1-0.1,0.2-0.1c0.1,0.1,0.3,0.3,0.4,0.3c0.1,0,0-0.1-0.2-0.3c-0.2-0.2,0.1,0,0.1-0.1c0,0,0,0,0,0
			c0.7,0.1,1.4,0.4,2.2,0.9c1,0.7,1.9,1.7,2.3,2.7l0,0l0,0C-322.1,279.6-321.5,281.6-321.7,283L-321.7,283z M-322.2,279.5
			C-322.2,279.5-322.2,279.5-322.2,279.5C-322.2,279.5-322.2,279.5-322.2,279.5L-322.2,279.5z M-322.1,279.6
			C-322.1,279.6-322.2,279.6-322.1,279.6C-322.2,279.6-322.1,279.6-322.1,279.6L-322.1,279.6z M-322.1,279.7
			C-322.1,279.7-322.1,279.7-322.1,279.7C-322.1,279.7-322.1,279.7-322.1,279.7L-322.1,279.7z M-322,279.9
			C-322,279.8-322,279.8-322,279.9C-322,279.8-322,279.8-322,279.9L-322,279.9z M-322.3,279.4C-322.3,279.4-322.3,279.4-322.3,279.4
			C-322.3,279.4-322.3,279.4-322.3,279.4L-322.3,279.4z M-321.9,280.1c0,0,0-0.1-0.1-0.1C-321.9,280.1-321.9,280.1-321.9,280.1
			L-321.9,280.1z M-321.8,280.3C-321.8,280.2-321.8,280.2-321.8,280.3C-321.8,280.2-321.8,280.2-321.8,280.3L-321.8,280.3z
			 M-321.8,280.4C-321.8,280.4-321.8,280.3-321.8,280.4C-321.8,280.3-321.8,280.4-321.8,280.4L-321.8,280.4z M-321.7,280.5
			C-321.7,280.5-321.7,280.5-321.7,280.5C-321.7,280.5-321.7,280.5-321.7,280.5L-321.7,280.5z M-321.7,280.7
			C-321.7,280.6-321.7,280.6-321.7,280.7C-321.7,280.6-321.7,280.6-321.7,280.7L-321.7,280.7z M-321.6,280.8
			C-321.6,280.8-321.7,280.7-321.6,280.8C-321.7,280.7-321.6,280.8-321.6,280.8L-321.6,280.8z M-321.6,280.9
			C-321.6,280.9-321.6,280.9-321.6,280.9C-321.6,280.9-321.6,280.9-321.6,280.9L-321.6,280.9z M-321.6,281.1
			C-321.6,281-321.6,281-321.6,281.1C-321.6,281-321.6,281-321.6,281.1L-321.6,281.1z M-321.5,281.2
			C-321.5,281.2-321.6,281.1-321.5,281.2C-321.6,281.1-321.5,281.2-321.5,281.2L-321.5,281.2z M-321.5,281.3
			C-321.5,281.3-321.5,281.3-321.5,281.3C-321.5,281.3-321.5,281.3-321.5,281.3L-321.5,281.3z M-321.5,281.5
			C-321.5,281.4-321.5,281.4-321.5,281.5C-321.5,281.4-321.5,281.4-321.5,281.5L-321.5,281.5z M-321.9,280
			C-322,280-322,279.9-321.9,280C-322,279.9-322,280-321.9,280L-321.9,280z M-321.4,281.8c0,0,0-0.1,0-0.1
			C-321.4,281.7-321.4,281.7-321.4,281.8L-321.4,281.8z M-321.4,281.9C-321.4,281.9-321.4,281.8-321.4,281.9
			C-321.4,281.8-321.4,281.9-321.4,281.9L-321.4,281.9z M-321.4,282C-321.4,282-321.4,282-321.4,282C-321.4,282-321.4,282-321.4,282
			L-321.4,282z M-321.4,282.2C-321.4,282.1-321.4,282.1-321.4,282.2C-321.4,282.1-321.4,282.1-321.4,282.2L-321.4,282.2z
			 M-321.4,282.3C-321.4,282.3-321.4,282.2-321.4,282.3C-321.4,282.2-321.4,282.3-321.4,282.3L-321.4,282.3z M-321.4,282.4
			C-321.4,282.4-321.4,282.4-321.4,282.4C-321.4,282.4-321.4,282.4-321.4,282.4L-321.4,282.4z M-321.4,282.5
			C-321.4,282.5-321.4,282.5-321.4,282.5C-321.4,282.5-321.4,282.5-321.4,282.5L-321.4,282.5z M-321.4,281.6c0,0,0-0.1,0-0.1
			C-321.5,281.5-321.5,281.6-321.4,281.6L-321.4,281.6z M-321.4,282.7C-321.4,282.6-321.4,282.6-321.4,282.7
			C-321.4,282.6-321.4,282.6-321.4,282.7L-321.4,282.7z M-321.4,282.8C-321.4,282.8-321.4,282.7-321.4,282.8
			C-321.4,282.7-321.4,282.8-321.4,282.8L-321.4,282.8z M-321.4,282.9C-321.4,282.9-321.4,282.9-321.4,282.9
			C-321.4,282.9-321.4,282.9-321.4,282.9L-321.4,282.9z M-321.4,283.1c0,0,0-0.1,0-0.1C-321.4,283-321.4,283-321.4,283.1
			L-321.4,283.1z M-328.2,298.9c-0.2,0-0.3,0.1-0.4,0.1c0-0.1,0.1-0.1,0-0.2c-0.2,0-0.5-0.3-0.5-0.4c-0.1-0.1,0,0-0.2,0
			c-0.1,0-0.2,0-0.5,0c-0.2,0-0.2-1.1-0.2-1.2c0-0.1,0.3-0.5,0.7-0.5c0.2,0,0.4-0.1,0.4-0.2c0-0.1,0-0.4,0-0.4
			c0.4,0,0.2-0.3,0.3-0.5c0.3,0,0.6,0,0.9,0c0,0,0.1,0,0.1,0c0,0.2,0.5,2.5,0.7,3.3C-327.4,298.7-327.9,298.8-328.2,298.9
			L-328.2,298.9z M-327.2,299.8c0,0.2-0.4,0.3-0.6,0.3c-0.2,0-0.6-0.2-0.8-0.3c-0.2-0.1,0.1-0.3,0.2-0.4c0.1-0.1,0.3,0,0.5,0
			c0.1,0,0.4,0,0.5,0C-327.3,299.5-327.2,299.6-327.2,299.8L-327.2,299.8z M-329.2,299.6c-0.2,0-0.9,0.2-1.2,0.2
			c-0.3,0.1-0.3-0.1-0.2-0.2c0-0.1,0.3-0.3,0.4-0.4c0.2-0.1,0.5-0.3,0.7-0.2c0.2,0.2,0.4,0.3,0.7,0.4
			C-328.6,299.6-328.9,299.6-329.2,299.6L-329.2,299.6z M-335.4,290.3c-0.2,0-0.3-0.2-0.4-0.3c0-0.1,0.1-0.3,0.5-0.1
			c0.1,0,0.7,0.3,1,0.3l0.2,0.1l0.1,0c0.1,0,1,0.3,1,0.4c0.2,0.1,0.9,0.3,1.1,0.4c0.1,0,0.1,0.2,0,0.3
			C-331.9,291.8-335.3,290.4-335.4,290.3L-335.4,290.3z M-332.8,293.5c-0.1,0-1.5-0.6-1.7-0.7c-0.1-0.1,0-0.4,0.2-0.3
			c0.1,0,1.5,0.6,1.6,0.6C-332,293.3-332.1,293.7-332.8,293.5L-332.8,293.5z M-338.4,288.8c-0.1,0-0.4-0.6-0.2-0.6
			c0.1,0,1.2,0.4,1.4,0.4c0.4,0.1,0.4,0.7,0.2,0.7C-337.3,289.2-338.2,288.9-338.4,288.8L-338.4,288.8z M-336.8,295.5
			c0,0.5,0.1,1,0.2,1.5c-0.1,0-0.1-0.1-0.2-0.1l-0.1-0.1c-0.1-0.1-2.5-2-2.6-1.8c0,0-0.1,0.1-0.1,0.1c0,0,0.1-0.2,0-0.3
			c-0.1-0.1,0-0.4,0-0.4c0.1-0.1,0.1,0,0.2,0.1c0.1,0.1,0.1-0.1,0-0.1c-0.1,0-0.2-0.1-0.2-0.1c-0.1-0.1-0.1-0.2,0-0.2
			c0.1,0.1,0.2,0.1,0.3,0.1c0.1,0.1,0.1-0.1,0-0.1c-0.1-0.1-0.2-0.1-0.3-0.2c-0.1-0.1,0-0.2,0.1-0.2c0.1,0.1,0.3,0.2,0.4,0.3
			c0.2,0.1,0.1-0.1,0-0.2c-0.1,0-0.3-0.2-0.4-0.3c-0.1-0.1-0.2-0.4,0-0.4c0.2,0,0.3,0.1,0.5,0.2c0.2,0.1,0.2-0.1,0.1-0.2
			c-0.1-0.1-0.4-0.3-0.6-0.4c-0.2-0.1-0.1-0.4,0.1-0.4c0.1,0,0.2,0.1,0.3,0.1c0.1,0.1,0.2,0,0.1-0.1c-0.1-0.1-0.2-0.1-0.3-0.2
			c-0.1-0.1-0.1-0.4,0.1-0.2c0.2,0.1,0.2,0.1,0.4,0.2c0.1,0,0.1-0.1,0-0.2c-0.1,0-0.3-0.1-0.4-0.2c-0.1-0.1-0.1-0.2,0.1-0.2
			c0.1,0.1,0.3,0.1,0.4,0.2c0.1,0.1,0.2,0,0.2-0.1c-0.1-0.1-0.2-0.2-0.3-0.2c-0.5-0.2-0.3-1.9,0.6-1.3c0.2,0.2,1,1.1,1.3,1.1
			C-336.8,291.1-336.8,295.4-336.8,295.5L-336.8,295.5z M-336.7,297.6c0,0-0.2,0-0.3-0.1l0,0c0-0.1,0.1-0.1,0.2-0.2
			C-336.8,297.4-336.7,297.4-336.7,297.6C-336.7,297.5-336.7,297.6-336.7,297.6L-336.7,297.6z M-338.5,296.1c-0.1,0-0.1,0.1-0.2,0.1
			c-0.1,0.1-0.4,0.3-0.6,0.2l0-0.1c0-0.1,0-0.3,0.2-0.3c0.1,0,0.4-0.1,0.4-0.2c0-0.1,0.2-0.1,0.2,0
			C-338.5,296-338.5,296-338.5,296.1L-338.5,296.1z M-340.5,285.7c0.1,0,0-0.2-0.1-0.3c-0.1-0.1-0.3-0.4-0.2-0.3
			c0.1,0.1,0.4,0.3,0.6,0.4c0.1,0.1,0.2,0,0-0.1c-0.2-0.1-0.5-0.5-0.6-0.6c-0.1-0.1-0.2-0.4-0.1-0.3c0.1,0.1,0.5,0.4,0.6,0.5
			c0.1,0.1,0.2,0,0.1-0.1c-0.1-0.1-0.4-0.4-0.6-0.6c-0.3-0.3-0.2-0.8-0.1-0.8c0.1,0,0.9,0.7,1,0.8c0.1,0.1,0.2,0,0-0.2
			c-0.1-0.1-0.8-0.7-0.9-0.8c-0.3-0.2-0.2-0.6-0.2-0.6c0-0.1,0.1-0.1,0.2-0.1c0.1,0.1,0.7,0.6,0.8,0.7c0.1,0.1,0.2,0,0.1-0.1
			c-0.1-0.1-0.5-0.5-0.6-0.6c-0.1-0.1,0-0.2,0.1-0.2c0.1,0.1,0.6,0.5,0.7,0.6c0.1,0.1,0.1-0.1,0-0.1c-0.1,0-0.8-0.7-0.9-0.8
			c0,0-0.1-0.1-0.1-0.2c0.1-0.2,0.1-0.3,0.3-0.1c0.1,0,0.2,0.2,0.3,0.2c0.1,0.1,0.2,0,0.1-0.1c-0.1-0.1-0.4-0.3-0.5-0.4
			c-0.1-0.1,0-0.2,0.1-0.2c0.1,0.1,0.5,0.5,0.6,0.5c0,0,0.3,0,0.1-0.1c-0.2-0.1-0.8-0.7-0.8-0.8c0-0.2-0.1-0.9,0-0.8
			c0.1,0.1,0.4,0.2,0.5,0.4c0.2,0.2,0.1-0.1,0-0.2c-0.1-0.1-0.6-0.5-0.8-0.9c0-0.1,0-0.1-0.1-0.2c-0.3-0.7,0-1.3,0.6-1.5
			c0.2-0.1,0.4,0,0.6,0c0.1,0,0.2,0.2,0.2,0.2c0,0.1-0.1,0.1-0.2,0.1c-0.3,0-0.6,0.2-0.7,0.4c-0.1,0.2-0.1,0.5,0,0.7
			c0.1,0.2,0.2,0.3,0.4,0.6l0.3,0.5c0.5,0.7,0.6,1.9,0.5,2.6c0,0.4-0.1,0.9,0,1.6c0.1,0.7,0,1.2-0.3,1.7c-0.1,0.2-0.2,0.3-0.4,0.3
			c-0.1,0-0.3-0.1-0.3-0.2C-340.4,286.2-340.8,285.8-340.5,285.7L-340.5,285.7z M-338.6,282.1c1,0.2,1.8,0.7,2.4,0.9
			c0.5,0.2,0.2,0.3,0.3,0.4c0.2,0.1,0.5,0.2,0.9,0.4c0.4,0.1,0.8,0.3,0.9,0.3c0.1,0.1,0.1,0.3,0.1,0.3c0,0,0,0.1-0.1,0.1
			c0,0-0.1,0-0.1,0c-0.1-0.1-0.6-0.2-1.1-0.4c-0.5-0.2-1-0.4-1.2-0.4c-0.2-0.1-0.5-0.2-0.7-0.3c-0.2-0.1-0.4-0.1-0.5-0.2
			c-0.4-0.2-0.8-0.3-1.1-0.5C-338.9,282.6-338.8,282.1-338.6,282.1L-338.6,282.1z M-340.2,273.7c0.1,0.1,0.9,0.4,1,0.4
			c0.1,0,0.1-0.1,0-0.1c-0.1,0-0.6-0.3-0.7-0.4c-0.1-0.1,0.1-0.1,0.1-0.1c0.1,0,0.5,0.1,0.6,0.2c0.1,0,0.2-0.1,0.1-0.1
			c-0.1,0-0.1-0.1-0.3-0.2l0,0c0.3-0.1,0.5-0.2,0.6-0.6c0.1-0.2,0.1-0.3,0.2-0.6l0,0c0.1-0.3,0.3-0.4,0.4-0.4c0.2,0,0.3,0.2,0.3,0.4
			c0.2,0.9,0.2,1.9,0.2,2.9c0,0.6,0,1.2,0.1,1.7c-0.3,0.2-0.5,0.5-0.8,0.8l0,0c0,0-0.1,0-0.2,0c-0.2,0-0.3-0.1-0.2-0.2
			c0.1,0,0.2-0.1,0.1-0.1c-0.1,0-0.2,0-0.4-0.1c-0.2,0-0.2-0.2-0.1-0.2c0.1,0,0.2,0.1,0.4,0.1c0.1,0.1,0.3-0.1,0.1-0.2
			c-0.2,0-0.5-0.2-0.7-0.3c-0.2,0-0.3-0.2-0.1-0.2c0.2,0,0.4,0.1,0.7,0.1c0.2,0,0.1-0.1,0-0.2c-0.1,0-0.6-0.1-0.8-0.2
			c-0.2-0.1-0.2-0.2,0-0.2c0.1,0,0.7,0.2,0.9,0.3c0.2,0,0.2-0.1-0.1-0.2c-0.3-0.1-0.8-0.3-0.9-0.3c-0.1,0-0.1-0.2,0.1-0.1
			c0.2,0,0.7,0.2,0.8,0.2c0.1,0,0.1,0-0.1-0.1c-0.2,0-0.6-0.3-0.8-0.3c-0.2,0-0.2-0.2,0-0.2c0.1,0,0.7,0.2,0.8,0.2
			c0.2,0,0.2-0.1-0.1-0.1c-0.3-0.1-0.8-0.3-1-0.4c-0.2-0.1-0.2-0.2,0-0.2c0.2,0,0.5,0.3,0.7,0.3c0.2,0,0.1-0.1,0-0.1
			c-0.1,0-0.5-0.3-0.6-0.3c-0.1-0.1-0.1-0.1,0-0.1c0.1,0,0.3,0.1,0.4,0.1c0.1,0,0.2-0.1,0-0.1c-0.1,0-0.4-0.2-0.6-0.2
			c-0.1,0-0.1-0.2,0-0.1c0.1,0,0.5,0.2,0.6,0.2c0.1,0,0.2,0,0-0.1c-0.1,0-0.7-0.3-0.9-0.4C-340.4,273.8-340.3,273.7-340.2,273.7
			L-340.2,273.7z M-337.7,278.4c0.1,0,0.2,0,0.2,0.1c0.1,0.1,1,0.5,1.5,0.7c0.1,0,0.3,0.1,0.3,0.2c0,0.1-0.1,0.2-0.2,0.2
			c-0.2,0-1.7-0.7-1.8-0.8c0,0-0.1-0.1-0.1-0.1C-337.8,278.6-337.7,278.4-337.7,278.4L-337.7,278.4z M-335.9,280.4
			c-0.1,0.1-1.1-0.4-1.3-0.4c-0.2,0-0.8-0.3-1-0.4c-0.1,0-0.1-0.1-0.1-0.2c0-0.1,0.1-0.3,0.2-0.3c0,0,0.2,0,0.2,0
			c0,0.1,0.8,0.4,1,0.4c0.1,0,0.4,0.1,0.6,0.2c0.2,0.1,0.4,0.2,0.4,0.2c0.1,0,0.1,0,0.1,0.1C-335.8,280.1-335.8,280.4-335.9,280.4
			L-335.9,280.4z M-334.5,283.5l-0.2-0.1c-0.3-0.1-0.7-0.2-0.9-0.3c-0.1-0.1-0.1-0.1-0.1-0.2c0-0.1,0.1,0,0.2,0
			c0.2,0,0.5,0.2,0.8,0.2c0.2,0,0.3,0.1,0.3,0.1c0.1,0,0.1,0.1,0.1,0.1c0,0,0,0,0,0.1C-334.3,283.5-334.4,283.5-334.5,283.5
			L-334.5,283.5z M-338.8,281c0,0,0.2,0.1,0.3,0.1c0.1,0,0.2,0.1,0.2,0.1c0.1,0,1.2,0.5,1.6,0.6l0.3,0.1c0.1,0,0.1,0.1,0.1,0.1
			c0,0,0,0.2,0,0.2c0,0,0,0.2-0.4,0c-0.6-0.2-2.4-0.6-2.3-1.2C-339,281.1-338.8,281-338.8,281L-338.8,281z M-338.8,280
			c0.1-0.1,0.3-0.1,0.3,0c0.1,0.1,2.4,1,2.6,1c0.1,0,0.1,0.1,0.1,0.1c0,0,0,0.5,0,0.5c0,0.1-0.1,0.1-0.2,0.1c-0.2,0-2.7-1.1-2.8-1.2
			c0,0-0.1-0.1-0.1-0.1C-338.8,280.3-338.8,280.1-338.8,280L-338.8,280z M-333.5,285.9c0,0.1-0.2,0.1-0.2,0.1c0,0-1.9-0.7-2-0.8
			c-0.3-0.1-0.6-0.1-0.6-0.2c0-0.1,0.1-0.5,0.8-0.2c0.1,0.1,1.8,0.6,1.8,0.6c0.1,0,0.1,0.2,0.2,0.4
			C-333.5,285.7-333.4,285.7-333.5,285.9L-333.5,285.9z M-333.3,286.6c0,0.1,0,0.1-0.1,0.2c-0.1,0-2.1-0.7-2.2-0.8
			c0,0-1-0.4-1.1-0.5c0,0,0.1-0.2,0.1-0.2c0-0.1,0.1-0.1,0.2,0c0.1,0,1.1,0.3,1.2,0.4l0.3,0.1c0.2,0.1,0.9,0.4,1,0.4l0.1,0
			c0.1,0,0.2,0,0.3,0.1C-333.3,286.3-333.3,286.6-333.3,286.6L-333.3,286.6z M-338.2,284.3c0,0,0-0.2,0.1-0.2c0.1,0,0.8,0.3,1,0.3
			c0.2,0.1,0.3,0.1,0.3,0.2c0,0,0,0.1,0,0.1c0,0,0,0.1-0.1,0.1c0,0-0.1,0-0.1,0C-337,284.7-338.1,284.3-338.2,284.3L-338.2,284.3z
			 M-338.9,287.2c0,0,0-0.3,0.1-0.3c0,0,1.3,0.4,1.3,0.4c0.3,0.1,0.2,0.6,0.2,0.6c0,0,0,0-0.1,0.1c-0.1,0-1-0.3-1.1-0.4
			c-0.1,0-0.3-0.1-0.3-0.1C-338.9,287.4-339,287.2-338.9,287.2L-338.9,287.2z M-338.9,285.6c0.1,0,0.9,0.4,1,0.5
			c0.2,0.2,0.3,0.7,0.3,0.7c0.1,0.1-0.6-0.2-0.7-0.2c-0.2-0.1-0.6-0.2-0.7-0.3c0-0.1-0.1-0.2,0-0.2C-339,286-339,285.6-338.9,285.6
			L-338.9,285.6z M-338.8,283.3c0-0.1,0-0.2,0.2-0.1c0.1,0,2.4,0.9,2.5,0.9c0,0,0.1,0.2,0,0.2c0,0.1-0.1,0.1-0.2,0.1l-1.6-0.6
			c-0.4-0.1-0.8-0.3-0.9-0.4C-338.9,283.4-338.9,283.3-338.8,283.3L-338.8,283.3z M-333.1,287.7c-0.2,0-1.3-0.4-1.4-0.5
			c0,0-0.2-0.1-0.4-0.2c-0.4-0.2-0.8-0.4-0.9-0.4c-0.5-0.2-1.1-0.2-1-0.6c0-0.1,0.1-0.2,0.1-0.2c0,0,0.1,0,0.1,0
			c0,0,0.1,0.1,0.3,0.1c0.2,0.1,0.8,0.3,1,0.4c0.2,0.1,1.9,0.7,2,0.7c0.1,0,0.3,0.1,0.3,0.1c0,0,0,0,0,0.1c0,0,0,0.1,0,0.1
			C-333.1,287.5-333,287.7-333.1,287.7L-333.1,287.7z M-332.7,288.5c0,0,0,0.1-0.1,0.1c-0.1,0-1.1-0.3-1.3-0.4l-0.1,0l-0.1,0
			c-0.1,0-0.1,0-0.2-0.1c0,0,0-0.2,0-0.2c0.1,0,1.1,0.4,1.3,0.4c0.1,0,0.3,0,0.3,0.1C-332.7,288.3-332.7,288.4-332.7,288.5
			L-332.7,288.5z M-333.4,289.6l-0.1-0.1c-0.1,0-0.1-0.1-0.1-0.1c0,0,0-0.1,0.1-0.1c0,0,0.1,0,0.2,0c0,0,0.1,0,0.2,0.1
			c0.2,0.1,0.7,0.2,0.7,0.3c0,0,0,0.1,0,0.1c0,0-0.1,0-0.1,0C-332.7,289.9-333.3,289.7-333.4,289.6L-333.4,289.6z M-336.1,288.8
			C-336.1,288.8-336.1,288.8-336.1,288.8c0-0.1,0.2,0,1,0.3c0.2,0.1,0.5,0.2,0.5,0.2c0.1,0,0.8,0.3,0.8,0.4c0,0,0,0.1,0,0.1
			c0,0-0.1,0.1-0.1,0.2c-0.1,0-0.7-0.2-0.7-0.2c-0.4-0.2-1.1-0.4-1.3-0.4c-0.2,0-0.3-0.3-0.3-0.4C-336,288.9-336,288.9-336.1,288.8
			L-336.1,288.8z M-334.2,282.8c0.1,0,0.1,0.1,0.1,0.1c0,0.1-0.1,0.1-0.3,0c-0.1,0-0.4-0.1-0.6-0.2c-0.1,0-0.2-0.1-0.3-0.1
			c-0.1,0-0.1-0.1-0.1-0.1c0,0,0-0.1,0-0.1c0,0,0.1,0,0.1,0C-335.2,282.5-334.4,282.8-334.2,282.8L-334.2,282.8z M-337.2,277.9
			C-337.2,277.8-337.2,277.8-337.2,277.9c0.1-0.1,0.2-0.1,0.2,0l0,0c0.1,0.1,1.2,0.6,1.3,0.6c0.2,0,0.1,0.1,0.1,0.1
			c0,0-0.1,0.1-0.3,0.1c-0.2,0-0.9-0.3-1.2-0.5l-0.2-0.1C-337.3,278-337.2,277.9-337.2,277.9L-337.2,277.9z M-336.6,277.3
			c0,0,0.1-0.1,0.2,0c0.1,0.1,0.8,0.4,0.9,0.5c0.1,0,0.1,0.1,0.1,0.1c0,0.1-0.1,0.1-0.2,0c-0.1,0-0.3-0.2-0.6-0.3
			c-0.2-0.1-0.3-0.2-0.4-0.2c-0.1,0-0.1-0.1-0.1-0.1C-336.7,277.4-336.6,277.4-336.6,277.3L-336.6,277.3z M-335.1,272.3
			c0.4-0.9,1.1-1.6,1.9-2.3c1.4-1.3,2-2.3,2.6-3.5c0-0.1,0.1-0.1,0.1-0.1c0,0,0.2,0.3,0.3,0.3c0,0,0.2,0.4,0.1,0.5
			c-0.1,0.1-0.1,0-0.3-0.1c-0.1,0-0.2,0.1,0,0.2c0.1,0.1,0.3,0.2,0.4,0.3c0,0,0.1,0.3,0,0.2c-0.1,0-0.4-0.2-0.5-0.4
			c-0.2-0.1-0.2,0.1-0.1,0.2c0.1,0.1,0.5,0.4,0.6,0.5c0.1,0.1,0,0.2,0.1,0.4c-0.5,0.6-0.9,1.2-1.1,2c0,0.1,0,0.1,0,0.2
			c0,0.1,0.1,0.1,0.1,0.2c0.1,0.1,0.2,0.1,0.4,0c0.3-0.2,0.7-0.2,0.9-0.1c0.2,0.1,0.4,0,0.5,0l0,0c0.3-0.1,0.7-0.1,1.2,0
			c0.2,0.1,0.5,0.1,0.8,0.1c0.1,0,0.3,0,0.4,0l0.5,0.1c0.1,0.1,0.2,0.1,0.3,0.2c0,0.1,0,0.1-0.1,0.1c-0.1,0-1.1,0.2-1.1,0.2
			c-0.1,0-0.1,0-0.2,0c-0.2-0.1-0.6-0.4-0.6-0.5c-0.1-0.1-0.2,0-0.1,0.1c0.1,0.1,0.3,0.3,0.4,0.4c-0.1,0-0.2,0-0.3,0c0,0,0,0,0,0
			c-0.1-0.1-0.3-0.3-0.4-0.4c-0.1-0.1-0.2,0-0.1,0.1c0.1,0.1,0.2,0.3,0.3,0.4c0,0,0,0,0,0c0,0-0.1,0-0.1,0c0,0-0.1,0-0.1-0.1
			c-0.1-0.1-0.4-0.3-0.5-0.4c-0.1-0.1-0.2,0-0.2,0c0.1,0.1,0.4,0.3,0.4,0.4c0,0,0,0.1,0,0.1c0,0,0,0-0.1,0c0,0-0.1,0-0.2-0.1
			c-0.1-0.1-0.3-0.3-0.4-0.4c-0.1,0-0.1,0.1-0.1,0.2c0.1,0.1,0.2,0.2,0.3,0.3c0,0,0,0.1,0,0.1c0,0,0,0,0,0c-0.1,0-0.1,0-0.2,0.1
			c0,0,0,0-0.1,0c-0.1-0.1-0.2-0.3-0.3-0.3c-0.1-0.1-0.2,0-0.2,0c0.1,0.1,0.4,0.2,0.4,0.3c0,0,0,0.1,0,0.1c0,0,0,0,0,0
			c0,0,0,0-0.1,0c-0.1-0.1-0.1,0-0.2-0.1c-0.1-0.1-0.1,0.2,0,0.3c0,0,0,0,0,0c-0.1,0-0.1,0.1-0.2,0.1c-0.1-0.1-0.5-0.3-0.5-0.3
			s-0.2,0-0.1,0c0.1,0.1,0.3,0.3,0.3,0.4c-0.1,0.1-0.3-0.1-0.4-0.2c-0.1-0.1-0.2,0-0.1,0.1c0.1,0.1,0.4,0.2,0.5,0.3
			c0,0.1,0,0.2-0.2,0.1c-0.2-0.1-0.3-0.1-0.5-0.2c-0.1-0.1-0.1,0.1,0,0.1c0.1,0.1,0.5,0.3,0.4,0.4c-0.1,0.1-0.5-0.1-0.7-0.2
			c-0.1-0.1-0.2,0-0.1,0.1c0.1,0.1,0.6,0.3,0.5,0.4c-0.1,0.1-0.5-0.2-0.6-0.3c-0.1-0.1-0.2,0-0.1,0.1c0.1,0.1,0.6,0.3,0.5,0.4
			c-0.1,0.1-0.7-0.2-0.8-0.3c-0.1-0.1-0.2,0.1-0.1,0.1c0.1,0.1,0.8,0.4,0.7,0.6c-0.2,0.2-0.7-0.2-0.9-0.4c-0.2-0.1-0.3,0-0.2,0.1
			c0.1,0.1,0.5,0.3,0.6,0.4c0.1,0.1,0.1,0.2-0.1,0.1c-0.2-0.1-0.9-0.5-1-0.5c-0.2,0-0.2,0.1,0,0.2c0.2,0.1,0.7,0.2,0.8,0.4
			c0.1,0.1-0.1,0.1-0.2,0c-0.2-0.1-0.6-0.3-0.7-0.3c-0.1,0-0.3,0-0.1,0.1c0.2,0.1,0.6,0.2,0.5,0.3c-0.1,0-0.4,0-0.7,0
			c-0.2,0-1.3,0.8-1.9,1.3c-0.6,0.2-1-0.8-0.3-2.3C-335.8,273.4-335.2,272.4-335.1,272.3L-335.1,272.3z M-335.3,270.6
			c0.1,0,0.2,0,0.4,0c0.3,0,0.1-0.1,0-0.1c-0.1,0-0.3-0.1-0.5-0.1c-0.6-0.1-0.5-0.4-0.3-0.4c0.2,0,0.8,0,1,0.1c0.2,0,0.1-0.1,0-0.2
			c-0.1-0.1-0.6-0.1-0.8-0.1c-0.6-0.2-0.5-0.5-0.3-0.5c0.2,0,0.7,0.1,0.9,0.1c0.2,0,0.2-0.2,0-0.2c-0.2,0-0.8-0.2-0.9-0.2
			c-0.1,0-0.3-0.3,0.2-0.4c0.2,0,0.9,0.1,1.2,0.1c0.2,0,0.2-0.1,0-0.1c-0.1-0.1-0.9-0.2-1.2-0.3c-0.2-0.1-0.4-0.3-0.1-0.3
			c0.4,0,0.7,0.1,1,0.2c0.3,0,0.2-0.1,0-0.2c-0.2,0-0.8-0.2-1-0.3c-0.2-0.1-0.3-0.3-0.1-0.3c0.1,0,1,0.2,1.3,0.3
			c0.2,0,0.3-0.1,0-0.2c-0.2-0.1-1.1-0.3-1.3-0.4c-0.3-0.1-0.2-0.2,0-0.2c0.2,0,1.1,0.2,1.4,0.3c0.3,0,0.1-0.2-0.1-0.2
			c-0.2,0-1-0.2-1.2-0.3c-0.2-0.1-0.2-0.2,0-0.2c0.2,0.1,0.6,0,0.5,0c-0.1-0.1-0.2-0.2-0.1-0.2c0.1,0,0.3,0.1,0.5,0.1
			c0.2,0,0.2,0,0-0.1c-0.2-0.1-0.5-0.1-0.7-0.2c-0.2,0-0.3-0.3-0.1-0.3c0.2,0,0.6,0.2,0.9,0.3c0.3,0.1,0.2-0.1,0-0.1
			c-0.2,0-0.6-0.2-1-0.4c-0.4-0.1-0.2-0.2,0-0.2c0.2,0,0.5,0.2,0.6,0.2c0.1,0,0.3,0,0-0.1c-0.2-0.1-0.5-0.2-0.7-0.3
			c-0.2,0-0.2-0.2,0-0.2c0.2,0,0.7,0.2,0.9,0.2c0.2,0.1,0.4-0.1,0.1-0.2c-0.3,0-0.9-0.3-1-0.3c-0.1,0-0.2-0.2,0-0.2
			c0.1,0,0.5,0.1,0.7,0.2c0.1,0,0.2-0.1-0.1-0.1c-0.3,0-0.4-0.2-0.6-0.3c-0.2-0.1-0.1-0.2,0.1-0.2c0.1,0,0.5,0.1,0.7,0.2
			c0.2,0.1,0.1-0.1-0.1-0.1c-0.2,0-0.7-0.2-0.8-0.3c-0.2-0.1-0.2-0.1,0-0.1c0.2,0,0.5,0.1,0.8,0.2c0.3,0.1,0.3-0.1,0.2-0.1
			c-0.2,0-0.8-0.3-0.9-0.3c-0.1,0-0.2-0.1-0.1-0.1c0.1,0,0.4,0.1,0.6,0.2c0.2,0.1,0.4-0.1,0.2-0.2c-0.2-0.1-0.7-0.2-0.9-0.3
			c-0.2-0.1-0.1-0.2,0-0.2c0.1,0,0.7,0.2,0.8,0.2c0.2,0,0.2-0.1,0-0.1c-0.2,0-0.7-0.2-0.9-0.4c-0.1-0.1-0.1-0.1,0.1-0.1
			c0.2,0,0.3,0.1,0.5,0.1c0.1,0,0.3-0.1,0-0.1c-0.3,0-0.3-0.1-0.5-0.2c-0.2,0-0.1-0.2-0.1-0.2c0.1,0,0.2,0,0.3,0
			c0.1,0,0.5,0,0.2-0.1c-0.3,0-0.2-0.1-0.4-0.2c-0.2-0.1-0.3-0.1-0.2-0.1c0.1,0,0.2,0,0.5,0.1c0.2,0,0.4,0.1,0.4,0
			c0-0.1-0.2,0-0.7-0.2c-0.5-0.1-0.4-0.2-0.3-0.3c0.1-0.1,0.2,0,0.3-0.1c0.3,0.1,0.6,0.1,0.8-0.2c0.1-0.1,0.2-0.2,0.4-0.2
			c0.3,0.1,0.5,0,0.7-0.2c0.1-0.1,0.2-0.2,0.3-0.4l0.1-0.1c0.1-0.1,0.2-0.2,0.3-0.1c0.1,0,0.2,0.1,0.2,0.3c0,0.2,0.1,0.5,0.1,0.9
			c0,0.4,0.1,0.9,0.2,1.4c0.1,0.4,0.3,0.4,0.3,0.4c0.2,0,0.3-0.1,0.4-0.3c0,0,0,0,0,0c0,0,0.1-0.1,0.1-0.1c0-0.1,0.1-0.2,0.1-0.2
			c0,0,0.1-0.2,0.1-0.2c0-0.1,0.1-0.3,0.2-0.4c0.1-0.1,0-0.2,0-0.4c0-0.1,0.1-0.3,0.1-0.4c0,0,0.1,0,0.2,0.1
			c0.1,0.1,0.3-0.1,0.3-0.2c0-0.1,0.2-0.5,0.2-0.6c0-0.1,0.1-0.3,0.1-0.5c0.3,0.1,0.5,0,0.7,0c0.1,0,0.1,0,0.2,0.1
			c0,0,0.1,0.1,0.1,0.1c0,0.1,0,0.1,0,0.2l-0.1,0.2c-0.2,0.7-0.4,1.4-0.6,2c0,0.1,0,0.3,0,0.4c0,0.1,0.1,0.2,0.1,0.3
			c0.1,0.1,0.3,0.2,0.5,0.2c1.5,0.1,2.6,1.2,2.9,2.8c0.1,0.3,0.1,0.7,0.1,1c0,1-0.1,2.1-0.2,3.2c-0.1,0-0.3,0-0.4,0
			c-0.2,0-0.5,0-0.7-0.1c-0.6-0.2-1.1-0.2-1.4,0c0,0,0,0,0,0c0-0.4,0-0.8,0-1.2c0,0,0.1,0,0.1,0c0.1,0,0.1,0.1,0.1,0.2
			c0,0.1,0,0.6,0,0.7c0,0.1,0.1,0,0.1-0.1c0-0.1,0-0.2,0-0.4c0-0.2,0-0.8,0-1c0-0.2,0-0.4,0-0.5c0-0.1-0.1,0-0.1,0.1
			c0,0.1,0,0.3,0,0.4c0,0.1-0.1,0.1-0.2,0.1c0-0.1,0-0.3,0-0.4c0-0.2,0-0.4-0.1-0.6c-0.1-0.6-0.3-1.1-0.5-1.5
			c-0.1-0.1-0.2-0.2-0.4-0.2c0-0.1-0.2-0.1-0.2-0.1c0,0-0.1-0.1-0.1-0.2c0,0,0.1-0.1-0.1-0.2c-0.2-0.1-0.2,0-0.3,0
			c-0.1,0.1-0.3,0.1-0.2,0.1c0.1,0.1,0.4,0.2,0.4,0.3c0,0-0.1,0.1-0.2,0.1c-0.1,0-0.3-0.1-0.4-0.1c-0.1,0-0.2,0.1-0.1,0.1
			c0.1,0,0.4,0,0.5,0.1c0,0,0.2,0,0.1,0.5c-0.1,0.1-0.9,1.5-0.9,1.5c-0.1,0.1-1.2,1.2-1.2,1.3c-0.1,0.1-0.2,0.2-0.4,0.3
			c-0.2,0.2-1.3,1.4-1.5,1.7c-0.1,0-0.2-0.1-0.3-0.1C-336,271.1-335.8,270.7-335.3,270.6L-335.3,270.6z M-327.3,272.9
			c-0.5,0-1.8,0.2-2.3,0.3c0-0.2,0.1-1,0.3-1.1c0.2,0,1.2-0.2,1.4-0.2c0.3,0,0.5-0.1,0.7-0.1C-327.2,272.2-327.3,272.6-327.3,272.9
			L-327.3,272.9z M-326.7,299.5C-326.7,299.5-326.7,299.5-326.7,299.5C-326.7,299.5-326.7,299.5-326.7,299.5L-326.7,299.5z
			 M-320.2,275.5L-320.2,275.5c-2.1-1.9-4.5-2.6-6.8-2.6c0.1-0.4,0.1-0.8,0.2-1.4c0.3,0,0.8,0,1.2,0c0.2,0,0.4-0.1,0.3-0.2
			c0-0.1-0.2-0.5-0.5-0.6c-0.1,0-0.6-0.3-0.9-0.4c0.1-1.1,0.2-2.2,0.2-3.2c0-2.2-1.2-4-3.2-4c-0.3,0-0.5-0.2-0.4-0.6
			c0.1-0.7,0.4-1.5,0.6-2.2c0.1-0.4-0.1-0.7-0.4-0.6c-0.2,0-0.5,0.1-0.7,0c-0.2,0-0.5,0.1-0.5,0.1c-0.3,0.1-0.4,0.4-0.5,0.5
			c-0.1,0.2-0.5,1.3-0.6,1.4c-0.1,0.2-0.1,0.9-0.3,0.7c-0.1-0.1-0.2-0.2-0.2-0.2c-0.1-0.7-0.1-1.5-0.2-1.8c-0.1-0.5-0.5-0.6-0.8-0.2
			c-0.1,0.2-0.2,0.3-0.4,0.5c-0.2,0.2-0.3,0.2-0.6,0.2c-0.2,0-0.4,0-0.6,0.2c-0.2,0.2-0.5,0.2-0.7,0.1c-0.1-0.1-0.3-0.2-0.5-0.2
			c-0.2,0-0.3,0.1-0.3,0.2c0.1,0.7,0.2,1.5,0.3,2.1l0.1,1.3c0,0.6,0,1.1,0,1.5c0,0.5-0.1,1,0,1.3c0,0.3,0,0.4-0.1,0.6
			c-0.2,0.5-0.2,1-0.2,1.7c0,0.7,0,1.7,0,2.7c0,0.9-0.2,2.6-0.1,4c0,0,0,0,0,0c-0.2,0.1-0.4,0.3-0.6,0.4c0,0,0,0,0.1,0v0
			c-0.1-1.4,0-3.1-0.2-4.7c-0.1-0.8-0.9-0.7-1.1,0c-0.1,0.2-0.1,0.4-0.2,0.6c-0.1,0.3-0.3,0.4-0.6,0.5c-0.4,0.1-0.9,0.2-1.1,0.3
			c-0.1,0.1-0.2,0.2-0.2,0.5c0.1,0.6,0.1,1.9,0.2,3.7c-0.2,0.1-0.4,0.2-0.5,0.3c-0.3,0.4-0.5,0.9-0.2,1.7c0.3,1.1,0.3,1.6,0,2.3
			c-0.5,1.3-0.2,3.2,0.8,4.5c0,0,0,0,0.1,0.1c0.1,0.1,0.2,0.2,0.3,0.2c0,0,0,0,0,0c0.2,4,0.3,7.7,0.3,9.2c0,0.2,0.1,0.4,0.4,0.6
			c0.3,0.3,0.8,0.1,1-0.2c0.2-0.2,0.4-0.1,0.5,0.3c0,0.3,0.2,0.5,0.4,0.6c0.1,0.1,0.3,0.3,0.5,0.4c0.3,0.2,0.6,0.2,0.6-0.1l0,0
			c0-1.6-0.1-4.2-0.2-5.9c0,0-0.1-0.1-0.1-0.1c1.2,1.5,2.8,2.7,4.7,3.3h0l0,0c0.4,1.5,0.9,4.4,0.9,4.4c0,0.3,0.4,0.6,0.9,0.7
			c0.4,0,0.7-0.2,1-0.2c0.3-0.1,0.6,0.1,0.8,0.2c0.4,0.2,1.1,0.3,1.5,0.1c0.3-0.1,0.3-0.3,0.3-0.5c0,0,0,0,0,0l-0.8-3.9l0.1,0
			c0.4,0.1,0.9,0.1,1.3,0c1.6,0,3.1-0.2,4.4-0.8c1.2-0.5,2.1-1.3,2.6-2.1c0.4-0.7,0.5-1.4,0.4-2.2c-0.1-0.5-0.3-0.9-0.5-1.3l0,0
			c-0.9-1.3-1.7-2.6-1.9-4.1c-0.1-0.6,0-1.3,0.1-1.9c0.1-0.5,0.1-1.1,0-1.6c-0.1-0.7-0.4-1.4-0.7-2c0,0,0.9,0.4,1.6,0.8v0
			c0.3,0.1,0.4-0.1,0.3-0.3c-0.1-0.1-0.2-0.3-0.3-0.5c-0.1-0.2-0.2-0.4-0.2-0.6c0.1-0.3,0-0.8-0.3-1.4c-0.4-0.9-0.2-1.4,0.3-1.5
			C-320.1,275.9-320.1,275.7-320.2,275.5L-320.2,275.5z"/>
		<path class="st4" d="M-328.8,275.1C-328.8,275.1-328.8,275.1-328.8,275.1c0,0-0.1-0.1-0.3-0.1c-0.4-0.2-0.7-0.3-1.1-0.4
			c-0.2-0.1-0.3-0.1-0.4-0.1c-0.1,0-0.2,0-0.4,0c-0.2,0-0.3,0-0.5,0c-0.3,0-0.7,0-0.9,0c-0.1,0-0.2,0-0.3,0.1
			c-0.6,0.1-1.2,0.3-1.6,0.6c0,0,0,0,0,0c-0.3,0.2-0.5,0.4-0.8,0.6c-0.2,0.2-0.5,0.3-0.7,0.4c-1.3,0.5-2.6,1.4-3.2,2.9
			c0,0.1,0.1,0.1,0.1,0.1c0.8-1.3,2.1-2.1,3.2-2.5c0.3-0.1,0.5,0.1,0.5,0.4c0.1,0.5,0.1,0.9,0,1.2c-0.1,0.3-0.2,0.6-0.3,0.9
			c-0.1,0.3-0.2,0.7-0.1,1.1c0.1,0.8,0.2,1.7-0.3,2.7c-0.1,0.1,0,0.2,0.1,0.1c0.7-0.6,0.7-1.6,0.6-2.6c0-0.4,0.1-0.7,0.2-1
			c0.4-0.7,0.6-1.1,0.5-1.7c0-0.3,0-0.7-0.1-1c0-0.3,0.1-0.5,0.2-0.7c0.2-0.2,0.7-0.5,1.1-0.6c0.3,0,0.4,0.1,0.5,0.3
			c0.6,0.9,1.2,1.3,2.3,1.7c0.4,0.2,0.5,0.4,0.5,0.8c-0.1,0.4-0.1,0.8-0.5,1.2c-0.7,0.6-1.1,1.2-1.3,1.9c-0.1,0.3-0.3,0.5-0.6,0.6
			c-1.3,0.3-2,1.2-1.6,2.3c0.3,0.9,0.5,1.2,0.7,1.9c0.2,0.7,0.5,1.8,0.7,2.5c0.4,1.1,0.9,2.1,1.2,2.6c0.1,0.1,0.2,0,0.1-0.1
			c-0.5-1-1-2.5-1.3-3.3c0-0.1,0-0.2,0.2-0.2c0.4,0,1.5,0.3,2.3,0.7c0.1,0.1,0.2-0.1,0.1-0.2c-0.7-0.4-1.9-0.9-2.4-1
			c-0.2,0-0.2-0.2-0.3-0.4c-0.2-0.8-0.3-1.6-0.7-2.6c-0.2-0.6,0-0.9,0.3-1.2c0.2-0.2,0.8-0.4,1-0.3c0.1,0,0.1,0,0.2,0
			c0,0,0.1,0.1,0.1,0.1c0,0,0.1,0.1,0.1,0.2c0.1,0.5,0.4,1.1,0.8,1.5c0.4,0.4,0.6,0.8,0.7,1.1c0.1,0.2,0.2,0.2,0.2,0
			c0-0.4-0.2-0.9-0.5-1.3c-0.3-0.4-0.6-1-0.7-1.4c-0.1-0.4,0-0.8,0.1-1.1c0.2-0.7,0.8-1.4,1.2-1.8c0.5-0.4,0.8-1,0.8-1.8
			c0-0.2,0.2-0.3,0.3-0.1c0.4,0.8,0.9,1.4,1.5,1.8c1.4,0.9,1.5,2.3,0.3,3c-1.6,1-1.5,2.4-0.8,3.7c0.3,0.6,0.5,0.9,0.7,1.1
			c0.2,0.3,0.2,0.6,0.1,0.9c-0.4,0.9-0.4,1.8,0,2.5c0.4,0.5,0.6,0.9,0.7,1.1c0.1,0.2,0.2,0.2,0.2,0c-0.1-0.5-0.4-0.9-0.6-1.3
			c-0.3-0.5-0.2-1.4,0-1.8c0.1-0.3,0.2-0.5,0.3-0.7c0.1-0.2,0.2-0.3,0.4-0.1c0.3,0.4,0.6,0.9,0.8,1.3c0.2,0.4,0.4,0.5,0.7,0.6
			c0.6,0.3,1.1,0.7,1.3,1.2c0.1,0.2,0.2,0.1,0.2,0c-0.1-0.7-0.6-1-1.2-1.4c-0.4-0.3-0.5-0.4-0.7-0.7c-0.3-0.7-0.4-1.4-1-1.7
			c-0.4-0.2-0.6-0.3-0.8-0.5c-0.6-0.8-0.9-1.5-0.9-2.2c0-0.6,0.5-1.2,1.1-1.6c0.7-0.4,1.1-1.1,1.1-1.9c0-0.2,0.2-0.3,0.4-0.3
			c0.7,0.2,1.5,0.6,1.7,1.8c0,0.2,0.2,0.1,0.2,0c-0.1-0.6-0.2-1.7-1.4-2.2c-0.1-0.1-0.2-0.1-0.3-0.1c0,0,0,0-0.1,0
			c-0.1,0-0.2,0-0.3-0.1c-0.2,0-0.4,0-0.6-0.3c-0.3-0.6-0.8-0.9-1.2-1.2c-0.4-0.3-0.8-0.8-1.1-1.3c-0.3-0.6-0.6-1-1.2-1
			c-1-0.1-1.9-0.5-2.5-1.3c-0.1-0.1,0-0.3,0.2-0.3c1.5,0.1,2.4,0.4,3.2,1.1c0.6,0.5,1,1.1,1.3,1.6c0.6,0.9,1.6,1.1,2.6,1.1
			c1.1,0,1.8,0.4,2.4,1.8c0.4,1.1,0.5,2,0,2.8c-0.5,0.7-0.6,1.6-0.4,2.4c0.1,0.5,0.1,0.8,0.2,1.2c0.1,0.5,0.4,1,0.9,1.5
			c0.3,0.3,0.4,0.6,0.5,1c0.1,0.4,0.2,0.8,0.5,1.1c0.1,0.1,0.2,0,0.1-0.1c-0.1-0.1-0.3-0.5-0.4-1.1c-0.1-0.6-0.3-1-0.5-1.2
			c-0.2-0.2-0.3-0.4-0.5-0.8c-0.1-0.3,0.1-0.4,0.3-0.2c0.8,0.6,1.7,1.5,2,2.7c0,0.2,0.2,0.2,0.2,0c-0.1-1.1-0.9-2.3-1.8-3.1
			c-0.4-0.3-0.9-0.7-1.1-1.5c-0.2-0.7,0.1-1.3,0.5-1.9c0.4-0.7,0.4-1.8-0.1-3.1c-0.4-1.1-0.9-1.6-1.4-1.9v0c0,0-0.1,0-0.1-0.1
			c-0.5-0.2-0.9-0.2-1.3-0.2c-0.8,0-1.5-0.1-2-0.8c-0.2-0.3-0.7-1-1.5-1.7"/>
		<path class="st3" d="M-323.1,278.5L-323.1,278.5L-323.1,278.5C-323.1,278.5-323.1,278.5-323.1,278.5L-323.1,278.5z M-334.3,275
			c0.5-0.3,1-0.4,1.6-0.5c0,0,0.3-0.1,0.3-0.1c0.2,0,0.4,0,0.9,0c0,0,0.5,0,0.5,0c0,0,0.4,0,0.4,0c0.1,0,0.2,0,0.4,0.1
			c0.4,0.1,0.8,0.2,1.1,0.4c0.1,0,0.2,0.1,0.2,0.1l0,0l0,0l0,0l0,0l0,0c0.3,0.2,0.6,0.4,0.8,0.6c0.6,0.6,1,1.2,1.3,1.5l0.2,0.2
			c0.5,0.7,1.2,0.8,2.1,0.8l0,0l0.1,0c0.4,0,0.8,0,1.2,0.2c0,0,0.1,0,0.1,0l0,0c0.6,0.3,1.1,0.9,1.4,1.9c0.2,0.7,0.3,1.3,0.3,1.8
			c0,0.5-0.1,0.9-0.3,1.2c-0.3,0.6-0.5,1-0.5,1.5c0,0.1,0,0.3,0,0.4c0.1,0.7,0.6,1.1,1,1.5l0,0c1,0.8,1.7,2.1,1.8,3.1c0,0,0,0,0,0
			c0,0,0,0,0,0c0,0,0,0,0,0c-0.4-1.5-1.6-2.4-2-2.8c-0.1-0.1-0.3-0.1-0.4,0c0,0-0.1,0.1-0.1,0.2c0,0,0,0.1,0,0.1
			c0.1,0.4,0.3,0.6,0.5,0.8c0.2,0.2,0.4,0.6,0.5,1.1c0.1,0.6,0.3,1,0.4,1.1c0,0,0,0,0,0c0,0,0,0,0,0c-0.3-0.3-0.4-0.7-0.5-1.1
			c-0.1-0.4-0.2-0.7-0.5-1.1c-0.5-0.5-0.8-1-0.9-1.5c-0.1-0.2-0.1-0.4-0.1-0.6c0-0.2,0-0.4-0.1-0.6c-0.1-0.2-0.1-0.5-0.1-0.7
			c0-0.6,0.2-1.1,0.5-1.6c0.3-0.4,0.4-0.8,0.4-1.3c0-0.5-0.1-1-0.3-1.5c-0.5-1.3-1.2-1.9-2.4-1.9c-0.9,0-1.9-0.1-2.5-1
			c-0.4-0.5-0.8-1.1-1.4-1.6c-0.8-0.7-1.7-1.1-3.3-1.1c-0.1,0-0.2,0-0.3,0.1c0,0,0,0.1,0,0.1c0,0.1,0,0.1,0.1,0.2
			c0.6,0.8,1.5,1.2,2.6,1.3c0.6,0,0.9,0.5,1.1,1c0.3,0.5,0.7,1.1,1.1,1.4c0.4,0.2,0.9,0.6,1.2,1.2c0.1,0.3,0.4,0.3,0.5,0.3l0.1,0
			l0.3,0.1h0l0.1,0c0,0,0.1,0,0.2,0.1c1.1,0.4,1.3,1.3,1.4,2.1c0,0,0,0,0,0c0,0,0,0.1,0,0.1c0,0,0,0,0-0.1c-0.2-1.3-1.1-1.8-1.8-1.9
			c-0.1,0-0.3,0-0.4,0.1c-0.1,0.1-0.1,0.1-0.1,0.2c0,0,0,0,0,0c0,0,0,0.1,0,0.1c0,0.7-0.4,1.3-1,1.7c-0.7,0.4-1.1,1-1.2,1.6
			c0,0,0,0.1,0,0.1c0,0.6,0.3,1.4,0.9,2.1c0.2,0.2,0.3,0.3,0.5,0.4l0.3,0.1c0.4,0.2,0.6,0.7,0.8,1.3l0.1,0.4
			c0.1,0.4,0.3,0.5,0.7,0.8l0.1,0c0.6,0.4,1,0.7,1.1,1.3c0,0,0,0,0,0c0,0,0,0,0,0c-0.2-0.6-0.8-1-1.4-1.2c-0.2-0.1-0.5-0.3-0.7-0.6
			l0-0.1c-0.2-0.4-0.4-0.9-0.7-1.3c-0.1-0.1-0.2-0.1-0.2-0.1c-0.1,0-0.2,0.1-0.3,0.2l-0.1,0.2l-0.2,0.5c-0.1,0.2-0.2,0.6-0.2,0.9
			c0,0.3,0.1,0.7,0.2,0.9l0.1,0.1c0.2,0.3,0.4,0.7,0.5,1.1c0,0,0,0,0,0.1c0,0,0,0,0-0.1c-0.1-0.3-0.4-0.7-0.7-1.2
			c-0.2-0.3-0.4-0.7-0.4-1.2c0-0.4,0.1-0.8,0.3-1.3c0.1-0.1,0.1-0.3,0.1-0.4c0-0.2-0.1-0.4-0.2-0.6l0,0c-0.2-0.3-0.4-0.5-0.7-1.1
			c-0.6-1-0.9-2.5,0.8-3.6c0.6-0.4,0.9-0.9,0.9-1.4c0-0.6-0.4-1.3-1.2-1.7c-0.6-0.4-1.1-1-1.5-1.8c-0.1-0.2-0.2-0.2-0.3-0.2
			c-0.1,0-0.2,0.1-0.2,0.3c0,0,0,0,0,0c0,0.1,0,0.1,0,0.2c0,0.6-0.3,1.2-0.7,1.5c-0.5,0.4-1,1.1-1.3,1.8c-0.1,0.3-0.1,0.5-0.1,0.8
			c0,0.1,0,0.2,0,0.4c0.1,0.4,0.4,1,0.7,1.4c0.3,0.4,0.5,0.9,0.5,1.2c0,0,0,0,0,0c0,0,0,0,0,0c0,0,0,0,0-0.1
			c-0.1-0.4-0.3-0.7-0.7-1.1c-0.3-0.4-0.7-1-0.8-1.5c0-0.1,0-0.1-0.1-0.2l0,0l0,0l-0.1-0.1l0,0c-0.1,0-0.1,0-0.2-0.1
			c-0.2,0-0.8,0.2-1,0.4c-0.3,0.2-0.5,0.5-0.5,0.8c0,0.1,0,0.3,0.1,0.5c0.3,0.8,0.5,1.5,0.6,2.2l0.1,0.4c0.1,0.3,0.2,0.4,0.3,0.5
			c0.5,0.1,1.7,0.5,2.4,1c0,0,0,0,0,0c0,0,0,0,0,0c-0.8-0.4-1.9-0.6-2.3-0.7c-0.1,0-0.2,0-0.2,0.1c0,0-0.1,0.1-0.1,0.2
			c0,0,0,0,0,0.1c0.2,0.9,0.8,2.4,1.3,3.3c0,0,0,0,0,0c0,0,0,0,0,0c-0.4-0.5-0.9-1.5-1.2-2.5c-0.3-0.7-0.6-1.8-0.7-2.5
			c-0.1-0.6-0.3-1-0.5-1.6l-0.1-0.3c-0.1-0.2-0.1-0.4-0.1-0.5c0-0.2,0.1-0.4,0.1-0.6c0.2-0.5,0.8-0.9,1.5-1.1
			c0.4-0.1,0.6-0.4,0.7-0.7c0.2-0.7,0.6-1.3,1.3-1.9c0.4-0.4,0.5-0.8,0.5-1.2l0,0c0-0.1,0-0.1,0-0.2c0-0.4-0.2-0.6-0.5-0.7
			c-1-0.4-1.7-0.8-2.3-1.7c-0.1-0.2-0.3-0.4-0.6-0.3c-0.4,0.1-0.9,0.4-1.1,0.6c-0.2,0.2-0.2,0.4-0.2,0.6c0,0,0,0.1,0,0.1l0,0.6
			l0,0.4c0,0,0,0.1,0,0.1c0,0.5-0.2,0.9-0.5,1.6c-0.1,0.2-0.2,0.5-0.2,0.8c0,0.1,0,0.1,0,0.2c0,0.2,0,0.5,0,0.7
			c0,0.7-0.1,1.4-0.6,1.9c0,0,0,0,0,0c0,0,0,0,0,0c0.3-0.5,0.4-1.1,0.4-1.6c0-0.3,0-0.7-0.1-1l0-0.2c0-0.1,0-0.1,0-0.2
			c0-0.3,0.1-0.6,0.1-0.8c0,0,0.1-0.2,0.1-0.2c0.1-0.2,0.2-0.4,0.2-0.6c0-0.1,0.1-0.3,0.1-0.5c0-0.2,0-0.5-0.1-0.8
			c0-0.2-0.1-0.3-0.2-0.4c-0.1-0.1-0.2-0.1-0.4,0c-1.3,0.4-2.4,1.2-3.2,2.3c0.7-1.5,2-2.3,3.1-2.7c0.2-0.1,0.5-0.2,0.7-0.4
			C-334.8,275.4-334.6,275.2-334.3,275L-334.3,275L-334.3,275L-334.3,275z M-332.3,274.3l-0.4,0.1c-0.6,0.1-1.2,0.3-1.7,0.6
			c0,0,0,0,0,0l0,0l0,0c-0.3,0.2-0.6,0.4-0.8,0.6c-0.2,0.2-0.4,0.3-0.6,0.4c-1.1,0.4-2.6,1.2-3.3,2.9c0,0.1,0,0.2,0.1,0.2
			c0.1,0,0.1,0,0.2-0.1c0.7-1.1,1.9-2,3.2-2.4c0.1,0,0.2,0,0.3,0c0.1,0.1,0.1,0.2,0.1,0.3c0.1,0.5,0.1,0.9,0,1.2
			c-0.1,0.2-0.1,0.4-0.2,0.6l-0.1,0.2c-0.1,0.2-0.2,0.7-0.1,1.1c0,0,0,0.2,0,0.2c0.1,0.7,0.2,1.6-0.3,2.5c-0.1,0.1,0,0.2,0,0.2
			c0.1,0,0.1,0,0.2,0c0.7-0.7,0.7-1.7,0.6-2.7c0-0.3,0-0.7,0.2-0.9c0.4-0.7,0.6-1.2,0.5-1.8c0,0,0-0.4,0-0.4l0-0.6
			c0-0.2,0-0.4,0.2-0.6c0.2-0.2,0.7-0.5,1-0.5c0.2,0,0.3,0.1,0.5,0.3c0.6,0.9,1.2,1.4,2.2,1.8c0.4,0.1,0.5,0.3,0.4,0.7l0,0
			c0,0.4-0.1,0.7-0.4,1c-0.7,0.6-1.1,1.3-1.3,2c-0.1,0.2-0.2,0.5-0.6,0.5c-0.8,0.2-1.3,0.6-1.6,1.2c-0.2,0.4-0.2,0.8-0.1,1.3
			l0.1,0.3c0.3,0.7,0.4,1,0.5,1.6c0.2,0.7,0.5,1.8,0.7,2.5c0.4,1.1,0.9,2,1.3,2.6c0.1,0.1,0.2,0.1,0.2,0.1c0.1,0,0.1-0.1,0-0.3
			c-0.5-0.9-1-2.4-1.2-3.3c0,0,0-0.1,0-0.1c0,0,0,0,0.1,0c0.4,0,1.5,0.3,2.2,0.7c0.1,0,0.2,0,0.2-0.1c0-0.1,0-0.2-0.1-0.2
			c-0.8-0.4-1.9-0.9-2.5-1c-0.1,0-0.2-0.2-0.2-0.3l-0.1-0.4c-0.1-0.7-0.3-1.4-0.6-2.2c-0.2-0.5-0.1-0.8,0.3-1.1
			c0.2-0.2,0.7-0.3,0.9-0.3c0,0,0.1,0,0.1,0c0,0,0.1,0.1,0.1,0.1c0,0,0,0.1,0.1,0.1c0.1,0.6,0.5,1.2,0.8,1.6
			c0.3,0.4,0.5,0.7,0.6,1.1c0.1,0.2,0.2,0.2,0.2,0.2c0,0,0.1,0,0.1-0.3c0-0.4-0.2-0.9-0.5-1.3c-0.3-0.4-0.6-1-0.7-1.4
			c-0.1-0.4,0-0.7,0.1-1.1c0.2-0.7,0.7-1.4,1.2-1.8c0.5-0.4,0.8-1.1,0.8-1.8c0-0.1,0-0.1,0.1-0.1c0,0,0,0,0.1,0.1
			c0.4,0.8,0.8,1.5,1.4,1.9c0.7,0.4,1.2,1,1.2,1.6c0,0.5-0.2,1-0.7,1.3c-1.8,1.1-1.4,2.7-0.9,3.8c0.3,0.6,0.5,0.8,0.7,1.1l0,0
			c0.2,0.3,0.2,0.5,0.1,0.8c-0.5,0.9-0.4,1.9,0.1,2.6c0.3,0.4,0.6,0.8,0.7,1.1c0.1,0.2,0.2,0.2,0.2,0.2c0.1,0,0.1-0.1,0.1-0.3
			c-0.1-0.4-0.4-0.9-0.5-1.2l-0.1-0.1c-0.3-0.5-0.2-1.3,0-1.7l0.2-0.5l0.1-0.2c0-0.1,0.1-0.1,0.1-0.1c0,0,0.1,0,0.1,0
			c0.3,0.3,0.6,0.9,0.7,1.2l0,0.1c0.2,0.4,0.5,0.6,0.7,0.7c0.5,0.2,1.1,0.6,1.3,1.1c0,0.1,0.1,0.2,0.2,0.1c0.1,0,0.1-0.1,0.1-0.2
			c-0.1-0.7-0.6-1-1.2-1.4l-0.1,0c-0.4-0.3-0.5-0.4-0.6-0.7c0,0-0.1-0.4-0.1-0.4c-0.2-0.6-0.4-1.1-0.9-1.3l-0.3-0.2
			c-0.2-0.1-0.4-0.2-0.5-0.3c-0.6-0.8-0.9-1.5-0.9-2.1c0-0.6,0.4-1.1,1.1-1.5c0.7-0.5,1.1-1.2,1.1-1.9c0-0.1,0-0.1,0.1-0.1
			c0.1,0,0.1-0.1,0.2,0c1,0.2,1.5,0.8,1.7,1.8c0,0.1,0.1,0.2,0.2,0.2c0.1,0,0.2-0.1,0.2-0.2c-0.1-0.5-0.2-1.7-1.5-2.2
			c-0.1-0.1-0.2-0.1-0.3-0.1c0,0-0.1,0-0.1,0c0,0-0.3-0.1-0.3-0.1c0,0-0.1,0-0.1,0c-0.2,0-0.3-0.1-0.4-0.2c-0.3-0.6-0.8-1-1.2-1.2
			c-0.4-0.3-0.8-0.8-1.1-1.3c-0.3-0.5-0.6-1-1.3-1c-1.1-0.1-1.9-0.5-2.5-1.3c0,0,0-0.1,0-0.1c0,0,0,0,0-0.1c0,0,0.1-0.1,0.2-0.1
			c1.5,0.1,2.4,0.4,3.2,1.1c0.6,0.5,1,1.1,1.3,1.6c0.7,1,1.7,1.1,2.6,1.1c1,0,1.7,0.3,2.3,1.8c0.4,1.1,0.4,2,0,2.7
			c-0.5,0.7-0.6,1.6-0.4,2.4c0.1,0.2,0.1,0.4,0.1,0.6c0,0.2,0,0.4,0.1,0.6c0.1,0.5,0.4,1,0.9,1.5c0.3,0.3,0.4,0.6,0.5,1
			c0.1,0.4,0.2,0.8,0.6,1.2c0.1,0.1,0.2,0.1,0.2,0c0.1,0,0.1-0.1,0-0.2c0,0-0.3-0.4-0.3-1c-0.1-0.6-0.3-1-0.5-1.2
			c-0.2-0.2-0.3-0.4-0.5-0.8c0-0.1,0-0.1,0-0.2c0,0,0.1,0,0.2,0c0.5,0.3,1.6,1.3,2,2.7c0,0.2,0.1,0.2,0.2,0.2c0.1,0,0.1-0.1,0.1-0.2
			c-0.1-1-0.8-2.3-1.8-3.2l0,0l0,0c-0.4-0.3-0.9-0.7-1-1.4c0-0.1,0-0.3,0-0.4c0-0.5,0.2-0.9,0.5-1.5c0.2-0.4,0.3-0.8,0.3-1.3
			c0-0.6-0.1-1.2-0.3-1.9c-0.3-1-0.8-1.6-1.5-1.9c0,0-0.1-0.2-0.1-0.2c-0.5-0.2-1-0.3-1.3-0.3l-0.1,0c-0.8,0-1.5,0-2-0.6l-0.2-0.2
			c-0.3-0.4-0.7-0.9-1.3-1.5c-0.2-0.2-0.5-0.4-0.8-0.6c0,0-0.1-0.1-0.3-0.2c-0.3-0.2-0.7-0.3-1.1-0.4c-0.1,0-0.3-0.1-0.4-0.1l0,0
			c0,0-0.4,0-0.4,0c0,0-0.5,0-0.5,0C-331.9,274.3-332.2,274.3-332.3,274.3L-332.3,274.3z"/>
		<path class="st4" d="M-333.9,288.8c-0.3-0.1-0.5-0.3-0.8-0.7c0,0-0.1-0.1-0.2-0.1c-0.2-0.1-0.5-0.6-0.6-0.7
			c-0.1-0.1-0.8-0.5-0.9-0.6c-0.7-0.2-0.9-0.9-1-1.1l0,0l0,0c-0.2-0.3-0.4-0.6-0.5-0.8l0,0c0,0-0.3-0.4-0.3-0.5c0,0,0,0,0,0
			c-0.1-0.1-0.3-0.3-0.3-0.1c0,0.1,0.1,0.4,0.2,0.5c0.1,0.1,0.3,0.5,0.4,0.7c0,0.1,0.3,0.6,0.4,0.7h0c0.2,0.4,0.4,0.7,0.6,1
			c0.2,0.4,0.3,0.6,0.4,1c0.1,0.5,0.3,1.2,0.6,1.6c0,0.1,0.1,0.1,0.1,0.1c0,0,0-0.1,0-0.1c-0.2-0.6-0.4-1.6-0.5-1.9
			c0-0.1,0-0.2,0-0.3c0.1,0,0.2,0,0.3,0.1c0.4,0.2,0.8,0.6,1.2,1c0.2,0.2,0.5,0.5,1,0.6c0.1,0,0.1,0,0.1,0c0,0,0,0,0,0
			C-333.8,289-333.8,288.8-333.9,288.8L-333.9,288.8z"/>
	</g>
	<path class="st2" d="M-313.8,282.1c0,8.8-7.2,16-16,16c-8.8,0-16-7.2-16-16c0-8.8,7.2-16,16-16C-321,266.1-313.8,273.2-313.8,282.1
		L-313.8,282.1z"/>
</g>
</svg>
